<svg width="30" height="31" viewBox="0 0 30 31" fill="none" xmlns="http://www.w3.org/2000/svg">
<path fill-rule="evenodd" clip-rule="evenodd" d="M13.3008 26.7994C20.5171 26.7994 26.3671 20.9494 26.3671 13.7331C26.3671 6.5167 20.5171 0.666683 13.3008 0.666683C6.08439 0.666683 0.234375 6.5167 0.234375 13.7331C0.234375 20.9494 6.08439 26.7994 13.3008 26.7994ZM13.3008 22.7514C18.2815 22.7514 22.3192 18.7138 22.3192 13.7331C22.3192 8.75236 18.2815 4.7147 13.3008 4.7147C8.32012 4.7147 4.28246 8.75236 4.28246 13.7331C4.28246 18.7138 8.32012 22.7514 13.3008 22.7514Z" fill="white"/>
<path fill-rule="evenodd" clip-rule="evenodd" d="M25.7771 29.6954L18.8596 22.7779L21.5771 20.0604L28.4946 26.9779C29.245 27.7283 29.245 28.945 28.4946 29.6954C27.7442 30.4458 26.5275 30.4458 25.7771 29.6954Z" fill="white"/>
</svg>
