<svg fill="none" height="73" viewBox="0 0 641 73" width="641" xmlns="http://www.w3.org/2000/svg"><path d="m624.206 8.52799 1.898-8.176 14.089 4.307-9.636 26.35301-11.096-2.993 2.263-9.198c-2.409-.949-7.592-3.723-16.279-3.723-10.439 0-18.907 7.592-18.907 16.79 0 10.074 8.03 16.352 18.907 16.352 12.921 0 20.805-5.767 24.528-8.249l5.621 9.563c-3.504 2.774-8.687 5.402-14.162 7.008-4.234 1.314-11.169 2.336-15.987 2.336-25.696 0-35.405-12.921-35.405-27.01 0-11.461 8.687-27.08301 35.405-27.08301 7.811 0 15.987 2.482 18.761 3.723z" fill="#dadada"/><path d="m521.228 38.312-.146 9.271 13.359-1.168v11.169c-8.03-.219-13.724-.584-19.929-.584-5.913 0-11.169.365-17.228.584v-11.169l10.512.876-1.095-30.149-9.417 2.555-1.46-11.82603c7.519-1.022 22.703-2.263 37.157-2.263 20.367 0 30.587 5.32903 30.587 16.27903 0 10.147-10.074 18.177-29.565 18.177-4.818 0-9.709-.876-12.775-1.752zm.365-22.192-.219 13.067c2.555.803 5.475 1.679 12.045 1.679 8.395 0 13.286-3.358 13.286-7.884 0-4.672-5.037-7.373-14.454-7.373-5.767 0-7.811.146-10.658.511z" fill="#dadada"/><path d="m467.855 15.682-10.658.876v-11.169c5.402.365 10.804.584 16.133.584 5.694 0 11.315-.219 16.644-.584v11.169l-9.928-.876-.292 40.077-12.848 2.847-33.799-37.157-.365 25.769 11.023-.876v11.242c-5.402-.365-10.804-.584-16.133-.584-5.694 0-11.388.219-16.644.584v-11.242l10.22.876-.292-30.733-9.125 2.117-1.752-11.753 23.944-2.409 34.31 37.303z" fill="#dadada"/><g fill="#6dd3ff"><path d="m348.036 72.768v-11.169l9.125.73c.657-10.585.219-21.9-.803-30.441l-7.446 2.92-2.555-11.826 23.652-3.358-.438 4.088c1.825-.949 6.789-2.993 13.724-2.993 11.388 0 19.199 7.227 19.199 17.155 0 12.191-8.541 20.075-20.732 20.075-5.11 0-11.388-2.701-12.483-3.942v8.395l12.556-.949v11.315c-4.088-.219-10.074-.438-16.206-.438s-12.264.219-17.593.438zm21.17-39.566v10.804c.949 1.314 4.38 3.942 9.271 3.942 5.913 0 9.49-3.358 9.49-9.344 0-4.891-3.066-8.468-9.782-8.468-4.453 0-6.935 1.825-8.979 3.066z"/><path d="m334.74 16.412-.511 17.374c-.438 15.33-11.315 25.112-28.616 25.112-17.374 0-28.178-9.855-28.616-25.112l-.511-17.374-9.052.876v-11.16898c5.84.219 10.658.584 16.571.584 6.205 0 11.534-.365 17.812-.584v11.16898l-10.585-.876v16.571c0 9.636 4.891 15.257 14.381 15.257 9.928 0 14.381-5.621 14.381-15.257v-16.571l-10.658.876v-11.16898c6.351.219 11.607.584 17.885.584 5.913 0 10.731-.365 16.571-.584v11.16898z"/><path d="m265.145 42.108h-33.653c.657 2.92 2.993 6.643 11.607 6.643 4.891 0 11.023-2.701 14.746-5.037l4.818 9.417c-3.504 2.117-11.826 5.329-22.557 5.329-13.286 0-23.871-7.227-23.871-19.199 0-12.41 10.804-18.834 24.09-18.834 16.498 0 24.893 9.125 24.966 18.396 0 1.095-.073 2.336-.146 3.285zm-33.799-6.132h20.148c-.438-2.92-3.796-6.497-10.22-6.497-6.351 0-9.271 3.65-9.928 6.497z"/><path d="m163.508 46.488-.73-31.682-7.446 2.993-2.628-11.82602 23.944-2.92-1.314 32.41202c5.11-5.84 19.126-15.403 28.908-14.892l4.745 10.877c-6.497.219-14.746 2.92-18.761 5.694l10.439 8.395 4.38-4.818 7.008 7.665-16.936 12.045c-6.57-8.322-10.22-12.118-15.695-16.79l-4.015 3.504.511 9.855h-21.389v-11.169z"/><path d="m141.381 47.364 6.57-2.263 2.555 11.972-21.973 2.482.438-6.935c-2.409 1.679-8.687 5.548-16.425 5.548-10.585 0-17.0089-4.745-17.0089-11.826s6.7889-11.242 19.4179-11.242c5.256 0 10.001 1.241 13.505 2.336v-1.022c0-2.993-2.117-6.205-9.198-6.205-6.935 0-12.483 2.701-15.914 5.256l-5.6209-9.709c4.3069-2.044 12.1909-5.548 22.1189-5.548 12.848 0 21.973 3.212 21.973 19.637 0 1.752-.219 5.913-.438 7.519zm-29.492-1.314c0 2.409 2.044 3.942 5.329 3.942 4.38 0 9.052-2.628 11.096-4.964-2.336-1.241-6.716-2.409-9.855-2.409-3.723 0-6.57 1.387-6.57 3.431z"/><path d="m76.9535 58.168-18.177.657-8.322-31.974-8.541 31.317-18.396.657-15.62203-42.267-7.8839954.73v-11.16898c4.9639954.292 10.2200254.584 15.6220254.584 5.183 0 10.439-.292 16.644-.584v11.16898l-8.541-.73 9.271 32.485 10.95-42.99698h14.308l11.023 42.92398 9.563-32.412-8.687.73v-11.16898c4.234.292 9.49.584 14.673.584 5.329 0 10.658-.292 15.6215-.584v11.16898l-7.9565-.73z"/></g></svg>