<svg width="624" height="64" viewBox="0 0 624 64" fill="none" xmlns="http://www.w3.org/2000/svg">
<path d="M0.0117134 14.9621C-0.230939 10.332 3.32578 6.38189 7.95587 6.13924L44.8434 4.20605C49.4735 3.9634 53.4236 7.52012 53.6662 12.1502L55.5994 49.0377C55.8421 53.6678 52.2854 57.6179 47.6553 57.8606L10.7678 59.7938C6.1377 60.0364 2.18756 56.4797 1.9449 51.8496L0.0117134 14.9621Z" fill="#6DD3FF"/>
<path d="M20.2788 23.765C20.3801 25.6976 18.8955 27.3464 16.963 27.4476C15.0304 27.5489 13.3816 26.0644 13.2804 24.1318C13.1791 22.1993 14.6636 20.5505 16.5962 20.4492C18.5287 20.3479 20.1775 21.8325 20.2788 23.765Z" fill="black"/>
<path d="M40.5179 22.7043C40.6191 24.6369 39.1346 26.2856 37.202 26.3869C35.2695 26.4882 33.6207 25.0036 33.5194 23.0711C33.4182 21.1385 34.9027 19.4898 36.8353 19.3885C38.7678 19.2872 40.4166 20.7718 40.5179 22.7043Z" fill="black"/>
<path d="M28.2457 26.023C28.8267 25.793 29.4819 26.0611 29.7382 26.6233L29.7616 26.6787L34.6191 38.9457C35.0296 39.9824 34.2068 41.0892 33.0957 40.9949L23.8983 40.2139C23.2556 40.1593 22.7788 39.5939 22.8334 38.9511C22.8881 38.3085 23.4531 37.8317 24.0958 37.8862L31.9509 38.553L27.5896 27.5389L27.569 27.4823C27.3709 26.897 27.6647 26.253 28.2457 26.023Z" fill="black"/>
<path d="M39.4108 45.465C40.0255 45.27 40.6819 45.6097 40.8772 46.2244C41.0673 46.8229 40.6478 47.5284 40.0638 47.708C39.9669 47.7378 39.7426 47.8051 39.4114 47.8958C38.9699 48.0167 38.3371 48.1791 37.5612 48.3487C36.0128 48.6873 33.8773 49.0588 31.5462 49.1809C29.2267 49.3025 26.4927 49.1885 24.3625 49.0479C23.2924 48.9773 22.3646 48.8993 21.7038 48.8388C21.3303 48.8047 20.9541 48.777 20.5823 48.7266C19.9722 48.6287 19.5395 48.0683 19.6071 47.4471C19.6819 46.761 20.3052 46.3505 20.9612 46.4194C21.2772 46.4526 22.6855 46.596 24.5164 46.7169C26.6198 46.8557 29.2443 46.9623 31.4239 46.848C33.5916 46.7344 35.5956 46.3875 37.062 46.0669C37.7934 45.9069 38.3869 45.7544 38.7947 45.6427C39.1748 45.5387 39.395 45.47 39.4108 45.465Z" fill="black"/>
<path d="M19.3924 42.6594C19.8746 43.0765 19.9143 43.8092 19.4814 44.2965L19.4822 44.296L19.4832 44.295C19.4776 44.3014 19.2208 44.5971 18.9284 45.0576C18.6093 45.5602 18.2723 46.2178 18.1121 46.9151C17.9526 47.6098 17.9758 48.3136 18.0492 48.8649C18.087 49.149 18.1944 49.4306 18.2223 49.7126C18.4189 50.3191 18.0778 50.9801 17.4599 51.1893C16.9323 51.3679 16.1523 50.9871 15.9845 50.4692L15.9838 50.4672L15.9827 50.4641C15.9819 50.4618 15.9811 50.4589 15.9801 50.4558C15.9505 50.3617 15.8107 49.9013 15.7203 49.2219C15.6251 48.5068 15.5802 47.5067 15.8224 46.4519C16.0641 45.3998 16.5474 44.4865 16.948 43.8556C17.1513 43.5354 17.341 43.2759 17.4823 43.0937C17.5512 43.0048 17.6361 42.8495 17.7338 42.7865C18.1037 42.3704 18.9805 42.3031 19.3924 42.6594ZM18.2223 49.7126L18.223 49.7143L18.2235 49.7154L18.2236 49.7166C18.2236 49.7166 18.2231 49.7151 18.2223 49.7126Z" fill="black"/>
<path d="M31.0421 15.8242C31.2346 16.4334 31.8909 16.7593 32.5081 16.552C35.0317 15.7045 37.6859 15.3571 39.9244 15.4725C42.2292 15.5914 43.8334 16.184 44.5451 16.9388L44.587 16.9811C45.0279 17.4025 45.7376 17.4014 46.1994 16.9687C46.6762 16.522 46.7086 15.7844 46.272 15.3212L46.1444 15.1913C44.7978 13.8747 42.5077 13.2692 40.1052 13.1453C37.5587 13.014 34.6072 13.4068 31.8113 14.3459C31.1941 14.5532 30.8497 15.215 31.0421 15.8242Z" fill="black"/>
<path d="M7.89753 19.3972C7.20519 19.2095 7.08866 18.601 7.31111 17.9484C7.3519 17.8288 7.41271 17.6665 7.49894 17.4735C7.67113 17.0881 7.94741 16.5733 8.37196 16.0237C9.22965 14.9134 10.6772 13.6845 13.0207 13.0874C15.3789 12.4866 18.5283 12.942 20.9217 13.4659C22.1763 13.7405 23.2896 14.05 24.0796 14.2868C24.0926 14.1442 24.0987 14.0037 24.0939 13.8725C24.0806 13.5035 24.0591 13.1337 24.005 12.7681C23.8794 12.1362 24.2854 11.5338 24.9151 11.4206C25.5472 11.3071 26.165 11.7295 26.2954 12.364C26.4259 12.9986 26.4297 13.2669 26.4295 13.8493C26.4293 14.4694 26.3601 15.0223 26.2765 15.4297C26.1919 15.8424 26.1034 16.1284 26.0928 16.1623C26.0668 16.1557 26.0673 16.1547 26.0925 16.1637C25.9012 16.7741 25.2465 17.101 24.6301 16.894C24.2204 16.7564 23.8134 16.6166 23.3987 16.4927C22.6533 16.2701 21.6187 15.9843 20.4621 15.7312C18.0821 15.2103 15.426 14.8845 13.6563 15.3354C11.8722 15.79 10.8414 16.6956 10.2531 17.4571C9.9549 17.8433 9.76602 18.199 9.65398 18.4498C9.3525 19.1247 8.58987 19.5849 7.89753 19.3972Z" fill="black"/>
<path d="M552.455 8.00384L545.206 27.8264L536.86 25.5754L538.562 18.6561C536.75 17.9421 532.851 15.8556 526.317 15.8556C518.465 15.8557 512.095 21.5669 512.095 28.4857C512.095 36.0633 518.135 40.7851 526.317 40.7851C536.036 40.7851 541.967 36.4474 544.768 34.5804L548.995 41.774C546.36 43.8606 542.46 45.8371 538.342 47.0452C535.157 48.0335 529.941 48.8022 526.317 48.8022C506.988 48.8022 499.685 39.0834 499.685 28.4857C499.685 19.8646 506.219 8.11373 526.317 8.11371C532.192 8.11371 538.342 9.98061 540.429 10.9141L541.857 4.76392L552.455 8.00384Z" fill="#DADADA"/>
<path d="M423.15 35.898L422.821 16.2952L414.804 16.9544V8.55222C418.867 8.82677 422.93 8.99174 426.939 8.99174C431.222 8.99174 435.451 8.82678 439.459 8.55222V16.9544L431.99 16.2952L431.772 46.4413L422.106 48.5825L396.683 20.6329L396.409 40.0169L404.7 39.3577V47.8143C400.637 47.5398 396.573 47.3748 392.565 47.3748C388.282 47.3748 383.998 47.5398 380.045 47.8143V39.3577L387.732 40.0169L387.513 16.899L380.649 18.4917L379.331 9.65101L397.342 7.83851L423.15 35.898Z" fill="#DADADA"/>
<path fill-rule="evenodd" clip-rule="evenodd" d="M471.81 8.71754C487.13 8.71754 494.818 12.7258 494.818 20.9625C494.818 28.5951 487.24 34.6348 472.579 34.6349C468.955 34.6349 465.275 33.9763 462.969 33.3173L462.859 40.2911L472.909 39.4121V47.8143C466.869 47.6496 462.585 47.3748 457.918 47.3748C453.47 47.3748 449.516 47.6496 444.958 47.8143V39.4121L452.865 40.0714L452.042 17.3929L444.958 19.3153L443.86 10.4192C449.516 9.65041 460.938 8.71755 471.81 8.71754ZM471.26 16.2397C466.923 16.2397 465.386 16.3503 463.244 16.6248L463.079 26.4534C465.001 27.0575 467.198 27.7165 472.14 27.7165C478.454 27.7165 482.133 25.1906 482.133 21.7861C482.133 18.2718 478.344 16.2397 471.26 16.2397Z" fill="#DADADA"/>
<path fill-rule="evenodd" clip-rule="evenodd" d="M348.892 22.3362C350.265 21.6223 354 20.0842 359.216 20.0842C367.781 20.0846 373.657 25.5209 373.657 32.9884C373.657 42.1584 367.232 48.0889 358.062 48.0892C354.219 48.0892 349.496 46.0571 348.672 45.1235V51.439L358.117 50.7253V59.2364C355.042 59.0717 350.539 58.9068 345.926 58.9068C341.314 58.9068 336.702 59.0717 332.694 59.2364V50.8352L339.557 51.3836C340.052 43.4216 339.722 34.9099 338.954 28.4854L333.352 30.682L331.43 21.7868L349.222 19.2606L348.892 22.3362ZM355.372 27.1679C352.023 27.1679 350.155 28.5408 348.618 29.4743V37.6013C349.332 38.5899 351.912 40.5659 355.591 40.5661C360.038 40.5659 362.73 38.0403 362.73 33.5378C362.73 29.859 360.423 27.1682 355.372 27.1679Z" fill="#6DD3FF"/>
<path d="M202.785 31.1769C206.629 26.784 217.172 19.59 224.53 19.9743L228.1 28.1568C223.213 28.3215 217.007 30.3525 213.987 32.439L221.84 38.7546L225.134 35.1306L230.405 40.8957L217.666 49.9562C212.724 43.6964 209.979 40.8404 205.861 37.3261L202.841 39.9622L203.225 47.3755H187.136V38.9743L193.89 39.4683L193.341 15.6366L187.74 17.8876L185.763 8.99247L203.774 6.7959L202.785 31.1769Z" fill="#6DD3FF"/>
<path fill-rule="evenodd" clip-rule="evenodd" d="M161.047 19.7001C170.711 19.7002 177.576 22.1166 177.576 34.4713C177.576 35.7891 177.411 38.9194 177.246 40.1276L182.188 38.4249L184.11 47.43L167.582 49.2969L167.911 44.0812C166.099 45.3441 161.377 48.2534 155.556 48.2536C147.594 48.2536 142.762 44.6848 142.762 39.3584C142.762 34.0322 147.869 30.9018 157.368 30.9017C161.321 30.9018 164.892 31.8352 167.527 32.6588V31.8907C167.527 29.6394 165.934 27.2234 160.608 27.2233C155.392 27.2234 151.218 29.2551 148.637 31.1769L144.409 23.8735C147.649 22.336 153.58 19.7001 161.047 19.7001ZM160.004 36.558C157.204 36.558 155.063 37.6013 155.062 39.1386C155.062 40.9507 156.6 42.1044 159.071 42.1044C162.365 42.1042 165.88 40.1276 167.417 38.3705C165.66 37.4371 162.365 36.5581 160.004 36.558Z" fill="#6DD3FF"/>
<path d="M329.5 17.5036L322.691 16.8443L322.306 29.9138C321.977 41.4448 313.795 48.8028 300.781 48.803C287.713 48.8028 279.586 41.3899 279.256 29.9138L278.872 16.8443L272.063 17.5036V9.10235C276.456 9.26709 280.081 9.54086 284.528 9.54086C289.195 9.54083 293.204 9.26708 297.926 9.10235V17.5036L289.964 16.8443V29.309C289.964 36.5572 293.643 40.7857 300.781 40.7858C308.249 40.7857 311.599 36.5571 311.599 29.309V16.8443L303.582 17.5036V9.10235C308.359 9.26709 312.313 9.54086 317.035 9.54086C321.483 9.54084 325.107 9.26708 329.5 9.10235V17.5036Z" fill="#6DD3FF"/>
<path d="M123.017 41.3352L130.211 16.9542L123.676 17.5036V9.10235C126.861 9.32199 130.815 9.54187 134.714 9.54187C138.722 9.54185 142.731 9.32199 146.465 9.10235V17.5036L140.479 16.9542L128.783 48.2536L115.11 48.7485L108.851 24.6971L102.425 48.2536L88.5887 48.7485L76.8377 16.9542L70.9072 17.5036V9.10235C74.641 9.32198 78.5951 9.54187 82.6582 9.54187C86.5566 9.54184 90.5103 9.32198 95.1774 9.10235V17.5036L88.753 16.9542L95.7268 41.3896L103.964 9.04691H114.726L123.017 41.3352Z" fill="#6DD3FF"/>
<path fill-rule="evenodd" clip-rule="evenodd" d="M251.673 19.8644C264.083 19.8646 270.399 26.7286 270.454 33.7021C270.454 34.5256 270.399 35.4591 270.344 36.1729H245.029C245.523 38.3693 247.281 41.1699 253.76 41.1699C257.439 41.1698 262.051 39.1386 264.852 37.3816L268.477 44.4653C265.841 46.0576 259.581 48.4732 251.509 48.4733C241.515 48.4733 233.552 43.0372 233.552 34.0318C233.552 24.697 241.68 19.8645 251.673 19.8644ZM252.387 26.6739C247.61 26.674 245.414 29.4196 244.919 31.561H260.075C259.745 29.3646 257.219 26.6741 252.387 26.6739Z" fill="#6DD3FF"/>
<path d="M569.695 12.1502C569.938 7.52012 573.888 3.9634 578.518 4.20605L615.405 6.13924C620.035 6.3819 623.592 10.332 623.349 14.9621L621.416 51.8496C621.174 56.4797 617.223 60.0364 612.593 59.7938L575.706 57.8606C571.076 57.6179 567.519 53.6678 567.762 49.0377L569.695 12.1502Z" fill="#DADADA"/>
<path d="M589.878 21.6981C589.778 23.6049 588.152 25.0697 586.245 24.9698C584.338 24.8698 582.873 23.2431 582.973 21.3363C583.073 19.4295 584.7 17.9647 586.607 18.0646C588.514 18.1646 589.978 19.7913 589.878 21.6981Z" fill="black"/>
<path d="M610.432 22.3051C610.332 24.2119 608.705 25.6766 606.799 25.5767C604.892 25.4768 603.427 23.85 603.527 21.9432C603.627 20.0364 605.254 18.5717 607.16 18.6716C609.067 18.7715 610.532 20.3983 610.432 22.3051Z" fill="black"/>
<path d="M596.545 24.8507C597.155 24.6689 597.797 25.0158 597.979 25.6257L601.557 37.6328C601.875 38.6968 600.952 39.7188 599.861 39.5118L590.79 37.7907L590.732 37.7779C590.14 37.634 589.758 37.0493 589.873 36.4435C589.988 35.8377 590.557 35.4333 591.161 35.5166L591.22 35.5262L598.962 36.9949L595.77 26.2844C595.588 25.6745 595.935 25.0325 596.545 24.8507Z" fill="black"/>
<path d="M604.733 46.5458L604.791 46.5507C605.398 46.6133 605.855 47.1413 605.823 47.7571C605.791 48.3729 605.281 48.8502 604.671 48.8491L604.612 48.8478L585.541 47.8483C584.905 47.815 584.417 47.2726 584.45 46.637C584.483 46.0014 585.026 45.513 585.661 45.5463L604.733 46.5458Z" fill="black"/>
</svg>
