<svg xmlns="http://www.w3.org/2000/svg" width="550" height="72" fill="none" viewBox="0 0 550 72">
  <path fill="#6DD3FF"
    d="M5.44 14.134C5.132 8.288 9.622 3.3 15.468 2.995L62.037.555C67.882.248 72.87 4.738 73.176 10.584l2.44 46.568c.306 5.845-4.184 10.832-10.03 11.139l-46.568 2.44c-5.845.306-10.832-4.184-11.138-10.029L5.44 14.134Z" />
  <circle cx="26.609" cy="25.478" r="4.424" fill="#000" transform="rotate(-3 26.609 25.478)" />
  <circle cx="52.159" cy="24.139" r="4.424" fill="#000" transform="rotate(-3 52.16 24.14)" />
  <path fill="#000"
    d="M41.084 28.097a1.476 1.476 0 0 1 1.885.758l.03.07 6.132 15.487a1.896 1.896 0 0 1-1.924 2.587l-11.61-.986a1.475 1.475 0 0 1 .248-2.939l9.917.842-5.506-13.905-.026-.071c-.25-.74.121-1.552.855-1.843ZM55.18 52.642a1.474 1.474 0 0 1 1.85.959c.24.755-.289 1.646-1.026 1.873-.122.037-.405.122-.824.237-.557.152-1.356.357-2.335.572-1.955.427-4.651.896-7.594 1.05-2.928.154-6.38.01-9.069-.168-1.35-.089-2.522-.187-3.356-.264-.472-.043-.947-.078-1.416-.141a1.475 1.475 0 0 1-1.231-1.616c.094-.866.88-1.384 1.709-1.297.399.042 2.177.223 4.488.375 2.656.176 5.969.31 8.72.166 2.737-.143 5.267-.581 7.118-.986a43.687 43.687 0 0 0 2.188-.536c.48-.13.757-.218.777-.224ZM29.907 49.1c.609.527.659 1.452.112 2.067h.001l.002-.002a8.678 8.678 0 0 0-.7.963c-.404.634-.829 1.464-1.031 2.345-.202.877-.172 1.765-.08 2.461.048.359.184.714.219 1.07.248.766-.183 1.6-.963 1.865-.666.225-1.65-.256-1.862-.91l-.001-.002-.002-.004-.003-.01a9.625 9.625 0 0 1-.328-1.558c-.12-.903-.177-2.165.13-3.497.304-1.328.914-2.481 1.42-3.278.257-.404.496-.732.675-.962.087-.112.194-.308.317-.387.467-.526 1.574-.61 2.094-.16Zm-1.477 8.904v.003l.001.001v.001l-.001-.005Zm16.184-42.782a1.443 1.443 0 0 0 1.85.919c3.187-1.07 6.537-1.509 9.363-1.363 2.91.15 4.935.898 5.834 1.851l.053.053c.556.533 1.452.531 2.035-.015.602-.564.643-1.495.092-2.08l-.161-.164c-1.7-1.662-4.591-2.427-7.624-2.583-3.215-.166-6.941.33-10.47 1.516-.78.261-1.215 1.097-.972 1.866Zm-29.218 4.511c-.874-.237-1.022-1.005-.74-1.83a7.11 7.11 0 0 1 .236-.599 9.067 9.067 0 0 1 1.103-1.83c1.082-1.402 2.91-2.953 5.868-3.707 2.977-.758 6.953-.184 9.975.478 1.584.346 2.99.737 3.987 1.036.016-.18.024-.357.018-.523a12.653 12.653 0 0 0-.113-1.394 1.431 1.431 0 0 1 1.15-1.701 1.52 1.52 0 0 1 1.742 1.19c.165.802.17 1.14.17 1.876a9.93 9.93 0 0 1-.426 2.92c-.033-.007-.032-.01 0 .002a1.439 1.439 0 0 1-1.846.922c-.518-.174-1.031-.35-1.555-.507a52.087 52.087 0 0 0-3.707-.961c-3.005-.658-6.358-1.07-8.592-.5-2.253.574-3.554 1.717-4.297 2.678a6.225 6.225 0 0 0-.756 1.254c-.38.852-1.343 1.433-2.217 1.196Z" />
  <path fill="#DADADA"
    d="m459.167 4.997-5.549 15.177-6.391-1.724 1.304-5.297c-1.388-.546-4.373-2.144-9.375-2.145-6.012 0-10.89 4.373-10.89 9.67 0 5.802 4.626 9.418 10.89 9.418 7.441 0 11.981-3.322 14.125-4.752l3.237 5.508c-2.018 1.598-5.002 3.112-8.155 4.036-2.438.757-6.433 1.345-9.207 1.345-14.799 0-20.391-7.44-20.391-15.554 0-6.601 5.004-15.598 20.391-15.598 4.498 0 9.206 1.43 10.803 2.144l1.094-4.709 8.114 2.48Zm-99 21.357-.251-15.008-6.138.503V5.417c3.111.21 6.222.337 9.291.337 3.279 0 6.516-.127 9.585-.337v6.432l-5.718-.504-.168 23.08-7.399 1.64-19.465-21.398-.21 14.84 6.348-.504v6.473c-3.111-.21-6.223-.336-9.292-.336-3.279 0-6.558.126-9.584.336v-6.473l5.885.504-.168-17.7-5.256 1.22-1.008-6.77 13.79-1.386 19.758 21.483Zm37.255-20.811c11.73 0 17.616 3.07 17.616 9.376-.001 5.843-5.802 10.468-17.027 10.468-2.774 0-5.591-.505-7.357-1.01l-.084 5.34 7.693-.672v6.431c-4.624-.126-7.903-.336-11.476-.336-3.406 0-6.433.21-9.922.336v-6.431l6.053.504-.63-17.364-5.423 1.472-.841-6.81c4.33-.59 13.074-1.304 21.398-1.304Zm-.42 5.76c-3.321 0-4.499.084-6.138.294l-.126 7.526c1.471.462 3.154.967 6.937.967 4.835 0 7.652-1.935 7.652-4.541-.001-2.69-2.902-4.246-8.325-4.246Z" />
  <path fill="#6DD3FF"
    d="M303.313 15.97c1.052-.547 3.91-1.724 7.904-1.724 6.558 0 11.056 4.162 11.056 9.88 0 7.02-4.918 11.561-11.939 11.561-2.942 0-6.557-1.556-7.188-2.27v4.834l7.23-.546v6.516a182.372 182.372 0 0 0-9.333-.253c-3.531 0-7.063.127-10.132.253V37.79l5.255.42c.378-6.095.127-12.612-.462-17.53l-4.289 1.68-1.471-6.81 13.621-1.934-.252 2.354ZM191.45 22.737c2.943-3.363 11.015-8.87 16.649-8.576l2.732 6.264c-3.742.126-8.492 1.681-10.805 3.279l6.012 4.835 2.523-2.775 4.036 4.414-9.753 6.938c-3.784-4.793-5.886-6.98-9.039-9.67l-2.313 2.017.294 5.676h-12.317v-6.433l5.171.38-.421-18.247-4.288 1.724-1.514-6.81 13.79-1.682-.757 18.666Zm-31.956-8.786c7.399 0 12.654 1.85 12.654 11.31 0 1.008-.125 3.404-.252 4.33l3.785-1.304 1.47 6.894-12.654 1.43.252-3.994c-1.387.967-5.003 3.195-9.459 3.195-6.096 0-9.796-2.733-9.796-6.81 0-4.079 3.911-6.475 11.184-6.475 3.027 0 5.759.715 7.777 1.346v-.59c0-1.723-1.219-3.572-5.297-3.573-3.994 0-7.189 1.556-9.165 3.028l-3.237-5.592c2.48-1.177 7.021-3.195 12.738-3.195Zm128.973-1.683-5.213-.504-.295 10.006c-.252 8.828-6.516 14.462-16.48 14.462-10.005 0-16.228-5.675-16.48-14.462l-.295-10.006-5.213.504V5.837c3.364.127 6.139.336 9.544.336 3.574 0 6.643-.21 10.258-.336v6.432l-6.096-.504v9.543c0 5.55 2.817 8.787 8.282 8.787 5.718 0 8.282-3.238 8.282-8.787v-9.543l-6.138.504V5.837c3.657.127 6.684.336 10.3.336 3.405 0 6.18-.21 9.544-.336v6.432ZM130.378 30.516l5.507-18.667-5.003.421V5.837c2.438.169 5.465.336 8.45.336 3.069 0 6.138-.167 8.997-.336v6.433l-4.582-.42-8.955 23.963-10.469.378-4.792-18.414-4.919 18.036-10.594.378-8.998-24.342-4.54.421V5.837c2.86.169 5.886.336 8.998.336 2.984 0 6.011-.167 9.584-.336v6.433l-4.918-.42 5.339 18.708 6.306-24.763h8.24l6.349 24.721Zm98.501-16.438c9.501 0 14.336 5.255 14.378 10.594 0 .63-.042 1.345-.084 1.892h-19.381c.378 1.682 1.724 3.826 6.685 3.826 2.816 0 6.348-1.556 8.492-2.901l2.775 5.424c-2.018 1.219-6.811 3.068-12.991 3.068-7.652 0-13.747-4.162-13.747-11.057 0-7.147 6.221-10.846 13.873-10.846Zm-70.184 12.78c-2.144 0-3.783.8-3.783 1.976 0 1.388 1.177 2.27 3.068 2.271 2.523 0 5.214-1.514 6.391-2.86-1.345-.714-3.868-1.387-5.676-1.387Zm149.579-7.19c-2.564 0-3.994 1.052-5.171 1.767v6.222c.546.756 2.523 2.27 5.339 2.27 3.406 0 5.465-1.934 5.465-5.382 0-2.816-1.765-4.876-5.633-4.877Zm-78.848-.377c-3.658 0-5.34 2.102-5.718 3.742h11.604c-.253-1.682-2.187-3.742-5.886-3.742Z" />
  <path fill="#fff"
    d="M185.464 54.845c.596 0 1.144.138 1.642.415.499.264.888.667 1.167 1.208h.019V55.07h1.46v8.925c0 1.598-.353 2.793-1.059 3.585-.705.793-1.812 1.188-3.321 1.188a6.39 6.39 0 0 1-1.351-.15 4.163 4.163 0 0 1-1.24-.49 2.968 2.968 0 0 1-.913-.888c-.243-.364-.377-.81-.401-1.339h1.552c.012.29.096.535.254.736.171.201.372.365.603.49.243.127.505.214.784.265.28.063.548.094.804.094.511 0 .942-.094 1.295-.283.353-.176.645-.428.876-.755.231-.314.396-.698.493-1.151.109-.453.164-.95.164-1.49v-.642h-.036c-.268.604-.675 1.05-1.223 1.34a3.682 3.682 0 0 1-1.716.415c-.705 0-1.319-.133-1.842-.397a3.927 3.927 0 0 1-1.315-1.056 4.856 4.856 0 0 1-.803-1.567 6.997 6.997 0 0 1-.254-1.905c0-.579.072-1.17.218-1.773.146-.617.389-1.17.73-1.66a3.92 3.92 0 0 1 1.35-1.227c.56-.327 1.248-.491 2.063-.491Zm-45.959 8.208h.037l2.646-7.982h1.642l-4.106 11.057a9.504 9.504 0 0 1-.547 1.208 2.867 2.867 0 0 1-.584.793 1.74 1.74 0 0 1-.712.452 2.45 2.45 0 0 1-.895.151c-.182 0-.364-.013-.547-.038a2.51 2.51 0 0 1-.529-.132v-1.471c.134.063.286.113.456.15.183.05.335.076.456.076.317 0 .579-.081.785-.245.219-.15.383-.371.493-.66l.638-1.643-3.74-9.698h1.752l2.755 7.982Zm300.81 0h.037l2.646-7.982h1.643l-4.107 11.057a9.237 9.237 0 0 1-.547 1.208c-.17.327-.365.592-.584.793a1.728 1.728 0 0 1-.712.452 2.44 2.44 0 0 1-.894.151c-.182 0-.365-.013-.547-.038a2.517 2.517 0 0 1-.529-.132v-1.471c.133.063.286.113.456.15.182.05.334.076.456.076.316 0 .578-.081.785-.245.219-.15.383-.372.492-.66l.639-1.643-3.741-9.698h1.752l2.755 7.982ZM121.51 54.845c.839 0 1.532.183 2.08.548a4.01 4.01 0 0 1 1.332 1.358 5.25 5.25 0 0 1 .693 1.812c.134.653.19 1.276.165 1.867h-7.062c-.012.427.036.836.145 1.226.11.378.286.718.53 1.02.243.29.553.522.93.698.377.176.821.264 1.332.264.657 0 1.193-.157 1.607-.472.425-.314.705-.792.839-1.434h1.533c-.207 1.095-.663 1.919-1.368 2.472-.706.554-1.595.83-2.665.83-.755 0-1.412-.126-1.971-.378a3.9 3.9 0 0 1-1.387-1.056 4.639 4.639 0 0 1-.857-1.623 8.352 8.352 0 0 1-.311-2.056c0-.742.109-1.422.328-2.038.219-.617.524-1.15.913-1.604.402-.453.87-.805 1.406-1.056a4.229 4.229 0 0 1 1.788-.378Zm100.591 0c.839 0 1.532.183 2.08.548a4.01 4.01 0 0 1 1.332 1.358 5.27 5.27 0 0 1 .693 1.812c.134.653.189 1.276.165 1.867h-7.062a4.07 4.07 0 0 0 .145 1.226c.11.378.286.718.529 1.02.244.29.554.522.931.698.377.176.821.264 1.332.264.657 0 1.193-.157 1.607-.472.425-.314.705-.792.838-1.434h1.534c-.207 1.095-.663 1.919-1.369 2.472-.705.554-1.594.83-2.665.83-.754 0-1.411-.126-1.97-.378a3.892 3.892 0 0 1-1.387-1.056 4.639 4.639 0 0 1-.857-1.623 8.305 8.305 0 0 1-.311-2.056c0-.742.109-1.422.328-2.038.219-.617.524-1.15.913-1.604.402-.453.87-.805 1.405-1.056a4.235 4.235 0 0 1 1.789-.378Zm28.852 0c.84 0 1.534.183 2.081.548.56.352 1.004.805 1.332 1.358a5.26 5.26 0 0 1 .694 1.812c.133.653.188 1.276.164 1.867h-7.063c-.012.427.037.836.147 1.226.109.378.286.718.529 1.02.243.289.554.522.931.698.377.176.821.264 1.332.264.656 0 1.191-.158 1.605-.472.426-.314.706-.792.84-1.434h1.533c-.207 1.095-.663 1.919-1.369 2.472-.706.553-1.594.83-2.664.83-.754 0-1.411-.126-1.971-.378a3.896 3.896 0 0 1-1.386-1.056 4.642 4.642 0 0 1-.859-1.623 8.354 8.354 0 0 1-.309-2.056c0-.742.109-1.422.328-2.038a5.02 5.02 0 0 1 .912-1.604 4.3 4.3 0 0 1 1.405-1.056 4.232 4.232 0 0 1 1.788-.378Zm38.326 0c.754 0 1.411.132 1.971.396.572.264 1.053.63 1.442 1.095.39.453.682.993.876 1.622.195.616.292 1.283.292 2 0 .717-.097 1.384-.292 2a4.689 4.689 0 0 1-.876 1.623c-.389.453-.87.811-1.442 1.075-.56.252-1.217.378-1.971.378-.742 0-1.399-.126-1.97-.378a4.186 4.186 0 0 1-1.442-1.075 4.722 4.722 0 0 1-.876-1.623 6.629 6.629 0 0 1-.292-2c0-.717.098-1.384.292-2a4.5 4.5 0 0 1 .876-1.622c.389-.465.87-.83 1.442-1.095.571-.264 1.228-.396 1.97-.396Zm9.239 6.83c0 .604.17 1.082.51 1.434.341.353.809.529 1.406.529.474 0 .882-.076 1.222-.227.353-.15.645-.365.876-.642.231-.276.401-.597.511-.961.122-.378.183-.787.183-1.227v-5.51h1.55v9.755h-1.46V63.28h-.036c-.328.604-.748 1.05-1.259 1.34-.51.277-1.113.415-1.806.415-.621 0-1.138-.081-1.552-.245a2.562 2.562 0 0 1-1.003-.736 2.882 2.882 0 0 1-.548-1.113 6.76 6.76 0 0 1-.146-1.454v-6.415h1.552v6.605Zm13.807-6.83c.535 0 1.035.07 1.497.208a3.39 3.39 0 0 1 1.24.603c.365.277.664.63.895 1.057.231.415.378.912.439 1.49h-1.607c-.122-.616-.377-1.094-.767-1.434-.389-.339-.912-.51-1.569-.51-.559 0-1.028.108-1.405.322a2.615 2.615 0 0 0-.912.849 3.754 3.754 0 0 0-.475 1.226 6.74 6.74 0 0 0-.145 1.415c0 .453.048.894.145 1.322.11.427.274.81.493 1.15.219.327.505.592.858.793.352.201.772.302 1.259.302.766 0 1.363-.208 1.789-.623.437-.415.705-1 .802-1.754h1.588c-.17 1.207-.609 2.138-1.314 2.792-.694.654-1.643.981-2.847.981-.718 0-1.356-.12-1.916-.358a3.807 3.807 0 0 1-1.387-1.02 4.67 4.67 0 0 1-.84-1.565 7.11 7.11 0 0 1-.273-2.02 7.3 7.3 0 0 1 .273-2.037 4.788 4.788 0 0 1 .822-1.661c.377-.478.845-.85 1.405-1.113.56-.277 1.21-.415 1.952-.415Zm22.479 0c.839 0 1.533.183 2.081.548a4.012 4.012 0 0 1 1.332 1.358 5.25 5.25 0 0 1 .693 1.812c.134.653.189 1.276.164 1.867h-7.062c-.012.427.037.836.146 1.226.11.378.286.718.53 1.02.243.289.553.522.93.698.377.176.821.264 1.332.264.657 0 1.192-.158 1.606-.472.425-.314.706-.792.84-1.434h1.533c-.207 1.095-.664 1.919-1.369 2.472-.706.553-1.594.83-2.664.83-.755 0-1.412-.126-1.971-.378a3.894 3.894 0 0 1-1.388-1.056 4.64 4.64 0 0 1-.857-1.623 8.305 8.305 0 0 1-.311-2.056c0-.742.11-1.422.329-2.038a5.02 5.02 0 0 1 .912-1.604c.402-.453.87-.805 1.406-1.056a4.229 4.229 0 0 1 1.788-.378Zm10.276 0c.535 0 1.028.05 1.479.151a3.06 3.06 0 0 1 1.185.49c.353.227.633.541.84.944.207.39.329.88.365 1.471h-1.552c-.024-.314-.103-.572-.237-.773a1.546 1.546 0 0 0-.511-.51 2.1 2.1 0 0 0-.693-.264 2.977 2.977 0 0 0-.748-.094c-.231 0-.469.019-.712.056a2.134 2.134 0 0 0-.639.208 1.19 1.19 0 0 0-.474.377c-.122.151-.183.353-.183.605 0 .276.092.508.275.697.194.176.437.328.729.453.292.113.621.214.985.302.365.075.73.158 1.095.246.389.088.767.195 1.132.32.377.126.706.296.985.51.292.201.523.46.694.774.182.314.273.704.273 1.17 0 .59-.121 1.081-.364 1.471-.231.39-.542.705-.931.944a3.584 3.584 0 0 1-1.296.49c-.474.1-.949.151-1.423.151a6.444 6.444 0 0 1-1.497-.17 3.715 3.715 0 0 1-1.258-.547 2.92 2.92 0 0 1-.876-1.02c-.219-.427-.341-.942-.366-1.546h1.551c.012.352.092.654.238.905.145.24.335.434.566.585.243.139.511.24.803.302.304.063.614.095.93.095.244 0 .499-.02.767-.057.267-.038.511-.107.729-.207.232-.1.42-.246.566-.434.146-.202.22-.453.22-.755-.001-.415-.153-.73-.457-.944-.305-.213-.688-.383-1.15-.509-.45-.138-.942-.258-1.477-.359a8.715 8.715 0 0 1-1.497-.452 3.193 3.193 0 0 1-1.131-.83c-.304-.352-.456-.843-.456-1.472 0-.49.102-.912.309-1.264.219-.353.493-.635.821-.85a3.55 3.55 0 0 1 1.132-.49c.426-.114.846-.17 1.259-.17Zm40.781 9.981h-1.55v-1.32h-.037c-.255.54-.657.93-1.205 1.17a4.464 4.464 0 0 1-1.806.358c-.73 0-1.369-.138-1.916-.415a4.063 4.063 0 0 1-1.351-1.113 5.023 5.023 0 0 1-.803-1.623 6.893 6.893 0 0 1-.273-1.962c0-.692.084-1.347.255-1.963.182-.616.451-1.15.804-1.603a3.856 3.856 0 0 1 1.35-1.095c.547-.277 1.18-.415 1.898-.415.243 0 .504.026.784.076s.56.138.84.264c.279.113.541.27.785.471.255.189.468.428.638.717h.037v-5.018h1.55v13.471Zm7.588-9.981c.84 0 1.533.183 2.08.548.56.352 1.004.804 1.332 1.358a5.26 5.26 0 0 1 .694 1.812 7.78 7.78 0 0 1 .165 1.867h-7.063c-.012.427.036.836.146 1.226.109.378.286.718.529 1.02.243.289.554.522.931.698.377.176.821.264 1.332.264.657 0 1.193-.157 1.606-.472.426-.314.705-.792.839-1.434h1.533c-.207 1.095-.662 1.919-1.368 2.472-.706.554-1.594.83-2.665.83-.754 0-1.411-.126-1.971-.378a3.897 3.897 0 0 1-1.386-1.056 4.657 4.657 0 0 1-.858-1.623 8.353 8.353 0 0 1-.31-2.056c0-.742.109-1.422.328-2.038.219-.617.524-1.15.913-1.604a4.3 4.3 0 0 1 1.405-1.056 4.235 4.235 0 0 1 1.788-.378Zm10.277 0c.535 0 1.027.05 1.477.151.45.088.846.251 1.187.49a2.4 2.4 0 0 1 .839.944c.206.39.328.88.365 1.471h-1.551c-.024-.314-.104-.572-.237-.773a1.545 1.545 0 0 0-.511-.51 2.112 2.112 0 0 0-.694-.264 2.987 2.987 0 0 0-.748-.094c-.231 0-.468.019-.711.056a2.128 2.128 0 0 0-.639.208 1.193 1.193 0 0 0-.475.377c-.121.151-.182.353-.182.605 0 .276.091.509.273.697.195.176.439.328.731.453.292.113.62.214.985.302.365.075.73.158 1.095.246.389.088.766.195 1.131.32.377.126.705.296.985.51.292.201.524.46.694.774.183.314.274.704.274 1.17 0 .59-.122 1.081-.366 1.471a2.72 2.72 0 0 1-.93.944 3.59 3.59 0 0 1-1.296.49c-.474.1-.949.151-1.423.151a6.429 6.429 0 0 1-1.496-.17 3.715 3.715 0 0 1-1.26-.547 2.92 2.92 0 0 1-.876-1.02c-.219-.427-.341-.942-.365-1.546h1.552c.012.352.091.654.237.905.146.24.334.434.565.585.244.139.511.24.803.302.304.063.615.095.931.095.243 0 .499-.02.766-.057.268-.038.512-.106.731-.207.231-.1.419-.246.565-.434.146-.202.219-.454.219-.755 0-.415-.152-.73-.456-.944-.304-.213-.687-.383-1.149-.509a13.691 13.691 0 0 0-1.479-.359 8.73 8.73 0 0 1-1.496-.452 3.195 3.195 0 0 1-1.132-.83c-.304-.352-.456-.843-.456-1.472 0-.49.104-.912.311-1.264.219-.353.493-.635.821-.85.341-.226.717-.39 1.131-.49.426-.114.846-.17 1.26-.17Zm25.418 0c.754 0 1.411.132 1.97.396.572.264 1.052.63 1.442 1.095a4.5 4.5 0 0 1 .876 1.622c.194.616.292 1.283.292 2 0 .717-.098 1.384-.292 2a4.722 4.722 0 0 1-.876 1.623 4.19 4.19 0 0 1-1.442 1.075c-.559.252-1.216.378-1.97.378-.743 0-1.4-.126-1.972-.378a4.196 4.196 0 0 1-1.442-1.075 4.722 4.722 0 0 1-.876-1.623 6.629 6.629 0 0 1-.292-2 6.66 6.66 0 0 1 .292-2 4.5 4.5 0 0 1 .876-1.622c.39-.465.87-.83 1.442-1.095.572-.264 1.229-.396 1.972-.396Zm21.209 0c.535 0 1.027.05 1.477.151.45.088.846.251 1.187.49.352.227.633.541.839.944.207.39.328.88.365 1.471h-1.551c-.024-.314-.104-.572-.237-.773a1.546 1.546 0 0 0-.511-.51 2.107 2.107 0 0 0-.693-.264 2.985 2.985 0 0 0-.749-.094c-.231 0-.468.019-.711.056a2.116 2.116 0 0 0-.639.208 1.193 1.193 0 0 0-.475.377c-.121.151-.182.353-.182.605 0 .276.091.509.273.697.195.176.439.328.731.453.292.113.62.214.985.302.365.075.73.158 1.095.246.389.088.767.195 1.131.32.377.126.706.296.986.51.292.201.523.46.693.774.183.314.274.704.274 1.17 0 .59-.122 1.081-.366 1.471a2.72 2.72 0 0 1-.93.944 3.59 3.59 0 0 1-1.295.49 6.9 6.9 0 0 1-1.424.151 6.429 6.429 0 0 1-1.496-.17 3.715 3.715 0 0 1-1.26-.547 2.92 2.92 0 0 1-.876-1.02c-.219-.427-.34-.942-.364-1.546h1.551c.012.352.091.654.237.905.146.24.334.434.565.585.244.139.511.24.803.302.304.063.615.095.931.095.243 0 .499-.02.766-.057.268-.038.512-.106.731-.207.231-.1.419-.246.565-.434.146-.202.219-.454.219-.755 0-.415-.152-.73-.456-.944-.304-.213-.687-.383-1.149-.509a13.691 13.691 0 0 0-1.479-.359 8.73 8.73 0 0 1-1.496-.452 3.196 3.196 0 0 1-1.132-.83c-.304-.352-.456-.843-.456-1.472 0-.49.104-.912.311-1.264.219-.353.492-.635.821-.85.34-.226.717-.39 1.131-.49.426-.114.846-.17 1.26-.17Zm-346.35-1.98H96.74v4.282h6.771v1.51h-6.77v4.66h7.317v1.51h-9.052V51.354h8.997v1.51Zm6.648 10.34h.037l2.573-8.134h1.625l-3.449 9.755h-1.662l-3.504-9.755h1.735l2.645 8.133Zm22.923-6.662c-.62 0-1.15.089-1.588.265a2.5 2.5 0 0 0-1.058.773c-.268.34-.463.755-.584 1.245a6.748 6.748 0 0 0-.183 1.66v4.34h-1.551v-9.755h1.46v2.057h.036c.378-.792.841-1.378 1.388-1.755.548-.377 1.241-.553 2.08-.528v1.698Zm15.001-1.472h1.879v1.415h-1.879v6.057c0 .189.012.34.036.453a.519.519 0 0 0 .183.265.812.812 0 0 0 .347.132c.158.012.358.018.601.018h.712v1.415h-1.185a6.26 6.26 0 0 1-1.041-.075 1.635 1.635 0 0 1-.694-.32c-.17-.151-.297-.365-.383-.642-.085-.277-.128-.642-.128-1.095v-6.208h-1.605v-1.415h1.605v-2.924h1.552v2.924Zm6.431 1.435h.037a2.05 2.05 0 0 1 .511-.755c.219-.214.462-.384.729-.51.28-.138.567-.239.859-.301.304-.063.596-.095.876-.095.62 0 1.137.088 1.55.264.414.176.749.421 1.004.736.256.314.432.692.53 1.133a5.8 5.8 0 0 1 .164 1.433v6.415h-1.551v-6.603c0-.604-.171-1.083-.512-1.435-.34-.352-.809-.528-1.405-.528-.474 0-.888.076-1.24.226a2.332 2.332 0 0 0-.859.642 2.908 2.908 0 0 0-.529.981 4.202 4.202 0 0 0-.164 1.207v5.51h-1.551V51.355h1.551v5.15Zm11.509 8.32h-1.551v-9.755h1.551v9.755Zm8.243-9.981c.62 0 1.137.088 1.551.264.413.176.748.421 1.003.736.256.314.432.692.53 1.133a5.8 5.8 0 0 1 .164 1.433v6.415h-1.551v-6.603c0-.604-.171-1.083-.512-1.435-.34-.352-.808-.528-1.404-.528-.474 0-.888.075-1.241.226a2.334 2.334 0 0 0-.858.642 2.91 2.91 0 0 0-.529.981 4.202 4.202 0 0 0-.164 1.207v5.51h-1.552v-9.755h1.46v1.547h.036c.645-1.182 1.668-1.773 3.067-1.773Zm27.121.226h1.88v1.415h-1.88v6.057c0 .189.013.34.037.453a.511.511 0 0 0 .182.265.812.812 0 0 0 .347.132c.158.012.359.018.602.018h.712v1.415h-1.187a6.22 6.22 0 0 1-1.04-.075 1.631 1.631 0 0 1-.693-.32c-.17-.151-.298-.365-.383-.642-.085-.277-.128-.642-.128-1.095v-6.208h-1.606v-1.415h1.606v-2.924h1.551v2.924Zm6.432 1.435h.036c.121-.302.292-.554.511-.755.219-.214.462-.384.73-.51.28-.138.565-.239.857-.301.304-.063.597-.095.876-.095.621 0 1.138.088 1.552.264.413.176.748.422 1.003.736.255.314.432.692.529 1.133.11.427.165.905.165 1.433v6.415h-1.551v-6.603c0-.604-.171-1.083-.511-1.435-.341-.352-.809-.528-1.405-.528-.475 0-.889.075-1.242.226a2.33 2.33 0 0 0-.857.642 2.892 2.892 0 0 0-.529.981 4.17 4.17 0 0 0-.164 1.207v5.51h-1.551V51.355h1.551v5.15Zm29.291 6.811h6.898v1.51h-8.632V51.354h1.734v11.962Zm23.755-12.114c.146 0 .311.013.494.038.194.025.364.063.51.114v1.396a1.595 1.595 0 0 0-.438-.095 2.808 2.808 0 0 0-.438-.038c-.377 0-.669.076-.876.227-.206.15-.31.44-.31.868v1.358h1.825v1.415h-1.825v8.34h-1.551v-8.34h-1.588v-1.415h1.588v-1.453c0-.792.219-1.39.657-1.792.45-.415 1.101-.623 1.952-.623Zm5.582 3.868h1.88v1.415h-1.88v6.057c0 .189.013.34.038.453a.51.51 0 0 0 .181.265.816.816 0 0 0 .348.132c.158.012.358.018.601.018h.712v1.415h-1.186c-.402 0-.748-.025-1.04-.075a1.635 1.635 0 0 1-.694-.32c-.17-.151-.297-.365-.382-.642-.086-.277-.128-.642-.128-1.095v-6.208h-1.607v-1.415h1.607v-2.924h1.55v2.924Zm13.391 0h1.879v1.415h-1.879v6.057c0 .189.012.34.036.453a.519.519 0 0 0 .183.265.812.812 0 0 0 .347.132c.158.012.359.018.602.018h.711v1.415h-1.186a6.22 6.22 0 0 1-1.04-.075 1.632 1.632 0 0 1-.693-.32c-.17-.151-.299-.365-.384-.642-.085-.277-.128-.642-.128-1.095v-6.208h-1.605v-1.415h1.605v-2.924h1.552v2.924Zm40.684 1.435h.037c.121-.302.292-.554.511-.755.218-.214.462-.384.729-.51.28-.138.566-.239.858-.301.304-.063.597-.095.876-.095.621 0 1.138.088 1.551.264.414.176.749.421 1.004.736.256.314.432.692.529 1.133.11.427.164.905.164 1.433v6.415h-1.55v-6.603c0-.604-.171-1.083-.512-1.435-.341-.352-.809-.528-1.405-.528-.474 0-.888.076-1.241.226a2.33 2.33 0 0 0-.857.642 2.892 2.892 0 0 0-.529.981c-.11.365-.165.767-.165 1.207v5.51h-1.551V51.355h1.551v5.15Zm39.346 8.32h-1.55v-9.755h1.55v9.755Zm5.834-9.755h1.879v1.415h-1.879v6.057c0 .189.012.34.036.453a.519.519 0 0 0 .183.265.813.813 0 0 0 .347.132c.158.012.359.018.602.018h.711v1.415h-1.185c-.402 0-.748-.025-1.04-.075a1.636 1.636 0 0 1-.694-.32c-.17-.151-.298-.365-.383-.642-.086-.277-.128-.642-.128-1.095v-6.208h-1.606v-1.415h1.606v-2.924h1.551v2.924Zm46.966 0h1.879v1.415h-1.879v6.057c0 .189.012.34.036.453a.519.519 0 0 0 .183.265.813.813 0 0 0 .347.132c.158.012.359.018.602.018h.711v1.415h-1.185a6.26 6.26 0 0 1-1.041-.075 1.64 1.64 0 0 1-.694-.32c-.17-.151-.298-.365-.383-.642-.085-.277-.128-.642-.128-1.095v-6.208h-1.605v-1.415h1.605v-2.924h1.552v2.924Zm9.789 1.472c-.62 0-1.15.089-1.588.265a2.5 2.5 0 0 0-1.058.773c-.268.34-.463.755-.584 1.245a6.748 6.748 0 0 0-.183 1.66v4.34h-1.551v-9.755h1.46v2.057h.036c.378-.792.84-1.378 1.387-1.755.548-.377 1.242-.553 2.081-.528v1.698Zm-133.67-.283a2.78 2.78 0 0 0-1.149.246 2.715 2.715 0 0 0-.931.717c-.267.314-.48.704-.638 1.17-.146.452-.219.974-.219 1.565s.073 1.12.219 1.585c.158.453.371.837.638 1.151.268.302.578.535.931.699a2.78 2.78 0 0 0 3.23-.699c.268-.314.475-.698.62-1.151a4.89 4.89 0 0 0 .238-1.585c0-.59-.079-1.113-.238-1.565a3.286 3.286 0 0 0-.62-1.17 2.66 2.66 0 0 0-.949-.717 2.659 2.659 0 0 0-1.132-.246Zm92.112 0c-.523 0-.967.107-1.332.321a2.505 2.505 0 0 0-.876.849 3.76 3.76 0 0 0-.475 1.208 6.65 6.65 0 0 0-.146 1.396c.001.453.055.899.165 1.339.121.428.298.812.529 1.151.243.34.547.61.912.812.377.201.816.302 1.314.302.523 0 .968-.107 1.332-.32.365-.215.663-.492.894-.832a3.53 3.53 0 0 0 .493-1.188c.11-.44.164-.887.164-1.34 0-.478-.054-.937-.164-1.377a3.378 3.378 0 0 0-.529-1.188 2.516 2.516 0 0 0-.912-.812c-.377-.214-.834-.321-1.369-.321Zm47.753 0c-.402 0-.786.082-1.151.246a2.725 2.725 0 0 0-.931.717c-.267.314-.48.704-.638 1.17-.146.452-.219.974-.219 1.565s.073 1.12.219 1.585c.158.453.371.837.638 1.151.268.302.578.535.931.699a2.785 2.785 0 0 0 3.231-.699c.267-.314.474-.698.62-1.151.158-.465.237-.994.237-1.585s-.079-1.113-.237-1.565a3.317 3.317 0 0 0-.62-1.17 2.671 2.671 0 0 0-.95-.717 2.651 2.651 0 0 0-1.13-.246Zm-243.608 0c-.498 0-.925.101-1.277.303a2.504 2.504 0 0 0-.876.773 3.626 3.626 0 0 0-.492 1.132 5.982 5.982 0 0 0-.147 1.34c0 .44.043.88.128 1.32.085.44.232.843.439 1.208.206.352.48.642.821.868.34.214.766.32 1.277.32.511 0 .942-.106 1.295-.32.365-.226.657-.516.876-.868.219-.365.377-.774.475-1.227.109-.452.164-.905.164-1.358 0-.428-.048-.85-.146-1.265a3.352 3.352 0 0 0-.474-1.113 2.344 2.344 0 0 0-.822-.81c-.34-.202-.754-.303-1.241-.303Zm-64.118 0c-.401 0-.766.075-1.095.226a2.42 2.42 0 0 0-.821.585 2.833 2.833 0 0 0-.547.887c-.134.327-.213.68-.237 1.057h5.42a3.243 3.243 0 0 0-.256-1.075 2.46 2.46 0 0 0-.566-.869 2.378 2.378 0 0 0-.839-.585 2.434 2.434 0 0 0-1.059-.226Zm100.591 0a2.59 2.59 0 0 0-1.095.226 2.42 2.42 0 0 0-.821.585 2.835 2.835 0 0 0-.547.887c-.134.327-.213.68-.237 1.057h5.42a3.243 3.243 0 0 0-.256-1.075 2.46 2.46 0 0 0-.566-.869 2.373 2.373 0 0 0-.84-.585 2.427 2.427 0 0 0-1.058-.226Zm28.853 0a2.59 2.59 0 0 0-1.094.226 2.416 2.416 0 0 0-.822.585 2.835 2.835 0 0 0-.548.887c-.133.327-.213.68-.237 1.057h5.42a3.218 3.218 0 0 0-.255-1.075 2.474 2.474 0 0 0-.566-.869 2.38 2.38 0 0 0-.839-.585 2.426 2.426 0 0 0-1.059-.226Zm83.851 0a2.61 2.61 0 0 0-1.095.226c-.316.139-.59.334-.821.585a2.836 2.836 0 0 0-.548.887c-.134.327-.213.68-.237 1.057h5.42a3.242 3.242 0 0 0-.255-1.075 2.462 2.462 0 0 0-.567-.869 2.37 2.37 0 0 0-.839-.585 2.425 2.425 0 0 0-1.058-.226Zm58.644 0c-.401 0-.766.075-1.094.226a2.44 2.44 0 0 0-.822.585 2.813 2.813 0 0 0-.546.887c-.134.327-.213.68-.238 1.057h5.42a3.22 3.22 0 0 0-.256-1.075 2.472 2.472 0 0 0-.565-.869 2.382 2.382 0 0 0-.84-.585 2.428 2.428 0 0 0-1.059-.226Zm-226.842-2.944h-1.551v-1.962h1.551v1.962Zm193.845 0h-1.55v-1.962h1.55v1.962Z" />
  <rect width="67.494" height="67.494" x="477.009" y=".176" fill="#DADADA" rx="10.457"
    transform="rotate(3 477.009 .176)" />
  <path fill="#000"
    d="M501.683 21.661a4.365 4.365 0 1 1-8.717-.457 4.365 4.365 0 0 1 8.717.457Zm24.75-.431a4.365 4.365 0 1 1-8.717-.456 4.365 4.365 0 0 1 8.717.457Zm-16.335 4.411c.77-.23 1.581.209 1.81.979l4.518 15.158a1.87 1.87 0 0 1-2.141 2.372l-11.452-2.172-.073-.017a1.455 1.455 0 0 1 .542-2.854l.073.012 9.775 1.854-4.03-13.522c-.23-.77.208-1.58.978-1.81Zm10.337 27.389.074.006a1.454 1.454 0 0 1-.152 2.902l-.074-.002-24.077-1.261a1.456 1.456 0 0 1 .152-2.906l24.077 1.261Z" />
</svg>