<svg width="473" height="178" viewBox="0 0 473 178" fill="none" xmlns="http://www.w3.org/2000/svg">
<g filter="url(#filter0_d_271_1824)">
<rect x="110.354" y="21.5086" width="354.023" height="149.578" rx="7.18497" fill="#1A1A1A"/>
</g>
<path d="M441.214 162.881L441.207 162.877L441.182 162.864L441.092 162.819L440.768 162.646C439.141 161.756 437.607 160.719 436.185 159.548C433.729 157.509 431 154.451 431 150.788C431 149.593 431.385 148.427 432.102 147.452C432.819 146.476 433.833 145.738 435.004 145.34C436.175 144.941 437.445 144.902 438.64 145.227C439.835 145.553 440.896 146.226 441.677 147.156C442.457 146.226 443.518 145.553 444.713 145.227C445.908 144.902 447.179 144.941 448.349 145.34C449.52 145.738 450.534 146.476 451.251 147.452C451.968 148.427 452.353 149.593 452.354 150.788C452.354 154.451 449.626 157.509 447.169 159.548C445.627 160.816 443.952 161.928 442.172 162.864L442.147 162.877L442.14 162.881H442.137C441.995 162.953 441.837 162.991 441.677 162.991C441.516 162.991 441.358 162.954 441.216 162.882L441.214 162.881Z" fill="#0B7EC1"/>
<g filter="url(#filter1_d_271_1824)">
<path d="M437.908 157.133C437.841 157.133 437.808 157.1 437.808 157.033V156.583C437.808 156.53 437.821 156.486 437.848 156.453C438.768 154.993 439.348 154.053 439.588 153.633C440.015 152.9 440.228 152.293 440.228 151.813C440.228 151.466 440.148 151.19 439.988 150.983C439.828 150.776 439.618 150.673 439.358 150.673C439.105 150.673 438.898 150.776 438.738 150.983C438.585 151.183 438.511 151.45 438.518 151.783V152.163C438.518 152.23 438.485 152.263 438.418 152.263H437.898C437.831 152.263 437.798 152.23 437.798 152.163V151.763C437.811 151.25 437.961 150.836 438.248 150.523C438.541 150.21 438.921 150.053 439.388 150.053C439.855 150.053 440.231 150.216 440.518 150.543C440.805 150.863 440.948 151.286 440.948 151.813C440.948 152.44 440.711 153.146 440.238 153.933C440.171 154.046 439.655 154.89 438.688 156.463C438.668 156.496 438.678 156.513 438.718 156.513H441.048C441.115 156.513 441.148 156.546 441.148 156.613V157.033C441.148 157.1 441.115 157.133 441.048 157.133H437.908ZM445.621 154.573C445.688 154.573 445.721 154.606 445.721 154.673V155.113C445.721 155.18 445.688 155.213 445.621 155.213H445.311C445.285 155.213 445.271 155.226 445.271 155.253V157.033C445.271 157.1 445.238 157.133 445.171 157.133H444.661C444.595 157.133 444.561 157.1 444.561 157.033V155.253C444.561 155.226 444.548 155.213 444.521 155.213H442.251C442.185 155.213 442.151 155.18 442.151 155.113V154.733C442.151 154.706 442.158 154.666 442.171 154.613L443.671 150.213C443.691 150.16 443.731 150.133 443.791 150.133H444.341C444.415 150.133 444.441 150.17 444.421 150.243L442.981 154.523C442.961 154.556 442.971 154.573 443.011 154.573H444.521C444.548 154.573 444.561 154.56 444.561 154.533V153.003C444.561 152.936 444.595 152.903 444.661 152.903H445.171C445.238 152.903 445.271 152.936 445.271 153.003V154.533C445.271 154.56 445.285 154.573 445.311 154.573H445.621Z" fill="white"/>
</g>
<g filter="url(#filter2_d_271_1824)">
<rect x="110.354" y="22" width="354" height="112" rx="8" fill="#101625" shape-rendering="crispEdges"/>
<rect x="132.354" y="39.5" width="25" height="25" rx="3.87332" fill="#DADADA"/>
<path d="M141.897 46.969C141.897 47.8618 141.173 48.5857 140.28 48.5857C139.387 48.5857 138.664 47.8618 138.664 46.969C138.664 46.0761 139.387 45.3523 140.28 45.3523C141.173 45.3523 141.897 46.0761 141.897 46.969Z" fill="black"/>
<path d="M151.043 46.3299C151.043 47.2228 150.32 47.9466 149.427 47.9466C148.534 47.9466 147.81 47.2228 147.81 46.3299C147.81 45.4371 148.534 44.7132 149.427 44.7132C150.32 44.7132 151.043 45.4371 151.043 46.3299Z" fill="black"/>
<path d="M145.087 48.278C145.367 48.1782 145.675 48.3245 145.775 48.6048L147.74 54.1243C147.914 54.6134 147.508 55.1132 146.994 55.0432L142.716 54.4615L142.688 54.457C142.408 54.4043 142.216 54.1405 142.254 53.8549C142.293 53.5692 142.549 53.3664 142.834 53.3905L142.861 53.3935L146.512 53.8899L144.76 48.9665C144.66 48.6861 144.806 48.3779 145.087 48.278Z" fill="black"/>
<path d="M149.441 58.2088L149.469 58.2096C149.754 58.224 149.98 58.4594 149.98 58.7477C149.98 59.0361 149.754 59.2714 149.469 59.2858L149.441 59.2867H140.511C140.214 59.2867 139.972 59.0453 139.972 58.7477C139.972 58.4501 140.214 58.2088 140.511 58.2088H149.441Z" fill="black"/>
<g filter="url(#filter3_d_271_1824)">
<path d="M166.618 48.978C166.456 48.978 166.398 48.8973 166.442 48.736L167.674 44.776C167.718 44.6587 167.806 44.6 167.938 44.6H168.444C168.62 44.6 168.686 44.6807 168.642 44.842L167.608 48.78C167.578 48.912 167.498 48.978 167.366 48.978H166.618ZM174.063 60.176C172.992 60.176 172.127 59.846 171.467 59.186C170.821 58.5113 170.499 57.6167 170.499 56.502V48.054C170.499 46.954 170.821 46.074 171.467 45.414C172.127 44.754 172.992 44.424 174.063 44.424C175.148 44.424 176.013 44.754 176.659 45.414C177.319 46.074 177.649 46.954 177.649 48.054V48.472C177.649 48.6333 177.575 48.714 177.429 48.714L176.703 48.758C176.556 48.758 176.483 48.6847 176.483 48.538V47.988C176.483 47.2253 176.255 46.6167 175.801 46.162C175.361 45.6927 174.781 45.458 174.063 45.458C173.344 45.458 172.765 45.6927 172.325 46.162C171.885 46.6167 171.665 47.2253 171.665 47.988V56.59C171.665 57.3527 171.885 57.9687 172.325 58.438C172.765 58.9073 173.344 59.142 174.063 59.142C174.781 59.142 175.361 58.9073 175.801 58.438C176.255 57.9687 176.483 57.3527 176.483 56.59V56.084C176.483 55.9373 176.556 55.864 176.703 55.864L177.429 55.908C177.575 55.908 177.649 55.9813 177.649 56.128V56.502C177.649 57.6167 177.319 58.5113 176.659 59.186C176.013 59.846 175.148 60.176 174.063 60.176ZM183.473 60.176C182.505 60.176 181.72 59.8753 181.119 59.274C180.518 58.658 180.217 57.866 180.217 56.898V52.036C180.217 51.068 180.518 50.276 181.119 49.66C181.72 49.044 182.505 48.736 183.473 48.736C184.47 48.736 185.27 49.044 185.871 49.66C186.472 50.2613 186.773 51.0533 186.773 52.036V56.898C186.773 57.866 186.472 58.658 185.871 59.274C185.27 59.8753 184.47 60.176 183.473 60.176ZM183.473 59.142C184.104 59.142 184.617 58.9293 185.013 58.504C185.409 58.064 185.607 57.5067 185.607 56.832V52.102C185.607 51.4127 185.409 50.8553 185.013 50.43C184.617 49.99 184.104 49.77 183.473 49.77C182.857 49.77 182.351 49.99 181.955 50.43C181.574 50.8553 181.383 51.4127 181.383 52.102V56.832C181.383 57.5067 181.574 58.064 181.955 58.504C182.351 58.9293 182.857 59.142 183.473 59.142ZM198.46 48.758C199.296 48.758 199.956 49.0807 200.44 49.726C200.924 50.3713 201.166 51.2513 201.166 52.366V59.78C201.166 59.9267 201.093 60 200.946 60H200.22C200.073 60 200 59.9267 200 59.78V52.476C200 51.6547 199.824 51.002 199.472 50.518C199.135 50.034 198.68 49.792 198.108 49.792C197.492 49.792 197.001 50.0267 196.634 50.496C196.282 50.9653 196.106 51.6107 196.106 52.432V59.78C196.106 59.9267 196.033 60 195.886 60H195.16C195.013 60 194.94 59.9267 194.94 59.78V52.476C194.94 51.6547 194.764 51.002 194.412 50.518C194.06 50.034 193.605 49.792 193.048 49.792C192.432 49.792 191.941 50.0267 191.574 50.496C191.207 50.9653 191.024 51.6107 191.024 52.432V59.78C191.024 59.9267 190.951 60 190.804 60H190.1C189.953 60 189.88 59.9267 189.88 59.78V49.132C189.88 48.9853 189.953 48.912 190.1 48.912H190.804C190.951 48.912 191.024 48.9853 191.024 49.132V49.946C191.024 49.99 191.031 50.0193 191.046 50.034C191.075 50.034 191.105 50.012 191.134 49.968C191.677 49.1613 192.432 48.758 193.4 48.758C194.529 48.758 195.329 49.3227 195.798 50.452C195.827 50.5253 195.864 50.5107 195.908 50.408C196.392 49.308 197.243 48.758 198.46 48.758ZM212.994 48.758C213.83 48.758 214.49 49.0807 214.974 49.726C215.458 50.3713 215.7 51.2513 215.7 52.366V59.78C215.7 59.9267 215.626 60 215.48 60H214.754C214.607 60 214.534 59.9267 214.534 59.78V52.476C214.534 51.6547 214.358 51.002 214.006 50.518C213.668 50.034 213.214 49.792 212.642 49.792C212.026 49.792 211.534 50.0267 211.168 50.496C210.816 50.9653 210.64 51.6107 210.64 52.432V59.78C210.64 59.9267 210.566 60 210.42 60H209.694C209.547 60 209.474 59.9267 209.474 59.78V52.476C209.474 51.6547 209.298 51.002 208.946 50.518C208.594 50.034 208.139 49.792 207.582 49.792C206.966 49.792 206.474 50.0267 206.108 50.496C205.741 50.9653 205.558 51.6107 205.558 52.432V59.78C205.558 59.9267 205.484 60 205.338 60H204.634C204.487 60 204.414 59.9267 204.414 59.78V49.132C204.414 48.9853 204.487 48.912 204.634 48.912H205.338C205.484 48.912 205.558 48.9853 205.558 49.132V49.946C205.558 49.99 205.565 50.0193 205.58 50.034C205.609 50.034 205.638 50.012 205.668 49.968C206.21 49.1613 206.966 48.758 207.934 48.758C209.063 48.758 209.862 49.3227 210.332 50.452C210.361 50.5253 210.398 50.5107 210.442 50.408C210.926 49.308 211.776 48.758 212.994 48.758ZM224.029 49.132C224.029 48.9853 224.103 48.912 224.249 48.912H224.975C225.122 48.912 225.195 48.9853 225.195 49.132V59.78C225.195 59.9267 225.122 60 224.975 60H224.249C224.103 60 224.029 59.9267 224.029 59.78V58.988C224.029 58.944 224.015 58.922 223.985 58.922C223.956 58.9073 223.934 58.9147 223.919 58.944C223.45 59.7507 222.702 60.154 221.675 60.154C220.795 60.154 220.099 59.89 219.585 59.362C219.072 58.8193 218.815 58.0127 218.815 56.942V49.132C218.815 48.9853 218.889 48.912 219.035 48.912H219.761C219.908 48.912 219.981 48.9853 219.981 49.132V56.678C219.981 58.306 220.641 59.12 221.961 59.12C222.607 59.12 223.113 58.8853 223.479 58.416C223.846 57.9467 224.029 57.3013 224.029 56.48V49.132ZM232.191 48.758C233.085 48.758 233.775 49.0587 234.259 49.66C234.743 50.2613 234.985 51.1047 234.985 52.19V59.78C234.985 59.9267 234.911 60 234.765 60H234.039C233.892 60 233.819 59.9267 233.819 59.78V52.3C233.819 51.508 233.643 50.892 233.291 50.452C232.953 50.012 232.469 49.792 231.839 49.792C231.193 49.792 230.68 50.0267 230.299 50.496C229.932 50.9653 229.749 51.6107 229.749 52.432V59.78C229.749 59.9267 229.675 60 229.529 60H228.803C228.656 60 228.583 59.9267 228.583 59.78V49.132C228.583 48.9853 228.656 48.912 228.803 48.912H229.529C229.675 48.912 229.749 48.9853 229.749 49.132V49.99C229.749 50.034 229.763 50.056 229.793 50.056C229.822 50.056 229.844 50.034 229.859 49.99C230.387 49.1687 231.164 48.758 232.191 48.758ZM238.9 46.69C238.651 46.69 238.438 46.602 238.262 46.426C238.086 46.2353 237.998 46.0007 237.998 45.722C237.998 45.4433 238.086 45.216 238.262 45.04C238.438 44.864 238.651 44.776 238.9 44.776C239.164 44.776 239.377 44.864 239.538 45.04C239.699 45.216 239.78 45.4433 239.78 45.722C239.78 46.0153 239.699 46.25 239.538 46.426C239.377 46.602 239.164 46.69 238.9 46.69ZM238.548 60C238.401 60 238.328 59.9267 238.328 59.78V49.132C238.328 48.9853 238.401 48.912 238.548 48.912H239.274C239.421 48.912 239.494 48.9853 239.494 49.132V59.78C239.494 59.9267 239.421 60 239.274 60H238.548ZM245.661 60.11C244.708 60.11 243.938 59.8533 243.351 59.34C242.779 58.812 242.493 58.1373 242.493 57.316V57.184C242.493 57.0373 242.566 56.964 242.713 56.964H243.395C243.542 56.964 243.615 57.0227 243.615 57.14V57.316C243.615 57.844 243.806 58.284 244.187 58.636C244.568 58.988 245.06 59.164 245.661 59.164C246.248 59.164 246.717 58.988 247.069 58.636C247.436 58.2693 247.619 57.8 247.619 57.228C247.619 56.9053 247.56 56.6267 247.443 56.392C247.326 56.1427 247.135 55.9227 246.871 55.732C246.607 55.5413 246.372 55.402 246.167 55.314C245.976 55.2113 245.683 55.0793 245.287 54.918C244.862 54.742 244.532 54.5953 244.297 54.478C244.062 54.346 243.784 54.1553 243.461 53.906C243.153 53.6567 242.926 53.356 242.779 53.004C242.632 52.6373 242.559 52.2193 242.559 51.75C242.559 50.8553 242.838 50.144 243.395 49.616C243.952 49.088 244.693 48.824 245.617 48.824C246.556 48.824 247.304 49.0953 247.861 49.638C248.418 50.1807 248.697 50.8847 248.697 51.75V51.816C248.697 51.9627 248.624 52.036 248.477 52.036H247.817C247.67 52.036 247.597 51.9773 247.597 51.86V51.706C247.597 51.1633 247.414 50.7087 247.047 50.342C246.68 49.9753 246.204 49.792 245.617 49.792C245.03 49.792 244.561 49.9753 244.209 50.342C243.857 50.694 243.681 51.156 243.681 51.728C243.681 52.036 243.732 52.3073 243.835 52.542C243.938 52.762 244.114 52.9673 244.363 53.158C244.627 53.334 244.847 53.466 245.023 53.554C245.199 53.642 245.485 53.774 245.881 53.95C246.336 54.1407 246.68 54.302 246.915 54.434C247.164 54.5513 247.458 54.742 247.795 55.006C248.132 55.2553 248.382 55.5633 248.543 55.93C248.704 56.282 248.785 56.7 248.785 57.184C248.785 58.064 248.499 58.7753 247.927 59.318C247.355 59.846 246.6 60.11 245.661 60.11ZM259.989 48.758C260.825 48.758 261.485 49.0807 261.969 49.726C262.453 50.3713 262.695 51.2513 262.695 52.366V59.78C262.695 59.9267 262.621 60 262.475 60H261.749C261.602 60 261.529 59.9267 261.529 59.78V52.476C261.529 51.6547 261.353 51.002 261.001 50.518C260.663 50.034 260.209 49.792 259.637 49.792C259.021 49.792 258.529 50.0267 258.163 50.496C257.811 50.9653 257.635 51.6107 257.635 52.432V59.78C257.635 59.9267 257.561 60 257.415 60H256.689C256.542 60 256.469 59.9267 256.469 59.78V52.476C256.469 51.6547 256.293 51.002 255.941 50.518C255.589 50.034 255.134 49.792 254.577 49.792C253.961 49.792 253.469 50.0267 253.103 50.496C252.736 50.9653 252.553 51.6107 252.553 52.432V59.78C252.553 59.9267 252.479 60 252.333 60H251.629C251.482 60 251.409 59.9267 251.409 59.78V49.132C251.409 48.9853 251.482 48.912 251.629 48.912H252.333C252.479 48.912 252.553 48.9853 252.553 49.132V49.946C252.553 49.99 252.56 50.0193 252.575 50.034C252.604 50.034 252.633 50.012 252.663 49.968C253.205 49.1613 253.961 48.758 254.929 48.758C256.058 48.758 256.857 49.3227 257.327 50.452C257.356 50.5253 257.393 50.5107 257.437 50.408C257.921 49.308 258.771 48.758 259.989 48.758ZM266.558 44.6C266.72 44.6 266.778 44.6807 266.734 44.842L265.502 48.802C265.458 48.9193 265.37 48.978 265.238 48.978H264.732C264.556 48.978 264.49 48.8973 264.534 48.736L265.568 44.798C265.598 44.666 265.678 44.6 265.81 44.6H266.558Z" fill="white"/>
</g>
<path d="M132.354 78H441.354" stroke="white" stroke-opacity="0.15"/>
<path d="M286.854 82L282.09 78.25L291.617 78.25L286.854 82Z" fill="#D9D9D9" fill-opacity="0.15"/>
<path d="M132.354 95.4062C132.354 93.2489 134.102 91.5 136.26 91.5H153.447C155.605 91.5 157.354 93.2489 157.354 95.4062V112.594C157.354 114.751 155.605 116.5 153.447 116.5H136.26C134.102 116.5 132.354 114.751 132.354 112.594V95.4062Z" fill="#6DD3FF"/>
<circle cx="139.926" cy="99.9903" r="1.63043" fill="black"/>
<circle cx="149.357" cy="99.9902" r="1.63043" fill="black"/>
<path d="M145.204 101.233C145.48 101.141 145.778 101.281 145.883 101.549L145.892 101.575L147.851 107.393C148.016 107.885 147.607 108.379 147.093 108.308L142.838 107.722C142.541 107.681 142.333 107.406 142.374 107.109C142.415 106.812 142.69 106.604 142.987 106.645L146.621 107.146L144.862 101.922L144.854 101.895C144.776 101.618 144.928 101.326 145.204 101.233Z" fill="black"/>
<path d="M149.919 110.539C150.209 110.464 150.506 110.638 150.581 110.928C150.655 111.211 150.443 111.528 150.167 111.598C150.122 111.609 150.016 111.635 149.86 111.669C149.652 111.714 149.354 111.774 148.989 111.834C148.261 111.954 147.26 112.075 146.174 112.075C145.093 112.075 143.825 111.955 142.839 111.838C142.343 111.779 141.914 111.72 141.609 111.676C141.436 111.651 141.262 111.629 141.09 111.597C140.809 111.536 140.622 111.265 140.668 110.978C140.72 110.661 141.019 110.486 141.322 110.534C141.468 110.557 142.119 110.658 142.967 110.758C143.941 110.874 145.158 110.988 146.174 110.988C147.184 110.988 148.123 110.875 148.812 110.762C149.156 110.705 149.436 110.649 149.628 110.607C149.807 110.568 149.911 110.541 149.918 110.539L149.919 110.539Z" fill="black"/>
<path d="M140.684 108.748C140.898 108.954 140.899 109.295 140.686 109.511L140.686 109.511L140.686 109.511L140.686 109.511L140.687 109.511L140.687 109.51C140.684 109.513 140.557 109.644 140.41 109.851C140.25 110.077 140.077 110.374 139.986 110.695C139.895 111.014 139.888 111.341 139.909 111.599C139.92 111.732 139.963 111.865 139.969 111.997C140.046 112.284 139.871 112.583 139.579 112.665C139.329 112.735 138.976 112.539 138.911 112.294L138.911 112.294L138.91 112.293C138.91 112.293 138.91 112.292 138.91 112.292C138.91 112.291 138.909 112.289 138.909 112.288C138.897 112.243 138.844 112.026 138.818 111.708C138.791 111.374 138.795 110.908 138.933 110.424C139.071 109.941 139.318 109.528 139.519 109.245C139.622 109.101 139.716 108.985 139.786 108.904C139.82 108.864 139.864 108.794 139.911 108.767C140.093 108.583 140.502 108.573 140.684 108.748ZM139.969 111.997L139.969 111.998L139.969 111.999L139.969 111.999C139.969 111.999 139.969 111.998 139.969 111.997Z" fill="black"/>
<path d="M146.752 96.5626C146.827 96.8504 147.124 97.0178 147.415 96.9365C148.609 96.6041 149.85 96.5074 150.888 96.6155C151.956 96.7269 152.687 97.0413 152.999 97.4094L153.018 97.43C153.212 97.6366 153.542 97.6534 153.767 97.4635C154 97.2676 154.033 96.9256 153.841 96.6998L153.785 96.6363C153.191 95.9918 152.142 95.6546 151.028 95.5385C149.848 95.4155 148.467 95.5262 147.145 95.8944C146.854 95.9757 146.677 96.2749 146.752 96.5626Z" fill="black"/>
<path d="M135.91 97.6592C135.593 97.5551 135.553 97.2695 135.673 96.9717C135.695 96.9171 135.727 96.8432 135.772 96.7556C135.861 96.5807 136.002 96.3482 136.213 96.1032C136.638 95.6082 137.341 95.0724 138.444 94.852C139.555 94.6302 141.007 94.9186 142.106 95.2203C142.683 95.3784 143.192 95.5493 143.554 95.6786C143.563 95.6127 143.569 95.5475 143.57 95.4865C143.573 95.3147 143.572 95.1423 143.556 94.9711C143.513 94.6744 143.716 94.4044 144.012 94.3671C144.308 94.3298 144.585 94.5411 144.63 94.8391C144.675 95.1372 144.671 95.2619 144.656 95.5325C144.641 95.8207 144.595 96.0759 144.547 96.2632C144.497 96.4529 144.449 96.5836 144.443 96.5991L144.443 96.5994C144.431 96.5958 144.432 96.595 144.443 96.5998C144.34 96.8788 144.027 97.0147 143.746 96.9035C143.559 96.8296 143.373 96.7547 143.184 96.6871C142.843 96.5655 142.369 96.4075 141.838 96.2617C140.744 95.9617 139.518 95.7456 138.685 95.912C137.845 96.0798 137.344 96.4755 137.052 96.8151C136.904 96.9872 136.807 97.1479 136.749 97.2617C136.593 97.568 136.227 97.7633 135.91 97.6592Z" fill="black"/>
<g filter="url(#filter4_d_271_1824)">
<path d="M174.384 96.6C174.53 96.6 174.604 96.6733 174.604 96.82V97.414C174.604 97.5607 174.53 97.634 174.384 97.634H171.458C171.399 97.634 171.37 97.6633 171.37 97.722V111.78C171.37 111.927 171.296 112 171.15 112H170.424C170.277 112 170.204 111.927 170.204 111.78V97.722C170.204 97.6633 170.174 97.634 170.116 97.634H167.366C167.219 97.634 167.146 97.5607 167.146 97.414V96.82C167.146 96.6733 167.219 96.6 167.366 96.6H174.384ZM179.273 112.176C178.305 112.176 177.521 111.875 176.919 111.274C176.318 110.658 176.017 109.866 176.017 108.898V104.036C176.017 103.068 176.318 102.276 176.919 101.66C177.521 101.044 178.305 100.736 179.273 100.736C180.271 100.736 181.07 101.044 181.671 101.66C182.273 102.261 182.573 103.053 182.573 104.036V108.898C182.573 109.866 182.273 110.658 181.671 111.274C181.07 111.875 180.271 112.176 179.273 112.176ZM179.273 111.142C179.904 111.142 180.417 110.929 180.813 110.504C181.209 110.064 181.407 109.507 181.407 108.832V104.102C181.407 103.413 181.209 102.855 180.813 102.43C180.417 101.99 179.904 101.77 179.273 101.77C178.657 101.77 178.151 101.99 177.755 102.43C177.374 102.855 177.183 103.413 177.183 104.102V108.832C177.183 109.507 177.374 110.064 177.755 110.504C178.151 110.929 178.657 111.142 179.273 111.142ZM189.266 101.616C189.266 101.763 189.193 101.836 189.046 101.836H187.286C187.228 101.836 187.198 101.865 187.198 101.924V109.008C187.198 109.741 187.323 110.255 187.572 110.548C187.822 110.827 188.218 110.966 188.76 110.966H188.98C189.127 110.966 189.2 111.039 189.2 111.186V111.78C189.2 111.927 189.127 112 188.98 112H188.54C187.719 112 187.096 111.809 186.67 111.428C186.26 111.047 186.054 110.335 186.054 109.294V101.924C186.054 101.865 186.025 101.836 185.966 101.836H185.064C184.918 101.836 184.844 101.763 184.844 101.616V101.132C184.844 100.985 184.918 100.912 185.064 100.912H185.966C186.025 100.912 186.054 100.883 186.054 100.824V98.36C186.054 98.2133 186.128 98.14 186.274 98.14H186.978C187.125 98.14 187.198 98.2133 187.198 98.36V100.824C187.198 100.883 187.228 100.912 187.286 100.912H189.046C189.193 100.912 189.266 100.985 189.266 101.132V101.616ZM194.848 100.736C195.846 100.736 196.623 101.073 197.181 101.748C197.753 102.408 198.039 103.295 198.039 104.41V111.78C198.039 111.927 197.965 112 197.819 112H197.092C196.946 112 196.873 111.927 196.873 111.78V110.988C196.873 110.944 196.858 110.922 196.828 110.922C196.814 110.907 196.792 110.915 196.763 110.944C196.22 111.765 195.369 112.176 194.21 112.176C193.433 112.176 192.758 111.949 192.186 111.494C191.629 111.039 191.35 110.24 191.35 109.096C191.35 107.879 191.688 106.984 192.362 106.412C193.037 105.84 193.939 105.554 195.069 105.554H196.784C196.843 105.554 196.873 105.525 196.873 105.466V104.454C196.873 103.633 196.689 102.98 196.322 102.496C195.97 102.012 195.472 101.77 194.826 101.77C194.313 101.77 193.866 101.931 193.484 102.254C193.118 102.577 192.905 102.995 192.846 103.508C192.846 103.655 192.773 103.728 192.626 103.728L191.834 103.684C191.673 103.684 191.607 103.611 191.636 103.464C191.724 102.643 192.069 101.983 192.67 101.484C193.272 100.985 193.998 100.736 194.848 100.736ZM194.452 111.142C195.112 111.142 195.677 110.929 196.147 110.504C196.631 110.079 196.873 109.477 196.873 108.7V106.61C196.873 106.551 196.843 106.522 196.784 106.522H195.069C194.306 106.522 193.69 106.735 193.22 107.16C192.766 107.571 192.538 108.187 192.538 109.008C192.538 109.727 192.714 110.262 193.066 110.614C193.418 110.966 193.88 111.142 194.452 111.142ZM201.258 112C201.111 112 201.038 111.927 201.038 111.78V96.82C201.038 96.6733 201.111 96.6 201.258 96.6H201.984C202.13 96.6 202.204 96.6733 202.204 96.82V111.78C202.204 111.927 202.13 112 201.984 112H201.258ZM206.116 98.69C205.866 98.69 205.654 98.602 205.478 98.426C205.302 98.2353 205.214 98.0007 205.214 97.722C205.214 97.4433 205.302 97.216 205.478 97.04C205.654 96.864 205.866 96.776 206.116 96.776C206.38 96.776 206.592 96.864 206.754 97.04C206.915 97.216 206.996 97.4433 206.996 97.722C206.996 98.0153 206.915 98.25 206.754 98.426C206.592 98.602 206.38 98.69 206.116 98.69ZM205.764 112C205.617 112 205.544 111.927 205.544 111.78V101.132C205.544 100.985 205.617 100.912 205.764 100.912H206.49C206.636 100.912 206.71 100.985 206.71 101.132V111.78C206.71 111.927 206.636 112 206.49 112H205.764ZM213.757 101.616C213.757 101.763 213.683 101.836 213.537 101.836H211.777C211.718 101.836 211.689 101.865 211.689 101.924V109.008C211.689 109.741 211.813 110.255 212.063 110.548C212.312 110.827 212.708 110.966 213.251 110.966H213.471C213.617 110.966 213.691 111.039 213.691 111.186V111.78C213.691 111.927 213.617 112 213.471 112H213.031C212.209 112 211.586 111.809 211.161 111.428C210.75 111.047 210.545 110.335 210.545 109.294V101.924C210.545 101.865 210.515 101.836 210.457 101.836H209.555C209.408 101.836 209.335 101.763 209.335 101.616V101.132C209.335 100.985 209.408 100.912 209.555 100.912H210.457C210.515 100.912 210.545 100.883 210.545 100.824V98.36C210.545 98.2133 210.618 98.14 210.765 98.14H211.469C211.615 98.14 211.689 98.2133 211.689 98.36V100.824C211.689 100.883 211.718 100.912 211.777 100.912H213.537C213.683 100.912 213.757 100.985 213.757 101.132V101.616ZM219.339 100.736C220.336 100.736 221.114 101.073 221.671 101.748C222.243 102.408 222.529 103.295 222.529 104.41V111.78C222.529 111.927 222.456 112 222.309 112H221.583C221.436 112 221.363 111.927 221.363 111.78V110.988C221.363 110.944 221.348 110.922 221.319 110.922C221.304 110.907 221.282 110.915 221.253 110.944C220.71 111.765 219.86 112.176 218.701 112.176C217.924 112.176 217.249 111.949 216.677 111.494C216.12 111.039 215.841 110.24 215.841 109.096C215.841 107.879 216.178 106.984 216.853 106.412C217.528 105.84 218.43 105.554 219.559 105.554H221.275C221.334 105.554 221.363 105.525 221.363 105.466V104.454C221.363 103.633 221.18 102.98 220.813 102.496C220.461 102.012 219.962 101.77 219.317 101.77C218.804 101.77 218.356 101.931 217.975 102.254C217.608 102.577 217.396 102.995 217.337 103.508C217.337 103.655 217.264 103.728 217.117 103.728L216.325 103.684C216.164 103.684 216.098 103.611 216.127 103.464C216.215 102.643 216.56 101.983 217.161 101.484C217.762 100.985 218.488 100.736 219.339 100.736ZM218.943 111.142C219.603 111.142 220.168 110.929 220.637 110.504C221.121 110.079 221.363 109.477 221.363 108.7V106.61C221.363 106.551 221.334 106.522 221.275 106.522H219.559C218.796 106.522 218.18 106.735 217.711 107.16C217.256 107.571 217.029 108.187 217.029 109.008C217.029 109.727 217.205 110.262 217.557 110.614C217.909 110.966 218.371 111.142 218.943 111.142ZM229.07 100.824C229.437 100.824 229.752 100.897 230.016 101.044C230.119 101.103 230.155 101.198 230.126 101.33L229.95 102.078C229.906 102.21 229.811 102.247 229.664 102.188C229.429 102.1 229.143 102.063 228.806 102.078C228.219 102.093 227.743 102.386 227.376 102.958C227.009 103.53 226.826 104.234 226.826 105.07V111.78C226.826 111.927 226.753 112 226.606 112H225.88C225.733 112 225.66 111.927 225.66 111.78V101.132C225.66 100.985 225.733 100.912 225.88 100.912H226.606C226.753 100.912 226.826 100.985 226.826 101.132V102.496C226.826 102.54 226.841 102.562 226.87 102.562C226.899 102.562 226.921 102.54 226.936 102.496C227.376 101.381 228.087 100.824 229.07 100.824ZM233.034 98.69C232.785 98.69 232.572 98.602 232.396 98.426C232.22 98.2353 232.132 98.0007 232.132 97.722C232.132 97.4433 232.22 97.216 232.396 97.04C232.572 96.864 232.785 96.776 233.034 96.776C233.298 96.776 233.511 96.864 233.672 97.04C233.833 97.216 233.914 97.4433 233.914 97.722C233.914 98.0153 233.833 98.25 233.672 98.426C233.511 98.602 233.298 98.69 233.034 98.69ZM232.682 112C232.535 112 232.462 111.927 232.462 111.78V101.132C232.462 100.985 232.535 100.912 232.682 100.912H233.408C233.555 100.912 233.628 100.985 233.628 101.132V111.78C233.628 111.927 233.555 112 233.408 112H232.682ZM240.081 100.736C241.078 100.736 241.856 101.073 242.413 101.748C242.985 102.408 243.271 103.295 243.271 104.41V111.78C243.271 111.927 243.198 112 243.051 112H242.325C242.178 112 242.105 111.927 242.105 111.78V110.988C242.105 110.944 242.09 110.922 242.061 110.922C242.046 110.907 242.024 110.915 241.995 110.944C241.452 111.765 240.602 112.176 239.443 112.176C238.666 112.176 237.991 111.949 237.419 111.494C236.862 111.039 236.583 110.24 236.583 109.096C236.583 107.879 236.92 106.984 237.595 106.412C238.27 105.84 239.172 105.554 240.301 105.554H242.017C242.076 105.554 242.105 105.525 242.105 105.466V104.454C242.105 103.633 241.922 102.98 241.555 102.496C241.203 102.012 240.704 101.77 240.059 101.77C239.546 101.77 239.098 101.931 238.717 102.254C238.35 102.577 238.138 102.995 238.079 103.508C238.079 103.655 238.006 103.728 237.859 103.728L237.067 103.684C236.906 103.684 236.84 103.611 236.869 103.464C236.957 102.643 237.302 101.983 237.903 101.484C238.504 100.985 239.23 100.736 240.081 100.736ZM239.685 111.142C240.345 111.142 240.91 110.929 241.379 110.504C241.863 110.079 242.105 109.477 242.105 108.7V106.61C242.105 106.551 242.076 106.522 242.017 106.522H240.301C239.538 106.522 238.922 106.735 238.453 107.16C237.998 107.571 237.771 108.187 237.771 109.008C237.771 109.727 237.947 110.262 238.299 110.614C238.651 110.966 239.113 111.142 239.685 111.142ZM250.01 100.758C250.905 100.758 251.594 101.059 252.078 101.66C252.562 102.261 252.804 103.105 252.804 104.19V111.78C252.804 111.927 252.731 112 252.584 112H251.858C251.711 112 251.638 111.927 251.638 111.78V104.3C251.638 103.508 251.462 102.892 251.11 102.452C250.773 102.012 250.289 101.792 249.658 101.792C249.013 101.792 248.499 102.027 248.118 102.496C247.751 102.965 247.568 103.611 247.568 104.432V111.78C247.568 111.927 247.495 112 247.348 112H246.622C246.475 112 246.402 111.927 246.402 111.78V101.132C246.402 100.985 246.475 100.912 246.622 100.912H247.348C247.495 100.912 247.568 100.985 247.568 101.132V101.99C247.568 102.034 247.583 102.056 247.612 102.056C247.641 102.056 247.663 102.034 247.678 101.99C248.206 101.169 248.983 100.758 250.01 100.758ZM264.776 96.556C265.802 96.556 266.631 96.9447 267.262 97.722C267.892 98.4847 268.208 99.4893 268.208 100.736C268.208 101.983 267.892 102.98 267.262 103.728C266.646 104.476 265.832 104.85 264.82 104.85H262.378C262.319 104.85 262.29 104.879 262.29 104.938V111.78C262.29 111.927 262.216 112 262.07 112H261.344C261.197 112 261.124 111.927 261.124 111.78V96.776C261.124 96.6293 261.197 96.556 261.344 96.556H264.776ZM264.644 103.882C265.362 103.882 265.942 103.596 266.382 103.024C266.822 102.452 267.042 101.697 267.042 100.758C267.042 99.8047 266.822 99.042 266.382 98.47C265.942 97.898 265.362 97.612 264.644 97.612H262.378C262.319 97.612 262.29 97.6413 262.29 97.7V103.794C262.29 103.853 262.319 103.882 262.378 103.882H264.644ZM273.896 112.176C272.928 112.176 272.143 111.875 271.542 111.274C270.94 110.658 270.64 109.866 270.64 108.898V104.036C270.64 103.068 270.94 102.276 271.542 101.66C272.143 101.044 272.928 100.736 273.896 100.736C274.893 100.736 275.692 101.044 276.294 101.66C276.895 102.261 277.196 103.053 277.196 104.036V108.898C277.196 109.866 276.895 110.658 276.294 111.274C275.692 111.875 274.893 112.176 273.896 112.176ZM273.896 111.142C274.526 111.142 275.04 110.929 275.436 110.504C275.832 110.064 276.03 109.507 276.03 108.832V104.102C276.03 103.413 275.832 102.855 275.436 102.43C275.04 101.99 274.526 101.77 273.896 101.77C273.28 101.77 272.774 101.99 272.378 102.43C271.996 102.855 271.806 103.413 271.806 104.102V108.832C271.806 109.507 271.996 110.064 272.378 110.504C272.774 110.929 273.28 111.142 273.896 111.142ZM282.114 112C281.982 112 281.901 111.934 281.872 111.802L279.122 101.154C279.078 100.993 279.144 100.912 279.32 100.912H280.156C280.288 100.912 280.368 100.978 280.398 101.11L282.51 110.13C282.539 110.247 282.568 110.247 282.598 110.13L284.688 101.11C284.717 100.978 284.798 100.912 284.93 100.912L285.766 100.934C285.942 100.934 286 101.015 285.942 101.176L283.236 111.802C283.206 111.934 283.126 112 282.994 112H282.114ZM294.639 106.654C294.639 106.801 294.566 106.874 294.419 106.874H289.359C289.301 106.874 289.271 106.903 289.271 106.962V108.832C289.271 109.507 289.462 110.064 289.843 110.504C290.239 110.929 290.745 111.142 291.361 111.142C291.875 111.142 292.315 110.988 292.681 110.68C293.048 110.372 293.29 109.969 293.407 109.47C293.451 109.338 293.532 109.272 293.649 109.272L294.353 109.316C294.412 109.316 294.463 109.331 294.507 109.36C294.551 109.389 294.566 109.433 294.551 109.492V109.58C294.405 110.387 294.053 111.025 293.495 111.494C292.938 111.949 292.227 112.176 291.361 112.176C290.393 112.176 289.609 111.875 289.007 111.274C288.406 110.658 288.105 109.866 288.105 108.898V104.036C288.105 103.068 288.406 102.276 289.007 101.66C289.609 101.044 290.393 100.736 291.361 100.736C292.344 100.736 293.136 101.044 293.737 101.66C294.339 102.276 294.639 103.068 294.639 104.036V106.654ZM291.361 101.77C290.745 101.77 290.239 101.99 289.843 102.43C289.462 102.855 289.271 103.413 289.271 104.102V105.774C289.271 105.833 289.301 105.862 289.359 105.862H293.385C293.444 105.862 293.473 105.833 293.473 105.774V104.102C293.473 103.413 293.275 102.855 292.879 102.43C292.498 101.99 291.992 101.77 291.361 101.77ZM301.028 100.824C301.395 100.824 301.71 100.897 301.974 101.044C302.077 101.103 302.113 101.198 302.084 101.33L301.908 102.078C301.864 102.21 301.769 102.247 301.622 102.188C301.387 102.1 301.101 102.063 300.764 102.078C300.177 102.093 299.701 102.386 299.334 102.958C298.967 103.53 298.784 104.234 298.784 105.07V111.78C298.784 111.927 298.711 112 298.564 112H297.838C297.691 112 297.618 111.927 297.618 111.78V101.132C297.618 100.985 297.691 100.912 297.838 100.912H298.564C298.711 100.912 298.784 100.985 298.784 101.132V102.496C298.784 102.54 298.799 102.562 298.828 102.562C298.857 102.562 298.879 102.54 298.894 102.496C299.334 101.381 300.045 100.824 301.028 100.824ZM307.896 101.616C307.896 101.763 307.823 101.836 307.676 101.836H305.916C305.857 101.836 305.828 101.865 305.828 101.924V109.008C305.828 109.741 305.953 110.255 306.202 110.548C306.451 110.827 306.847 110.966 307.39 110.966H307.61C307.757 110.966 307.83 111.039 307.83 111.186V111.78C307.83 111.927 307.757 112 307.61 112H307.17C306.349 112 305.725 111.809 305.3 111.428C304.889 111.047 304.684 110.335 304.684 109.294V101.924C304.684 101.865 304.655 101.836 304.596 101.836H303.694C303.547 101.836 303.474 101.763 303.474 101.616V101.132C303.474 100.985 303.547 100.912 303.694 100.912H304.596C304.655 100.912 304.684 100.883 304.684 100.824V98.36C304.684 98.2133 304.757 98.14 304.904 98.14H305.608C305.755 98.14 305.828 98.2133 305.828 98.36V100.824C305.828 100.883 305.857 100.912 305.916 100.912H307.676C307.823 100.912 307.896 100.985 307.896 101.132V101.616ZM310.002 116.4C309.914 116.4 309.87 116.327 309.87 116.18V115.608C309.87 115.461 309.914 115.388 310.002 115.388H310.112C310.743 115.373 311.19 115.161 311.454 114.75C311.718 114.339 311.997 113.445 312.29 112.066V111.934L309.474 101.154C309.43 100.993 309.496 100.912 309.672 100.912H310.442C310.574 100.912 310.655 100.978 310.684 101.11L312.862 110.262C312.892 110.379 312.921 110.379 312.95 110.262L315.106 101.11C315.121 100.978 315.202 100.912 315.348 100.912L316.14 100.934C316.316 100.934 316.375 101.015 316.316 101.176L313.214 113.122C312.862 114.486 312.488 115.373 312.092 115.784C311.696 116.195 311.044 116.4 310.134 116.4H310.002ZM326.761 97.436C326.13 97.436 325.697 97.6487 325.463 98.074C325.228 98.4847 325.111 99.1373 325.111 100.032V100.824C325.111 100.883 325.14 100.912 325.199 100.912H327.003C327.149 100.912 327.223 100.985 327.223 101.132V101.616C327.223 101.763 327.149 101.836 327.003 101.836H325.199C325.14 101.836 325.111 101.865 325.111 101.924V111.78C325.111 111.927 325.037 112 324.891 112H324.165C324.018 112 323.945 111.927 323.945 111.78V101.924C323.945 101.865 323.915 101.836 323.857 101.836H322.933C322.786 101.836 322.713 101.763 322.713 101.616V101.132C322.713 100.985 322.786 100.912 322.933 100.912H323.857C323.915 100.912 323.945 100.883 323.945 100.824V100.01C323.945 98.778 324.157 97.876 324.583 97.304C325.008 96.7173 325.727 96.424 326.739 96.424H327.069C327.215 96.424 327.289 96.4973 327.289 96.644L327.267 97.216C327.267 97.3627 327.193 97.436 327.047 97.436H326.761ZM332.931 112.176C331.963 112.176 331.178 111.875 330.577 111.274C329.976 110.658 329.675 109.866 329.675 108.898V104.036C329.675 103.068 329.976 102.276 330.577 101.66C331.178 101.044 331.963 100.736 332.931 100.736C333.928 100.736 334.728 101.044 335.329 101.66C335.93 102.261 336.231 103.053 336.231 104.036V108.898C336.231 109.866 335.93 110.658 335.329 111.274C334.728 111.875 333.928 112.176 332.931 112.176ZM332.931 111.142C333.562 111.142 334.075 110.929 334.471 110.504C334.867 110.064 335.065 109.507 335.065 108.832V104.102C335.065 103.413 334.867 102.855 334.471 102.43C334.075 101.99 333.562 101.77 332.931 101.77C332.315 101.77 331.809 101.99 331.413 102.43C331.032 102.855 330.841 103.413 330.841 104.102V108.832C330.841 109.507 331.032 110.064 331.413 110.504C331.809 110.929 332.315 111.142 332.931 111.142ZM342.748 100.824C343.115 100.824 343.43 100.897 343.694 101.044C343.797 101.103 343.833 101.198 343.804 101.33L343.628 102.078C343.584 102.21 343.489 102.247 343.342 102.188C343.107 102.1 342.821 102.063 342.484 102.078C341.897 102.093 341.421 102.386 341.054 102.958C340.687 103.53 340.504 104.234 340.504 105.07V111.78C340.504 111.927 340.431 112 340.284 112H339.558C339.411 112 339.338 111.927 339.338 111.78V101.132C339.338 100.985 339.411 100.912 339.558 100.912H340.284C340.431 100.912 340.504 100.985 340.504 101.132V102.496C340.504 102.54 340.519 102.562 340.548 102.562C340.577 102.562 340.599 102.54 340.614 102.496C341.054 101.381 341.765 100.824 342.748 100.824ZM357.364 112C357.218 112 357.137 111.934 357.122 111.802L356.528 108.92C356.528 108.861 356.492 108.832 356.418 108.832H352.128C352.055 108.832 352.018 108.861 352.018 108.92L351.402 111.802C351.388 111.934 351.307 112 351.16 112H350.434C350.273 112 350.207 111.919 350.236 111.758L353.58 96.798C353.61 96.666 353.69 96.6 353.822 96.6H354.702C354.834 96.6 354.915 96.666 354.944 96.798L358.31 111.758C358.34 111.919 358.274 112 358.112 112H357.364ZM352.26 107.776C352.231 107.835 352.253 107.864 352.326 107.864H356.198C356.242 107.864 356.264 107.835 356.264 107.776L354.328 98.602C354.299 98.4847 354.27 98.4847 354.24 98.602L352.26 107.776ZM361.156 112C361.01 112 360.936 111.927 360.936 111.78V96.82C360.936 96.6733 361.01 96.6 361.156 96.6H361.882C362.029 96.6 362.102 96.6733 362.102 96.82V111.78C362.102 111.927 362.029 112 361.882 112H361.156ZM365.421 112C365.274 112 365.201 111.927 365.201 111.78V96.82C365.201 96.6733 365.274 96.6 365.421 96.6H366.147C366.293 96.6 366.367 96.6733 366.367 96.82V111.78C366.367 111.927 366.293 112 366.147 112H365.421Z" fill="white"/>
</g>
</g>
<g filter="url(#filter5_d_271_1824)">
<path d="M4.25517 31C4.10851 31 4.03517 30.9267 4.03517 30.78L4.03517 15.82C4.03517 15.6733 4.10851 15.6 4.25517 15.6H5.37717C5.52384 15.6 5.59717 15.6733 5.59717 15.82V29.548C5.59717 29.6067 5.62651 29.636 5.68517 29.636H10.7232C10.8698 29.636 10.9432 29.7093 10.9432 29.856V30.78C10.9432 30.9267 10.8698 31 10.7232 31H4.25517ZM19.5998 25.808C19.5998 25.9547 19.5265 26.028 19.3798 26.028H14.3638C14.3052 26.028 14.2758 26.0573 14.2758 26.116V27.722C14.2758 28.338 14.4445 28.844 14.7818 29.24C15.1338 29.6213 15.5885 29.812 16.1458 29.812C16.6152 29.812 17.0112 29.6727 17.3338 29.394C17.6712 29.1007 17.8912 28.7267 17.9938 28.272C18.0378 28.14 18.1185 28.074 18.2358 28.074L19.3358 28.118C19.4972 28.118 19.5632 28.1987 19.5338 28.36C19.4165 29.2253 19.0572 29.9147 18.4558 30.428C17.8692 30.9267 17.0992 31.176 16.1458 31.176C15.1045 31.176 14.2685 30.868 13.6378 30.252C13.0218 29.636 12.7138 28.822 12.7138 27.81V23.058C12.7138 22.0607 13.0218 21.254 13.6378 20.638C14.2685 20.0073 15.1045 19.692 16.1458 19.692C17.2018 19.692 18.0378 20.0073 18.6538 20.638C19.2845 21.254 19.5998 22.0607 19.5998 23.058V25.808ZM16.1458 21.056C15.5885 21.056 15.1338 21.254 14.7818 21.65C14.4445 22.0313 14.2758 22.5373 14.2758 23.168V24.642C14.2758 24.7007 14.3052 24.73 14.3638 24.73H17.9718C18.0305 24.73 18.0598 24.7007 18.0598 24.642V23.168C18.0598 22.5373 17.8838 22.0313 17.5318 21.65C17.1798 21.254 16.7178 21.056 16.1458 21.056ZM25.8109 16.788C25.2535 16.788 24.8575 16.9787 24.6229 17.36C24.3882 17.7267 24.2709 18.306 24.2709 19.098V19.78C24.2709 19.8387 24.3002 19.868 24.3589 19.868H26.0529C26.1995 19.868 26.2729 19.9413 26.2729 20.088V20.814C26.2729 20.9607 26.1995 21.034 26.0529 21.034H24.3589C24.3002 21.034 24.2709 21.0633 24.2709 21.122V30.78C24.2709 30.9267 24.1975 31 24.0509 31H22.9509C22.8042 31 22.7309 30.9267 22.7309 30.78V21.122C22.7309 21.0633 22.7015 21.034 22.6429 21.034H21.7629C21.6162 21.034 21.5429 20.9607 21.5429 20.814V20.088C21.5429 19.9413 21.6162 19.868 21.7629 19.868H22.6429C22.7015 19.868 22.7309 19.8387 22.7309 19.78V19.076C22.7309 17.8 22.9655 16.876 23.4349 16.304C23.9042 15.732 24.6889 15.446 25.7889 15.446H26.0969C26.2435 15.446 26.3169 15.5193 26.3169 15.666L26.2949 16.568C26.2949 16.7147 26.2215 16.788 26.0749 16.788H25.8109ZM32.705 20.814C32.705 20.9607 32.6316 21.034 32.485 21.034H30.813C30.7543 21.034 30.725 21.0633 30.725 21.122V27.854C30.725 28.5287 30.8423 28.998 31.077 29.262C31.3116 29.5113 31.671 29.6287 32.155 29.614H32.375C32.5216 29.614 32.595 29.6873 32.595 29.834V30.78C32.595 30.9267 32.5216 31 32.375 31H31.825C30.9596 31 30.2996 30.8167 29.845 30.45C29.405 30.0687 29.185 29.3573 29.185 28.316V21.122C29.185 21.0633 29.1556 21.034 29.097 21.034H28.239C28.0923 21.034 28.019 20.9607 28.019 20.814V20.088C28.019 19.9413 28.0923 19.868 28.239 19.868H29.097C29.1556 19.868 29.185 19.8387 29.185 19.78V17.316C29.185 17.1693 29.2583 17.096 29.405 17.096H30.505C30.6516 17.096 30.725 17.1693 30.725 17.316V19.78C30.725 19.8387 30.7543 19.868 30.813 19.868H32.485C32.6316 19.868 32.705 19.9413 32.705 20.088V20.814ZM35.9962 17.888C35.6735 17.888 35.4095 17.778 35.2042 17.558C34.9989 17.338 34.8962 17.0593 34.8962 16.722C34.8962 16.3993 34.9989 16.1353 35.2042 15.93C35.4095 15.71 35.6735 15.6 35.9962 15.6C36.3042 15.6 36.5535 15.71 36.7442 15.93C36.9495 16.1353 37.0522 16.3993 37.0522 16.722C37.0522 17.0593 36.9495 17.338 36.7442 17.558C36.5535 17.778 36.3042 17.888 35.9962 17.888ZM35.4242 31C35.2775 31 35.2042 30.9267 35.2042 30.78V20.088C35.2042 19.9413 35.2775 19.868 35.4242 19.868H36.5462C36.6929 19.868 36.7662 19.9413 36.7662 20.088V30.78C36.7662 30.9267 36.6929 31 36.5462 31H35.4242ZM42.8855 31.11C41.8735 31.11 41.0595 30.8533 40.4435 30.34C39.8421 29.812 39.5415 29.1153 39.5415 28.25V28.096C39.5415 27.9493 39.6148 27.876 39.7615 27.876H40.8175C40.9641 27.876 41.0375 27.9347 41.0375 28.052V28.228C41.0375 28.6973 41.2061 29.0933 41.5435 29.416C41.8955 29.7387 42.3501 29.9 42.9075 29.9C43.4355 29.9 43.8608 29.7387 44.1835 29.416C44.5061 29.0933 44.6675 28.6827 44.6675 28.184C44.6675 27.9493 44.6161 27.7293 44.5135 27.524C44.4108 27.3187 44.3155 27.1647 44.2275 27.062C44.1395 26.9447 43.9561 26.8053 43.6775 26.644C43.3988 26.4827 43.2081 26.3873 43.1055 26.358C43.0175 26.314 42.7901 26.2113 42.4235 26.05C42.0861 25.918 41.8221 25.808 41.6315 25.72C41.4555 25.632 41.2208 25.4927 40.9275 25.302C40.6341 25.0967 40.4068 24.8913 40.2455 24.686C40.0841 24.4807 39.9375 24.2167 39.8055 23.894C39.6881 23.5567 39.6295 23.19 39.6295 22.794C39.6295 21.8553 39.9155 21.1147 40.4875 20.572C41.0741 20.0293 41.8588 19.758 42.8415 19.758C43.8388 19.758 44.6308 20.0367 45.2175 20.594C45.8041 21.1513 46.0975 21.892 46.0975 22.816V22.882C46.0975 23.0287 46.0241 23.102 45.8775 23.102H44.8655C44.7188 23.102 44.6455 23.0433 44.6455 22.926V22.75C44.6455 22.2513 44.4768 21.8407 44.1395 21.518C43.8168 21.1953 43.3915 21.034 42.8635 21.034C42.3355 21.034 41.9101 21.2027 41.5875 21.54C41.2795 21.8627 41.1255 22.266 41.1255 22.75C41.1255 23.0287 41.1768 23.2707 41.2795 23.476C41.3821 23.6813 41.5508 23.872 41.7855 24.048C42.0348 24.2093 42.2475 24.334 42.4235 24.422C42.6141 24.51 42.9001 24.6347 43.2815 24.796C43.7361 24.9867 44.0808 25.148 44.3155 25.28C44.5501 25.412 44.8435 25.61 45.1955 25.874C45.5475 26.138 45.8041 26.4607 45.9655 26.842C46.1415 27.2087 46.2295 27.634 46.2295 28.118C46.2295 29.0273 45.9288 29.7533 45.3275 30.296C44.7261 30.8387 43.9121 31.11 42.8855 31.11ZM52.566 20.814C52.566 20.9607 52.4926 21.034 52.346 21.034H50.674C50.6153 21.034 50.586 21.0633 50.586 21.122V27.854C50.586 28.5287 50.7033 28.998 50.938 29.262C51.1726 29.5113 51.532 29.6287 52.016 29.614H52.236C52.3826 29.614 52.456 29.6873 52.456 29.834V30.78C52.456 30.9267 52.3826 31 52.236 31H51.686C50.8206 31 50.1606 30.8167 49.706 30.45C49.266 30.0687 49.046 29.3573 49.046 28.316V21.122C49.046 21.0633 49.0166 21.034 48.958 21.034H48.1C47.9533 21.034 47.88 20.9607 47.88 20.814V20.088C47.88 19.9413 47.9533 19.868 48.1 19.868H48.958C49.0166 19.868 49.046 19.8387 49.046 19.78V17.316C49.046 17.1693 49.1193 17.096 49.266 17.096H50.366C50.5126 17.096 50.586 17.1693 50.586 17.316V19.78C50.586 19.8387 50.6153 19.868 50.674 19.868H52.346C52.4926 19.868 52.566 19.9413 52.566 20.088V20.814ZM66.1135 30.186C65.4388 30.846 64.5368 31.176 63.4075 31.176C62.2782 31.176 61.3762 30.846 60.7015 30.186C60.0268 29.5113 59.6895 28.6167 59.6895 27.502V19.098C59.6895 17.9833 60.0268 17.096 60.7015 16.436C61.3762 15.7613 62.2782 15.424 63.4075 15.424C64.5368 15.424 65.4388 15.7613 66.1135 16.436C66.8028 17.1107 67.1475 18.0053 67.1475 19.12V20.066C67.1475 20.2127 67.0742 20.286 66.9275 20.286H65.8055C65.6588 20.286 65.5855 20.2127 65.5855 20.066V19.076C65.5855 18.3867 65.3875 17.8367 64.9915 17.426C64.5955 17.0007 64.0675 16.788 63.4075 16.788C62.7622 16.788 62.2342 17.0007 61.8235 17.426C61.4275 17.8513 61.2295 18.4013 61.2295 19.076V27.524C61.2295 28.1987 61.4275 28.7487 61.8235 29.174C62.2342 29.5993 62.7622 29.812 63.4075 29.812C64.0675 29.812 64.5955 29.6067 64.9915 29.196C65.3875 28.7707 65.5855 28.2133 65.5855 27.524V24.708C65.5855 24.6493 65.5562 24.62 65.4975 24.62H63.6055C63.4588 24.62 63.3855 24.5467 63.3855 24.4V23.476C63.3855 23.3293 63.4588 23.256 63.6055 23.256L66.9275 23.256C67.0742 23.256 67.1475 23.3293 67.1475 23.476V27.502C67.1475 28.6167 66.8028 29.5113 66.1135 30.186ZM73.7984 19.758C74.165 19.758 74.4804 19.8387 74.7444 20C74.847 20.0587 74.8837 20.154 74.8544 20.286L74.6124 21.408C74.5977 21.54 74.5024 21.584 74.3264 21.54C74.0624 21.4227 73.7544 21.3933 73.4024 21.452C72.8744 21.4813 72.4417 21.76 72.1044 22.288C71.767 22.8013 71.5984 23.432 71.5984 24.18V30.78C71.5984 30.9267 71.525 31 71.3784 31H70.2564C70.1097 31 70.0364 30.9267 70.0364 30.78V20.088C70.0364 19.9413 70.1097 19.868 70.2564 19.868H71.3784C71.525 19.868 71.5984 19.9413 71.5984 20.088V21.408C71.613 21.4667 71.6497 21.474 71.7084 21.43C72.1337 20.3153 72.8304 19.758 73.7984 19.758ZM77.8237 17.888C77.501 17.888 77.237 17.778 77.0317 17.558C76.8264 17.338 76.7237 17.0593 76.7237 16.722C76.7237 16.3993 76.8264 16.1353 77.0317 15.93C77.237 15.71 77.501 15.6 77.8237 15.6C78.1317 15.6 78.381 15.71 78.5717 15.93C78.777 16.1353 78.8797 16.3993 78.8797 16.722C78.8797 17.0593 78.777 17.338 78.5717 17.558C78.381 17.778 78.1317 17.888 77.8237 17.888ZM77.2517 31C77.105 31 77.0317 30.9267 77.0317 30.78V20.088C77.0317 19.9413 77.105 19.868 77.2517 19.868H78.3737C78.5204 19.868 78.5937 19.9413 78.5937 20.088V30.78C78.5937 30.9267 78.5204 31 78.3737 31H77.2517ZM85.3509 16.788C84.7936 16.788 84.3976 16.9787 84.1629 17.36C83.9283 17.7267 83.8109 18.306 83.8109 19.098V19.78C83.8109 19.8387 83.8403 19.868 83.8989 19.868H85.5929C85.7396 19.868 85.8129 19.9413 85.8129 20.088V20.814C85.8129 20.9607 85.7396 21.034 85.5929 21.034H83.8989C83.8403 21.034 83.8109 21.0633 83.8109 21.122V30.78C83.8109 30.9267 83.7376 31 83.5909 31H82.4909C82.3443 31 82.2709 30.9267 82.2709 30.78V21.122C82.2709 21.0633 82.2416 21.034 82.1829 21.034H81.3029C81.1563 21.034 81.0829 20.9607 81.0829 20.814V20.088C81.0829 19.9413 81.1563 19.868 81.3029 19.868H82.1829C82.2416 19.868 82.2709 19.8387 82.2709 19.78V19.076C82.2709 17.8 82.5056 16.876 82.9749 16.304C83.4443 15.732 84.2289 15.446 85.3289 15.446H85.6369C85.7836 15.446 85.8569 15.5193 85.8569 15.666L85.8349 16.568C85.8349 16.7147 85.7616 16.788 85.6149 16.788H85.3509ZM92.245 20.814C92.245 20.9607 92.1717 21.034 92.025 21.034H90.353C90.2944 21.034 90.265 21.0633 90.265 21.122V27.854C90.265 28.5287 90.3824 28.998 90.617 29.262C90.8517 29.5113 91.211 29.6287 91.695 29.614H91.915C92.0617 29.614 92.135 29.6873 92.135 29.834V30.78C92.135 30.9267 92.0617 31 91.915 31H91.365C90.4997 31 89.8397 30.8167 89.385 30.45C88.945 30.0687 88.725 29.3573 88.725 28.316V21.122C88.725 21.0633 88.6957 21.034 88.637 21.034H87.779C87.6324 21.034 87.559 20.9607 87.559 20.814V20.088C87.559 19.9413 87.6324 19.868 87.779 19.868H88.637C88.6957 19.868 88.725 19.8387 88.725 19.78V17.316C88.725 17.1693 88.7984 17.096 88.945 17.096H90.045C90.1917 17.096 90.265 17.1693 90.265 17.316V19.78C90.265 19.8387 90.2944 19.868 90.353 19.868H92.025C92.1717 19.868 92.245 19.9413 92.245 20.088V20.814Z" fill="white"/>
</g>
<g filter="url(#filter6_d_271_1824)">
<path d="M38.0825 37.6671C38.4399 37.4826 38.8551 37.4467 39.2339 37.5675C39.6128 37.6883 39.9256 37.9562 40.104 38.3116C40.6611 39.426 41.3663 40.4903 42.1724 41.4669C59.7748 57.8469 87.8219 56.4557 111.72 56.6593C112.125 56.6504 112.529 56.6393 112.934 56.629C109.206 53.7194 105.659 50.5684 102.294 47.1739C101.862 46.7379 101.433 46.2976 101.006 45.8536C101.552 46.1376 102.096 46.4259 102.636 46.7179C107.498 49.3463 112.117 52.2994 116.493 55.5763C116.56 55.6264 116.627 55.6763 116.694 55.7266L118.165 56.8331L116.791 58.0479C112.759 61.6148 108.466 64.8884 103.913 67.8682C103.399 68.2045 102.881 68.5375 102.361 68.8663C102.748 68.3881 103.14 67.9132 103.534 67.4425C106.379 64.0454 109.399 60.8457 112.59 57.838C112.314 57.851 112.038 57.8656 111.761 57.878C87.6099 58.0104 60.1684 60.9829 39.9526 43.3429C38.9955 42.2363 38.1335 41.0033 37.438 39.6886C37.2514 39.3372 37.2135 38.927 37.3345 38.5479C37.4553 38.1691 37.7251 37.8517 38.0825 37.6671Z" fill="white"/>
</g>
<g filter="url(#filter7_d_271_1824)">
<path d="M9.804 104C9.65733 104 9.584 103.927 9.584 103.78V88.82C9.584 88.6733 9.65733 88.6 9.804 88.6H13.192C14.3213 88.6 15.2233 88.974 15.898 89.722C16.5727 90.4553 16.91 91.4453 16.91 92.692V99.908C16.91 101.155 16.5727 102.152 15.898 102.9C15.2233 103.633 14.3213 104 13.192 104H9.804ZM11.146 102.548C11.146 102.607 11.1753 102.636 11.234 102.636L13.17 102.614C13.8153 102.614 14.3287 102.365 14.71 101.866C15.106 101.367 15.3113 100.693 15.326 99.842V92.758C15.326 91.8927 15.1353 91.2107 14.754 90.712C14.3727 90.2133 13.8447 89.964 13.17 89.964H11.234C11.1753 89.964 11.146 89.9933 11.146 90.052V102.548ZM26.8726 98.808C26.8726 98.9547 26.7992 99.028 26.6526 99.028H21.6366C21.5779 99.028 21.5486 99.0573 21.5486 99.116V100.722C21.5486 101.338 21.7172 101.844 22.0546 102.24C22.4066 102.621 22.8612 102.812 23.4186 102.812C23.8879 102.812 24.2839 102.673 24.6066 102.394C24.9439 102.101 25.1639 101.727 25.2666 101.272C25.3106 101.14 25.3912 101.074 25.5086 101.074L26.6086 101.118C26.7699 101.118 26.8359 101.199 26.8066 101.36C26.6892 102.225 26.3299 102.915 25.7286 103.428C25.1419 103.927 24.3719 104.176 23.4186 104.176C22.3772 104.176 21.5412 103.868 20.9106 103.252C20.2946 102.636 19.9866 101.822 19.9866 100.81V96.058C19.9866 95.0607 20.2946 94.254 20.9106 93.638C21.5412 93.0073 22.3772 92.692 23.4186 92.692C24.4746 92.692 25.3106 93.0073 25.9266 93.638C26.5572 94.254 26.8726 95.0607 26.8726 96.058V98.808ZM23.4186 94.056C22.8612 94.056 22.4066 94.254 22.0546 94.65C21.7172 95.0313 21.5486 95.5373 21.5486 96.168V97.642C21.5486 97.7007 21.5779 97.73 21.6366 97.73H25.2446C25.3032 97.73 25.3326 97.7007 25.3326 97.642V96.168C25.3326 95.5373 25.1566 95.0313 24.8046 94.65C24.4526 94.254 23.9906 94.056 23.4186 94.056ZM35.5455 103.318C34.9149 103.89 34.0789 104.176 33.0375 104.176C31.9962 104.176 31.1602 103.868 30.5295 103.252C29.9135 102.636 29.6055 101.822 29.6055 100.81V96.058C29.6055 95.0753 29.9209 94.2687 30.5515 93.638C31.1822 93.0073 32.0109 92.692 33.0375 92.692C34.0642 92.692 34.9002 92.9927 35.5455 93.594C36.1909 94.1807 36.5135 94.8993 36.5135 95.75V95.97C36.5135 96.1167 36.4402 96.19 36.2935 96.19L35.1715 96.234C35.0249 96.234 34.9515 96.168 34.9515 96.036V95.86C34.9515 95.376 34.7682 94.958 34.4015 94.606C34.0495 94.2393 33.5949 94.056 33.0375 94.056C32.4802 94.056 32.0255 94.254 31.6735 94.65C31.3362 95.0313 31.1675 95.5373 31.1675 96.168V100.7C31.1675 101.331 31.3362 101.844 31.6735 102.24C32.0255 102.621 32.4802 102.812 33.0375 102.812C33.5949 102.812 34.0495 102.636 34.4015 102.284C34.7682 101.917 34.9515 101.492 34.9515 101.008V100.854C34.9515 100.707 35.0249 100.634 35.1715 100.634L36.2935 100.656C36.4402 100.656 36.5135 100.729 36.5135 100.876V101.118C36.5135 101.998 36.1909 102.731 35.5455 103.318ZM45.1011 103.252C44.4704 103.868 43.6271 104.176 42.5711 104.176C41.5151 104.176 40.6718 103.868 40.0411 103.252C39.4251 102.636 39.1171 101.822 39.1171 100.81V96.058C39.1171 95.0607 39.4324 94.254 40.0631 93.638C40.6938 93.0073 41.5298 92.692 42.5711 92.692C43.6124 92.692 44.4484 93.0073 45.0791 93.638C45.7244 94.254 46.0471 95.0607 46.0471 96.058V100.81C46.0471 101.822 45.7318 102.636 45.1011 103.252ZM41.2071 102.24C41.5591 102.621 42.0138 102.812 42.5711 102.812C43.1284 102.812 43.5831 102.621 43.9351 102.24C44.3018 101.844 44.4851 101.338 44.4851 100.722V96.168C44.4851 95.5373 44.3018 95.0313 43.9351 94.65C43.5831 94.254 43.1284 94.056 42.5711 94.056C42.0138 94.056 41.5591 94.254 41.2071 94.65C40.8551 95.0313 40.6791 95.5373 40.6791 96.168V100.722C40.6791 101.338 40.8551 101.844 41.2071 102.24ZM54.1885 88.82C54.1885 88.6733 54.2618 88.6 54.4085 88.6H55.5305C55.6772 88.6 55.7505 88.6733 55.7505 88.82V103.78C55.7505 103.927 55.6772 104 55.5305 104H54.4085C54.2618 104 54.1885 103.927 54.1885 103.78V103.142C54.1885 103.039 54.1518 103.025 54.0785 103.098C53.5652 103.817 52.8392 104.176 51.9005 104.176C51.0352 104.176 50.3312 103.868 49.7885 103.252C49.2605 102.621 48.9745 101.807 48.9305 100.81C48.9158 100.267 48.9085 99.4533 48.9085 98.368C48.9085 97.3267 48.9158 96.5347 48.9305 95.992C48.9598 95.0093 49.2385 94.2173 49.7665 93.616C50.3092 93 51.0205 92.692 51.9005 92.692C52.8538 92.692 53.5798 93.044 54.0785 93.748C54.1518 93.8213 54.1885 93.8067 54.1885 93.704V88.82ZM52.3625 102.812C52.8905 102.812 53.3232 102.614 53.6605 102.218C54.0125 101.807 54.1885 101.272 54.1885 100.612V96.256C54.1885 95.596 54.0125 95.068 53.6605 94.672C53.3232 94.2613 52.8905 94.056 52.3625 94.056C51.7905 94.056 51.3285 94.2613 50.9765 94.672C50.6245 95.068 50.4558 95.596 50.4705 96.256V98.434V100.612C50.4558 101.257 50.6245 101.785 50.9765 102.196C51.3285 102.607 51.7905 102.812 52.3625 102.812ZM65.7352 98.808C65.7352 98.9547 65.6619 99.028 65.5152 99.028H60.4992C60.4406 99.028 60.4112 99.0573 60.4112 99.116V100.722C60.4112 101.338 60.5799 101.844 60.9172 102.24C61.2692 102.621 61.7239 102.812 62.2812 102.812C62.7506 102.812 63.1466 102.673 63.4692 102.394C63.8066 102.101 64.0266 101.727 64.1292 101.272C64.1732 101.14 64.2539 101.074 64.3712 101.074L65.4712 101.118C65.6326 101.118 65.6986 101.199 65.6692 101.36C65.5519 102.225 65.1926 102.915 64.5912 103.428C64.0046 103.927 63.2346 104.176 62.2812 104.176C61.2399 104.176 60.4039 103.868 59.7732 103.252C59.1572 102.636 58.8492 101.822 58.8492 100.81V96.058C58.8492 95.0607 59.1572 94.254 59.7732 93.638C60.4039 93.0073 61.2399 92.692 62.2812 92.692C63.3372 92.692 64.1732 93.0073 64.7892 93.638C65.4199 94.254 65.7352 95.0607 65.7352 96.058V98.808ZM62.2812 94.056C61.7239 94.056 61.2692 94.254 60.9172 94.65C60.5799 95.0313 60.4112 95.5373 60.4112 96.168V97.642C60.4112 97.7007 60.4406 97.73 60.4992 97.73H64.1072C64.1659 97.73 64.1952 97.7007 64.1952 97.642V96.168C64.1952 95.5373 64.0192 95.0313 63.6672 94.65C63.3152 94.254 62.8532 94.056 62.2812 94.056ZM73.7702 88.82C73.7702 88.6733 73.8435 88.6 73.9902 88.6H75.1122C75.2589 88.6 75.3322 88.6733 75.3322 88.82V103.78C75.3322 103.927 75.2589 104 75.1122 104H73.9902C73.8435 104 73.7702 103.927 73.7702 103.78V103.142C73.7702 103.039 73.7335 103.025 73.6602 103.098C73.1469 103.817 72.4209 104.176 71.4822 104.176C70.6169 104.176 69.9129 103.868 69.3702 103.252C68.8422 102.621 68.5562 101.807 68.5122 100.81C68.4975 100.267 68.4902 99.4533 68.4902 98.368C68.4902 97.3267 68.4975 96.5347 68.5122 95.992C68.5415 95.0093 68.8202 94.2173 69.3482 93.616C69.8909 93 70.6022 92.692 71.4822 92.692C72.4355 92.692 73.1615 93.044 73.6602 93.748C73.7335 93.8213 73.7702 93.8067 73.7702 93.704V88.82ZM71.9442 102.812C72.4722 102.812 72.9049 102.614 73.2422 102.218C73.5942 101.807 73.7702 101.272 73.7702 100.612V96.256C73.7702 95.596 73.5942 95.068 73.2422 94.672C72.9049 94.2613 72.4722 94.056 71.9442 94.056C71.3722 94.056 70.9102 94.2613 70.5582 94.672C70.2062 95.068 70.0375 95.596 70.0522 96.256V98.434V100.612C70.0375 101.257 70.2062 101.785 70.5582 102.196C70.9102 102.607 71.3722 102.812 71.9442 102.812Z" fill="white"/>
</g>
<g filter="url(#filter8_d_271_1824)">
<path d="M107.233 125.002C111.545 121.238 115.551 117.209 119.25 112.917C119.358 112.792 119.466 112.667 119.573 112.541L120.679 111.266L119.269 110.317C114.683 107.279 109.885 104.558 104.875 102.154C104.301 101.879 103.724 101.608 103.145 101.342C103.613 101.775 104.084 102.204 104.557 102.628C108.199 105.895 112.006 108.914 115.977 111.689C115.168 111.826 114.354 111.963 113.552 112.094C90.6566 115.336 66.2104 119.683 44.5217 112.45C43.3984 111.965 42.2938 111.389 41.3119 110.739C40.98 110.519 40.5755 110.442 40.1868 110.527C39.7982 110.611 39.4567 110.85 39.239 111.189C39.0213 111.528 38.9455 111.938 39.0301 112.327C39.1146 112.715 39.3524 113.051 39.6894 113.262C40.8665 114.001 42.1391 114.622 43.4007 115.132C66.9356 122.269 90.7377 117.032 113.763 113.294C114.257 113.201 114.755 113.106 115.253 113.01C112.219 116.696 109.4 120.569 106.801 124.63C106.459 125.166 106.12 125.705 105.785 126.247C106.271 125.836 106.754 125.42 107.233 125.002Z" fill="white"/>
</g>
<path d="M137.362 162.224H124.928C124.457 162.224 124.005 162.037 123.672 161.703C123.339 161.37 123.151 160.918 123.151 160.447V148.013M140.915 154.23L139.763 153.079C139.362 152.678 138.818 152.452 138.25 152.452C137.682 152.452 137.138 152.678 136.737 153.079L131.145 158.671M133.81 149.789C133.81 150.771 133.014 151.566 132.033 151.566C131.052 151.566 130.257 150.771 130.257 149.789C130.257 148.808 131.052 148.013 132.033 148.013C133.014 148.013 133.81 148.808 133.81 149.789ZM128.48 144.461H139.138C140.119 144.461 140.915 145.256 140.915 146.237V156.895C140.915 157.876 140.119 158.671 139.138 158.671H128.48C127.499 158.671 126.704 157.876 126.704 156.895V146.237C126.704 145.256 127.499 144.461 128.48 144.461Z" stroke="white" stroke-opacity="0.7" stroke-width="1.5" stroke-linecap="round" stroke-linejoin="round"/>
<path d="M159.832 161.336H155.125C154.654 161.336 154.202 161.148 153.869 160.815C153.536 160.482 153.349 160.03 153.349 159.559V147.125C153.349 146.654 153.536 146.202 153.869 145.869C154.202 145.536 154.654 145.349 155.125 145.349H167.559C168.03 145.349 168.482 145.536 168.815 145.869C169.148 146.202 169.335 146.654 169.335 147.125V156.007L166.582 153.253C166.248 152.926 165.798 152.743 165.33 152.746C164.862 152.748 164.414 152.935 164.083 153.266L156.013 161.336M163.118 159.559L165.783 162.224M165.783 162.224V157.339M165.783 162.224L168.447 159.559M160.454 150.678C160.454 151.659 159.659 152.454 158.678 152.454C157.697 152.454 156.901 151.659 156.901 150.678C156.901 149.697 157.697 148.901 158.678 148.901C159.659 148.901 160.454 149.697 160.454 150.678Z" stroke="white" stroke-opacity="0.7" stroke-width="1.5" stroke-linecap="round" stroke-linejoin="round"/>
<defs>
<filter id="filter0_d_271_1824" x="106.354" y="19.5086" width="362.023" height="157.578" filterUnits="userSpaceOnUse" color-interpolation-filters="sRGB">
<feFlood flood-opacity="0" result="BackgroundImageFix"/>
<feColorMatrix in="SourceAlpha" type="matrix" values="0 0 0 0 0 0 0 0 0 0 0 0 0 0 0 0 0 0 127 0" result="hardAlpha"/>
<feOffset dy="2"/>
<feGaussianBlur stdDeviation="2"/>
<feComposite in2="hardAlpha" operator="out"/>
<feColorMatrix type="matrix" values="0 0 0 0 0 0 0 0 0 0 0 0 0 0 0 0 0 0 0.5 0"/>
<feBlend mode="normal" in2="BackgroundImageFix" result="effect1_dropShadow_271_1824"/>
<feBlend mode="normal" in="SourceGraphic" in2="effect1_dropShadow_271_1824" result="shape"/>
</filter>
<filter id="filter1_d_271_1824" x="435.798" y="149.053" width="11.9233" height="11.08" filterUnits="userSpaceOnUse" color-interpolation-filters="sRGB">
<feFlood flood-opacity="0" result="BackgroundImageFix"/>
<feColorMatrix in="SourceAlpha" type="matrix" values="0 0 0 0 0 0 0 0 0 0 0 0 0 0 0 0 0 0 127 0" result="hardAlpha"/>
<feOffset dy="1"/>
<feGaussianBlur stdDeviation="1"/>
<feComposite in2="hardAlpha" operator="out"/>
<feColorMatrix type="matrix" values="0 0 0 0 0 0 0 0 0 0 0 0 0 0 0 0 0 0 0.5 0"/>
<feBlend mode="normal" in2="BackgroundImageFix" result="effect1_dropShadow_271_1824"/>
<feBlend mode="normal" in="SourceGraphic" in2="effect1_dropShadow_271_1824" result="shape"/>
</filter>
<filter id="filter2_d_271_1824" x="106.354" y="22" width="362" height="120" filterUnits="userSpaceOnUse" color-interpolation-filters="sRGB">
<feFlood flood-opacity="0" result="BackgroundImageFix"/>
<feColorMatrix in="SourceAlpha" type="matrix" values="0 0 0 0 0 0 0 0 0 0 0 0 0 0 0 0 0 0 127 0" result="hardAlpha"/>
<feOffset dy="4"/>
<feGaussianBlur stdDeviation="2"/>
<feComposite in2="hardAlpha" operator="out"/>
<feColorMatrix type="matrix" values="0 0 0 0 0 0 0 0 0 0 0 0 0 0 0 0 0 0 0.6 0"/>
<feBlend mode="normal" in2="BackgroundImageFix" result="effect1_dropShadow_271_1824"/>
<feBlend mode="normal" in="SourceGraphic" in2="effect1_dropShadow_271_1824" result="shape"/>
</filter>
<filter id="filter3_d_271_1824" x="164.375" y="44.424" width="104.425" height="19.752" filterUnits="userSpaceOnUse" color-interpolation-filters="sRGB">
<feFlood flood-opacity="0" result="BackgroundImageFix"/>
<feColorMatrix in="SourceAlpha" type="matrix" values="0 0 0 0 0 0 0 0 0 0 0 0 0 0 0 0 0 0 127 0" result="hardAlpha"/>
<feOffset dy="2"/>
<feGaussianBlur stdDeviation="1"/>
<feComposite in2="hardAlpha" operator="out"/>
<feColorMatrix type="matrix" values="0 0 0 0 0 0 0 0 0 0 0 0 0 0 0 0 0 0 0.5 0"/>
<feBlend mode="normal" in2="BackgroundImageFix" result="effect1_dropShadow_271_1824"/>
<feBlend mode="normal" in="SourceGraphic" in2="effect1_dropShadow_271_1824" result="shape"/>
</filter>
<filter id="filter4_d_271_1824" x="165.146" y="96.424" width="203.221" height="23.976" filterUnits="userSpaceOnUse" color-interpolation-filters="sRGB">
<feFlood flood-opacity="0" result="BackgroundImageFix"/>
<feColorMatrix in="SourceAlpha" type="matrix" values="0 0 0 0 0 0 0 0 0 0 0 0 0 0 0 0 0 0 127 0" result="hardAlpha"/>
<feOffset dy="2"/>
<feGaussianBlur stdDeviation="1"/>
<feComposite in2="hardAlpha" operator="out"/>
<feColorMatrix type="matrix" values="0 0 0 0 0 0 0 0 0 0 0 0 0 0 0 0 0 0 0.5 0"/>
<feBlend mode="normal" in2="BackgroundImageFix" result="effect1_dropShadow_271_1824"/>
<feBlend mode="normal" in="SourceGraphic" in2="effect1_dropShadow_271_1824" result="shape"/>
</filter>
<filter id="filter5_d_271_1824" x="1.03516" y="14.424" width="94.21" height="21.752" filterUnits="userSpaceOnUse" color-interpolation-filters="sRGB">
<feFlood flood-opacity="0" result="BackgroundImageFix"/>
<feColorMatrix in="SourceAlpha" type="matrix" values="0 0 0 0 0 0 0 0 0 0 0 0 0 0 0 0 0 0 127 0" result="hardAlpha"/>
<feOffset dy="2"/>
<feGaussianBlur stdDeviation="1.5"/>
<feComposite in2="hardAlpha" operator="out"/>
<feColorMatrix type="matrix" values="0 0 0 0 0 0 0 0 0 0 0 0 0 0 0 0 0 0 1 0"/>
<feBlend mode="normal" in2="BackgroundImageFix" result="effect1_dropShadow_271_1824"/>
<feBlend mode="normal" in="SourceGraphic" in2="effect1_dropShadow_271_1824" result="shape"/>
</filter>
<filter id="filter6_d_271_1824" x="33.2646" y="37.4972" width="88.8999" height="39.3691" filterUnits="userSpaceOnUse" color-interpolation-filters="sRGB">
<feFlood flood-opacity="0" result="BackgroundImageFix"/>
<feColorMatrix in="SourceAlpha" type="matrix" values="0 0 0 0 0 0 0 0 0 0 0 0 0 0 0 0 0 0 127 0" result="hardAlpha"/>
<feOffset dy="4"/>
<feGaussianBlur stdDeviation="2"/>
<feComposite in2="hardAlpha" operator="out"/>
<feColorMatrix type="matrix" values="0 0 0 0 0 0 0 0 0 0 0 0 0 0 0 0 0 0 1 0"/>
<feBlend mode="normal" in2="BackgroundImageFix" result="effect1_dropShadow_271_1824"/>
<feBlend mode="normal" in="SourceGraphic" in2="effect1_dropShadow_271_1824" result="shape"/>
</filter>
<filter id="filter7_d_271_1824" x="6.58398" y="87.6" width="71.748" height="21.576" filterUnits="userSpaceOnUse" color-interpolation-filters="sRGB">
<feFlood flood-opacity="0" result="BackgroundImageFix"/>
<feColorMatrix in="SourceAlpha" type="matrix" values="0 0 0 0 0 0 0 0 0 0 0 0 0 0 0 0 0 0 127 0" result="hardAlpha"/>
<feOffset dy="2"/>
<feGaussianBlur stdDeviation="1.5"/>
<feComposite in2="hardAlpha" operator="out"/>
<feColorMatrix type="matrix" values="0 0 0 0 0 0 0 0 0 0 0 0 0 0 0 0 0 0 1 0"/>
<feBlend mode="normal" in2="BackgroundImageFix" result="effect1_dropShadow_271_1824"/>
<feBlend mode="normal" in="SourceGraphic" in2="effect1_dropShadow_271_1824" result="shape"/>
</filter>
<filter id="filter8_d_271_1824" x="34.9961" y="101.342" width="89.6826" height="32.9057" filterUnits="userSpaceOnUse" color-interpolation-filters="sRGB">
<feFlood flood-opacity="0" result="BackgroundImageFix"/>
<feColorMatrix in="SourceAlpha" type="matrix" values="0 0 0 0 0 0 0 0 0 0 0 0 0 0 0 0 0 0 127 0" result="hardAlpha"/>
<feOffset dy="4"/>
<feGaussianBlur stdDeviation="2"/>
<feComposite in2="hardAlpha" operator="out"/>
<feColorMatrix type="matrix" values="0 0 0 0 0 0 0 0 0 0 0 0 0 0 0 0 0 0 1 0"/>
<feBlend mode="normal" in2="BackgroundImageFix" result="effect1_dropShadow_271_1824"/>
<feBlend mode="normal" in="SourceGraphic" in2="effect1_dropShadow_271_1824" result="shape"/>
</filter>
</defs>
</svg>
