<svg width="480" height="206" viewBox="0 0 480 206" fill="none" xmlns="http://www.w3.org/2000/svg">
<g filter="url(#filter0_d_271_1824)">
<rect x="110.354" y="49.5086" width="354.023" height="149.578" rx="7.18497" fill="#0E172B"/>
</g>
<path d="M442.441 188.902L442.436 188.898L442.413 188.887L442.333 188.847L442.045 188.693C440.597 187.901 439.232 186.978 437.967 185.936C435.782 184.123 433.354 181.402 433.354 178.142C433.354 177.079 433.696 176.042 434.334 175.173C434.972 174.305 435.874 173.648 436.916 173.294C437.958 172.94 439.088 172.905 440.152 173.194C441.215 173.484 442.159 174.083 442.854 174.91C443.548 174.083 444.492 173.484 445.555 173.194C446.619 172.905 447.749 172.94 448.791 173.294C449.833 173.648 450.735 174.305 451.373 175.173C452.011 176.042 452.353 177.079 452.354 178.142C452.354 181.402 449.926 184.123 447.74 185.936C446.368 187.065 444.878 188.054 443.294 188.887L443.272 188.898L443.266 188.902H443.263C443.137 188.966 442.996 189 442.854 189C442.711 189 442.57 188.967 442.444 188.903L442.441 188.902Z" fill="#066DA3"/>
<g filter="url(#filter1_d_271_1824)">
<path d="M439.085 184C439.018 184 438.985 183.967 438.985 183.9V183.45C438.985 183.397 438.998 183.353 439.025 183.32C439.945 181.86 440.525 180.92 440.765 180.5C441.192 179.767 441.405 179.16 441.405 178.68C441.405 178.333 441.325 178.057 441.165 177.85C441.005 177.643 440.795 177.54 440.535 177.54C440.282 177.54 440.075 177.643 439.915 177.85C439.762 178.05 439.688 178.317 439.695 178.65V179.03C439.695 179.097 439.662 179.13 439.595 179.13H439.075C439.008 179.13 438.975 179.097 438.975 179.03V178.63C438.988 178.117 439.138 177.703 439.425 177.39C439.718 177.077 440.098 176.92 440.565 176.92C441.032 176.92 441.408 177.083 441.695 177.41C441.982 177.73 442.125 178.153 442.125 178.68C442.125 179.307 441.888 180.013 441.415 180.8C441.348 180.913 440.832 181.757 439.865 183.33C439.845 183.363 439.855 183.38 439.895 183.38H442.225C442.292 183.38 442.325 183.413 442.325 183.48V183.9C442.325 183.967 442.292 184 442.225 184H439.085ZM446.798 181.44C446.865 181.44 446.898 181.473 446.898 181.54V181.98C446.898 182.047 446.865 182.08 446.798 182.08H446.488C446.462 182.08 446.448 182.093 446.448 182.12V183.9C446.448 183.967 446.415 184 446.348 184H445.838C445.772 184 445.738 183.967 445.738 183.9V182.12C445.738 182.093 445.725 182.08 445.698 182.08H443.428C443.362 182.08 443.328 182.047 443.328 181.98V181.6C443.328 181.573 443.335 181.533 443.348 181.48L444.848 177.08C444.868 177.027 444.908 177 444.968 177H445.518C445.592 177 445.618 177.037 445.598 177.11L444.158 181.39C444.138 181.423 444.148 181.44 444.188 181.44H445.698C445.725 181.44 445.738 181.427 445.738 181.4V179.87C445.738 179.803 445.772 179.77 445.838 179.77H446.348C446.415 179.77 446.448 179.803 446.448 179.87V181.4C446.448 181.427 446.462 181.44 446.488 181.44H446.798Z" fill="white"/>
</g>
<g filter="url(#filter2_d_271_1824)">
<rect x="110.354" y="50" width="354" height="112" rx="8" fill="#1C293D" shape-rendering="crispEdges"/>
<rect x="132.354" y="67.5" width="25" height="25" rx="3.87332" fill="#DADADA"/>
<path d="M141.897 74.969C141.897 75.8618 141.173 76.5857 140.28 76.5857C139.387 76.5857 138.664 75.8618 138.664 74.969C138.664 74.0761 139.387 73.3523 140.28 73.3523C141.173 73.3523 141.897 74.0761 141.897 74.969Z" fill="black"/>
<path d="M151.043 74.3299C151.043 75.2228 150.32 75.9466 149.427 75.9466C148.534 75.9466 147.81 75.2228 147.81 74.3299C147.81 73.4371 148.534 72.7132 149.427 72.7132C150.32 72.7132 151.043 73.4371 151.043 74.3299Z" fill="black"/>
<path d="M145.087 76.278C145.367 76.1782 145.675 76.3245 145.775 76.6048L147.74 82.1243C147.914 82.6134 147.508 83.1132 146.994 83.0432L142.716 82.4615L142.688 82.457C142.408 82.4043 142.216 82.1405 142.254 81.8549C142.293 81.5692 142.549 81.3664 142.834 81.3905L142.861 81.3935L146.512 81.8899L144.76 76.9665C144.66 76.6861 144.806 76.3779 145.087 76.278Z" fill="black"/>
<path d="M149.441 86.2088L149.469 86.2096C149.754 86.224 149.98 86.4594 149.98 86.7477C149.98 87.0361 149.754 87.2714 149.469 87.2858L149.441 87.2867H140.511C140.214 87.2867 139.972 87.0453 139.972 86.7477C139.972 86.4501 140.214 86.2088 140.511 86.2088H149.441Z" fill="black"/>
<g filter="url(#filter3_d_271_1824)">
<path d="M171.26 88.176C170.189 88.176 169.324 87.846 168.664 87.186C168.018 86.5113 167.696 85.6167 167.696 84.502V76.054C167.696 74.954 168.018 74.074 168.664 73.414C169.324 72.754 170.189 72.424 171.26 72.424C172.345 72.424 173.21 72.754 173.856 73.414C174.516 74.074 174.846 74.954 174.846 76.054V76.472C174.846 76.6333 174.772 76.714 174.626 76.714L173.9 76.758C173.753 76.758 173.68 76.6847 173.68 76.538V75.988C173.68 75.2253 173.452 74.6167 172.998 74.162C172.558 73.6927 171.978 73.458 171.26 73.458C170.541 73.458 169.962 73.6927 169.522 74.162C169.082 74.6167 168.862 75.2253 168.862 75.988V84.59C168.862 85.3527 169.082 85.9687 169.522 86.438C169.962 86.9073 170.541 87.142 171.26 87.142C171.978 87.142 172.558 86.9073 172.998 86.438C173.452 85.9687 173.68 85.3527 173.68 84.59V84.084C173.68 83.9373 173.753 83.864 173.9 83.864L174.626 83.908C174.772 83.908 174.846 83.9813 174.846 84.128V84.502C174.846 85.6167 174.516 86.5113 173.856 87.186C173.21 87.846 172.345 88.176 171.26 88.176ZM180.67 88.176C179.702 88.176 178.917 87.8753 178.316 87.274C177.714 86.658 177.414 85.866 177.414 84.898V80.036C177.414 79.068 177.714 78.276 178.316 77.66C178.917 77.044 179.702 76.736 180.67 76.736C181.667 76.736 182.466 77.044 183.068 77.66C183.669 78.2613 183.97 79.0533 183.97 80.036V84.898C183.97 85.866 183.669 86.658 183.068 87.274C182.466 87.8753 181.667 88.176 180.67 88.176ZM180.67 87.142C181.3 87.142 181.814 86.9293 182.21 86.504C182.606 86.064 182.804 85.5067 182.804 84.832V80.102C182.804 79.4127 182.606 78.8553 182.21 78.43C181.814 77.99 181.3 77.77 180.67 77.77C180.054 77.77 179.548 77.99 179.152 78.43C178.77 78.8553 178.58 79.4127 178.58 80.102V84.832C178.58 85.5067 178.77 86.064 179.152 86.504C179.548 86.9293 180.054 87.142 180.67 87.142ZM195.657 76.758C196.493 76.758 197.153 77.0807 197.637 77.726C198.121 78.3713 198.363 79.2513 198.363 80.366V87.78C198.363 87.9267 198.289 88 198.143 88H197.417C197.27 88 197.197 87.9267 197.197 87.78V80.476C197.197 79.6547 197.021 79.002 196.669 78.518C196.331 78.034 195.877 77.792 195.305 77.792C194.689 77.792 194.197 78.0267 193.831 78.496C193.479 78.9653 193.303 79.6107 193.303 80.432V87.78C193.303 87.9267 193.229 88 193.083 88H192.357C192.21 88 192.137 87.9267 192.137 87.78V80.476C192.137 79.6547 191.961 79.002 191.609 78.518C191.257 78.034 190.802 77.792 190.245 77.792C189.629 77.792 189.137 78.0267 188.771 78.496C188.404 78.9653 188.221 79.6107 188.221 80.432V87.78C188.221 87.9267 188.147 88 188.001 88H187.297C187.15 88 187.077 87.9267 187.077 87.78V77.132C187.077 76.9853 187.15 76.912 187.297 76.912H188.001C188.147 76.912 188.221 76.9853 188.221 77.132V77.946C188.221 77.99 188.228 78.0193 188.243 78.034C188.272 78.034 188.301 78.012 188.331 77.968C188.873 77.1613 189.629 76.758 190.597 76.758C191.726 76.758 192.525 77.3227 192.995 78.452C193.024 78.5253 193.061 78.5107 193.105 78.408C193.589 77.308 194.439 76.758 195.657 76.758ZM210.19 76.758C211.026 76.758 211.686 77.0807 212.17 77.726C212.654 78.3713 212.896 79.2513 212.896 80.366V87.78C212.896 87.9267 212.823 88 212.676 88H211.95C211.804 88 211.73 87.9267 211.73 87.78V80.476C211.73 79.6547 211.554 79.002 211.202 78.518C210.865 78.034 210.41 77.792 209.838 77.792C209.222 77.792 208.731 78.0267 208.364 78.496C208.012 78.9653 207.836 79.6107 207.836 80.432V87.78C207.836 87.9267 207.763 88 207.616 88H206.89C206.744 88 206.67 87.9267 206.67 87.78V80.476C206.67 79.6547 206.494 79.002 206.142 78.518C205.79 78.034 205.336 77.792 204.778 77.792C204.162 77.792 203.671 78.0267 203.304 78.496C202.938 78.9653 202.754 79.6107 202.754 80.432V87.78C202.754 87.9267 202.681 88 202.534 88H201.83C201.684 88 201.61 87.9267 201.61 87.78V77.132C201.61 76.9853 201.684 76.912 201.83 76.912H202.534C202.681 76.912 202.754 76.9853 202.754 77.132V77.946C202.754 77.99 202.762 78.0193 202.776 78.034C202.806 78.034 202.835 78.012 202.864 77.968C203.407 77.1613 204.162 76.758 205.13 76.758C206.26 76.758 207.059 77.3227 207.528 78.452C207.558 78.5253 207.594 78.5107 207.638 78.408C208.122 77.308 208.973 76.758 210.19 76.758ZM221.226 77.132C221.226 76.9853 221.299 76.912 221.446 76.912H222.172C222.319 76.912 222.392 76.9853 222.392 77.132V87.78C222.392 87.9267 222.319 88 222.172 88H221.446C221.299 88 221.226 87.9267 221.226 87.78V86.988C221.226 86.944 221.211 86.922 221.182 86.922C221.153 86.9073 221.131 86.9147 221.116 86.944C220.647 87.7507 219.899 88.154 218.872 88.154C217.992 88.154 217.295 87.89 216.782 87.362C216.269 86.8193 216.012 86.0127 216.012 84.942V77.132C216.012 76.9853 216.085 76.912 216.232 76.912H216.958C217.105 76.912 217.178 76.9853 217.178 77.132V84.678C217.178 86.306 217.838 87.12 219.158 87.12C219.803 87.12 220.309 86.8853 220.676 86.416C221.043 85.9467 221.226 85.3013 221.226 84.48V77.132ZM229.387 76.758C230.282 76.758 230.971 77.0587 231.455 77.66C231.939 78.2613 232.181 79.1047 232.181 80.19V87.78C232.181 87.9267 232.108 88 231.961 88H231.235C231.089 88 231.015 87.9267 231.015 87.78V80.3C231.015 79.508 230.839 78.892 230.487 78.452C230.15 78.012 229.666 77.792 229.035 77.792C228.39 77.792 227.877 78.0267 227.495 78.496C227.129 78.9653 226.945 79.6107 226.945 80.432V87.78C226.945 87.9267 226.872 88 226.725 88H225.999C225.853 88 225.779 87.9267 225.779 87.78V77.132C225.779 76.9853 225.853 76.912 225.999 76.912H226.725C226.872 76.912 226.945 76.9853 226.945 77.132V77.99C226.945 78.034 226.96 78.056 226.989 78.056C227.019 78.056 227.041 78.034 227.055 77.99C227.583 77.1687 228.361 76.758 229.387 76.758ZM236.097 74.69C235.847 74.69 235.635 74.602 235.459 74.426C235.283 74.2353 235.195 74.0007 235.195 73.722C235.195 73.4433 235.283 73.216 235.459 73.04C235.635 72.864 235.847 72.776 236.097 72.776C236.361 72.776 236.573 72.864 236.735 73.04C236.896 73.216 236.977 73.4433 236.977 73.722C236.977 74.0153 236.896 74.25 236.735 74.426C236.573 74.602 236.361 74.69 236.097 74.69ZM235.745 88C235.598 88 235.525 87.9267 235.525 87.78V77.132C235.525 76.9853 235.598 76.912 235.745 76.912H236.471C236.617 76.912 236.691 76.9853 236.691 77.132V87.78C236.691 87.9267 236.617 88 236.471 88H235.745ZM242.858 88.11C241.904 88.11 241.134 87.8533 240.548 87.34C239.976 86.812 239.69 86.1373 239.69 85.316V85.184C239.69 85.0373 239.763 84.964 239.91 84.964H240.592C240.738 84.964 240.812 85.0227 240.812 85.14V85.316C240.812 85.844 241.002 86.284 241.384 86.636C241.765 86.988 242.256 87.164 242.858 87.164C243.444 87.164 243.914 86.988 244.266 86.636C244.632 86.2693 244.816 85.8 244.816 85.228C244.816 84.9053 244.757 84.6267 244.64 84.392C244.522 84.1427 244.332 83.9227 244.068 83.732C243.804 83.5413 243.569 83.402 243.364 83.314C243.173 83.2113 242.88 83.0793 242.484 82.918C242.058 82.742 241.728 82.5953 241.494 82.478C241.259 82.346 240.98 82.1553 240.658 81.906C240.35 81.6567 240.122 81.356 239.976 81.004C239.829 80.6373 239.756 80.2193 239.756 79.75C239.756 78.8553 240.034 78.144 240.592 77.616C241.149 77.088 241.89 76.824 242.814 76.824C243.752 76.824 244.5 77.0953 245.058 77.638C245.615 78.1807 245.894 78.8847 245.894 79.75V79.816C245.894 79.9627 245.82 80.036 245.674 80.036H245.014C244.867 80.036 244.794 79.9773 244.794 79.86V79.706C244.794 79.1633 244.61 78.7087 244.244 78.342C243.877 77.9753 243.4 77.792 242.814 77.792C242.227 77.792 241.758 77.9753 241.406 78.342C241.054 78.694 240.878 79.156 240.878 79.728C240.878 80.036 240.929 80.3073 241.032 80.542C241.134 80.762 241.31 80.9673 241.56 81.158C241.824 81.334 242.044 81.466 242.22 81.554C242.396 81.642 242.682 81.774 243.078 81.95C243.532 82.1407 243.877 82.302 244.112 82.434C244.361 82.5513 244.654 82.742 244.992 83.006C245.329 83.2553 245.578 83.5633 245.74 83.93C245.901 84.282 245.982 84.7 245.982 85.184C245.982 86.064 245.696 86.7753 245.124 87.318C244.552 87.846 243.796 88.11 242.858 88.11ZM257.185 76.758C258.021 76.758 258.681 77.0807 259.165 77.726C259.649 78.3713 259.891 79.2513 259.891 80.366V87.78C259.891 87.9267 259.818 88 259.671 88H258.945C258.799 88 258.725 87.9267 258.725 87.78V80.476C258.725 79.6547 258.549 79.002 258.197 78.518C257.86 78.034 257.405 77.792 256.833 77.792C256.217 77.792 255.726 78.0267 255.359 78.496C255.007 78.9653 254.831 79.6107 254.831 80.432V87.78C254.831 87.9267 254.758 88 254.611 88H253.885C253.739 88 253.665 87.9267 253.665 87.78V80.476C253.665 79.6547 253.489 79.002 253.137 78.518C252.785 78.034 252.331 77.792 251.773 77.792C251.157 77.792 250.666 78.0267 250.299 78.496C249.933 78.9653 249.749 79.6107 249.749 80.432V87.78C249.749 87.9267 249.676 88 249.529 88H248.825C248.679 88 248.605 87.9267 248.605 87.78V77.132C248.605 76.9853 248.679 76.912 248.825 76.912H249.529C249.676 76.912 249.749 76.9853 249.749 77.132V77.946C249.749 77.99 249.757 78.0193 249.771 78.034C249.801 78.034 249.83 78.012 249.859 77.968C250.402 77.1613 251.157 76.758 252.125 76.758C253.255 76.758 254.054 77.3227 254.523 78.452C254.553 78.5253 254.589 78.5107 254.633 78.408C255.117 77.308 255.968 76.758 257.185 76.758Z" fill="white"/>
</g>
<path d="M132.354 106H441.354" stroke="white" stroke-opacity="0.15"/>
<path d="M286.854 110L282.09 106.25L291.617 106.25L286.854 110Z" fill="#D9D9D9" fill-opacity="0.15"/>
<path d="M132.354 123.406C132.354 121.249 134.102 119.5 136.26 119.5H153.447C155.605 119.5 157.354 121.249 157.354 123.406V140.594C157.354 142.751 155.605 144.5 153.447 144.5H136.26C134.102 144.5 132.354 142.751 132.354 140.594V123.406Z" fill="#6DD3FF"/>
<circle cx="139.926" cy="127.99" r="1.63043" fill="black"/>
<circle cx="149.357" cy="127.99" r="1.63043" fill="black"/>
<path d="M145.204 129.233C145.48 129.141 145.778 129.281 145.883 129.549L145.892 129.575L147.851 135.393C148.016 135.885 147.607 136.379 147.093 136.308L142.838 135.722C142.541 135.681 142.333 135.406 142.374 135.109C142.415 134.812 142.69 134.604 142.987 134.645L146.621 135.146L144.862 129.922L144.854 129.895C144.776 129.618 144.928 129.326 145.204 129.233Z" fill="black"/>
<path d="M149.919 138.539C150.209 138.464 150.506 138.638 150.581 138.928C150.655 139.211 150.443 139.528 150.167 139.598C150.122 139.609 150.016 139.635 149.86 139.669C149.652 139.714 149.354 139.774 148.989 139.834C148.261 139.954 147.26 140.075 146.174 140.075C145.093 140.075 143.825 139.955 142.839 139.838C142.343 139.779 141.914 139.72 141.609 139.676C141.436 139.651 141.262 139.629 141.09 139.597C140.809 139.536 140.622 139.265 140.668 138.978C140.72 138.661 141.019 138.486 141.322 138.534C141.468 138.557 142.119 138.658 142.967 138.758C143.941 138.874 145.158 138.988 146.174 138.988C147.184 138.988 148.123 138.875 148.812 138.762C149.156 138.705 149.436 138.649 149.628 138.607C149.807 138.568 149.911 138.541 149.918 138.539L149.919 138.539Z" fill="black"/>
<path d="M140.684 136.748C140.898 136.954 140.899 137.295 140.686 137.511L140.686 137.511L140.686 137.511L140.686 137.511L140.687 137.511L140.687 137.51C140.684 137.513 140.557 137.644 140.41 137.851C140.25 138.077 140.077 138.374 139.986 138.695C139.895 139.014 139.888 139.341 139.909 139.599C139.92 139.732 139.963 139.865 139.969 139.997C140.046 140.284 139.871 140.583 139.579 140.665C139.329 140.735 138.976 140.539 138.911 140.294L138.911 140.294L138.91 140.293C138.91 140.293 138.91 140.292 138.91 140.292C138.91 140.291 138.909 140.289 138.909 140.288C138.897 140.243 138.844 140.026 138.818 139.708C138.791 139.374 138.795 138.908 138.933 138.424C139.071 137.941 139.318 137.528 139.519 137.245C139.622 137.101 139.716 136.985 139.786 136.904C139.82 136.864 139.864 136.794 139.911 136.767C140.093 136.583 140.502 136.573 140.684 136.748ZM139.969 139.997L139.969 139.998L139.969 139.999L139.969 139.999C139.969 139.999 139.969 139.998 139.969 139.997Z" fill="black"/>
<path d="M146.752 124.563C146.827 124.85 147.124 125.018 147.415 124.937C148.609 124.604 149.85 124.507 150.888 124.616C151.956 124.727 152.687 125.041 152.999 125.409L153.018 125.43C153.212 125.637 153.542 125.653 153.767 125.464C154 125.268 154.033 124.926 153.841 124.7L153.785 124.636C153.191 123.992 152.142 123.655 151.028 123.539C149.848 123.416 148.467 123.526 147.145 123.894C146.854 123.976 146.677 124.275 146.752 124.563Z" fill="black"/>
<path d="M135.91 125.659C135.593 125.555 135.553 125.27 135.673 124.972C135.695 124.917 135.727 124.843 135.772 124.756C135.861 124.581 136.002 124.348 136.213 124.103C136.638 123.608 137.341 123.072 138.444 122.852C139.555 122.63 141.007 122.919 142.106 123.22C142.683 123.378 143.192 123.549 143.554 123.679C143.563 123.613 143.569 123.548 143.57 123.486C143.573 123.315 143.572 123.142 143.556 122.971C143.513 122.674 143.716 122.404 144.012 122.367C144.308 122.33 144.585 122.541 144.63 122.839C144.675 123.137 144.671 123.262 144.656 123.533C144.641 123.821 144.595 124.076 144.547 124.263C144.497 124.453 144.449 124.584 144.443 124.599L144.443 124.599C144.431 124.596 144.432 124.595 144.443 124.6C144.34 124.879 144.027 125.015 143.746 124.904C143.559 124.83 143.373 124.755 143.184 124.687C142.843 124.565 142.369 124.407 141.838 124.262C140.744 123.962 139.518 123.746 138.685 123.912C137.845 124.08 137.344 124.476 137.052 124.815C136.904 124.987 136.807 125.148 136.749 125.262C136.593 125.568 136.227 125.763 135.91 125.659Z" fill="black"/>
<g filter="url(#filter4_d_271_1824)">
<path d="M174.384 124.6C174.53 124.6 174.604 124.673 174.604 124.82V125.414C174.604 125.561 174.53 125.634 174.384 125.634H171.458C171.399 125.634 171.37 125.663 171.37 125.722V139.78C171.37 139.927 171.296 140 171.15 140H170.424C170.277 140 170.204 139.927 170.204 139.78V125.722C170.204 125.663 170.174 125.634 170.116 125.634H167.366C167.219 125.634 167.146 125.561 167.146 125.414V124.82C167.146 124.673 167.219 124.6 167.366 124.6H174.384ZM179.273 140.176C178.305 140.176 177.521 139.875 176.919 139.274C176.318 138.658 176.017 137.866 176.017 136.898V132.036C176.017 131.068 176.318 130.276 176.919 129.66C177.521 129.044 178.305 128.736 179.273 128.736C180.271 128.736 181.07 129.044 181.671 129.66C182.273 130.261 182.573 131.053 182.573 132.036V136.898C182.573 137.866 182.273 138.658 181.671 139.274C181.07 139.875 180.271 140.176 179.273 140.176ZM179.273 139.142C179.904 139.142 180.417 138.929 180.813 138.504C181.209 138.064 181.407 137.507 181.407 136.832V132.102C181.407 131.413 181.209 130.855 180.813 130.43C180.417 129.99 179.904 129.77 179.273 129.77C178.657 129.77 178.151 129.99 177.755 130.43C177.374 130.855 177.183 131.413 177.183 132.102V136.832C177.183 137.507 177.374 138.064 177.755 138.504C178.151 138.929 178.657 139.142 179.273 139.142ZM189.266 129.616C189.266 129.763 189.193 129.836 189.046 129.836H187.286C187.228 129.836 187.198 129.865 187.198 129.924V137.008C187.198 137.741 187.323 138.255 187.572 138.548C187.822 138.827 188.218 138.966 188.76 138.966H188.98C189.127 138.966 189.2 139.039 189.2 139.186V139.78C189.2 139.927 189.127 140 188.98 140H188.54C187.719 140 187.096 139.809 186.67 139.428C186.26 139.047 186.054 138.335 186.054 137.294V129.924C186.054 129.865 186.025 129.836 185.966 129.836H185.064C184.918 129.836 184.844 129.763 184.844 129.616V129.132C184.844 128.985 184.918 128.912 185.064 128.912H185.966C186.025 128.912 186.054 128.883 186.054 128.824V126.36C186.054 126.213 186.128 126.14 186.274 126.14H186.978C187.125 126.14 187.198 126.213 187.198 126.36V128.824C187.198 128.883 187.228 128.912 187.286 128.912H189.046C189.193 128.912 189.266 128.985 189.266 129.132V129.616ZM194.848 128.736C195.846 128.736 196.623 129.073 197.181 129.748C197.753 130.408 198.039 131.295 198.039 132.41V139.78C198.039 139.927 197.965 140 197.819 140H197.092C196.946 140 196.873 139.927 196.873 139.78V138.988C196.873 138.944 196.858 138.922 196.828 138.922C196.814 138.907 196.792 138.915 196.763 138.944C196.22 139.765 195.369 140.176 194.21 140.176C193.433 140.176 192.758 139.949 192.186 139.494C191.629 139.039 191.35 138.24 191.35 137.096C191.35 135.879 191.688 134.984 192.362 134.412C193.037 133.84 193.939 133.554 195.069 133.554H196.784C196.843 133.554 196.873 133.525 196.873 133.466V132.454C196.873 131.633 196.689 130.98 196.322 130.496C195.97 130.012 195.472 129.77 194.826 129.77C194.313 129.77 193.866 129.931 193.484 130.254C193.118 130.577 192.905 130.995 192.846 131.508C192.846 131.655 192.773 131.728 192.626 131.728L191.834 131.684C191.673 131.684 191.607 131.611 191.636 131.464C191.724 130.643 192.069 129.983 192.67 129.484C193.272 128.985 193.998 128.736 194.848 128.736ZM194.452 139.142C195.112 139.142 195.677 138.929 196.147 138.504C196.631 138.079 196.873 137.477 196.873 136.7V134.61C196.873 134.551 196.843 134.522 196.784 134.522H195.069C194.306 134.522 193.69 134.735 193.22 135.16C192.766 135.571 192.538 136.187 192.538 137.008C192.538 137.727 192.714 138.262 193.066 138.614C193.418 138.966 193.88 139.142 194.452 139.142ZM201.258 140C201.111 140 201.038 139.927 201.038 139.78V124.82C201.038 124.673 201.111 124.6 201.258 124.6H201.984C202.13 124.6 202.204 124.673 202.204 124.82V139.78C202.204 139.927 202.13 140 201.984 140H201.258ZM206.116 126.69C205.866 126.69 205.654 126.602 205.478 126.426C205.302 126.235 205.214 126.001 205.214 125.722C205.214 125.443 205.302 125.216 205.478 125.04C205.654 124.864 205.866 124.776 206.116 124.776C206.38 124.776 206.592 124.864 206.754 125.04C206.915 125.216 206.996 125.443 206.996 125.722C206.996 126.015 206.915 126.25 206.754 126.426C206.592 126.602 206.38 126.69 206.116 126.69ZM205.764 140C205.617 140 205.544 139.927 205.544 139.78V129.132C205.544 128.985 205.617 128.912 205.764 128.912H206.49C206.636 128.912 206.71 128.985 206.71 129.132V139.78C206.71 139.927 206.636 140 206.49 140H205.764ZM213.757 129.616C213.757 129.763 213.683 129.836 213.537 129.836H211.777C211.718 129.836 211.689 129.865 211.689 129.924V137.008C211.689 137.741 211.813 138.255 212.063 138.548C212.312 138.827 212.708 138.966 213.251 138.966H213.471C213.617 138.966 213.691 139.039 213.691 139.186V139.78C213.691 139.927 213.617 140 213.471 140H213.031C212.209 140 211.586 139.809 211.161 139.428C210.75 139.047 210.545 138.335 210.545 137.294V129.924C210.545 129.865 210.515 129.836 210.457 129.836H209.555C209.408 129.836 209.335 129.763 209.335 129.616V129.132C209.335 128.985 209.408 128.912 209.555 128.912H210.457C210.515 128.912 210.545 128.883 210.545 128.824V126.36C210.545 126.213 210.618 126.14 210.765 126.14H211.469C211.615 126.14 211.689 126.213 211.689 126.36V128.824C211.689 128.883 211.718 128.912 211.777 128.912H213.537C213.683 128.912 213.757 128.985 213.757 129.132V129.616ZM219.339 128.736C220.336 128.736 221.114 129.073 221.671 129.748C222.243 130.408 222.529 131.295 222.529 132.41V139.78C222.529 139.927 222.456 140 222.309 140H221.583C221.436 140 221.363 139.927 221.363 139.78V138.988C221.363 138.944 221.348 138.922 221.319 138.922C221.304 138.907 221.282 138.915 221.253 138.944C220.71 139.765 219.86 140.176 218.701 140.176C217.924 140.176 217.249 139.949 216.677 139.494C216.12 139.039 215.841 138.24 215.841 137.096C215.841 135.879 216.178 134.984 216.853 134.412C217.528 133.84 218.43 133.554 219.559 133.554H221.275C221.334 133.554 221.363 133.525 221.363 133.466V132.454C221.363 131.633 221.18 130.98 220.813 130.496C220.461 130.012 219.962 129.77 219.317 129.77C218.804 129.77 218.356 129.931 217.975 130.254C217.608 130.577 217.396 130.995 217.337 131.508C217.337 131.655 217.264 131.728 217.117 131.728L216.325 131.684C216.164 131.684 216.098 131.611 216.127 131.464C216.215 130.643 216.56 129.983 217.161 129.484C217.762 128.985 218.488 128.736 219.339 128.736ZM218.943 139.142C219.603 139.142 220.168 138.929 220.637 138.504C221.121 138.079 221.363 137.477 221.363 136.7V134.61C221.363 134.551 221.334 134.522 221.275 134.522H219.559C218.796 134.522 218.18 134.735 217.711 135.16C217.256 135.571 217.029 136.187 217.029 137.008C217.029 137.727 217.205 138.262 217.557 138.614C217.909 138.966 218.371 139.142 218.943 139.142ZM229.07 128.824C229.437 128.824 229.752 128.897 230.016 129.044C230.119 129.103 230.155 129.198 230.126 129.33L229.95 130.078C229.906 130.21 229.811 130.247 229.664 130.188C229.429 130.1 229.143 130.063 228.806 130.078C228.219 130.093 227.743 130.386 227.376 130.958C227.009 131.53 226.826 132.234 226.826 133.07V139.78C226.826 139.927 226.753 140 226.606 140H225.88C225.733 140 225.66 139.927 225.66 139.78V129.132C225.66 128.985 225.733 128.912 225.88 128.912H226.606C226.753 128.912 226.826 128.985 226.826 129.132V130.496C226.826 130.54 226.841 130.562 226.87 130.562C226.899 130.562 226.921 130.54 226.936 130.496C227.376 129.381 228.087 128.824 229.07 128.824ZM233.034 126.69C232.785 126.69 232.572 126.602 232.396 126.426C232.22 126.235 232.132 126.001 232.132 125.722C232.132 125.443 232.22 125.216 232.396 125.04C232.572 124.864 232.785 124.776 233.034 124.776C233.298 124.776 233.511 124.864 233.672 125.04C233.833 125.216 233.914 125.443 233.914 125.722C233.914 126.015 233.833 126.25 233.672 126.426C233.511 126.602 233.298 126.69 233.034 126.69ZM232.682 140C232.535 140 232.462 139.927 232.462 139.78V129.132C232.462 128.985 232.535 128.912 232.682 128.912H233.408C233.555 128.912 233.628 128.985 233.628 129.132V139.78C233.628 139.927 233.555 140 233.408 140H232.682ZM240.081 128.736C241.078 128.736 241.856 129.073 242.413 129.748C242.985 130.408 243.271 131.295 243.271 132.41V139.78C243.271 139.927 243.198 140 243.051 140H242.325C242.178 140 242.105 139.927 242.105 139.78V138.988C242.105 138.944 242.09 138.922 242.061 138.922C242.046 138.907 242.024 138.915 241.995 138.944C241.452 139.765 240.602 140.176 239.443 140.176C238.666 140.176 237.991 139.949 237.419 139.494C236.862 139.039 236.583 138.24 236.583 137.096C236.583 135.879 236.92 134.984 237.595 134.412C238.27 133.84 239.172 133.554 240.301 133.554H242.017C242.076 133.554 242.105 133.525 242.105 133.466V132.454C242.105 131.633 241.922 130.98 241.555 130.496C241.203 130.012 240.704 129.77 240.059 129.77C239.546 129.77 239.098 129.931 238.717 130.254C238.35 130.577 238.138 130.995 238.079 131.508C238.079 131.655 238.006 131.728 237.859 131.728L237.067 131.684C236.906 131.684 236.84 131.611 236.869 131.464C236.957 130.643 237.302 129.983 237.903 129.484C238.504 128.985 239.23 128.736 240.081 128.736ZM239.685 139.142C240.345 139.142 240.91 138.929 241.379 138.504C241.863 138.079 242.105 137.477 242.105 136.7V134.61C242.105 134.551 242.076 134.522 242.017 134.522H240.301C239.538 134.522 238.922 134.735 238.453 135.16C237.998 135.571 237.771 136.187 237.771 137.008C237.771 137.727 237.947 138.262 238.299 138.614C238.651 138.966 239.113 139.142 239.685 139.142ZM250.01 128.758C250.905 128.758 251.594 129.059 252.078 129.66C252.562 130.261 252.804 131.105 252.804 132.19V139.78C252.804 139.927 252.731 140 252.584 140H251.858C251.711 140 251.638 139.927 251.638 139.78V132.3C251.638 131.508 251.462 130.892 251.11 130.452C250.773 130.012 250.289 129.792 249.658 129.792C249.013 129.792 248.499 130.027 248.118 130.496C247.751 130.965 247.568 131.611 247.568 132.432V139.78C247.568 139.927 247.495 140 247.348 140H246.622C246.475 140 246.402 139.927 246.402 139.78V129.132C246.402 128.985 246.475 128.912 246.622 128.912H247.348C247.495 128.912 247.568 128.985 247.568 129.132V129.99C247.568 130.034 247.583 130.056 247.612 130.056C247.641 130.056 247.663 130.034 247.678 129.99C248.206 129.169 248.983 128.758 250.01 128.758ZM264.776 124.556C265.802 124.556 266.631 124.945 267.262 125.722C267.892 126.485 268.208 127.489 268.208 128.736C268.208 129.983 267.892 130.98 267.262 131.728C266.646 132.476 265.832 132.85 264.82 132.85H262.378C262.319 132.85 262.29 132.879 262.29 132.938V139.78C262.29 139.927 262.216 140 262.07 140H261.344C261.197 140 261.124 139.927 261.124 139.78V124.776C261.124 124.629 261.197 124.556 261.344 124.556H264.776ZM264.644 131.882C265.362 131.882 265.942 131.596 266.382 131.024C266.822 130.452 267.042 129.697 267.042 128.758C267.042 127.805 266.822 127.042 266.382 126.47C265.942 125.898 265.362 125.612 264.644 125.612H262.378C262.319 125.612 262.29 125.641 262.29 125.7V131.794C262.29 131.853 262.319 131.882 262.378 131.882H264.644ZM273.896 140.176C272.928 140.176 272.143 139.875 271.542 139.274C270.94 138.658 270.64 137.866 270.64 136.898V132.036C270.64 131.068 270.94 130.276 271.542 129.66C272.143 129.044 272.928 128.736 273.896 128.736C274.893 128.736 275.692 129.044 276.294 129.66C276.895 130.261 277.196 131.053 277.196 132.036V136.898C277.196 137.866 276.895 138.658 276.294 139.274C275.692 139.875 274.893 140.176 273.896 140.176ZM273.896 139.142C274.526 139.142 275.04 138.929 275.436 138.504C275.832 138.064 276.03 137.507 276.03 136.832V132.102C276.03 131.413 275.832 130.855 275.436 130.43C275.04 129.99 274.526 129.77 273.896 129.77C273.28 129.77 272.774 129.99 272.378 130.43C271.996 130.855 271.806 131.413 271.806 132.102V136.832C271.806 137.507 271.996 138.064 272.378 138.504C272.774 138.929 273.28 139.142 273.896 139.142ZM282.114 140C281.982 140 281.901 139.934 281.872 139.802L279.122 129.154C279.078 128.993 279.144 128.912 279.32 128.912H280.156C280.288 128.912 280.368 128.978 280.398 129.11L282.51 138.13C282.539 138.247 282.568 138.247 282.598 138.13L284.688 129.11C284.717 128.978 284.798 128.912 284.93 128.912L285.766 128.934C285.942 128.934 286 129.015 285.942 129.176L283.236 139.802C283.206 139.934 283.126 140 282.994 140H282.114ZM294.639 134.654C294.639 134.801 294.566 134.874 294.419 134.874H289.359C289.301 134.874 289.271 134.903 289.271 134.962V136.832C289.271 137.507 289.462 138.064 289.843 138.504C290.239 138.929 290.745 139.142 291.361 139.142C291.875 139.142 292.315 138.988 292.681 138.68C293.048 138.372 293.29 137.969 293.407 137.47C293.451 137.338 293.532 137.272 293.649 137.272L294.353 137.316C294.412 137.316 294.463 137.331 294.507 137.36C294.551 137.389 294.566 137.433 294.551 137.492V137.58C294.405 138.387 294.053 139.025 293.495 139.494C292.938 139.949 292.227 140.176 291.361 140.176C290.393 140.176 289.609 139.875 289.007 139.274C288.406 138.658 288.105 137.866 288.105 136.898V132.036C288.105 131.068 288.406 130.276 289.007 129.66C289.609 129.044 290.393 128.736 291.361 128.736C292.344 128.736 293.136 129.044 293.737 129.66C294.339 130.276 294.639 131.068 294.639 132.036V134.654ZM291.361 129.77C290.745 129.77 290.239 129.99 289.843 130.43C289.462 130.855 289.271 131.413 289.271 132.102V133.774C289.271 133.833 289.301 133.862 289.359 133.862H293.385C293.444 133.862 293.473 133.833 293.473 133.774V132.102C293.473 131.413 293.275 130.855 292.879 130.43C292.498 129.99 291.992 129.77 291.361 129.77ZM301.028 128.824C301.395 128.824 301.71 128.897 301.974 129.044C302.077 129.103 302.113 129.198 302.084 129.33L301.908 130.078C301.864 130.21 301.769 130.247 301.622 130.188C301.387 130.1 301.101 130.063 300.764 130.078C300.177 130.093 299.701 130.386 299.334 130.958C298.967 131.53 298.784 132.234 298.784 133.07V139.78C298.784 139.927 298.711 140 298.564 140H297.838C297.691 140 297.618 139.927 297.618 139.78V129.132C297.618 128.985 297.691 128.912 297.838 128.912H298.564C298.711 128.912 298.784 128.985 298.784 129.132V130.496C298.784 130.54 298.799 130.562 298.828 130.562C298.857 130.562 298.879 130.54 298.894 130.496C299.334 129.381 300.045 128.824 301.028 128.824ZM307.896 129.616C307.896 129.763 307.823 129.836 307.676 129.836H305.916C305.857 129.836 305.828 129.865 305.828 129.924V137.008C305.828 137.741 305.953 138.255 306.202 138.548C306.451 138.827 306.847 138.966 307.39 138.966H307.61C307.757 138.966 307.83 139.039 307.83 139.186V139.78C307.83 139.927 307.757 140 307.61 140H307.17C306.349 140 305.725 139.809 305.3 139.428C304.889 139.047 304.684 138.335 304.684 137.294V129.924C304.684 129.865 304.655 129.836 304.596 129.836H303.694C303.547 129.836 303.474 129.763 303.474 129.616V129.132C303.474 128.985 303.547 128.912 303.694 128.912H304.596C304.655 128.912 304.684 128.883 304.684 128.824V126.36C304.684 126.213 304.757 126.14 304.904 126.14H305.608C305.755 126.14 305.828 126.213 305.828 126.36V128.824C305.828 128.883 305.857 128.912 305.916 128.912H307.676C307.823 128.912 307.896 128.985 307.896 129.132V129.616ZM310.002 144.4C309.914 144.4 309.87 144.327 309.87 144.18V143.608C309.87 143.461 309.914 143.388 310.002 143.388H310.112C310.743 143.373 311.19 143.161 311.454 142.75C311.718 142.339 311.997 141.445 312.29 140.066V139.934L309.474 129.154C309.43 128.993 309.496 128.912 309.672 128.912H310.442C310.574 128.912 310.655 128.978 310.684 129.11L312.862 138.262C312.892 138.379 312.921 138.379 312.95 138.262L315.106 129.11C315.121 128.978 315.202 128.912 315.348 128.912L316.14 128.934C316.316 128.934 316.375 129.015 316.316 129.176L313.214 141.122C312.862 142.486 312.488 143.373 312.092 143.784C311.696 144.195 311.044 144.4 310.134 144.4H310.002ZM326.761 125.436C326.13 125.436 325.697 125.649 325.463 126.074C325.228 126.485 325.111 127.137 325.111 128.032V128.824C325.111 128.883 325.14 128.912 325.199 128.912H327.003C327.149 128.912 327.223 128.985 327.223 129.132V129.616C327.223 129.763 327.149 129.836 327.003 129.836H325.199C325.14 129.836 325.111 129.865 325.111 129.924V139.78C325.111 139.927 325.037 140 324.891 140H324.165C324.018 140 323.945 139.927 323.945 139.78V129.924C323.945 129.865 323.915 129.836 323.857 129.836H322.933C322.786 129.836 322.713 129.763 322.713 129.616V129.132C322.713 128.985 322.786 128.912 322.933 128.912H323.857C323.915 128.912 323.945 128.883 323.945 128.824V128.01C323.945 126.778 324.157 125.876 324.583 125.304C325.008 124.717 325.727 124.424 326.739 124.424H327.069C327.215 124.424 327.289 124.497 327.289 124.644L327.267 125.216C327.267 125.363 327.193 125.436 327.047 125.436H326.761ZM332.931 140.176C331.963 140.176 331.178 139.875 330.577 139.274C329.976 138.658 329.675 137.866 329.675 136.898V132.036C329.675 131.068 329.976 130.276 330.577 129.66C331.178 129.044 331.963 128.736 332.931 128.736C333.928 128.736 334.728 129.044 335.329 129.66C335.93 130.261 336.231 131.053 336.231 132.036V136.898C336.231 137.866 335.93 138.658 335.329 139.274C334.728 139.875 333.928 140.176 332.931 140.176ZM332.931 139.142C333.562 139.142 334.075 138.929 334.471 138.504C334.867 138.064 335.065 137.507 335.065 136.832V132.102C335.065 131.413 334.867 130.855 334.471 130.43C334.075 129.99 333.562 129.77 332.931 129.77C332.315 129.77 331.809 129.99 331.413 130.43C331.032 130.855 330.841 131.413 330.841 132.102V136.832C330.841 137.507 331.032 138.064 331.413 138.504C331.809 138.929 332.315 139.142 332.931 139.142ZM342.748 128.824C343.115 128.824 343.43 128.897 343.694 129.044C343.797 129.103 343.833 129.198 343.804 129.33L343.628 130.078C343.584 130.21 343.489 130.247 343.342 130.188C343.107 130.1 342.821 130.063 342.484 130.078C341.897 130.093 341.421 130.386 341.054 130.958C340.687 131.53 340.504 132.234 340.504 133.07V139.78C340.504 139.927 340.431 140 340.284 140H339.558C339.411 140 339.338 139.927 339.338 139.78V129.132C339.338 128.985 339.411 128.912 339.558 128.912H340.284C340.431 128.912 340.504 128.985 340.504 129.132V130.496C340.504 130.54 340.519 130.562 340.548 130.562C340.577 130.562 340.599 130.54 340.614 130.496C341.054 129.381 341.765 128.824 342.748 128.824ZM357.364 140C357.218 140 357.137 139.934 357.122 139.802L356.528 136.92C356.528 136.861 356.492 136.832 356.418 136.832H352.128C352.055 136.832 352.018 136.861 352.018 136.92L351.402 139.802C351.388 139.934 351.307 140 351.16 140H350.434C350.273 140 350.207 139.919 350.236 139.758L353.58 124.798C353.61 124.666 353.69 124.6 353.822 124.6H354.702C354.834 124.6 354.915 124.666 354.944 124.798L358.31 139.758C358.34 139.919 358.274 140 358.112 140H357.364ZM352.26 135.776C352.231 135.835 352.253 135.864 352.326 135.864H356.198C356.242 135.864 356.264 135.835 356.264 135.776L354.328 126.602C354.299 126.485 354.27 126.485 354.24 126.602L352.26 135.776ZM361.156 140C361.01 140 360.936 139.927 360.936 139.78V124.82C360.936 124.673 361.01 124.6 361.156 124.6H361.882C362.029 124.6 362.102 124.673 362.102 124.82V139.78C362.102 139.927 362.029 140 361.882 140H361.156ZM365.421 140C365.274 140 365.201 139.927 365.201 139.78V124.82C365.201 124.673 365.274 124.6 365.421 124.6H366.147C366.293 124.6 366.367 124.673 366.367 124.82V139.78C366.367 139.927 366.293 140 366.147 140H365.421Z" fill="white"/>
</g>
</g>
<g filter="url(#filter5_d_271_1824)">
<rect x="120.354" y="170" width="61" height="20" rx="4" fill="#243349"/>
<path d="M129.955 183.58C129.415 183.58 128.978 183.417 128.645 183.09C128.318 182.757 128.155 182.317 128.155 181.77V178.22C128.155 177.673 128.318 177.237 128.645 176.91C128.978 176.583 129.415 176.42 129.955 176.42C130.502 176.42 130.938 176.583 131.265 176.91C131.598 177.237 131.765 177.673 131.765 178.22V178.38C131.765 178.447 131.732 178.48 131.665 178.48L130.905 178.52C130.838 178.52 130.805 178.487 130.805 178.42V178.16C130.805 177.887 130.725 177.667 130.565 177.5C130.412 177.333 130.208 177.25 129.955 177.25C129.702 177.25 129.498 177.333 129.345 177.5C129.192 177.667 129.115 177.887 129.115 178.16V181.84C129.115 182.113 129.192 182.333 129.345 182.5C129.498 182.667 129.702 182.75 129.955 182.75C130.208 182.75 130.412 182.667 130.565 182.5C130.725 182.333 130.805 182.113 130.805 181.84V181.58C130.805 181.513 130.838 181.48 130.905 181.48L131.665 181.52C131.732 181.52 131.765 181.553 131.765 181.62V181.77C131.765 182.317 131.598 182.757 131.265 183.09C130.938 183.417 130.502 183.58 129.955 183.58ZM135.096 183.58C134.55 183.58 134.11 183.413 133.776 183.08C133.443 182.747 133.276 182.303 133.276 181.75V178.26C133.276 177.707 133.443 177.263 133.776 176.93C134.11 176.59 134.55 176.42 135.096 176.42C135.65 176.42 136.093 176.59 136.426 176.93C136.766 177.263 136.936 177.707 136.936 178.26V181.75C136.936 182.303 136.766 182.747 136.426 183.08C136.093 183.413 135.65 183.58 135.096 183.58ZM135.096 182.75C135.363 182.75 135.576 182.663 135.736 182.49C135.896 182.31 135.976 182.077 135.976 181.79V178.21C135.976 177.923 135.896 177.693 135.736 177.52C135.576 177.34 135.363 177.25 135.096 177.25C134.836 177.25 134.626 177.34 134.466 177.52C134.313 177.693 134.236 177.923 134.236 178.21V181.79C134.236 182.077 134.313 182.31 134.466 182.49C134.626 182.663 134.836 182.75 135.096 182.75ZM140.516 176.49C141.029 176.49 141.442 176.677 141.756 177.05C142.076 177.417 142.236 177.9 142.236 178.5C142.236 179.087 142.082 179.56 141.776 179.92C141.469 180.28 141.066 180.46 140.566 180.46H139.626C139.599 180.46 139.586 180.473 139.586 180.5V183.4C139.586 183.467 139.552 183.5 139.486 183.5H138.726C138.659 183.5 138.626 183.467 138.626 183.4V176.59C138.626 176.523 138.659 176.49 138.726 176.49H140.516ZM140.366 179.69C140.639 179.69 140.859 179.587 141.026 179.38C141.192 179.167 141.276 178.88 141.276 178.52C141.276 178.153 141.192 177.863 141.026 177.65C140.859 177.43 140.639 177.32 140.366 177.32H139.626C139.599 177.32 139.586 177.333 139.586 177.36V179.65C139.586 179.677 139.599 179.69 139.626 179.69H140.366ZM144.83 183.49C144.764 183.49 144.73 183.457 144.73 183.39V180.53C144.73 180.523 144.727 180.513 144.72 180.5C144.72 180.487 144.72 180.48 144.72 180.48L143.33 176.61C143.31 176.537 143.337 176.5 143.41 176.5H144.21C144.27 176.5 144.31 176.527 144.33 176.58L145.18 179.34C145.187 179.353 145.197 179.36 145.21 179.36C145.224 179.36 145.234 179.353 145.24 179.34L146.09 176.58C146.11 176.527 146.15 176.5 146.21 176.5H147.01C147.084 176.5 147.11 176.537 147.09 176.61L145.7 180.48V180.5C145.694 180.513 145.69 180.523 145.69 180.53V183.39C145.69 183.457 145.657 183.49 145.59 183.49H144.83ZM151.346 183.5C151.28 183.5 151.246 183.467 151.246 183.4V176.6C151.246 176.533 151.28 176.5 151.346 176.5H152.106C152.173 176.5 152.206 176.533 152.206 176.6V183.4C152.206 183.467 152.173 183.5 152.106 183.5H151.346ZM154.133 183.5C154.067 183.5 154.033 183.467 154.033 183.4V176.6C154.033 176.533 154.067 176.5 154.133 176.5H154.893C154.947 176.5 154.983 176.527 155.003 176.58L156.023 179.01C156.03 179.023 156.04 179.03 156.053 179.03C156.067 179.03 156.077 179.023 156.083 179.01L157.123 176.58C157.143 176.527 157.18 176.5 157.233 176.5H157.993C158.06 176.5 158.093 176.533 158.093 176.6V183.4C158.093 183.467 158.06 183.5 157.993 183.5H157.233C157.167 183.5 157.133 183.467 157.133 183.4V178.87C157.127 178.843 157.11 178.84 157.083 178.86L156.153 180.84C156.133 180.887 156.107 180.91 156.073 180.91C156.027 180.91 155.993 180.887 155.973 180.84L155.043 178.85C155.023 178.83 155.007 178.833 154.993 178.86V183.4C154.993 183.467 154.96 183.5 154.893 183.5H154.133ZM162.954 183.5C162.887 183.5 162.851 183.47 162.844 183.41L162.624 182.26C162.624 182.233 162.607 182.22 162.574 182.22H160.964C160.931 182.22 160.914 182.233 160.914 182.26L160.684 183.41C160.677 183.47 160.641 183.5 160.574 183.5H159.814C159.741 183.5 159.711 183.463 159.724 183.39L161.214 176.59C161.227 176.53 161.264 176.5 161.324 176.5H162.204C162.264 176.5 162.301 176.53 162.314 176.59L163.824 183.39C163.837 183.463 163.807 183.5 163.734 183.5H162.954ZM161.084 181.42C161.084 181.447 161.094 181.46 161.114 181.46H162.434C162.454 181.46 162.464 181.447 162.464 181.42L161.804 178C161.791 177.947 161.777 177.947 161.764 178L161.084 181.42ZM168.184 183.1C167.851 183.42 167.414 183.58 166.874 183.58C166.334 183.58 165.897 183.42 165.564 183.1C165.237 182.78 165.074 182.357 165.074 181.83V178.17C165.074 177.643 165.237 177.22 165.564 176.9C165.897 176.58 166.334 176.42 166.874 176.42C167.414 176.42 167.851 176.58 168.184 176.9C168.517 177.22 168.684 177.647 168.684 178.18V178.6C168.684 178.667 168.651 178.7 168.584 178.7H167.824C167.757 178.7 167.724 178.667 167.724 178.6V178.16C167.724 177.887 167.644 177.667 167.484 177.5C167.331 177.333 167.127 177.25 166.874 177.25C166.621 177.25 166.414 177.333 166.254 177.5C166.101 177.667 166.024 177.887 166.024 178.16V181.84C166.024 182.113 166.101 182.333 166.254 182.5C166.414 182.667 166.621 182.75 166.874 182.75C167.127 182.75 167.331 182.667 167.484 182.5C167.644 182.333 167.724 182.113 167.724 181.84V180.74C167.724 180.713 167.711 180.7 167.684 180.7H166.924C166.857 180.7 166.824 180.667 166.824 180.6V179.98C166.824 179.913 166.857 179.88 166.924 179.88H168.584C168.651 179.88 168.684 179.913 168.684 179.98V181.83C168.684 182.357 168.517 182.78 168.184 183.1ZM173.686 177.23C173.686 177.297 173.652 177.33 173.586 177.33H171.336C171.309 177.33 171.296 177.343 171.296 177.37V179.54C171.296 179.567 171.309 179.58 171.336 179.58H172.716C172.782 179.58 172.816 179.613 172.816 179.68V180.31C172.816 180.377 172.782 180.41 172.716 180.41H171.336C171.309 180.41 171.296 180.423 171.296 180.45V182.63C171.296 182.657 171.309 182.67 171.336 182.67H173.586C173.652 182.67 173.686 182.703 173.686 182.77V183.4C173.686 183.467 173.652 183.5 173.586 183.5H170.436C170.369 183.5 170.336 183.467 170.336 183.4V176.6C170.336 176.533 170.369 176.5 170.436 176.5H173.586C173.652 176.5 173.686 176.533 173.686 176.6V177.23Z" fill="white"/>
</g>
<g filter="url(#filter6_d_271_1824)">
<path d="M7.25517 55C7.10851 55 7.03517 54.9267 7.03517 54.78L7.03517 39.82C7.03517 39.6733 7.10851 39.6 7.25517 39.6H8.37717C8.52384 39.6 8.59717 39.6733 8.59717 39.82V53.548C8.59717 53.6067 8.62651 53.636 8.68517 53.636H13.7232C13.8698 53.636 13.9432 53.7093 13.9432 53.856V54.78C13.9432 54.9267 13.8698 55 13.7232 55H7.25517ZM22.5998 49.808C22.5998 49.9547 22.5265 50.028 22.3798 50.028H17.3638C17.3052 50.028 17.2758 50.0573 17.2758 50.116V51.722C17.2758 52.338 17.4445 52.844 17.7818 53.24C18.1338 53.6213 18.5885 53.812 19.1458 53.812C19.6152 53.812 20.0112 53.6727 20.3338 53.394C20.6712 53.1007 20.8912 52.7267 20.9938 52.272C21.0378 52.14 21.1185 52.074 21.2358 52.074L22.3358 52.118C22.4972 52.118 22.5632 52.1987 22.5338 52.36C22.4165 53.2253 22.0572 53.9147 21.4558 54.428C20.8692 54.9267 20.0992 55.176 19.1458 55.176C18.1045 55.176 17.2685 54.868 16.6378 54.252C16.0218 53.636 15.7138 52.822 15.7138 51.81V47.058C15.7138 46.0607 16.0218 45.254 16.6378 44.638C17.2685 44.0073 18.1045 43.692 19.1458 43.692C20.2018 43.692 21.0378 44.0073 21.6538 44.638C22.2845 45.254 22.5998 46.0607 22.5998 47.058V49.808ZM19.1458 45.056C18.5885 45.056 18.1338 45.254 17.7818 45.65C17.4445 46.0313 17.2758 46.5373 17.2758 47.168V48.642C17.2758 48.7007 17.3052 48.73 17.3638 48.73H20.9718C21.0305 48.73 21.0598 48.7007 21.0598 48.642V47.168C21.0598 46.5373 20.8838 46.0313 20.5318 45.65C20.1798 45.254 19.7178 45.056 19.1458 45.056ZM28.8109 40.788C28.2535 40.788 27.8575 40.9787 27.6229 41.36C27.3882 41.7267 27.2709 42.306 27.2709 43.098V43.78C27.2709 43.8387 27.3002 43.868 27.3589 43.868H29.0529C29.1995 43.868 29.2729 43.9413 29.2729 44.088V44.814C29.2729 44.9607 29.1995 45.034 29.0529 45.034H27.3589C27.3002 45.034 27.2709 45.0633 27.2709 45.122V54.78C27.2709 54.9267 27.1975 55 27.0509 55H25.9509C25.8042 55 25.7309 54.9267 25.7309 54.78V45.122C25.7309 45.0633 25.7015 45.034 25.6429 45.034H24.7629C24.6162 45.034 24.5429 44.9607 24.5429 44.814V44.088C24.5429 43.9413 24.6162 43.868 24.7629 43.868H25.6429C25.7015 43.868 25.7309 43.8387 25.7309 43.78V43.076C25.7309 41.8 25.9655 40.876 26.4349 40.304C26.9042 39.732 27.6889 39.446 28.7889 39.446H29.0969C29.2435 39.446 29.3169 39.5193 29.3169 39.666L29.2949 40.568C29.2949 40.7147 29.2215 40.788 29.0749 40.788H28.8109ZM35.705 44.814C35.705 44.9607 35.6316 45.034 35.485 45.034H33.813C33.7543 45.034 33.725 45.0633 33.725 45.122V51.854C33.725 52.5287 33.8423 52.998 34.077 53.262C34.3116 53.5113 34.671 53.6287 35.155 53.614H35.375C35.5216 53.614 35.595 53.6873 35.595 53.834V54.78C35.595 54.9267 35.5216 55 35.375 55H34.825C33.9596 55 33.2996 54.8167 32.845 54.45C32.405 54.0687 32.185 53.3573 32.185 52.316V45.122C32.185 45.0633 32.1556 45.034 32.097 45.034H31.239C31.0923 45.034 31.019 44.9607 31.019 44.814V44.088C31.019 43.9413 31.0923 43.868 31.239 43.868H32.097C32.1556 43.868 32.185 43.8387 32.185 43.78V41.316C32.185 41.1693 32.2583 41.096 32.405 41.096H33.505C33.6516 41.096 33.725 41.1693 33.725 41.316V43.78C33.725 43.8387 33.7543 43.868 33.813 43.868H35.485C35.6316 43.868 35.705 43.9413 35.705 44.088V44.814ZM38.9962 41.888C38.6735 41.888 38.4095 41.778 38.2042 41.558C37.9989 41.338 37.8962 41.0593 37.8962 40.722C37.8962 40.3993 37.9989 40.1353 38.2042 39.93C38.4095 39.71 38.6735 39.6 38.9962 39.6C39.3042 39.6 39.5535 39.71 39.7442 39.93C39.9495 40.1353 40.0522 40.3993 40.0522 40.722C40.0522 41.0593 39.9495 41.338 39.7442 41.558C39.5535 41.778 39.3042 41.888 38.9962 41.888ZM38.4242 55C38.2775 55 38.2042 54.9267 38.2042 54.78V44.088C38.2042 43.9413 38.2775 43.868 38.4242 43.868H39.5462C39.6929 43.868 39.7662 43.9413 39.7662 44.088V54.78C39.7662 54.9267 39.6929 55 39.5462 55H38.4242ZM45.8855 55.11C44.8735 55.11 44.0595 54.8533 43.4435 54.34C42.8421 53.812 42.5415 53.1153 42.5415 52.25V52.096C42.5415 51.9493 42.6148 51.876 42.7615 51.876H43.8175C43.9641 51.876 44.0375 51.9347 44.0375 52.052V52.228C44.0375 52.6973 44.2061 53.0933 44.5435 53.416C44.8955 53.7387 45.3501 53.9 45.9075 53.9C46.4355 53.9 46.8608 53.7387 47.1835 53.416C47.5061 53.0933 47.6675 52.6827 47.6675 52.184C47.6675 51.9493 47.6161 51.7293 47.5135 51.524C47.4108 51.3187 47.3155 51.1647 47.2275 51.062C47.1395 50.9447 46.9561 50.8053 46.6775 50.644C46.3988 50.4827 46.2081 50.3873 46.1055 50.358C46.0175 50.314 45.7901 50.2113 45.4235 50.05C45.0861 49.918 44.8221 49.808 44.6315 49.72C44.4555 49.632 44.2208 49.4927 43.9275 49.302C43.6341 49.0967 43.4068 48.8913 43.2455 48.686C43.0841 48.4807 42.9375 48.2167 42.8055 47.894C42.6881 47.5567 42.6295 47.19 42.6295 46.794C42.6295 45.8553 42.9155 45.1147 43.4875 44.572C44.0741 44.0293 44.8588 43.758 45.8415 43.758C46.8388 43.758 47.6308 44.0367 48.2175 44.594C48.8041 45.1513 49.0975 45.892 49.0975 46.816V46.882C49.0975 47.0287 49.0241 47.102 48.8775 47.102H47.8655C47.7188 47.102 47.6455 47.0433 47.6455 46.926V46.75C47.6455 46.2513 47.4768 45.8407 47.1395 45.518C46.8168 45.1953 46.3915 45.034 45.8635 45.034C45.3355 45.034 44.9101 45.2027 44.5875 45.54C44.2795 45.8627 44.1255 46.266 44.1255 46.75C44.1255 47.0287 44.1768 47.2707 44.2795 47.476C44.3821 47.6813 44.5508 47.872 44.7855 48.048C45.0348 48.2093 45.2475 48.334 45.4235 48.422C45.6141 48.51 45.9001 48.6347 46.2815 48.796C46.7361 48.9867 47.0808 49.148 47.3155 49.28C47.5501 49.412 47.8435 49.61 48.1955 49.874C48.5475 50.138 48.8041 50.4607 48.9655 50.842C49.1415 51.2087 49.2295 51.634 49.2295 52.118C49.2295 53.0273 48.9288 53.7533 48.3275 54.296C47.7261 54.8387 46.9121 55.11 45.8855 55.11ZM55.566 44.814C55.566 44.9607 55.4926 45.034 55.346 45.034H53.674C53.6153 45.034 53.586 45.0633 53.586 45.122V51.854C53.586 52.5287 53.7033 52.998 53.938 53.262C54.1726 53.5113 54.532 53.6287 55.016 53.614H55.236C55.3826 53.614 55.456 53.6873 55.456 53.834V54.78C55.456 54.9267 55.3826 55 55.236 55H54.686C53.8206 55 53.1606 54.8167 52.706 54.45C52.266 54.0687 52.046 53.3573 52.046 52.316V45.122C52.046 45.0633 52.0166 45.034 51.958 45.034H51.1C50.9533 45.034 50.88 44.9607 50.88 44.814V44.088C50.88 43.9413 50.9533 43.868 51.1 43.868H51.958C52.0166 43.868 52.046 43.8387 52.046 43.78V41.316C52.046 41.1693 52.1193 41.096 52.266 41.096H53.366C53.5126 41.096 53.586 41.1693 53.586 41.316V43.78C53.586 43.8387 53.6153 43.868 53.674 43.868H55.346C55.4926 43.868 55.566 43.9413 55.566 44.088V44.814ZM69.1135 54.186C68.4388 54.846 67.5368 55.176 66.4075 55.176C65.2782 55.176 64.3762 54.846 63.7015 54.186C63.0268 53.5113 62.6895 52.6167 62.6895 51.502V43.098C62.6895 41.9833 63.0268 41.096 63.7015 40.436C64.3762 39.7613 65.2782 39.424 66.4075 39.424C67.5368 39.424 68.4388 39.7613 69.1135 40.436C69.8028 41.1107 70.1475 42.0053 70.1475 43.12V44.066C70.1475 44.2127 70.0742 44.286 69.9275 44.286H68.8055C68.6588 44.286 68.5855 44.2127 68.5855 44.066V43.076C68.5855 42.3867 68.3875 41.8367 67.9915 41.426C67.5955 41.0007 67.0675 40.788 66.4075 40.788C65.7622 40.788 65.2342 41.0007 64.8235 41.426C64.4275 41.8513 64.2295 42.4013 64.2295 43.076V51.524C64.2295 52.1987 64.4275 52.7487 64.8235 53.174C65.2342 53.5993 65.7622 53.812 66.4075 53.812C67.0675 53.812 67.5955 53.6067 67.9915 53.196C68.3875 52.7707 68.5855 52.2133 68.5855 51.524V48.708C68.5855 48.6493 68.5562 48.62 68.4975 48.62H66.6055C66.4588 48.62 66.3855 48.5467 66.3855 48.4V47.476C66.3855 47.3293 66.4588 47.256 66.6055 47.256H69.9275C70.0742 47.256 70.1475 47.3293 70.1475 47.476V51.502C70.1475 52.6167 69.8028 53.5113 69.1135 54.186ZM76.7984 43.758C77.165 43.758 77.4804 43.8387 77.7444 44C77.847 44.0587 77.8837 44.154 77.8544 44.286L77.6124 45.408C77.5977 45.54 77.5024 45.584 77.3264 45.54C77.0624 45.4227 76.7544 45.3933 76.4024 45.452C75.8744 45.4813 75.4417 45.76 75.1044 46.288C74.767 46.8013 74.5984 47.432 74.5984 48.18V54.78C74.5984 54.9267 74.525 55 74.3784 55H73.2564C73.1097 55 73.0364 54.9267 73.0364 54.78V44.088C73.0364 43.9413 73.1097 43.868 73.2564 43.868H74.3784C74.525 43.868 74.5984 43.9413 74.5984 44.088V45.408C74.613 45.4667 74.6497 45.474 74.7084 45.43C75.1337 44.3153 75.8304 43.758 76.7984 43.758ZM80.8237 41.888C80.501 41.888 80.237 41.778 80.0317 41.558C79.8264 41.338 79.7237 41.0593 79.7237 40.722C79.7237 40.3993 79.8264 40.1353 80.0317 39.93C80.237 39.71 80.501 39.6 80.8237 39.6C81.1317 39.6 81.381 39.71 81.5717 39.93C81.777 40.1353 81.8797 40.3993 81.8797 40.722C81.8797 41.0593 81.777 41.338 81.5717 41.558C81.381 41.778 81.1317 41.888 80.8237 41.888ZM80.2517 55C80.105 55 80.0317 54.9267 80.0317 54.78V44.088C80.0317 43.9413 80.105 43.868 80.2517 43.868H81.3737C81.5204 43.868 81.5937 43.9413 81.5937 44.088V54.78C81.5937 54.9267 81.5204 55 81.3737 55H80.2517ZM88.3509 40.788C87.7936 40.788 87.3976 40.9787 87.1629 41.36C86.9283 41.7267 86.8109 42.306 86.8109 43.098V43.78C86.8109 43.8387 86.8403 43.868 86.8989 43.868H88.5929C88.7396 43.868 88.8129 43.9413 88.8129 44.088V44.814C88.8129 44.9607 88.7396 45.034 88.5929 45.034H86.8989C86.8403 45.034 86.8109 45.0633 86.8109 45.122V54.78C86.8109 54.9267 86.7376 55 86.5909 55H85.4909C85.3443 55 85.2709 54.9267 85.2709 54.78V45.122C85.2709 45.0633 85.2416 45.034 85.1829 45.034H84.3029C84.1563 45.034 84.0829 44.9607 84.0829 44.814V44.088C84.0829 43.9413 84.1563 43.868 84.3029 43.868H85.1829C85.2416 43.868 85.2709 43.8387 85.2709 43.78V43.076C85.2709 41.8 85.5056 40.876 85.9749 40.304C86.4443 39.732 87.2289 39.446 88.3289 39.446H88.6369C88.7836 39.446 88.8569 39.5193 88.8569 39.666L88.8349 40.568C88.8349 40.7147 88.7616 40.788 88.6149 40.788H88.3509ZM95.245 44.814C95.245 44.9607 95.1717 45.034 95.025 45.034H93.353C93.2944 45.034 93.265 45.0633 93.265 45.122V51.854C93.265 52.5287 93.3824 52.998 93.617 53.262C93.8517 53.5113 94.211 53.6287 94.695 53.614H94.915C95.0617 53.614 95.135 53.6873 95.135 53.834V54.78C95.135 54.9267 95.0617 55 94.915 55H94.365C93.4997 55 92.8397 54.8167 92.385 54.45C91.945 54.0687 91.725 53.3573 91.725 52.316V45.122C91.725 45.0633 91.6957 45.034 91.637 45.034H90.779C90.6324 45.034 90.559 44.9607 90.559 44.814V44.088C90.559 43.9413 90.6324 43.868 90.779 43.868H91.637C91.6957 43.868 91.725 43.8387 91.725 43.78V41.316C91.725 41.1693 91.7984 41.096 91.945 41.096H93.045C93.1917 41.096 93.265 41.1693 93.265 41.316V43.78C93.265 43.8387 93.2944 43.868 93.353 43.868H95.025C95.1717 43.868 95.245 43.9413 95.245 44.088V44.814Z" fill="white"/>
</g>
<g filter="url(#filter7_d_271_1824)">
<path d="M38.0825 65.6671C38.4399 65.4826 38.8551 65.4467 39.2339 65.5675C39.6128 65.6883 39.9256 65.9562 40.104 66.3116C40.6611 67.426 41.3663 68.4903 42.1724 69.4669C59.7748 85.8469 87.8219 84.4557 111.72 84.6593C112.125 84.6504 112.529 84.6393 112.934 84.629C109.206 81.7194 105.659 78.5684 102.294 75.1739C101.862 74.7379 101.433 74.2976 101.006 73.8536C101.552 74.1376 102.096 74.4259 102.636 74.7179C107.498 77.3463 112.117 80.2994 116.493 83.5763C116.56 83.6264 116.627 83.6763 116.694 83.7266L118.165 84.8331L116.791 86.0479C112.759 89.6148 108.466 92.8884 103.913 95.8682C103.399 96.2045 102.881 96.5375 102.361 96.8663C102.748 96.3881 103.14 95.9132 103.534 95.4425C106.379 92.0454 109.399 88.8457 112.59 85.838C112.314 85.851 112.038 85.8656 111.761 85.878C87.6099 86.0104 60.1684 88.9829 39.9526 71.3429C38.9955 70.2363 38.1335 69.0033 37.438 67.6886C37.2514 67.3372 37.2135 66.927 37.3345 66.5479C37.4553 66.1691 37.7251 65.8517 38.0825 65.6671Z" fill="white"/>
</g>
<g filter="url(#filter8_d_271_1824)">
<path d="M18.804 173C18.6573 173 18.584 172.927 18.584 172.78V157.82C18.584 157.673 18.6573 157.6 18.804 157.6H22.192C23.3213 157.6 24.2233 157.974 24.898 158.722C25.5727 159.455 25.91 160.445 25.91 161.692V168.908C25.91 170.155 25.5727 171.152 24.898 171.9C24.2233 172.633 23.3213 173 22.192 173H18.804ZM20.146 171.548C20.146 171.607 20.1753 171.636 20.234 171.636L22.17 171.614C22.8153 171.614 23.3287 171.365 23.71 170.866C24.106 170.367 24.3113 169.693 24.326 168.842V161.758C24.326 160.893 24.1353 160.211 23.754 159.712C23.3727 159.213 22.8447 158.964 22.17 158.964H20.234C20.1753 158.964 20.146 158.993 20.146 159.052V171.548ZM35.8726 167.808C35.8726 167.955 35.7992 168.028 35.6526 168.028H30.6366C30.5779 168.028 30.5486 168.057 30.5486 168.116V169.722C30.5486 170.338 30.7172 170.844 31.0546 171.24C31.4066 171.621 31.8612 171.812 32.4186 171.812C32.8879 171.812 33.2839 171.673 33.6066 171.394C33.9439 171.101 34.1639 170.727 34.2666 170.272C34.3106 170.14 34.3912 170.074 34.5086 170.074L35.6086 170.118C35.7699 170.118 35.8359 170.199 35.8066 170.36C35.6892 171.225 35.3299 171.915 34.7286 172.428C34.1419 172.927 33.3719 173.176 32.4186 173.176C31.3772 173.176 30.5412 172.868 29.9106 172.252C29.2946 171.636 28.9866 170.822 28.9866 169.81V165.058C28.9866 164.061 29.2946 163.254 29.9106 162.638C30.5412 162.007 31.3772 161.692 32.4186 161.692C33.4746 161.692 34.3106 162.007 34.9266 162.638C35.5572 163.254 35.8726 164.061 35.8726 165.058V167.808ZM32.4186 163.056C31.8612 163.056 31.4066 163.254 31.0546 163.65C30.7172 164.031 30.5486 164.537 30.5486 165.168V166.642C30.5486 166.701 30.5779 166.73 30.6366 166.73H34.2446C34.3032 166.73 34.3326 166.701 34.3326 166.642V165.168C34.3326 164.537 34.1566 164.031 33.8046 163.65C33.4526 163.254 32.9906 163.056 32.4186 163.056ZM44.5455 172.318C43.9149 172.89 43.0789 173.176 42.0375 173.176C40.9962 173.176 40.1602 172.868 39.5295 172.252C38.9135 171.636 38.6055 170.822 38.6055 169.81V165.058C38.6055 164.075 38.9209 163.269 39.5515 162.638C40.1822 162.007 41.0109 161.692 42.0375 161.692C43.0642 161.692 43.9002 161.993 44.5455 162.594C45.1909 163.181 45.5135 163.899 45.5135 164.75V164.97C45.5135 165.117 45.4402 165.19 45.2935 165.19L44.1715 165.234C44.0249 165.234 43.9515 165.168 43.9515 165.036V164.86C43.9515 164.376 43.7682 163.958 43.4015 163.606C43.0495 163.239 42.5949 163.056 42.0375 163.056C41.4802 163.056 41.0255 163.254 40.6735 163.65C40.3362 164.031 40.1675 164.537 40.1675 165.168V169.7C40.1675 170.331 40.3362 170.844 40.6735 171.24C41.0255 171.621 41.4802 171.812 42.0375 171.812C42.5949 171.812 43.0495 171.636 43.4015 171.284C43.7682 170.917 43.9515 170.492 43.9515 170.008V169.854C43.9515 169.707 44.0249 169.634 44.1715 169.634L45.2935 169.656C45.4402 169.656 45.5135 169.729 45.5135 169.876V170.118C45.5135 170.998 45.1909 171.731 44.5455 172.318ZM54.1011 172.252C53.4704 172.868 52.6271 173.176 51.5711 173.176C50.5151 173.176 49.6718 172.868 49.0411 172.252C48.4251 171.636 48.1171 170.822 48.1171 169.81V165.058C48.1171 164.061 48.4324 163.254 49.0631 162.638C49.6938 162.007 50.5298 161.692 51.5711 161.692C52.6124 161.692 53.4484 162.007 54.0791 162.638C54.7244 163.254 55.0471 164.061 55.0471 165.058V169.81C55.0471 170.822 54.7318 171.636 54.1011 172.252ZM50.2071 171.24C50.5591 171.621 51.0138 171.812 51.5711 171.812C52.1284 171.812 52.5831 171.621 52.9351 171.24C53.3018 170.844 53.4851 170.338 53.4851 169.722V165.168C53.4851 164.537 53.3018 164.031 52.9351 163.65C52.5831 163.254 52.1284 163.056 51.5711 163.056C51.0138 163.056 50.5591 163.254 50.2071 163.65C49.8551 164.031 49.6791 164.537 49.6791 165.168V169.722C49.6791 170.338 49.8551 170.844 50.2071 171.24ZM63.1885 157.82C63.1885 157.673 63.2618 157.6 63.4085 157.6H64.5305C64.6772 157.6 64.7505 157.673 64.7505 157.82V172.78C64.7505 172.927 64.6772 173 64.5305 173H63.4085C63.2618 173 63.1885 172.927 63.1885 172.78V172.142C63.1885 172.039 63.1518 172.025 63.0785 172.098C62.5652 172.817 61.8392 173.176 60.9005 173.176C60.0352 173.176 59.3312 172.868 58.7885 172.252C58.2605 171.621 57.9745 170.807 57.9305 169.81C57.9158 169.267 57.9085 168.453 57.9085 167.368C57.9085 166.327 57.9158 165.535 57.9305 164.992C57.9598 164.009 58.2385 163.217 58.7665 162.616C59.3092 162 60.0205 161.692 60.9005 161.692C61.8538 161.692 62.5798 162.044 63.0785 162.748C63.1518 162.821 63.1885 162.807 63.1885 162.704V157.82ZM61.3625 171.812C61.8905 171.812 62.3232 171.614 62.6605 171.218C63.0125 170.807 63.1885 170.272 63.1885 169.612V165.256C63.1885 164.596 63.0125 164.068 62.6605 163.672C62.3232 163.261 61.8905 163.056 61.3625 163.056C60.7905 163.056 60.3285 163.261 59.9765 163.672C59.6245 164.068 59.4558 164.596 59.4705 165.256V167.434V169.612C59.4558 170.257 59.6245 170.785 59.9765 171.196C60.3285 171.607 60.7905 171.812 61.3625 171.812ZM74.7352 167.808C74.7352 167.955 74.6619 168.028 74.5152 168.028H69.4992C69.4406 168.028 69.4112 168.057 69.4112 168.116V169.722C69.4112 170.338 69.5799 170.844 69.9172 171.24C70.2692 171.621 70.7239 171.812 71.2812 171.812C71.7506 171.812 72.1466 171.673 72.4692 171.394C72.8066 171.101 73.0266 170.727 73.1292 170.272C73.1732 170.14 73.2539 170.074 73.3712 170.074L74.4712 170.118C74.6326 170.118 74.6986 170.199 74.6692 170.36C74.5519 171.225 74.1926 171.915 73.5912 172.428C73.0046 172.927 72.2346 173.176 71.2812 173.176C70.2399 173.176 69.4039 172.868 68.7732 172.252C68.1572 171.636 67.8492 170.822 67.8492 169.81V165.058C67.8492 164.061 68.1572 163.254 68.7732 162.638C69.4039 162.007 70.2399 161.692 71.2812 161.692C72.3372 161.692 73.1732 162.007 73.7892 162.638C74.4199 163.254 74.7352 164.061 74.7352 165.058V167.808ZM71.2812 163.056C70.7239 163.056 70.2692 163.254 69.9172 163.65C69.5799 164.031 69.4112 164.537 69.4112 165.168V166.642C69.4112 166.701 69.4406 166.73 69.4992 166.73H73.1072C73.1659 166.73 73.1952 166.701 73.1952 166.642V165.168C73.1952 164.537 73.0192 164.031 72.6672 163.65C72.3152 163.254 71.8532 163.056 71.2812 163.056ZM82.7702 157.82C82.7702 157.673 82.8435 157.6 82.9902 157.6H84.1122C84.2589 157.6 84.3322 157.673 84.3322 157.82V172.78C84.3322 172.927 84.2589 173 84.1122 173H82.9902C82.8435 173 82.7702 172.927 82.7702 172.78V172.142C82.7702 172.039 82.7335 172.025 82.6602 172.098C82.1469 172.817 81.4209 173.176 80.4822 173.176C79.6169 173.176 78.9129 172.868 78.3702 172.252C77.8422 171.621 77.5562 170.807 77.5122 169.81C77.4975 169.267 77.4902 168.453 77.4902 167.368C77.4902 166.327 77.4975 165.535 77.5122 164.992C77.5415 164.009 77.8202 163.217 78.3482 162.616C78.8909 162 79.6022 161.692 80.4822 161.692C81.4355 161.692 82.1615 162.044 82.6602 162.748C82.7335 162.821 82.7702 162.807 82.7702 162.704V157.82ZM80.9442 171.812C81.4722 171.812 81.9049 171.614 82.2422 171.218C82.5942 170.807 82.7702 170.272 82.7702 169.612V165.256C82.7702 164.596 82.5942 164.068 82.2422 163.672C81.9049 163.261 81.4722 163.056 80.9442 163.056C80.3722 163.056 79.9102 163.261 79.5582 163.672C79.2062 164.068 79.0375 164.596 79.0522 165.256V167.434V169.612C79.0375 170.257 79.2062 170.785 79.5582 171.196C79.9102 171.607 80.3722 171.812 80.9442 171.812Z" fill="white"/>
</g>
<g filter="url(#filter9_d_271_1824)">
<path d="M107.884 118.157C112.085 121.639 115.984 125.392 119.581 129.414C119.712 129.561 119.844 129.709 119.975 129.856L121.041 131.036L119.782 132.034C115.672 135.218 111.33 138.107 106.757 140.699C106.229 140.998 105.698 141.292 105.165 141.583C105.575 141.135 105.989 140.691 106.405 140.25C109.472 137.005 112.708 133.975 116.11 131.157C115.324 131.171 114.544 131.189 113.756 131.211C91.824 132.002 67.964 134.869 51.6445 149.819C50.766 150.644 49.9202 151.503 49.113 152.39C48.8452 152.684 48.4726 152.859 48.0751 152.872C47.6778 152.886 47.2877 152.737 46.9934 152.463C46.6992 152.188 46.5245 151.808 46.511 151.411C46.4975 151.013 46.646 150.629 46.9212 150.342C47.8049 149.419 48.7271 148.528 49.6817 147.675C67.4887 132.29 91.6793 130.29 113.737 129.991C114.529 129.989 115.313 129.992 116.102 129.998C112.986 126.388 110.105 122.568 107.46 118.537C107.128 118.03 106.798 117.52 106.473 117.007C106.947 117.387 107.418 117.77 107.884 118.157Z" fill="white"/>
</g>
<g filter="url(#filter10_d_271_1824)">
<path d="M433.761 5.491C434.158 5.50993 434.527 5.6913 434.788 5.991C435.312 6.59064 435.816 7.18593 436.315 7.80154C446.944 18.7589 444.207 35.6571 439.009 48.0369C438.903 48.3122 438.794 48.5868 438.686 48.8631C444.64 45.268 450.787 41.9862 457.126 39.0203C457.864 38.6749 458.605 38.3337 459.349 37.9969C458.709 38.5043 458.067 39.0077 457.423 39.5066C451.622 43.9982 445.61 48.1448 439.387 51.9451C439.005 52.1784 438.621 52.4097 438.237 52.6404L436.886 53.4793L436.133 52.0555C433.013 45.9643 430.209 39.7086 427.722 33.2879C427.427 32.5278 427.137 31.7645 426.852 30.9998C427.314 31.6721 427.773 32.3473 428.228 33.0242C431.59 38.0366 434.705 43.1774 437.581 48.4431C437.676 48.1689 437.77 47.896 437.862 47.6228C442.516 34.8659 444.351 19.4686 434.096 9.67752C433.598 9.11232 433.093 8.56363 432.567 8.00858C432.294 7.71976 432.149 7.33552 432.168 6.93826C432.187 6.5412 432.369 6.1624 432.669 5.88943C432.969 5.61659 433.364 5.472 433.761 5.491Z" fill="white"/>
</g>
<defs>
<filter id="filter0_d_271_1824" x="106.354" y="47.5086" width="362.023" height="157.578" filterUnits="userSpaceOnUse" color-interpolation-filters="sRGB">
<feFlood flood-opacity="0" result="BackgroundImageFix"/>
<feColorMatrix in="SourceAlpha" type="matrix" values="0 0 0 0 0 0 0 0 0 0 0 0 0 0 0 0 0 0 127 0" result="hardAlpha"/>
<feOffset dy="2"/>
<feGaussianBlur stdDeviation="2"/>
<feComposite in2="hardAlpha" operator="out"/>
<feColorMatrix type="matrix" values="0 0 0 0 0 0 0 0 0 0 0 0 0 0 0 0 0 0 0.5 0"/>
<feBlend mode="normal" in2="BackgroundImageFix" result="effect1_dropShadow_271_1824"/>
<feBlend mode="normal" in="SourceGraphic" in2="effect1_dropShadow_271_1824" result="shape"/>
</filter>
<filter id="filter1_d_271_1824" x="436.975" y="175.92" width="11.9233" height="11.08" filterUnits="userSpaceOnUse" color-interpolation-filters="sRGB">
<feFlood flood-opacity="0" result="BackgroundImageFix"/>
<feColorMatrix in="SourceAlpha" type="matrix" values="0 0 0 0 0 0 0 0 0 0 0 0 0 0 0 0 0 0 127 0" result="hardAlpha"/>
<feOffset dy="1"/>
<feGaussianBlur stdDeviation="1"/>
<feComposite in2="hardAlpha" operator="out"/>
<feColorMatrix type="matrix" values="0 0 0 0 0 0 0 0 0 0 0 0 0 0 0 0 0 0 0.5 0"/>
<feBlend mode="normal" in2="BackgroundImageFix" result="effect1_dropShadow_271_1824"/>
<feBlend mode="normal" in="SourceGraphic" in2="effect1_dropShadow_271_1824" result="shape"/>
</filter>
<filter id="filter2_d_271_1824" x="95.3535" y="39" width="384" height="142" filterUnits="userSpaceOnUse" color-interpolation-filters="sRGB">
<feFlood flood-opacity="0" result="BackgroundImageFix"/>
<feColorMatrix in="SourceAlpha" type="matrix" values="0 0 0 0 0 0 0 0 0 0 0 0 0 0 0 0 0 0 127 0" result="hardAlpha"/>
<feOffset dy="4"/>
<feGaussianBlur stdDeviation="7.5"/>
<feComposite in2="hardAlpha" operator="out"/>
<feColorMatrix type="matrix" values="0 0 0 0 0 0 0 0 0 0 0 0 0 0 0 0 0 0 0.5 0"/>
<feBlend mode="normal" in2="BackgroundImageFix" result="effect1_dropShadow_271_1824"/>
<feBlend mode="normal" in="SourceGraphic" in2="effect1_dropShadow_271_1824" result="shape"/>
</filter>
<filter id="filter3_d_271_1824" x="165.695" y="72.424" width="96.1958" height="19.752" filterUnits="userSpaceOnUse" color-interpolation-filters="sRGB">
<feFlood flood-opacity="0" result="BackgroundImageFix"/>
<feColorMatrix in="SourceAlpha" type="matrix" values="0 0 0 0 0 0 0 0 0 0 0 0 0 0 0 0 0 0 127 0" result="hardAlpha"/>
<feOffset dy="2"/>
<feGaussianBlur stdDeviation="1"/>
<feComposite in2="hardAlpha" operator="out"/>
<feColorMatrix type="matrix" values="0 0 0 0 0 0 0 0 0 0 0 0 0 0 0 0 0 0 0.5 0"/>
<feBlend mode="normal" in2="BackgroundImageFix" result="effect1_dropShadow_271_1824"/>
<feBlend mode="normal" in="SourceGraphic" in2="effect1_dropShadow_271_1824" result="shape"/>
</filter>
<filter id="filter4_d_271_1824" x="165.146" y="124.424" width="203.221" height="23.976" filterUnits="userSpaceOnUse" color-interpolation-filters="sRGB">
<feFlood flood-opacity="0" result="BackgroundImageFix"/>
<feColorMatrix in="SourceAlpha" type="matrix" values="0 0 0 0 0 0 0 0 0 0 0 0 0 0 0 0 0 0 127 0" result="hardAlpha"/>
<feOffset dy="2"/>
<feGaussianBlur stdDeviation="1"/>
<feComposite in2="hardAlpha" operator="out"/>
<feColorMatrix type="matrix" values="0 0 0 0 0 0 0 0 0 0 0 0 0 0 0 0 0 0 0.5 0"/>
<feBlend mode="normal" in2="BackgroundImageFix" result="effect1_dropShadow_271_1824"/>
<feBlend mode="normal" in="SourceGraphic" in2="effect1_dropShadow_271_1824" result="shape"/>
</filter>
<filter id="filter5_d_271_1824" x="117.354" y="169" width="67" height="26" filterUnits="userSpaceOnUse" color-interpolation-filters="sRGB">
<feFlood flood-opacity="0" result="BackgroundImageFix"/>
<feColorMatrix in="SourceAlpha" type="matrix" values="0 0 0 0 0 0 0 0 0 0 0 0 0 0 0 0 0 0 127 0" result="hardAlpha"/>
<feOffset dy="2"/>
<feGaussianBlur stdDeviation="1.5"/>
<feComposite in2="hardAlpha" operator="out"/>
<feColorMatrix type="matrix" values="0 0 0 0 0 0 0 0 0 0 0 0 0 0 0 0 0 0 0.85 0"/>
<feBlend mode="normal" in2="BackgroundImageFix" result="effect1_dropShadow_271_1824"/>
<feBlend mode="normal" in="SourceGraphic" in2="effect1_dropShadow_271_1824" result="shape"/>
</filter>
<filter id="filter6_d_271_1824" x="4.03516" y="38.424" width="94.21" height="21.752" filterUnits="userSpaceOnUse" color-interpolation-filters="sRGB">
<feFlood flood-opacity="0" result="BackgroundImageFix"/>
<feColorMatrix in="SourceAlpha" type="matrix" values="0 0 0 0 0 0 0 0 0 0 0 0 0 0 0 0 0 0 127 0" result="hardAlpha"/>
<feOffset dy="2"/>
<feGaussianBlur stdDeviation="1.5"/>
<feComposite in2="hardAlpha" operator="out"/>
<feColorMatrix type="matrix" values="0 0 0 0 0 0 0 0 0 0 0 0 0 0 0 0 0 0 1 0"/>
<feBlend mode="normal" in2="BackgroundImageFix" result="effect1_dropShadow_271_1824"/>
<feBlend mode="normal" in="SourceGraphic" in2="effect1_dropShadow_271_1824" result="shape"/>
</filter>
<filter id="filter7_d_271_1824" x="33.2646" y="65.4972" width="88.8999" height="39.3691" filterUnits="userSpaceOnUse" color-interpolation-filters="sRGB">
<feFlood flood-opacity="0" result="BackgroundImageFix"/>
<feColorMatrix in="SourceAlpha" type="matrix" values="0 0 0 0 0 0 0 0 0 0 0 0 0 0 0 0 0 0 127 0" result="hardAlpha"/>
<feOffset dy="4"/>
<feGaussianBlur stdDeviation="2"/>
<feComposite in2="hardAlpha" operator="out"/>
<feColorMatrix type="matrix" values="0 0 0 0 0 0 0 0 0 0 0 0 0 0 0 0 0 0 1 0"/>
<feBlend mode="normal" in2="BackgroundImageFix" result="effect1_dropShadow_271_1824"/>
<feBlend mode="normal" in="SourceGraphic" in2="effect1_dropShadow_271_1824" result="shape"/>
</filter>
<filter id="filter8_d_271_1824" x="15.584" y="156.6" width="71.748" height="21.576" filterUnits="userSpaceOnUse" color-interpolation-filters="sRGB">
<feFlood flood-opacity="0" result="BackgroundImageFix"/>
<feColorMatrix in="SourceAlpha" type="matrix" values="0 0 0 0 0 0 0 0 0 0 0 0 0 0 0 0 0 0 127 0" result="hardAlpha"/>
<feOffset dy="2"/>
<feGaussianBlur stdDeviation="1.5"/>
<feComposite in2="hardAlpha" operator="out"/>
<feColorMatrix type="matrix" values="0 0 0 0 0 0 0 0 0 0 0 0 0 0 0 0 0 0 1 0"/>
<feBlend mode="normal" in2="BackgroundImageFix" result="effect1_dropShadow_271_1824"/>
<feBlend mode="normal" in="SourceGraphic" in2="effect1_dropShadow_271_1824" result="shape"/>
</filter>
<filter id="filter9_d_271_1824" x="42.5103" y="117.007" width="82.5308" height="43.8662" filterUnits="userSpaceOnUse" color-interpolation-filters="sRGB">
<feFlood flood-opacity="0" result="BackgroundImageFix"/>
<feColorMatrix in="SourceAlpha" type="matrix" values="0 0 0 0 0 0 0 0 0 0 0 0 0 0 0 0 0 0 127 0" result="hardAlpha"/>
<feOffset dy="4"/>
<feGaussianBlur stdDeviation="2"/>
<feComposite in2="hardAlpha" operator="out"/>
<feColorMatrix type="matrix" values="0 0 0 0 0 0 0 0 0 0 0 0 0 0 0 0 0 0 1 0"/>
<feBlend mode="normal" in2="BackgroundImageFix" result="effect1_dropShadow_271_1824"/>
<feBlend mode="normal" in="SourceGraphic" in2="effect1_dropShadow_271_1824" result="shape"/>
</filter>
<filter id="filter10_d_271_1824" x="422.852" y="5.48933" width="40.4971" height="55.9899" filterUnits="userSpaceOnUse" color-interpolation-filters="sRGB">
<feFlood flood-opacity="0" result="BackgroundImageFix"/>
<feColorMatrix in="SourceAlpha" type="matrix" values="0 0 0 0 0 0 0 0 0 0 0 0 0 0 0 0 0 0 127 0" result="hardAlpha"/>
<feOffset dy="4"/>
<feGaussianBlur stdDeviation="2"/>
<feComposite in2="hardAlpha" operator="out"/>
<feColorMatrix type="matrix" values="0 0 0 0 0 0 0 0 0 0 0 0 0 0 0 0 0 0 1 0"/>
<feBlend mode="normal" in2="BackgroundImageFix" result="effect1_dropShadow_271_1824"/>
<feBlend mode="normal" in="SourceGraphic" in2="effect1_dropShadow_271_1824" result="shape"/>
</filter>
</defs>
</svg>
