<svg width="495" height="219" viewBox="0 0 495 219" fill="none" xmlns="http://www.w3.org/2000/svg">
<g filter="url(#filter0_d_271_1824)">
<rect x="125.902" y="49.5086" width="354.023" height="149.578" rx="7.18497" fill="#0E172B"/>
</g>
<path d="M457.99 188.902L457.984 188.898L457.962 188.887L457.882 188.847L457.594 188.693C456.146 187.901 454.781 186.978 453.516 185.936C451.331 184.123 448.902 181.402 448.902 178.142C448.902 177.079 449.245 176.042 449.883 175.173C450.521 174.305 451.423 173.648 452.465 173.294C453.507 172.94 454.637 172.905 455.701 173.194C456.764 173.484 457.708 174.083 458.402 174.91C459.097 174.083 460.041 173.484 461.104 173.194C462.167 172.905 463.298 172.94 464.34 173.294C465.381 173.648 466.283 174.305 466.922 175.173C467.56 176.042 467.902 177.079 467.902 178.142C467.902 181.402 465.475 184.123 463.289 185.936C461.917 187.065 460.427 188.054 458.843 188.887L458.82 188.898L458.814 188.902H458.812C458.686 188.966 458.545 189 458.402 189C458.26 189 458.119 188.967 457.993 188.903L457.99 188.902Z" fill="#066DA3"/>
<g filter="url(#filter1_d_271_1824)">
<path d="M454.634 184C454.567 184 454.534 183.967 454.534 183.9V183.45C454.534 183.397 454.547 183.353 454.574 183.32C455.494 181.86 456.074 180.92 456.314 180.5C456.74 179.767 456.954 179.16 456.954 178.68C456.954 178.333 456.874 178.057 456.714 177.85C456.554 177.643 456.344 177.54 456.084 177.54C455.83 177.54 455.624 177.643 455.464 177.85C455.31 178.05 455.237 178.317 455.244 178.65V179.03C455.244 179.097 455.21 179.13 455.144 179.13H454.624C454.557 179.13 454.524 179.097 454.524 179.03V178.63C454.537 178.117 454.687 177.703 454.974 177.39C455.267 177.077 455.647 176.92 456.114 176.92C456.58 176.92 456.957 177.083 457.244 177.41C457.53 177.73 457.674 178.153 457.674 178.68C457.674 179.307 457.437 180.013 456.964 180.8C456.897 180.913 456.38 181.757 455.414 183.33C455.394 183.363 455.404 183.38 455.444 183.38H457.774C457.84 183.38 457.874 183.413 457.874 183.48V183.9C457.874 183.967 457.84 184 457.774 184H454.634ZM462.347 181.44C462.414 181.44 462.447 181.473 462.447 181.54V181.98C462.447 182.047 462.414 182.08 462.347 182.08H462.037C462.011 182.08 461.997 182.093 461.997 182.12V183.9C461.997 183.967 461.964 184 461.897 184H461.387C461.321 184 461.287 183.967 461.287 183.9V182.12C461.287 182.093 461.274 182.08 461.247 182.08H458.977C458.911 182.08 458.877 182.047 458.877 181.98V181.6C458.877 181.573 458.884 181.533 458.897 181.48L460.397 177.08C460.417 177.027 460.457 177 460.517 177H461.067C461.141 177 461.167 177.037 461.147 177.11L459.707 181.39C459.687 181.423 459.697 181.44 459.737 181.44H461.247C461.274 181.44 461.287 181.427 461.287 181.4V179.87C461.287 179.803 461.321 179.77 461.387 179.77H461.897C461.964 179.77 461.997 179.803 461.997 179.87V181.4C461.997 181.427 462.011 181.44 462.037 181.44H462.347Z" fill="white"/>
</g>
<g filter="url(#filter2_d_271_1824)">
<rect x="125.902" y="50" width="354" height="112" rx="8" fill="#1C293D" shape-rendering="crispEdges"/>
<rect x="147.902" y="67.5" width="25" height="25" rx="3.87332" fill="#DADADA"/>
<path d="M157.446 74.969C157.446 75.8618 156.722 76.5857 155.829 76.5857C154.936 76.5857 154.212 75.8618 154.212 74.969C154.212 74.0761 154.936 73.3523 155.829 73.3523C156.722 73.3523 157.446 74.0761 157.446 74.969Z" fill="black"/>
<path d="M166.592 74.3299C166.592 75.2228 165.868 75.9466 164.976 75.9466C164.083 75.9466 163.359 75.2228 163.359 74.3299C163.359 73.4371 164.083 72.7132 164.976 72.7132C165.868 72.7132 166.592 73.4371 166.592 74.3299Z" fill="black"/>
<path d="M160.635 76.278C160.916 76.1782 161.224 76.3245 161.324 76.6048L163.289 82.1243C163.463 82.6134 163.057 83.1132 162.543 83.0432L158.265 82.4615L158.237 82.457C157.957 82.4043 157.764 82.1405 157.803 81.8549C157.842 81.5692 158.098 81.3664 158.382 81.3905L158.41 81.3935L162.061 81.8899L160.308 76.9665C160.209 76.6861 160.355 76.3779 160.635 76.278Z" fill="black"/>
<path d="M164.99 86.2088L165.018 86.2096C165.303 86.224 165.529 86.4594 165.529 86.7477C165.529 87.0361 165.303 87.2714 165.018 87.2858L164.99 87.2867H156.06C155.762 87.2867 155.521 87.0453 155.521 86.7477C155.521 86.4501 155.762 86.2088 156.06 86.2088H164.99Z" fill="black"/>
<g filter="url(#filter3_d_271_1824)">
<path d="M186.808 88.176C185.738 88.176 184.872 87.846 184.212 87.186C183.567 86.5113 183.244 85.6167 183.244 84.502V76.054C183.244 74.954 183.567 74.074 184.212 73.414C184.872 72.754 185.738 72.424 186.808 72.424C187.894 72.424 188.759 72.754 189.404 73.414C190.064 74.074 190.394 74.954 190.394 76.054V76.472C190.394 76.6333 190.321 76.714 190.174 76.714L189.448 76.758C189.302 76.758 189.228 76.6847 189.228 76.538V75.988C189.228 75.2253 189.001 74.6167 188.546 74.162C188.106 73.6927 187.527 73.458 186.808 73.458C186.09 73.458 185.51 73.6927 185.07 74.162C184.63 74.6167 184.41 75.2253 184.41 75.988V84.59C184.41 85.3527 184.63 85.9687 185.07 86.438C185.51 86.9073 186.09 87.142 186.808 87.142C187.527 87.142 188.106 86.9073 188.546 86.438C189.001 85.9687 189.228 85.3527 189.228 84.59V84.084C189.228 83.9373 189.302 83.864 189.448 83.864L190.174 83.908C190.321 83.908 190.394 83.9813 190.394 84.128V84.502C190.394 85.6167 190.064 86.5113 189.404 87.186C188.759 87.846 187.894 88.176 186.808 88.176ZM196.218 88.176C195.25 88.176 194.466 87.8753 193.864 87.274C193.263 86.658 192.962 85.866 192.962 84.898V80.036C192.962 79.068 193.263 78.276 193.864 77.66C194.466 77.044 195.25 76.736 196.218 76.736C197.216 76.736 198.015 77.044 198.616 77.66C199.218 78.2613 199.518 79.0533 199.518 80.036V84.898C199.518 85.866 199.218 86.658 198.616 87.274C198.015 87.8753 197.216 88.176 196.218 88.176ZM196.218 87.142C196.849 87.142 197.362 86.9293 197.758 86.504C198.154 86.064 198.352 85.5067 198.352 84.832V80.102C198.352 79.4127 198.154 78.8553 197.758 78.43C197.362 77.99 196.849 77.77 196.218 77.77C195.602 77.77 195.096 77.99 194.7 78.43C194.319 78.8553 194.128 79.4127 194.128 80.102V84.832C194.128 85.5067 194.319 86.064 194.7 86.504C195.096 86.9293 195.602 87.142 196.218 87.142ZM211.205 76.758C212.041 76.758 212.701 77.0807 213.185 77.726C213.669 78.3713 213.911 79.2513 213.911 80.366V87.78C213.911 87.9267 213.838 88 213.691 88H212.965C212.819 88 212.745 87.9267 212.745 87.78V80.476C212.745 79.6547 212.569 79.002 212.217 78.518C211.88 78.034 211.425 77.792 210.853 77.792C210.237 77.792 209.746 78.0267 209.379 78.496C209.027 78.9653 208.851 79.6107 208.851 80.432V87.78C208.851 87.9267 208.778 88 208.631 88H207.905C207.759 88 207.685 87.9267 207.685 87.78V80.476C207.685 79.6547 207.509 79.002 207.157 78.518C206.805 78.034 206.351 77.792 205.793 77.792C205.177 77.792 204.686 78.0267 204.319 78.496C203.953 78.9653 203.769 79.6107 203.769 80.432V87.78C203.769 87.9267 203.696 88 203.549 88H202.845C202.699 88 202.625 87.9267 202.625 87.78V77.132C202.625 76.9853 202.699 76.912 202.845 76.912H203.549C203.696 76.912 203.769 76.9853 203.769 77.132V77.946C203.769 77.99 203.777 78.0193 203.791 78.034C203.821 78.034 203.85 78.012 203.879 77.968C204.422 77.1613 205.177 76.758 206.145 76.758C207.275 76.758 208.074 77.3227 208.543 78.452C208.573 78.5253 208.609 78.5107 208.653 78.408C209.137 77.308 209.988 76.758 211.205 76.758ZM225.739 76.758C226.575 76.758 227.235 77.0807 227.719 77.726C228.203 78.3713 228.445 79.2513 228.445 80.366V87.78C228.445 87.9267 228.372 88 228.225 88H227.499C227.353 88 227.279 87.9267 227.279 87.78V80.476C227.279 79.6547 227.103 79.002 226.751 78.518C226.414 78.034 225.959 77.792 225.387 77.792C224.771 77.792 224.28 78.0267 223.913 78.496C223.561 78.9653 223.385 79.6107 223.385 80.432V87.78C223.385 87.9267 223.312 88 223.165 88H222.439C222.293 88 222.219 87.9267 222.219 87.78V80.476C222.219 79.6547 222.043 79.002 221.691 78.518C221.339 78.034 220.885 77.792 220.327 77.792C219.711 77.792 219.22 78.0267 218.853 78.496C218.487 78.9653 218.303 79.6107 218.303 80.432V87.78C218.303 87.9267 218.23 88 218.083 88H217.379C217.233 88 217.159 87.9267 217.159 87.78V77.132C217.159 76.9853 217.233 76.912 217.379 76.912H218.083C218.23 76.912 218.303 76.9853 218.303 77.132V77.946C218.303 77.99 218.311 78.0193 218.325 78.034C218.355 78.034 218.384 78.012 218.413 77.968C218.956 77.1613 219.711 76.758 220.679 76.758C221.809 76.758 222.608 77.3227 223.077 78.452C223.107 78.5253 223.143 78.5107 223.187 78.408C223.671 77.308 224.522 76.758 225.739 76.758ZM236.775 77.132C236.775 76.9853 236.848 76.912 236.995 76.912H237.721C237.868 76.912 237.941 76.9853 237.941 77.132V87.78C237.941 87.9267 237.868 88 237.721 88H236.995C236.848 88 236.775 87.9267 236.775 87.78V86.988C236.775 86.944 236.76 86.922 236.731 86.922C236.702 86.9073 236.68 86.9147 236.665 86.944C236.196 87.7507 235.448 88.154 234.421 88.154C233.541 88.154 232.844 87.89 232.331 87.362C231.818 86.8193 231.561 86.0127 231.561 84.942V77.132C231.561 76.9853 231.634 76.912 231.781 76.912H232.507C232.654 76.912 232.727 76.9853 232.727 77.132V84.678C232.727 86.306 233.387 87.12 234.707 87.12C235.352 87.12 235.858 86.8853 236.225 86.416C236.592 85.9467 236.775 85.3013 236.775 84.48V77.132ZM244.936 76.758C245.831 76.758 246.52 77.0587 247.004 77.66C247.488 78.2613 247.73 79.1047 247.73 80.19V87.78C247.73 87.9267 247.657 88 247.51 88H246.784C246.638 88 246.564 87.9267 246.564 87.78V80.3C246.564 79.508 246.388 78.892 246.036 78.452C245.699 78.012 245.215 77.792 244.584 77.792C243.939 77.792 243.426 78.0267 243.044 78.496C242.678 78.9653 242.494 79.6107 242.494 80.432V87.78C242.494 87.9267 242.421 88 242.274 88H241.548C241.402 88 241.328 87.9267 241.328 87.78V77.132C241.328 76.9853 241.402 76.912 241.548 76.912H242.274C242.421 76.912 242.494 76.9853 242.494 77.132V77.99C242.494 78.034 242.509 78.056 242.538 78.056C242.568 78.056 242.59 78.034 242.604 77.99C243.132 77.1687 243.91 76.758 244.936 76.758ZM251.646 74.69C251.396 74.69 251.184 74.602 251.008 74.426C250.832 74.2353 250.744 74.0007 250.744 73.722C250.744 73.4433 250.832 73.216 251.008 73.04C251.184 72.864 251.396 72.776 251.646 72.776C251.91 72.776 252.122 72.864 252.284 73.04C252.445 73.216 252.526 73.4433 252.526 73.722C252.526 74.0153 252.445 74.25 252.284 74.426C252.122 74.602 251.91 74.69 251.646 74.69ZM251.294 88C251.147 88 251.074 87.9267 251.074 87.78V77.132C251.074 76.9853 251.147 76.912 251.294 76.912H252.02C252.166 76.912 252.24 76.9853 252.24 77.132V87.78C252.24 87.9267 252.166 88 252.02 88H251.294ZM258.406 88.11C257.453 88.11 256.683 87.8533 256.096 87.34C255.524 86.812 255.238 86.1373 255.238 85.316V85.184C255.238 85.0373 255.312 84.964 255.458 84.964H256.14C256.287 84.964 256.36 85.0227 256.36 85.14V85.316C256.36 85.844 256.551 86.284 256.932 86.636C257.314 86.988 257.805 87.164 258.406 87.164C258.993 87.164 259.462 86.988 259.814 86.636C260.181 86.2693 260.364 85.8 260.364 85.228C260.364 84.9053 260.306 84.6267 260.188 84.392C260.071 84.1427 259.88 83.9227 259.616 83.732C259.352 83.5413 259.118 83.402 258.912 83.314C258.722 83.2113 258.428 83.0793 258.032 82.918C257.607 82.742 257.277 82.5953 257.042 82.478C256.808 82.346 256.529 82.1553 256.206 81.906C255.898 81.6567 255.671 81.356 255.524 81.004C255.378 80.6373 255.304 80.2193 255.304 79.75C255.304 78.8553 255.583 78.144 256.14 77.616C256.698 77.088 257.438 76.824 258.362 76.824C259.301 76.824 260.049 77.0953 260.606 77.638C261.164 78.1807 261.442 78.8847 261.442 79.75V79.816C261.442 79.9627 261.369 80.036 261.222 80.036H260.562C260.416 80.036 260.342 79.9773 260.342 79.86V79.706C260.342 79.1633 260.159 78.7087 259.792 78.342C259.426 77.9753 258.949 77.792 258.362 77.792C257.776 77.792 257.306 77.9753 256.954 78.342C256.602 78.694 256.426 79.156 256.426 79.728C256.426 80.036 256.478 80.3073 256.58 80.542C256.683 80.762 256.859 80.9673 257.108 81.158C257.372 81.334 257.592 81.466 257.768 81.554C257.944 81.642 258.23 81.774 258.626 81.95C259.081 82.1407 259.426 82.302 259.66 82.434C259.91 82.5513 260.203 82.742 260.54 83.006C260.878 83.2553 261.127 83.5633 261.288 83.93C261.45 84.282 261.53 84.7 261.53 85.184C261.53 86.064 261.244 86.7753 260.672 87.318C260.1 87.846 259.345 88.11 258.406 88.11ZM272.734 76.758C273.57 76.758 274.23 77.0807 274.714 77.726C275.198 78.3713 275.44 79.2513 275.44 80.366V87.78C275.44 87.9267 275.367 88 275.22 88H274.494C274.347 88 274.274 87.9267 274.274 87.78V80.476C274.274 79.6547 274.098 79.002 273.746 78.518C273.409 78.034 272.954 77.792 272.382 77.792C271.766 77.792 271.275 78.0267 270.908 78.496C270.556 78.9653 270.38 79.6107 270.38 80.432V87.78C270.38 87.9267 270.307 88 270.16 88H269.434C269.287 88 269.214 87.9267 269.214 87.78V80.476C269.214 79.6547 269.038 79.002 268.686 78.518C268.334 78.034 267.879 77.792 267.322 77.792C266.706 77.792 266.215 78.0267 265.848 78.496C265.481 78.9653 265.298 79.6107 265.298 80.432V87.78C265.298 87.9267 265.225 88 265.078 88H264.374C264.227 88 264.154 87.9267 264.154 87.78V77.132C264.154 76.9853 264.227 76.912 264.374 76.912H265.078C265.225 76.912 265.298 76.9853 265.298 77.132V77.946C265.298 77.99 265.305 78.0193 265.32 78.034C265.349 78.034 265.379 78.012 265.408 77.968C265.951 77.1613 266.706 76.758 267.674 76.758C268.803 76.758 269.603 77.3227 270.072 78.452C270.101 78.5253 270.138 78.5107 270.182 78.408C270.666 77.308 271.517 76.758 272.734 76.758Z" fill="white"/>
</g>
<path d="M147.902 106H456.902" stroke="white" stroke-opacity="0.15"/>
<path d="M302.402 110L297.639 106.25L307.165 106.25L302.402 110Z" fill="#D9D9D9" fill-opacity="0.15"/>
<path d="M147.902 123.406C147.902 121.249 149.651 119.5 151.809 119.5H168.996C171.153 119.5 172.902 121.249 172.902 123.406V140.594C172.902 142.751 171.153 144.5 168.996 144.5H151.809C149.651 144.5 147.902 142.751 147.902 140.594V123.406Z" fill="#6DD3FF"/>
<circle cx="155.475" cy="127.99" r="1.63043" fill="black"/>
<circle cx="164.905" cy="127.99" r="1.63043" fill="black"/>
<path d="M160.753 129.233C161.028 129.141 161.326 129.281 161.432 129.549L161.441 129.575L163.4 135.393C163.565 135.885 163.156 136.379 162.642 136.308L158.387 135.722C158.09 135.681 157.882 135.406 157.923 135.109C157.964 134.812 158.238 134.604 158.536 134.645L162.169 135.146L160.411 129.922L160.403 129.895C160.325 129.618 160.477 129.326 160.753 129.233Z" fill="black"/>
<path d="M165.467 138.539C165.758 138.464 166.054 138.638 166.13 138.928C166.204 139.211 165.992 139.528 165.716 139.598C165.67 139.609 165.565 139.635 165.408 139.669C165.2 139.714 164.902 139.774 164.538 139.834C163.81 139.954 162.809 140.075 161.722 140.075C160.642 140.075 159.374 139.955 158.388 139.838C157.892 139.779 157.463 139.72 157.157 139.676C156.985 139.651 156.81 139.629 156.639 139.597C156.358 139.536 156.17 139.265 156.217 138.978C156.268 138.661 156.568 138.486 156.871 138.534C157.017 138.557 157.668 138.658 158.516 138.758C159.49 138.874 160.707 138.988 161.722 138.988C162.732 138.988 163.672 138.875 164.361 138.762C164.705 138.705 164.985 138.649 165.177 138.607C165.356 138.568 165.46 138.541 165.467 138.539L165.467 138.539Z" fill="black"/>
<path d="M156.233 136.748C156.447 136.954 156.448 137.295 156.235 137.511L156.235 137.511L156.235 137.511L156.235 137.511L156.236 137.511L156.236 137.51C156.233 137.513 156.106 137.644 155.959 137.851C155.799 138.077 155.626 138.374 155.535 138.695C155.444 139.014 155.437 139.341 155.458 139.599C155.469 139.732 155.512 139.865 155.518 139.997C155.594 140.284 155.42 140.583 155.128 140.665C154.878 140.735 154.525 140.539 154.459 140.294L154.459 140.294L154.459 140.293C154.459 140.293 154.459 140.292 154.459 140.292C154.458 140.291 154.458 140.289 154.458 140.288C154.446 140.243 154.393 140.026 154.367 139.708C154.34 139.374 154.344 138.908 154.482 138.424C154.62 137.941 154.867 137.528 155.068 137.245C155.17 137.101 155.265 136.985 155.335 136.904C155.369 136.864 155.412 136.794 155.459 136.767C155.641 136.583 156.051 136.573 156.233 136.748ZM155.518 139.997L155.518 139.998L155.518 139.999L155.518 139.999C155.518 139.999 155.518 139.998 155.518 139.997Z" fill="black"/>
<path d="M162.301 124.563C162.375 124.85 162.672 125.018 162.964 124.937C164.158 124.604 165.399 124.507 166.437 124.616C167.505 124.727 168.236 125.041 168.548 125.409L168.566 125.43C168.761 125.637 169.091 125.653 169.316 125.464C169.548 125.268 169.581 124.926 169.39 124.7L169.334 124.636C168.74 123.992 167.691 123.655 166.577 123.539C165.397 123.416 164.016 123.526 162.694 123.894C162.402 123.976 162.226 124.275 162.301 124.563Z" fill="black"/>
<path d="M151.459 125.659C151.142 125.555 151.102 125.27 151.222 124.972C151.243 124.917 151.276 124.843 151.32 124.756C151.41 124.581 151.551 124.348 151.761 124.103C152.187 123.608 152.889 123.072 153.993 122.852C155.103 122.63 156.556 122.919 157.655 123.22C158.231 123.378 158.741 123.549 159.102 123.679C159.112 123.613 159.118 123.548 159.119 123.486C159.122 123.315 159.121 123.142 159.105 122.971C159.062 122.674 159.265 122.404 159.561 122.367C159.857 122.33 160.134 122.541 160.179 122.839C160.224 123.137 160.219 123.262 160.205 123.533C160.19 123.821 160.144 124.076 160.095 124.263C160.046 124.453 159.998 124.584 159.992 124.599L159.992 124.599C159.98 124.596 159.981 124.595 159.992 124.6C159.888 124.879 159.576 125.015 159.295 124.904C159.108 124.83 158.922 124.755 158.732 124.687C158.391 124.565 157.918 124.407 157.386 124.262C156.293 123.962 155.067 123.746 154.234 123.912C153.393 124.08 152.892 124.476 152.601 124.815C152.453 124.987 152.356 125.148 152.298 125.262C152.141 125.568 151.776 125.763 151.459 125.659Z" fill="black"/>
<g filter="url(#filter4_d_271_1824)">
<path d="M189.932 124.6C190.079 124.6 190.152 124.673 190.152 124.82V125.414C190.152 125.561 190.079 125.634 189.932 125.634H187.006C186.948 125.634 186.918 125.663 186.918 125.722V139.78C186.918 139.927 186.845 140 186.698 140H185.972C185.826 140 185.752 139.927 185.752 139.78V125.722C185.752 125.663 185.723 125.634 185.664 125.634H182.914C182.768 125.634 182.694 125.561 182.694 125.414V124.82C182.694 124.673 182.768 124.6 182.914 124.6H189.932ZM194.822 140.176C193.854 140.176 193.069 139.875 192.468 139.274C191.867 138.658 191.566 137.866 191.566 136.898V132.036C191.566 131.068 191.867 130.276 192.468 129.66C193.069 129.044 193.854 128.736 194.822 128.736C195.819 128.736 196.619 129.044 197.22 129.66C197.821 130.261 198.122 131.053 198.122 132.036V136.898C198.122 137.866 197.821 138.658 197.22 139.274C196.619 139.875 195.819 140.176 194.822 140.176ZM194.822 139.142C195.453 139.142 195.966 138.929 196.362 138.504C196.758 138.064 196.956 137.507 196.956 136.832V132.102C196.956 131.413 196.758 130.855 196.362 130.43C195.966 129.99 195.453 129.77 194.822 129.77C194.206 129.77 193.7 129.99 193.304 130.43C192.923 130.855 192.732 131.413 192.732 132.102V136.832C192.732 137.507 192.923 138.064 193.304 138.504C193.7 138.929 194.206 139.142 194.822 139.142ZM204.815 129.616C204.815 129.763 204.742 129.836 204.595 129.836H202.835C202.776 129.836 202.747 129.865 202.747 129.924V137.008C202.747 137.741 202.872 138.255 203.121 138.548C203.37 138.827 203.766 138.966 204.309 138.966H204.529C204.676 138.966 204.749 139.039 204.749 139.186V139.78C204.749 139.927 204.676 140 204.529 140H204.089C203.268 140 202.644 139.809 202.219 139.428C201.808 139.047 201.603 138.335 201.603 137.294V129.924C201.603 129.865 201.574 129.836 201.515 129.836H200.613C200.466 129.836 200.393 129.763 200.393 129.616V129.132C200.393 128.985 200.466 128.912 200.613 128.912H201.515C201.574 128.912 201.603 128.883 201.603 128.824V126.36C201.603 126.213 201.676 126.14 201.823 126.14H202.527C202.674 126.14 202.747 126.213 202.747 126.36V128.824C202.747 128.883 202.776 128.912 202.835 128.912H204.595C204.742 128.912 204.815 128.985 204.815 129.132V129.616ZM210.397 128.736C211.395 128.736 212.172 129.073 212.729 129.748C213.301 130.408 213.587 131.295 213.587 132.41V139.78C213.587 139.927 213.514 140 213.367 140H212.641C212.495 140 212.421 139.927 212.421 139.78V138.988C212.421 138.944 212.407 138.922 212.377 138.922C212.363 138.907 212.341 138.915 212.311 138.944C211.769 139.765 210.918 140.176 209.759 140.176C208.982 140.176 208.307 139.949 207.735 139.494C207.178 139.039 206.899 138.24 206.899 137.096C206.899 135.879 207.237 134.984 207.911 134.412C208.586 133.84 209.488 133.554 210.617 133.554H212.333C212.392 133.554 212.421 133.525 212.421 133.466V132.454C212.421 131.633 212.238 130.98 211.871 130.496C211.519 130.012 211.021 129.77 210.375 129.77C209.862 129.77 209.415 129.931 209.033 130.254C208.667 130.577 208.454 130.995 208.395 131.508C208.395 131.655 208.322 131.728 208.175 131.728L207.383 131.684C207.222 131.684 207.156 131.611 207.185 131.464C207.273 130.643 207.618 129.983 208.219 129.484C208.821 128.985 209.547 128.736 210.397 128.736ZM210.001 139.142C210.661 139.142 211.226 138.929 211.695 138.504C212.179 138.079 212.421 137.477 212.421 136.7V134.61C212.421 134.551 212.392 134.522 212.333 134.522H210.617C209.855 134.522 209.239 134.735 208.769 135.16C208.315 135.571 208.087 136.187 208.087 137.008C208.087 137.727 208.263 138.262 208.615 138.614C208.967 138.966 209.429 139.142 210.001 139.142ZM216.806 140C216.66 140 216.586 139.927 216.586 139.78V124.82C216.586 124.673 216.66 124.6 216.806 124.6H217.532C217.679 124.6 217.752 124.673 217.752 124.82V139.78C217.752 139.927 217.679 140 217.532 140H216.806ZM221.665 126.69C221.415 126.69 221.203 126.602 221.027 126.426C220.851 126.235 220.763 126.001 220.763 125.722C220.763 125.443 220.851 125.216 221.027 125.04C221.203 124.864 221.415 124.776 221.665 124.776C221.929 124.776 222.141 124.864 222.303 125.04C222.464 125.216 222.545 125.443 222.545 125.722C222.545 126.015 222.464 126.25 222.303 126.426C222.141 126.602 221.929 126.69 221.665 126.69ZM221.313 140C221.166 140 221.093 139.927 221.093 139.78V129.132C221.093 128.985 221.166 128.912 221.313 128.912H222.039C222.185 128.912 222.259 128.985 222.259 129.132V139.78C222.259 139.927 222.185 140 222.039 140H221.313ZM229.305 129.616C229.305 129.763 229.232 129.836 229.085 129.836H227.325C227.267 129.836 227.237 129.865 227.237 129.924V137.008C227.237 137.741 227.362 138.255 227.611 138.548C227.861 138.827 228.257 138.966 228.799 138.966H229.019C229.166 138.966 229.239 139.039 229.239 139.186V139.78C229.239 139.927 229.166 140 229.019 140H228.579C227.758 140 227.135 139.809 226.709 139.428C226.299 139.047 226.093 138.335 226.093 137.294V129.924C226.093 129.865 226.064 129.836 226.005 129.836H225.103C224.957 129.836 224.883 129.763 224.883 129.616V129.132C224.883 128.985 224.957 128.912 225.103 128.912H226.005C226.064 128.912 226.093 128.883 226.093 128.824V126.36C226.093 126.213 226.167 126.14 226.313 126.14H227.017C227.164 126.14 227.237 126.213 227.237 126.36V128.824C227.237 128.883 227.267 128.912 227.325 128.912H229.085C229.232 128.912 229.305 128.985 229.305 129.132V129.616ZM234.888 128.736C235.885 128.736 236.662 129.073 237.22 129.748C237.792 130.408 238.078 131.295 238.078 132.41V139.78C238.078 139.927 238.004 140 237.858 140H237.132C236.985 140 236.912 139.927 236.912 139.78V138.988C236.912 138.944 236.897 138.922 236.868 138.922C236.853 138.907 236.831 138.915 236.802 138.944C236.259 139.765 235.408 140.176 234.25 140.176C233.472 140.176 232.798 139.949 232.226 139.494C231.668 139.039 231.39 138.24 231.39 137.096C231.39 135.879 231.727 134.984 232.402 134.412C233.076 133.84 233.978 133.554 235.108 133.554H236.824C236.882 133.554 236.912 133.525 236.912 133.466V132.454C236.912 131.633 236.728 130.98 236.362 130.496C236.01 130.012 235.511 129.77 234.866 129.77C234.352 129.77 233.905 129.931 233.524 130.254C233.157 130.577 232.944 130.995 232.886 131.508C232.886 131.655 232.812 131.728 232.666 131.728L231.874 131.684C231.712 131.684 231.646 131.611 231.676 131.464C231.764 130.643 232.108 129.983 232.71 129.484C233.311 128.985 234.037 128.736 234.888 128.736ZM234.492 139.142C235.152 139.142 235.716 138.929 236.186 138.504C236.67 138.079 236.912 137.477 236.912 136.7V134.61C236.912 134.551 236.882 134.522 236.824 134.522H235.108C234.345 134.522 233.729 134.735 233.26 135.16C232.805 135.571 232.578 136.187 232.578 137.008C232.578 137.727 232.754 138.262 233.106 138.614C233.458 138.966 233.92 139.142 234.492 139.142ZM244.619 128.824C244.986 128.824 245.301 128.897 245.565 129.044C245.668 129.103 245.704 129.198 245.675 129.33L245.499 130.078C245.455 130.21 245.36 130.247 245.213 130.188C244.978 130.1 244.692 130.063 244.355 130.078C243.768 130.093 243.292 130.386 242.925 130.958C242.558 131.53 242.375 132.234 242.375 133.07V139.78C242.375 139.927 242.302 140 242.155 140H241.429C241.282 140 241.209 139.927 241.209 139.78V129.132C241.209 128.985 241.282 128.912 241.429 128.912H242.155C242.302 128.912 242.375 128.985 242.375 129.132V130.496C242.375 130.54 242.39 130.562 242.419 130.562C242.448 130.562 242.47 130.54 242.485 130.496C242.925 129.381 243.636 128.824 244.619 128.824ZM248.583 126.69C248.333 126.69 248.121 126.602 247.945 126.426C247.769 126.235 247.681 126.001 247.681 125.722C247.681 125.443 247.769 125.216 247.945 125.04C248.121 124.864 248.333 124.776 248.583 124.776C248.847 124.776 249.059 124.864 249.221 125.04C249.382 125.216 249.463 125.443 249.463 125.722C249.463 126.015 249.382 126.25 249.221 126.426C249.059 126.602 248.847 126.69 248.583 126.69ZM248.231 140C248.084 140 248.011 139.927 248.011 139.78V129.132C248.011 128.985 248.084 128.912 248.231 128.912H248.957C249.103 128.912 249.177 128.985 249.177 129.132V139.78C249.177 139.927 249.103 140 248.957 140H248.231ZM255.63 128.736C256.627 128.736 257.404 129.073 257.962 129.748C258.534 130.408 258.82 131.295 258.82 132.41V139.78C258.82 139.927 258.746 140 258.6 140H257.874C257.727 140 257.654 139.927 257.654 139.78V138.988C257.654 138.944 257.639 138.922 257.61 138.922C257.595 138.907 257.573 138.915 257.544 138.944C257.001 139.765 256.15 140.176 254.992 140.176C254.214 140.176 253.54 139.949 252.968 139.494C252.41 139.039 252.132 138.24 252.132 137.096C252.132 135.879 252.469 134.984 253.144 134.412C253.818 133.84 254.72 133.554 255.85 133.554H257.566C257.624 133.554 257.654 133.525 257.654 133.466V132.454C257.654 131.633 257.47 130.98 257.104 130.496C256.752 130.012 256.253 129.77 255.608 129.77C255.094 129.77 254.647 129.931 254.266 130.254C253.899 130.577 253.686 130.995 253.628 131.508C253.628 131.655 253.554 131.728 253.408 131.728L252.616 131.684C252.454 131.684 252.388 131.611 252.418 131.464C252.506 130.643 252.85 129.983 253.452 129.484C254.053 128.985 254.779 128.736 255.63 128.736ZM255.234 139.142C255.894 139.142 256.458 138.929 256.928 138.504C257.412 138.079 257.654 137.477 257.654 136.7V134.61C257.654 134.551 257.624 134.522 257.566 134.522H255.85C255.087 134.522 254.471 134.735 254.002 135.16C253.547 135.571 253.32 136.187 253.32 137.008C253.32 137.727 253.496 138.262 253.848 138.614C254.2 138.966 254.662 139.142 255.234 139.142ZM265.559 128.758C266.453 128.758 267.143 129.059 267.627 129.66C268.111 130.261 268.353 131.105 268.353 132.19V139.78C268.353 139.927 268.279 140 268.133 140H267.407C267.26 140 267.187 139.927 267.187 139.78V132.3C267.187 131.508 267.011 130.892 266.659 130.452C266.321 130.012 265.837 129.792 265.207 129.792C264.561 129.792 264.048 130.027 263.667 130.496C263.3 130.965 263.117 131.611 263.117 132.432V139.78C263.117 139.927 263.043 140 262.897 140H262.171C262.024 140 261.951 139.927 261.951 139.78V129.132C261.951 128.985 262.024 128.912 262.171 128.912H262.897C263.043 128.912 263.117 128.985 263.117 129.132V129.99C263.117 130.034 263.131 130.056 263.161 130.056C263.19 130.056 263.212 130.034 263.227 129.99C263.755 129.169 264.532 128.758 265.559 128.758ZM280.324 124.556C281.351 124.556 282.18 124.945 282.81 125.722C283.441 126.485 283.756 127.489 283.756 128.736C283.756 129.983 283.441 130.98 282.81 131.728C282.194 132.476 281.38 132.85 280.368 132.85H277.926C277.868 132.85 277.838 132.879 277.838 132.938V139.78C277.838 139.927 277.765 140 277.618 140H276.892C276.746 140 276.672 139.927 276.672 139.78V124.776C276.672 124.629 276.746 124.556 276.892 124.556H280.324ZM280.192 131.882C280.911 131.882 281.49 131.596 281.93 131.024C282.37 130.452 282.59 129.697 282.59 128.758C282.59 127.805 282.37 127.042 281.93 126.47C281.49 125.898 280.911 125.612 280.192 125.612H277.926C277.868 125.612 277.838 125.641 277.838 125.7V131.794C277.838 131.853 277.868 131.882 277.926 131.882H280.192ZM289.444 140.176C288.476 140.176 287.692 139.875 287.09 139.274C286.489 138.658 286.188 137.866 286.188 136.898V132.036C286.188 131.068 286.489 130.276 287.09 129.66C287.692 129.044 288.476 128.736 289.444 128.736C290.442 128.736 291.241 129.044 291.842 129.66C292.444 130.261 292.744 131.053 292.744 132.036V136.898C292.744 137.866 292.444 138.658 291.842 139.274C291.241 139.875 290.442 140.176 289.444 140.176ZM289.444 139.142C290.075 139.142 290.588 138.929 290.984 138.504C291.38 138.064 291.578 137.507 291.578 136.832V132.102C291.578 131.413 291.38 130.855 290.984 130.43C290.588 129.99 290.075 129.77 289.444 129.77C288.828 129.77 288.322 129.99 287.926 130.43C287.545 130.855 287.354 131.413 287.354 132.102V136.832C287.354 137.507 287.545 138.064 287.926 138.504C288.322 138.929 288.828 139.142 289.444 139.142ZM297.663 140C297.531 140 297.45 139.934 297.421 139.802L294.671 129.154C294.627 128.993 294.693 128.912 294.869 128.912H295.705C295.837 128.912 295.917 128.978 295.947 129.11L298.059 138.13C298.088 138.247 298.117 138.247 298.147 138.13L300.237 129.11C300.266 128.978 300.347 128.912 300.479 128.912L301.315 128.934C301.491 128.934 301.549 129.015 301.491 129.176L298.785 139.802C298.755 139.934 298.675 140 298.543 140H297.663ZM310.188 134.654C310.188 134.801 310.115 134.874 309.968 134.874H304.908C304.85 134.874 304.82 134.903 304.82 134.962V136.832C304.82 137.507 305.011 138.064 305.392 138.504C305.788 138.929 306.294 139.142 306.91 139.142C307.424 139.142 307.864 138.988 308.23 138.68C308.597 138.372 308.839 137.969 308.956 137.47C309 137.338 309.081 137.272 309.198 137.272L309.902 137.316C309.961 137.316 310.012 137.331 310.056 137.36C310.1 137.389 310.115 137.433 310.1 137.492V137.58C309.954 138.387 309.602 139.025 309.044 139.494C308.487 139.949 307.776 140.176 306.91 140.176C305.942 140.176 305.158 139.875 304.556 139.274C303.955 138.658 303.654 137.866 303.654 136.898V132.036C303.654 131.068 303.955 130.276 304.556 129.66C305.158 129.044 305.942 128.736 306.91 128.736C307.893 128.736 308.685 129.044 309.286 129.66C309.888 130.276 310.188 131.068 310.188 132.036V134.654ZM306.91 129.77C306.294 129.77 305.788 129.99 305.392 130.43C305.011 130.855 304.82 131.413 304.82 132.102V133.774C304.82 133.833 304.85 133.862 304.908 133.862H308.934C308.993 133.862 309.022 133.833 309.022 133.774V132.102C309.022 131.413 308.824 130.855 308.428 130.43C308.047 129.99 307.541 129.77 306.91 129.77ZM316.577 128.824C316.944 128.824 317.259 128.897 317.523 129.044C317.626 129.103 317.662 129.198 317.633 129.33L317.457 130.078C317.413 130.21 317.318 130.247 317.171 130.188C316.936 130.1 316.65 130.063 316.313 130.078C315.726 130.093 315.25 130.386 314.883 130.958C314.516 131.53 314.333 132.234 314.333 133.07V139.78C314.333 139.927 314.26 140 314.113 140H313.387C313.24 140 313.167 139.927 313.167 139.78V129.132C313.167 128.985 313.24 128.912 313.387 128.912H314.113C314.26 128.912 314.333 128.985 314.333 129.132V130.496C314.333 130.54 314.348 130.562 314.377 130.562C314.406 130.562 314.428 130.54 314.443 130.496C314.883 129.381 315.594 128.824 316.577 128.824ZM323.445 129.616C323.445 129.763 323.372 129.836 323.225 129.836H321.465C321.406 129.836 321.377 129.865 321.377 129.924V137.008C321.377 137.741 321.502 138.255 321.751 138.548C322 138.827 322.396 138.966 322.939 138.966H323.159C323.306 138.966 323.379 139.039 323.379 139.186V139.78C323.379 139.927 323.306 140 323.159 140H322.719C321.898 140 321.274 139.809 320.849 139.428C320.438 139.047 320.233 138.335 320.233 137.294V129.924C320.233 129.865 320.204 129.836 320.145 129.836H319.243C319.096 129.836 319.023 129.763 319.023 129.616V129.132C319.023 128.985 319.096 128.912 319.243 128.912H320.145C320.204 128.912 320.233 128.883 320.233 128.824V126.36C320.233 126.213 320.306 126.14 320.453 126.14H321.157C321.304 126.14 321.377 126.213 321.377 126.36V128.824C321.377 128.883 321.406 128.912 321.465 128.912H323.225C323.372 128.912 323.445 128.985 323.445 129.132V129.616ZM325.551 144.4C325.463 144.4 325.419 144.327 325.419 144.18V143.608C325.419 143.461 325.463 143.388 325.551 143.388H325.661C326.292 143.373 326.739 143.161 327.003 142.75C327.267 142.339 327.546 141.445 327.839 140.066V139.934L325.023 129.154C324.979 128.993 325.045 128.912 325.221 128.912H325.991C326.123 128.912 326.204 128.978 326.233 129.11L328.411 138.262C328.441 138.379 328.47 138.379 328.499 138.262L330.655 129.11C330.67 128.978 330.751 128.912 330.897 128.912L331.689 128.934C331.865 128.934 331.924 129.015 331.865 129.176L328.763 141.122C328.411 142.486 328.037 143.373 327.641 143.784C327.245 144.195 326.593 144.4 325.683 144.4H325.551ZM342.309 125.436C341.679 125.436 341.246 125.649 341.011 126.074C340.777 126.485 340.659 127.137 340.659 128.032V128.824C340.659 128.883 340.689 128.912 340.747 128.912H342.551C342.698 128.912 342.771 128.985 342.771 129.132V129.616C342.771 129.763 342.698 129.836 342.551 129.836H340.747C340.689 129.836 340.659 129.865 340.659 129.924V139.78C340.659 139.927 340.586 140 340.439 140H339.713C339.567 140 339.493 139.927 339.493 139.78V129.924C339.493 129.865 339.464 129.836 339.405 129.836H338.481C338.335 129.836 338.261 129.763 338.261 129.616V129.132C338.261 128.985 338.335 128.912 338.481 128.912H339.405C339.464 128.912 339.493 128.883 339.493 128.824V128.01C339.493 126.778 339.706 125.876 340.131 125.304C340.557 124.717 341.275 124.424 342.287 124.424H342.617C342.764 124.424 342.837 124.497 342.837 124.644L342.815 125.216C342.815 125.363 342.742 125.436 342.595 125.436H342.309ZM348.48 140.176C347.512 140.176 346.727 139.875 346.126 139.274C345.525 138.658 345.224 137.866 345.224 136.898V132.036C345.224 131.068 345.525 130.276 346.126 129.66C346.727 129.044 347.512 128.736 348.48 128.736C349.477 128.736 350.277 129.044 350.878 129.66C351.479 130.261 351.78 131.053 351.78 132.036V136.898C351.78 137.866 351.479 138.658 350.878 139.274C350.277 139.875 349.477 140.176 348.48 140.176ZM348.48 139.142C349.111 139.142 349.624 138.929 350.02 138.504C350.416 138.064 350.614 137.507 350.614 136.832V132.102C350.614 131.413 350.416 130.855 350.02 130.43C349.624 129.99 349.111 129.77 348.48 129.77C347.864 129.77 347.358 129.99 346.962 130.43C346.581 130.855 346.39 131.413 346.39 132.102V136.832C346.39 137.507 346.581 138.064 346.962 138.504C347.358 138.929 347.864 139.142 348.48 139.142ZM358.297 128.824C358.664 128.824 358.979 128.897 359.243 129.044C359.346 129.103 359.382 129.198 359.353 129.33L359.177 130.078C359.133 130.21 359.038 130.247 358.891 130.188C358.656 130.1 358.37 130.063 358.033 130.078C357.446 130.093 356.97 130.386 356.603 130.958C356.236 131.53 356.053 132.234 356.053 133.07V139.78C356.053 139.927 355.98 140 355.833 140H355.107C354.96 140 354.887 139.927 354.887 139.78V129.132C354.887 128.985 354.96 128.912 355.107 128.912H355.833C355.98 128.912 356.053 128.985 356.053 129.132V130.496C356.053 130.54 356.068 130.562 356.097 130.562C356.126 130.562 356.148 130.54 356.163 130.496C356.603 129.381 357.314 128.824 358.297 128.824ZM372.913 140C372.767 140 372.686 139.934 372.671 139.802L372.077 136.92C372.077 136.861 372.041 136.832 371.967 136.832H367.677C367.604 136.832 367.567 136.861 367.567 136.92L366.951 139.802C366.937 139.934 366.856 140 366.709 140H365.983C365.822 140 365.756 139.919 365.785 139.758L369.129 124.798C369.159 124.666 369.239 124.6 369.371 124.6H370.251C370.383 124.6 370.464 124.666 370.493 124.798L373.859 139.758C373.889 139.919 373.823 140 373.661 140H372.913ZM367.809 135.776C367.78 135.835 367.802 135.864 367.875 135.864H371.747C371.791 135.864 371.813 135.835 371.813 135.776L369.877 126.602C369.848 126.485 369.819 126.485 369.789 126.602L367.809 135.776ZM376.705 140C376.558 140 376.485 139.927 376.485 139.78V124.82C376.485 124.673 376.558 124.6 376.705 124.6H377.431C377.578 124.6 377.651 124.673 377.651 124.82V139.78C377.651 139.927 377.578 140 377.431 140H376.705ZM380.969 140C380.823 140 380.749 139.927 380.749 139.78V124.82C380.749 124.673 380.823 124.6 380.969 124.6H381.695C381.842 124.6 381.915 124.673 381.915 124.82V139.78C381.915 139.927 381.842 140 381.695 140H380.969Z" fill="white"/>
</g>
</g>
<g filter="url(#filter5_d_271_1824)">
<rect x="135.902" y="170" width="61" height="20" rx="4" fill="#243349"/>
<path d="M147.515 183.11C147.202 183.423 146.789 183.58 146.275 183.58C145.762 183.58 145.349 183.423 145.035 183.11C144.729 182.797 144.575 182.377 144.575 181.85V178.14C144.575 177.62 144.729 177.203 145.035 176.89C145.349 176.577 145.762 176.42 146.275 176.42C146.789 176.42 147.202 176.577 147.515 176.89C147.829 177.203 147.985 177.62 147.985 178.14V178.31C147.985 178.377 147.952 178.41 147.885 178.41L147.365 178.44C147.299 178.44 147.265 178.407 147.265 178.34V178.09C147.265 177.777 147.175 177.523 146.995 177.33C146.815 177.137 146.575 177.04 146.275 177.04C145.982 177.04 145.742 177.137 145.555 177.33C145.375 177.523 145.285 177.777 145.285 178.09V181.91C145.285 182.223 145.375 182.477 145.555 182.67C145.742 182.863 145.982 182.96 146.275 182.96C146.575 182.96 146.815 182.863 146.995 182.67C147.175 182.477 147.265 182.223 147.265 181.91V181.66C147.265 181.593 147.299 181.56 147.365 181.56L147.885 181.59C147.952 181.59 147.985 181.623 147.985 181.69V181.85C147.985 182.377 147.829 182.797 147.515 183.11ZM152.508 183.1C152.188 183.42 151.772 183.58 151.258 183.58C150.745 183.58 150.328 183.42 150.008 183.1C149.695 182.78 149.538 182.357 149.538 181.83V178.17C149.538 177.643 149.695 177.22 150.008 176.9C150.328 176.58 150.745 176.42 151.258 176.42C151.772 176.42 152.188 176.58 152.508 176.9C152.835 177.22 152.998 177.643 152.998 178.17V181.83C152.998 182.357 152.835 182.78 152.508 183.1ZM151.258 182.96C151.565 182.96 151.812 182.86 151.998 182.66C152.192 182.453 152.288 182.19 152.288 181.87V178.14C152.288 177.813 152.192 177.55 151.998 177.35C151.812 177.143 151.565 177.04 151.258 177.04C150.958 177.04 150.715 177.143 150.528 177.35C150.342 177.55 150.248 177.813 150.248 178.14V181.87C150.248 182.19 150.342 182.453 150.528 182.66C150.715 182.86 150.958 182.96 151.258 182.96ZM156.509 176.49C156.995 176.49 157.389 176.67 157.689 177.03C157.989 177.383 158.139 177.85 158.139 178.43C158.139 179.003 157.992 179.467 157.699 179.82C157.405 180.167 157.019 180.34 156.539 180.34H155.509C155.482 180.34 155.469 180.353 155.469 180.38V183.4C155.469 183.467 155.435 183.5 155.369 183.5H154.859C154.792 183.5 154.759 183.467 154.759 183.4V176.59C154.759 176.523 154.792 176.49 154.859 176.49H156.509ZM156.419 179.76C156.719 179.76 156.962 179.64 157.149 179.4C157.335 179.16 157.429 178.84 157.429 178.44C157.429 178.04 157.335 177.72 157.149 177.48C156.962 177.233 156.719 177.11 156.419 177.11H155.509C155.482 177.11 155.469 177.123 155.469 177.15V179.72C155.469 179.747 155.482 179.76 155.509 179.76H156.419ZM160.755 183.49C160.688 183.49 160.655 183.457 160.655 183.39V180.4C160.655 180.373 160.651 180.357 160.645 180.35L159.255 176.62C159.235 176.54 159.261 176.5 159.335 176.5H159.875C159.935 176.5 159.975 176.527 159.995 176.58L160.975 179.51C160.981 179.523 160.991 179.53 161.005 179.53C161.018 179.53 161.028 179.523 161.035 179.51L162.015 176.58C162.035 176.527 162.075 176.5 162.135 176.5H162.675C162.748 176.5 162.775 176.54 162.755 176.62L161.375 180.35C161.368 180.357 161.365 180.373 161.365 180.4V183.39C161.365 183.457 161.331 183.49 161.265 183.49H160.755ZM166.945 183.5C166.878 183.5 166.845 183.467 166.845 183.4V176.6C166.845 176.533 166.878 176.5 166.945 176.5H167.455C167.522 176.5 167.555 176.533 167.555 176.6V183.4C167.555 183.467 167.522 183.5 167.455 183.5H166.945ZM169.583 183.5C169.517 183.5 169.483 183.467 169.483 183.4V176.6C169.483 176.533 169.517 176.5 169.583 176.5H170.103C170.157 176.5 170.193 176.527 170.213 176.58L171.333 179.29C171.34 179.303 171.35 179.31 171.363 179.31C171.377 179.31 171.387 179.303 171.393 179.29L172.523 176.58C172.543 176.527 172.58 176.5 172.633 176.5H173.153C173.22 176.5 173.253 176.533 173.253 176.6V183.4C173.253 183.467 173.22 183.5 173.153 183.5H172.643C172.577 183.5 172.543 183.467 172.543 183.4V178.28C172.543 178.267 172.54 178.257 172.533 178.25C172.513 178.243 172.5 178.25 172.493 178.27L171.473 180.59C171.453 180.643 171.423 180.67 171.383 180.67C171.337 180.67 171.303 180.643 171.283 180.59L170.243 178.26C170.237 178.24 170.223 178.233 170.203 178.24L170.193 178.27V183.4C170.193 183.467 170.16 183.5 170.093 183.5H169.583ZM178.186 183.5C178.126 183.5 178.089 183.47 178.076 183.41L177.826 182.17C177.826 182.143 177.809 182.13 177.776 182.13H175.966C175.932 182.13 175.916 182.143 175.916 182.17L175.656 183.41C175.642 183.47 175.606 183.5 175.546 183.5H175.036C174.962 183.5 174.932 183.463 174.946 183.39L176.456 176.59C176.469 176.53 176.506 176.5 176.566 176.5H177.166C177.226 176.5 177.262 176.53 177.276 176.59L178.796 183.39C178.809 183.463 178.779 183.5 178.706 183.5H178.186ZM176.056 181.51C176.056 181.537 176.066 181.55 176.086 181.55H177.656C177.676 181.55 177.686 181.537 177.686 181.51L176.896 177.66C176.882 177.607 176.869 177.607 176.856 177.66L176.056 181.51ZM183.019 183.13C182.712 183.43 182.302 183.58 181.789 183.58C181.276 183.58 180.866 183.43 180.559 183.13C180.252 182.823 180.099 182.417 180.099 181.91V178.09C180.099 177.583 180.252 177.18 180.559 176.88C180.866 176.573 181.276 176.42 181.789 176.42C182.302 176.42 182.712 176.573 183.019 176.88C183.332 177.187 183.489 177.593 183.489 178.1V178.53C183.489 178.597 183.456 178.63 183.389 178.63H182.879C182.812 178.63 182.779 178.597 182.779 178.53V178.08C182.779 177.767 182.689 177.517 182.509 177.33C182.329 177.137 182.089 177.04 181.789 177.04C181.496 177.04 181.256 177.137 181.069 177.33C180.889 177.523 180.799 177.773 180.799 178.08V181.92C180.799 182.227 180.889 182.477 181.069 182.67C181.256 182.863 181.496 182.96 181.789 182.96C182.089 182.96 182.329 182.867 182.509 182.68C182.689 182.487 182.779 182.233 182.779 181.92V180.64C182.779 180.613 182.766 180.6 182.739 180.6H181.879C181.812 180.6 181.779 180.567 181.779 180.5V180.08C181.779 180.013 181.812 179.98 181.879 179.98H183.389C183.456 179.98 183.489 180.013 183.489 180.08V181.91C183.489 182.417 183.332 182.823 183.019 183.13ZM188.382 177.02C188.382 177.087 188.349 177.12 188.282 177.12H185.962C185.936 177.12 185.922 177.133 185.922 177.16V179.64C185.922 179.667 185.936 179.68 185.962 179.68H187.422C187.489 179.68 187.522 179.713 187.522 179.78V180.21C187.522 180.277 187.489 180.31 187.422 180.31H185.962C185.936 180.31 185.922 180.323 185.922 180.35V182.84C185.922 182.867 185.936 182.88 185.962 182.88H188.282C188.349 182.88 188.382 182.913 188.382 182.98V183.4C188.382 183.467 188.349 183.5 188.282 183.5H185.312C185.246 183.5 185.212 183.467 185.212 183.4V176.6C185.212 176.533 185.246 176.5 185.312 176.5H188.282C188.349 176.5 188.382 176.533 188.382 176.6V177.02Z" fill="white"/>
</g>
<g filter="url(#filter6_d_271_1824)">
<path d="M11.7366 55.3006C11.59 55.3006 11.5166 55.2272 11.5166 55.0806V40.1206C11.5166 39.9739 11.59 39.9006 11.7366 39.9006H12.8586C13.0053 39.9006 13.0786 39.9739 13.0786 40.1206V53.8486C13.0786 53.9072 13.108 53.9366 13.1666 53.9366H18.2046C18.3513 53.9366 18.4246 54.0099 18.4246 54.1566V55.0806C18.4246 55.2272 18.3513 55.3006 18.2046 55.3006H11.7366ZM25.7393 54.5526C25.1086 55.1686 24.2653 55.4766 23.2093 55.4766C22.1533 55.4766 21.3099 55.1686 20.6793 54.5526C20.0633 53.9366 19.7553 53.1226 19.7553 52.1106V47.3586C19.7553 46.3612 20.0706 45.5546 20.7013 44.9386C21.3319 44.3079 22.1679 43.9926 23.2093 43.9926C24.2506 43.9926 25.0866 44.3079 25.7173 44.9386C26.3626 45.5546 26.6853 46.3612 26.6853 47.3586V52.1106C26.6853 53.1226 26.3699 53.9366 25.7393 54.5526ZM21.8453 53.5406C22.1973 53.9219 22.6519 54.1126 23.2093 54.1126C23.7666 54.1126 24.2213 53.9219 24.5733 53.5406C24.9399 53.1446 25.1233 52.6386 25.1233 52.0226V47.4686C25.1233 46.8379 24.9399 46.3319 24.5733 45.9506C24.2213 45.5546 23.7666 45.3566 23.2093 45.3566C22.6519 45.3566 22.1973 45.5546 21.8453 45.9506C21.4933 46.3319 21.3173 46.8379 21.3173 47.4686V52.0226C21.3173 52.6386 21.4933 53.1446 21.8453 53.5406ZM34.8486 54.5526C34.218 55.1686 33.3746 55.4766 32.3186 55.4766C31.2626 55.4766 30.4193 55.1686 29.7886 54.5526C29.1726 53.9366 28.8646 53.1226 28.8646 52.1106V47.3586C28.8646 46.3612 29.18 45.5546 29.8106 44.9386C30.4413 44.3079 31.2773 43.9926 32.3186 43.9926C33.36 43.9926 34.196 44.3079 34.8266 44.9386C35.472 45.5546 35.7946 46.3612 35.7946 47.3586V52.1106C35.7946 53.1226 35.4793 53.9366 34.8486 54.5526ZM30.9546 53.5406C31.3066 53.9219 31.7613 54.1126 32.3186 54.1126C32.876 54.1126 33.3306 53.9219 33.6826 53.5406C34.0493 53.1446 34.2326 52.6386 34.2326 52.0226V47.4686C34.2326 46.8379 34.0493 46.3319 33.6826 45.9506C33.3306 45.5546 32.876 45.3566 32.3186 45.3566C31.7613 45.3566 31.3066 45.5546 30.9546 45.9506C30.6026 46.3319 30.4266 46.8379 30.4266 47.4686V52.0226C30.4266 52.6386 30.6026 53.1446 30.9546 53.5406ZM42.176 44.0146C43.0707 44.0146 43.76 44.3226 44.244 44.9386C44.7427 45.5546 44.992 46.4126 44.992 47.5126V55.0806C44.992 55.2272 44.9187 55.3006 44.772 55.3006H43.65C43.5034 55.3006 43.43 55.2272 43.43 55.0806V47.6446C43.43 46.9259 43.276 46.3686 42.968 45.9726C42.66 45.5766 42.2274 45.3786 41.67 45.3786C41.0834 45.3786 40.6214 45.5912 40.284 46.0166C39.9467 46.4419 39.778 47.0212 39.778 47.7546V55.0806C39.778 55.2272 39.7047 55.3006 39.558 55.3006H38.436C38.2894 55.3006 38.216 55.2272 38.216 55.0806V44.3886C38.216 44.2419 38.2894 44.1686 38.436 44.1686H39.558C39.7047 44.1686 39.778 44.2419 39.778 44.3886V45.1146C39.778 45.1439 39.7927 45.1659 39.822 45.1806C39.8514 45.1806 39.8734 45.1659 39.888 45.1366C40.4307 44.3886 41.1934 44.0146 42.176 44.0146ZM47.1018 59.7006C47.0138 59.7006 46.9698 59.6272 46.9698 59.4806V58.5786C46.9698 58.4319 47.0065 58.3586 47.0798 58.3586H47.1898C47.8498 58.3586 48.3191 58.1679 48.5978 57.7866C48.8765 57.4052 49.1331 56.5986 49.3678 55.3666V55.2346L46.5738 44.4106C46.5298 44.2492 46.5958 44.1686 46.7718 44.1686H47.9598C48.0918 44.1686 48.1725 44.2346 48.2018 44.3666L50.1378 53.0126C50.1671 53.1299 50.1965 53.1299 50.2258 53.0126L52.1398 44.3666C52.1545 44.2346 52.2351 44.1686 52.3818 44.1686L53.6138 44.1906C53.7898 44.1906 53.8485 44.2712 53.7898 44.4326L50.7318 56.2686C50.3505 57.6766 49.9398 58.6006 49.4998 59.0406C49.0598 59.4806 48.2971 59.7006 47.2118 59.7006H47.1018ZM60.4202 55.3006C60.2735 55.3006 60.2002 55.2272 60.2002 55.0806V40.1206C60.2002 39.9739 60.2735 39.9006 60.4202 39.9006H61.5422C61.6889 39.9006 61.7622 39.9739 61.7622 40.1206V53.8486C61.7622 53.9072 61.7915 53.9366 61.8502 53.9366H66.8882C67.0349 53.9366 67.1082 54.0099 67.1082 54.1566V55.0806C67.1082 55.2272 67.0349 55.3006 66.8882 55.3006H60.4202ZM75.3249 50.1086C75.3249 50.2552 75.2515 50.3286 75.1049 50.3286H70.0889C70.0302 50.3286 70.0009 50.3579 70.0009 50.4166V52.0226C70.0009 52.6386 70.1695 53.1446 70.5069 53.5406C70.8589 53.9219 71.3135 54.1126 71.8709 54.1126C72.3402 54.1126 72.7362 53.9732 73.0589 53.6946C73.3962 53.4012 73.6162 53.0272 73.7189 52.5726C73.7629 52.4406 73.8435 52.3746 73.9609 52.3746L75.0609 52.4186C75.2222 52.4186 75.2882 52.4992 75.2589 52.6606C75.1415 53.5259 74.7822 54.2152 74.1809 54.7286C73.5942 55.2272 72.8242 55.4766 71.8709 55.4766C70.8295 55.4766 69.9935 55.1686 69.3629 54.5526C68.7469 53.9366 68.4389 53.1226 68.4389 52.1106V47.3586C68.4389 46.3612 68.7469 45.5546 69.3629 44.9386C69.9935 44.3079 70.8295 43.9926 71.8709 43.9926C72.9269 43.9926 73.7629 44.3079 74.3789 44.9386C75.0095 45.5546 75.3249 46.3612 75.3249 47.3586V50.1086ZM71.8709 45.3566C71.3135 45.3566 70.8589 45.5546 70.5069 45.9506C70.1695 46.3319 70.0009 46.8379 70.0009 47.4686V48.9426C70.0009 49.0012 70.0302 49.0306 70.0889 49.0306H73.6969C73.7555 49.0306 73.7849 49.0012 73.7849 48.9426V47.4686C73.7849 46.8379 73.6089 46.3319 73.2569 45.9506C72.9049 45.5546 72.4429 45.3566 71.8709 45.3566ZM81.0959 41.0886C80.5386 41.0886 80.1426 41.2792 79.9079 41.6606C79.6732 42.0272 79.5559 42.6066 79.5559 43.3986V44.0806C79.5559 44.1392 79.5852 44.1686 79.6439 44.1686H81.3379C81.4846 44.1686 81.5579 44.2419 81.5579 44.3886V45.1146C81.5579 45.2612 81.4846 45.3346 81.3379 45.3346H79.6439C79.5852 45.3346 79.5559 45.3639 79.5559 45.4226V55.0806C79.5559 55.2272 79.4826 55.3006 79.3359 55.3006H78.2359C78.0892 55.3006 78.0159 55.2272 78.0159 55.0806V45.4226C78.0159 45.3639 77.9866 45.3346 77.9279 45.3346H77.0479C76.9012 45.3346 76.8279 45.2612 76.8279 45.1146V44.3886C76.8279 44.2419 76.9012 44.1686 77.0479 44.1686H77.9279C77.9866 44.1686 78.0159 44.1392 78.0159 44.0806V43.3766C78.0159 42.1006 78.2506 41.1766 78.7199 40.6046C79.1892 40.0326 79.9739 39.7466 81.0739 39.7466H81.3819C81.5286 39.7466 81.6019 39.8199 81.6019 39.9666L81.5799 40.8686C81.5799 41.0152 81.5066 41.0886 81.3599 41.0886H81.0959ZM87.55 45.1146C87.55 45.2612 87.4767 45.3346 87.33 45.3346H85.658C85.5993 45.3346 85.57 45.3639 85.57 45.4226V52.1546C85.57 52.8292 85.6873 53.2986 85.922 53.5626C86.1567 53.8119 86.516 53.9292 87 53.9146H87.22C87.3667 53.9146 87.44 53.9879 87.44 54.1346V55.0806C87.44 55.2272 87.3667 55.3006 87.22 55.3006H86.67C85.8047 55.3006 85.1447 55.1172 84.69 54.7506C84.25 54.3692 84.03 53.6579 84.03 52.6166V45.4226C84.03 45.3639 84.0007 45.3346 83.942 45.3346H83.084C82.9373 45.3346 82.864 45.2612 82.864 45.1146V44.3886C82.864 44.2419 82.9373 44.1686 83.084 44.1686H83.942C84.0007 44.1686 84.03 44.1392 84.03 44.0806V41.6166C84.03 41.4699 84.1033 41.3966 84.25 41.3966H85.35C85.4967 41.3966 85.57 41.4699 85.57 41.6166V44.0806C85.57 44.1392 85.5993 44.1686 85.658 44.1686H87.33C87.4767 44.1686 87.55 44.2419 87.55 44.3886V45.1146ZM90.4012 42.1886C90.0786 42.1886 89.8146 42.0786 89.6092 41.8586C89.4039 41.6386 89.3012 41.3599 89.3012 41.0226C89.3012 40.6999 89.4039 40.4359 89.6092 40.2306C89.8146 40.0106 90.0786 39.9006 90.4012 39.9006C90.7092 39.9006 90.9586 40.0106 91.1492 40.2306C91.3546 40.4359 91.4572 40.6999 91.4572 41.0226C91.4572 41.3599 91.3546 41.6386 91.1492 41.8586C90.9586 42.0786 90.7092 42.1886 90.4012 42.1886ZM89.8292 55.3006C89.6826 55.3006 89.6092 55.2272 89.6092 55.0806V44.3886C89.6092 44.2419 89.6826 44.1686 89.8292 44.1686H90.9512C91.0979 44.1686 91.1712 44.2419 91.1712 44.3886V55.0806C91.1712 55.2272 91.0979 55.3006 90.9512 55.3006H89.8292ZM96.8505 55.4106C95.8385 55.4106 95.0245 55.1539 94.4085 54.6406C93.8072 54.1126 93.5065 53.4159 93.5065 52.5506V52.3966C93.5065 52.2499 93.5798 52.1766 93.7265 52.1766H94.7825C94.9292 52.1766 95.0025 52.2352 95.0025 52.3526V52.5286C95.0025 52.9979 95.1712 53.3939 95.5085 53.7166C95.8605 54.0392 96.3152 54.2006 96.8725 54.2006C97.4005 54.2006 97.8258 54.0392 98.1485 53.7166C98.4712 53.3939 98.6325 52.9832 98.6325 52.4846C98.6325 52.2499 98.5812 52.0299 98.4785 51.8246C98.3758 51.6192 98.2805 51.4652 98.1925 51.3626C98.1045 51.2452 97.9212 51.1059 97.6425 50.9446C97.3638 50.7832 97.1732 50.6879 97.0705 50.6586C96.9825 50.6146 96.7552 50.5119 96.3885 50.3506C96.0512 50.2186 95.7872 50.1086 95.5965 50.0206C95.4205 49.9326 95.1858 49.7932 94.8925 49.6026C94.5992 49.3972 94.3718 49.1919 94.2105 48.9866C94.0492 48.7812 93.9025 48.5172 93.7705 48.1946C93.6532 47.8572 93.5945 47.4906 93.5945 47.0946C93.5945 46.1559 93.8805 45.4152 94.4525 44.8726C95.0392 44.3299 95.8238 44.0586 96.8065 44.0586C97.8038 44.0586 98.5958 44.3372 99.1825 44.8946C99.7692 45.4519 100.062 46.1926 100.062 47.1166V47.1826C100.062 47.3292 99.9892 47.4026 99.8425 47.4026H98.8305C98.6838 47.4026 98.6105 47.3439 98.6105 47.2266V47.0506C98.6105 46.5519 98.4418 46.1412 98.1045 45.8186C97.7818 45.4959 97.3565 45.3346 96.8285 45.3346C96.3005 45.3346 95.8752 45.5032 95.5525 45.8406C95.2445 46.1632 95.0905 46.5666 95.0905 47.0506C95.0905 47.3292 95.1418 47.5712 95.2445 47.7766C95.3472 47.9819 95.5158 48.1726 95.7505 48.3486C95.9998 48.5099 96.2125 48.6346 96.3885 48.7226C96.5792 48.8106 96.8652 48.9352 97.2465 49.0966C97.7012 49.2872 98.0458 49.4486 98.2805 49.5806C98.5152 49.7126 98.8085 49.9106 99.1605 50.1746C99.5125 50.4386 99.7692 50.7612 99.9305 51.1426C100.106 51.5092 100.194 51.9346 100.194 52.4186C100.194 53.3279 99.8938 54.0539 99.2925 54.5966C98.6912 55.1392 97.8772 55.4106 96.8505 55.4106ZM111.085 44.0146C111.965 44.0146 112.647 44.3372 113.131 44.9826C113.615 45.6279 113.857 46.5226 113.857 47.6666V55.0806C113.857 55.2272 113.784 55.3006 113.637 55.3006H112.537C112.39 55.3006 112.317 55.2272 112.317 55.0806V47.7986C112.317 47.0506 112.156 46.4639 111.833 46.0386C111.525 45.5986 111.114 45.3786 110.601 45.3786C110.044 45.3786 109.604 45.5912 109.281 46.0166C108.958 46.4419 108.797 47.0212 108.797 47.7546V55.0806C108.797 55.2272 108.724 55.3006 108.577 55.3006H107.455C107.308 55.3006 107.235 55.2272 107.235 55.0806V47.7986C107.235 47.0506 107.074 46.4639 106.751 46.0386C106.443 45.5986 106.04 45.3786 105.541 45.3786C104.984 45.3786 104.536 45.5912 104.199 46.0166C103.876 46.4419 103.715 47.0212 103.715 47.7546V55.0806C103.715 55.2272 103.642 55.3006 103.495 55.3006H102.395C102.248 55.3006 102.175 55.2272 102.175 55.0806V44.3886C102.175 44.2419 102.248 44.1686 102.395 44.1686H103.495C103.642 44.1686 103.715 44.2419 103.715 44.3886V45.0706C103.715 45.1586 103.752 45.1659 103.825 45.0926C104.382 44.3739 105.116 44.0146 106.025 44.0146C107.154 44.0146 107.954 44.5352 108.423 45.5766C108.438 45.6059 108.46 45.6206 108.489 45.6206C108.518 45.6206 108.54 45.5986 108.555 45.5546C109.054 44.5279 109.897 44.0146 111.085 44.0146Z" fill="white"/>
</g>
<g filter="url(#filter7_d_271_1824)">
<path d="M53.1744 67.9684C52.914 67.6676 52.7852 67.2768 52.8185 66.8803C52.8516 66.484 53.044 66.1143 53.3514 65.8545C53.6587 65.5947 54.0552 65.4664 54.4516 65.4996C54.8481 65.5328 55.212 65.7247 55.4653 66.0315C56.2997 67.0428 57.1876 68.0105 58.1244 68.9289C76.1356 85.3826 103.375 84.713 127.293 84.6606C128.644 84.6297 129.996 84.5915 131.379 84.545C131.395 84.9196 131.412 85.2942 131.429 85.6688C130.044 85.7468 128.689 85.8164 127.335 85.8787C103.308 86.3672 76.0803 88.194 56.1146 71.0282C55.0825 70.0618 54.1001 69.0393 53.1744 67.9684Z" fill="white"/>
</g>
<g filter="url(#filter8_d_271_1824)">
<path d="M118.143 73.5C118.504 73.9705 118.867 74.4374 119.234 74.9007C122.538 79.0698 126.117 82.942 129.971 86.5173C130.081 86.6189 130.19 86.7202 130.3 86.8212L130.462 84.4932C126.287 87.4363 122.33 90.6929 118.593 94.2629C118.166 94.6711 117.741 95.0835 117.32 95.5C117.856 95.2475 118.389 94.9909 118.92 94.7302C123.558 92.4506 127.978 89.8576 132.178 86.9512L133.702 85.8767L132.339 84.6232C132.23 84.5212 132.121 84.4194 132.012 84.3179C128.157 80.7426 124.027 77.4642 119.622 74.4828C119.133 74.1515 118.64 73.8239 118.143 73.5Z" fill="white"/>
</g>
<g filter="url(#filter9_d_271_1824)">
<path d="M29.6578 176.802C29.8045 176.802 29.8778 176.876 29.8778 177.022V177.946C29.8778 178.093 29.8045 178.166 29.6578 178.166H26.7538C26.6952 178.166 26.6658 178.196 26.6658 178.254V191.982C26.6658 192.129 26.5925 192.202 26.4458 192.202H25.3238C25.1772 192.202 25.1038 192.129 25.1038 191.982V178.254C25.1038 178.196 25.0745 178.166 25.0158 178.166H22.2878C22.1412 178.166 22.0678 178.093 22.0678 177.946V177.022C22.0678 176.876 22.1412 176.802 22.2878 176.802H29.6578ZM35.4094 180.96C35.7761 180.96 36.0914 181.041 36.3554 181.202C36.4581 181.261 36.4948 181.356 36.4654 181.488L36.2235 182.61C36.2088 182.742 36.1134 182.786 35.9374 182.742C35.6734 182.625 35.3654 182.596 35.0134 182.654C34.4854 182.684 34.0528 182.962 33.7154 183.49C33.3781 184.004 33.2094 184.634 33.2094 185.382V191.982C33.2094 192.129 33.1361 192.202 32.9894 192.202H31.8674C31.7208 192.202 31.6474 192.129 31.6474 191.982V181.29C31.6474 181.144 31.7208 181.07 31.8674 181.07H32.9894C33.1361 181.07 33.2094 181.144 33.2094 181.29V182.61C33.2241 182.669 33.2608 182.676 33.3194 182.632C33.7448 181.518 34.4414 180.96 35.4094 180.96ZM41.5038 180.894C42.5305 180.894 43.3445 181.232 43.9458 181.906C44.5618 182.566 44.8698 183.454 44.8698 184.568V191.982C44.8698 192.129 44.7965 192.202 44.6498 192.202H43.5278C43.3811 192.202 43.3078 192.129 43.3078 191.982V191.344C43.3078 191.256 43.2711 191.249 43.1978 191.322C42.6551 192.026 41.8485 192.378 40.7778 192.378C40.4258 192.378 40.0885 192.334 39.7658 192.246C39.4578 192.158 39.1425 192.012 38.8198 191.806C38.5118 191.586 38.2625 191.256 38.0718 190.816C37.8811 190.376 37.7858 189.848 37.7858 189.232C37.7858 187.986 38.1451 187.076 38.8638 186.504C39.5825 185.918 40.5285 185.624 41.7018 185.624H43.2198C43.2785 185.624 43.3078 185.595 43.3078 185.536V184.678C43.3078 183.945 43.1391 183.358 42.8018 182.918C42.4791 182.478 42.0318 182.258 41.4598 182.258C41.0198 182.258 40.6385 182.405 40.3158 182.698C39.9931 182.992 39.8098 183.366 39.7658 183.82C39.7511 183.967 39.6705 184.04 39.5238 184.04L38.3138 184.018C38.1525 184.018 38.0865 183.945 38.1158 183.798C38.1891 182.933 38.5411 182.236 39.1718 181.708C39.8025 181.166 40.5798 180.894 41.5038 180.894ZM41.1078 191.014C41.7091 191.014 42.2225 190.824 42.6478 190.442C43.0878 190.046 43.3078 189.504 43.3078 188.814V186.966C43.3078 186.908 43.2785 186.878 43.2198 186.878H41.6798C40.9758 186.878 40.4185 187.069 40.0078 187.45C39.5971 187.817 39.3918 188.367 39.3918 189.1C39.3918 189.746 39.5458 190.23 39.8538 190.552C40.1765 190.86 40.5945 191.014 41.1078 191.014ZM51.4947 180.916C52.3894 180.916 53.0787 181.224 53.5627 181.84C54.0614 182.456 54.3107 183.314 54.3107 184.414V191.982C54.3107 192.129 54.2374 192.202 54.0907 192.202H52.9687C52.822 192.202 52.7487 192.129 52.7487 191.982V184.546C52.7487 183.828 52.5947 183.27 52.2867 182.874C51.9787 182.478 51.546 182.28 50.9887 182.28C50.402 182.28 49.94 182.493 49.6027 182.918C49.2654 183.344 49.0967 183.923 49.0967 184.656V191.982C49.0967 192.129 49.0234 192.202 48.8767 192.202H47.7547C47.608 192.202 47.5347 192.129 47.5347 191.982V181.29C47.5347 181.144 47.608 181.07 47.7547 181.07H48.8767C49.0234 181.07 49.0967 181.144 49.0967 181.29V182.016C49.0967 182.046 49.1114 182.068 49.1407 182.082C49.17 182.082 49.192 182.068 49.2067 182.038C49.7494 181.29 50.512 180.916 51.4947 180.916ZM59.9829 192.312C58.9709 192.312 58.1569 192.056 57.5409 191.542C56.9396 191.014 56.6389 190.318 56.6389 189.452V189.298C56.6389 189.152 56.7123 189.078 56.8589 189.078H57.9149C58.0616 189.078 58.1349 189.137 58.1349 189.254V189.43C58.1349 189.9 58.3036 190.296 58.6409 190.618C58.9929 190.941 59.4476 191.102 60.0049 191.102C60.5329 191.102 60.9583 190.941 61.2809 190.618C61.6036 190.296 61.7649 189.885 61.7649 189.386C61.7649 189.152 61.7136 188.932 61.6109 188.726C61.5083 188.521 61.4129 188.367 61.3249 188.264C61.2369 188.147 61.0536 188.008 60.7749 187.846C60.4963 187.685 60.3056 187.59 60.2029 187.56C60.1149 187.516 59.8876 187.414 59.5209 187.252C59.1836 187.12 58.9196 187.01 58.7289 186.922C58.5529 186.834 58.3183 186.695 58.0249 186.504C57.7316 186.299 57.5043 186.094 57.3429 185.888C57.1816 185.683 57.0349 185.419 56.9029 185.096C56.7856 184.759 56.7269 184.392 56.7269 183.996C56.7269 183.058 57.0129 182.317 57.5849 181.774C58.1716 181.232 58.9563 180.96 59.9389 180.96C60.9363 180.96 61.7283 181.239 62.3149 181.796C62.9016 182.354 63.1949 183.094 63.1949 184.018V184.084C63.1949 184.231 63.1216 184.304 62.9749 184.304H61.9629C61.8163 184.304 61.7429 184.246 61.7429 184.128V183.952C61.7429 183.454 61.5743 183.043 61.2369 182.72C60.9143 182.398 60.4889 182.236 59.9609 182.236C59.4329 182.236 59.0076 182.405 58.6849 182.742C58.3769 183.065 58.2229 183.468 58.2229 183.952C58.2229 184.231 58.2743 184.473 58.3769 184.678C58.4796 184.884 58.6483 185.074 58.8829 185.25C59.1323 185.412 59.3449 185.536 59.5209 185.624C59.7116 185.712 59.9976 185.837 60.3789 185.998C60.8336 186.189 61.1783 186.35 61.4129 186.482C61.6476 186.614 61.9409 186.812 62.2929 187.076C62.6449 187.34 62.9016 187.663 63.0629 188.044C63.2389 188.411 63.3269 188.836 63.3269 189.32C63.3269 190.23 63.0263 190.956 62.4249 191.498C61.8236 192.041 61.0096 192.312 59.9829 192.312ZM65.6154 192.202C65.4688 192.202 65.3954 192.129 65.3954 191.982V177.022C65.3954 176.876 65.4688 176.802 65.6154 176.802H66.7374C66.8841 176.802 66.9574 176.876 66.9574 177.022V191.982C66.9574 192.129 66.8841 192.202 66.7374 192.202H65.6154ZM72.9561 180.894C73.9827 180.894 74.7967 181.232 75.3981 181.906C76.0141 182.566 76.3221 183.454 76.3221 184.568V191.982C76.3221 192.129 76.2487 192.202 76.1021 192.202H74.9801C74.8334 192.202 74.7601 192.129 74.7601 191.982V191.344C74.7601 191.256 74.7234 191.249 74.6501 191.322C74.1074 192.026 73.3007 192.378 72.2301 192.378C71.8781 192.378 71.5407 192.334 71.2181 192.246C70.9101 192.158 70.5947 192.012 70.2721 191.806C69.9641 191.586 69.7147 191.256 69.5241 190.816C69.3334 190.376 69.2381 189.848 69.2381 189.232C69.2381 187.986 69.5974 187.076 70.3161 186.504C71.0347 185.918 71.9807 185.624 73.1541 185.624H74.6721C74.7307 185.624 74.7601 185.595 74.7601 185.536V184.678C74.7601 183.945 74.5914 183.358 74.2541 182.918C73.9314 182.478 73.4841 182.258 72.9121 182.258C72.4721 182.258 72.0907 182.405 71.7681 182.698C71.4454 182.992 71.2621 183.366 71.2181 183.82C71.2034 183.967 71.1227 184.04 70.9761 184.04L69.7661 184.018C69.6047 184.018 69.5387 183.945 69.5681 183.798C69.6414 182.933 69.9934 182.236 70.6241 181.708C71.2547 181.166 72.0321 180.894 72.9561 180.894ZM72.5601 191.014C73.1614 191.014 73.6747 190.824 74.1001 190.442C74.5401 190.046 74.7601 189.504 74.7601 188.814V186.966C74.7601 186.908 74.7307 186.878 74.6721 186.878H73.1321C72.4281 186.878 71.8707 187.069 71.4601 187.45C71.0494 187.817 70.8441 188.367 70.8441 189.1C70.8441 189.746 70.9981 190.23 71.3061 190.552C71.6287 190.86 72.0467 191.014 72.5601 191.014ZM82.903 182.016C82.903 182.163 82.8296 182.236 82.683 182.236H81.011C80.9523 182.236 80.923 182.266 80.923 182.324V189.056C80.923 189.731 81.0403 190.2 81.275 190.464C81.5096 190.714 81.869 190.831 82.353 190.816H82.573C82.7196 190.816 82.793 190.89 82.793 191.036V191.982C82.793 192.129 82.7196 192.202 82.573 192.202H82.023C81.1576 192.202 80.4976 192.019 80.043 191.652C79.603 191.271 79.383 190.56 79.383 189.518V182.324C79.383 182.266 79.3536 182.236 79.295 182.236H78.437C78.2903 182.236 78.217 182.163 78.217 182.016V181.29C78.217 181.144 78.2903 181.07 78.437 181.07H79.295C79.3536 181.07 79.383 181.041 79.383 180.982V178.518C79.383 178.372 79.4563 178.298 79.603 178.298H80.703C80.8496 178.298 80.923 178.372 80.923 178.518V180.982C80.923 181.041 80.9523 181.07 81.011 181.07H82.683C82.8296 181.07 82.903 181.144 82.903 181.29V182.016ZM85.9742 179.09C85.6515 179.09 85.3875 178.98 85.1822 178.76C84.9769 178.54 84.8742 178.262 84.8742 177.924C84.8742 177.602 84.9769 177.338 85.1822 177.132C85.3875 176.912 85.6515 176.802 85.9742 176.802C86.2822 176.802 86.5315 176.912 86.7222 177.132C86.9275 177.338 87.0302 177.602 87.0302 177.924C87.0302 178.262 86.9275 178.54 86.7222 178.76C86.5315 178.98 86.2822 179.09 85.9742 179.09ZM85.4022 192.202C85.2555 192.202 85.1822 192.129 85.1822 191.982V181.29C85.1822 181.144 85.2555 181.07 85.4022 181.07H86.5242C86.6709 181.07 86.7442 181.144 86.7442 181.29V191.982C86.7442 192.129 86.6709 192.202 86.5242 192.202H85.4022ZM95.4815 191.454C94.8508 192.07 94.0075 192.378 92.9515 192.378C91.8955 192.378 91.0522 192.07 90.4215 191.454C89.8055 190.838 89.4975 190.024 89.4975 189.012V184.26C89.4975 183.263 89.8128 182.456 90.4435 181.84C91.0742 181.21 91.9102 180.894 92.9515 180.894C93.9928 180.894 94.8288 181.21 95.4595 181.84C96.1048 182.456 96.4275 183.263 96.4275 184.26V189.012C96.4275 190.024 96.1122 190.838 95.4815 191.454ZM91.5875 190.442C91.9395 190.824 92.3942 191.014 92.9515 191.014C93.5088 191.014 93.9635 190.824 94.3155 190.442C94.6822 190.046 94.8655 189.54 94.8655 188.924V184.37C94.8655 183.74 94.6822 183.234 94.3155 182.852C93.9635 182.456 93.5088 182.258 92.9515 182.258C92.3942 182.258 91.9395 182.456 91.5875 182.852C91.2355 183.234 91.0595 183.74 91.0595 184.37V188.924C91.0595 189.54 91.2355 190.046 91.5875 190.442ZM103.029 180.916C103.924 180.916 104.613 181.224 105.097 181.84C105.596 182.456 105.845 183.314 105.845 184.414V191.982C105.845 192.129 105.772 192.202 105.625 192.202H104.503C104.356 192.202 104.283 192.129 104.283 191.982V184.546C104.283 183.828 104.129 183.27 103.821 182.874C103.513 182.478 103.08 182.28 102.523 182.28C101.936 182.28 101.474 182.493 101.137 182.918C100.8 183.344 100.631 183.923 100.631 184.656V191.982C100.631 192.129 100.558 192.202 100.411 192.202H99.2889C99.1422 192.202 99.0689 192.129 99.0689 191.982V181.29C99.0689 181.144 99.1422 181.07 99.2889 181.07H100.411C100.558 181.07 100.631 181.144 100.631 181.29V182.016C100.631 182.046 100.646 182.068 100.675 182.082C100.704 182.082 100.726 182.068 100.741 182.038C101.284 181.29 102.046 180.916 103.029 180.916Z" fill="white"/>
</g>
<g filter="url(#filter10_d_271_1824)">
<path d="M59.1747 167.031C58.9141 167.332 58.7851 167.722 58.8182 168.119C58.8512 168.515 59.0436 168.885 59.3509 169.145C59.6582 169.405 60.0548 169.534 60.4512 169.501C60.8477 169.468 61.2116 169.276 61.4649 168.969C62.3048 167.952 63.1489 166.955 64.0076 165.975C78.8677 146.978 104.01 141.685 127.398 140.031C128.692 139.931 130.005 139.839 131.351 139.755C131.332 139.38 131.313 139.006 131.294 138.631C129.941 138.685 128.621 138.746 127.319 138.815C103.943 139.894 77.7489 144.689 61.8449 164.034C60.9409 165.018 60.0544 166.016 59.1747 167.031Z" fill="white"/>
</g>
<g filter="url(#filter11_d_271_1824)">
<path d="M119.057 126.756C119.431 127.237 119.809 127.714 120.19 128.187C123.622 132.447 127.327 136.409 131.307 140.073C131.441 140.197 131.575 140.32 131.709 140.442L131.781 138.175C127.735 141.485 123.927 145.09 120.357 148.988C119.947 149.436 119.54 149.888 119.135 150.344C119.665 150.044 120.192 149.739 120.716 149.431C125.271 146.749 129.588 143.774 133.668 140.504L135.016 139.401L133.739 138.237C133.606 138.113 133.473 137.99 133.339 137.866C129.359 134.202 125.105 130.836 120.576 127.768C120.073 127.427 119.567 127.09 119.057 126.756Z" fill="white"/>
</g>
<g filter="url(#filter12_d_271_1824)">
<path d="M450.336 5.99099C450.075 5.69112 449.707 5.5103 449.309 5.49147C448.912 5.47245 448.518 5.61698 448.218 5.89009C447.917 6.1632 447.736 6.5416 447.717 6.93888C447.698 7.33635 447.843 7.72014 448.117 8.00901C448.642 8.56411 449.146 9.11267 449.644 9.67791C459.9 19.469 458.065 34.8661 453.411 47.6231C453.168 48.342 452.918 49.0604 452.654 49.8002C453.004 49.9334 453.355 50.0666 453.706 50.1997C454.001 49.4656 454.282 48.7521 454.557 48.0372C459.756 35.6574 462.493 18.7597 451.864 7.80222C451.364 7.18637 450.861 6.59085 450.336 5.99099Z" fill="white"/>
</g>
<g filter="url(#filter13_d_271_1824)">
<path d="M475.123 38.1381C474.38 38.475 473.639 38.8162 472.9 39.1617C466.255 42.2708 459.821 45.7255 453.598 49.5259C453.216 49.7594 452.835 49.9942 452.454 50.2302L454.56 50.8157C451.357 44.7675 447.837 38.8842 444.002 33.1656C443.548 32.4886 443.089 31.814 442.626 31.1416C442.912 31.9064 443.202 32.6688 443.496 33.4289C445.983 39.8499 448.787 46.106 451.907 52.1973L452.661 53.621L454.013 52.7827C454.397 52.5519 454.78 52.3197 455.162 52.0862C461.385 48.2858 467.397 44.1398 473.197 39.6481C473.842 39.1491 474.484 38.6457 475.123 38.1381Z" fill="white"/>
</g>
<defs>
<filter id="filter0_d_271_1824" x="121.902" y="47.5086" width="362.023" height="157.578" filterUnits="userSpaceOnUse" color-interpolation-filters="sRGB">
<feFlood flood-opacity="0" result="BackgroundImageFix"/>
<feColorMatrix in="SourceAlpha" type="matrix" values="0 0 0 0 0 0 0 0 0 0 0 0 0 0 0 0 0 0 127 0" result="hardAlpha"/>
<feOffset dy="2"/>
<feGaussianBlur stdDeviation="2"/>
<feComposite in2="hardAlpha" operator="out"/>
<feColorMatrix type="matrix" values="0 0 0 0 0 0 0 0 0 0 0 0 0 0 0 0 0 0 0.5 0"/>
<feBlend mode="normal" in2="BackgroundImageFix" result="effect1_dropShadow_271_1824"/>
<feBlend mode="normal" in="SourceGraphic" in2="effect1_dropShadow_271_1824" result="shape"/>
</filter>
<filter id="filter1_d_271_1824" x="452.524" y="175.92" width="11.9233" height="11.08" filterUnits="userSpaceOnUse" color-interpolation-filters="sRGB">
<feFlood flood-opacity="0" result="BackgroundImageFix"/>
<feColorMatrix in="SourceAlpha" type="matrix" values="0 0 0 0 0 0 0 0 0 0 0 0 0 0 0 0 0 0 127 0" result="hardAlpha"/>
<feOffset dy="1"/>
<feGaussianBlur stdDeviation="1"/>
<feComposite in2="hardAlpha" operator="out"/>
<feColorMatrix type="matrix" values="0 0 0 0 0 0 0 0 0 0 0 0 0 0 0 0 0 0 0.5 0"/>
<feBlend mode="normal" in2="BackgroundImageFix" result="effect1_dropShadow_271_1824"/>
<feBlend mode="normal" in="SourceGraphic" in2="effect1_dropShadow_271_1824" result="shape"/>
</filter>
<filter id="filter2_d_271_1824" x="110.902" y="39" width="384" height="142" filterUnits="userSpaceOnUse" color-interpolation-filters="sRGB">
<feFlood flood-opacity="0" result="BackgroundImageFix"/>
<feColorMatrix in="SourceAlpha" type="matrix" values="0 0 0 0 0 0 0 0 0 0 0 0 0 0 0 0 0 0 127 0" result="hardAlpha"/>
<feOffset dy="4"/>
<feGaussianBlur stdDeviation="7.5"/>
<feComposite in2="hardAlpha" operator="out"/>
<feColorMatrix type="matrix" values="0 0 0 0 0 0 0 0 0 0 0 0 0 0 0 0 0 0 0.5 0"/>
<feBlend mode="normal" in2="BackgroundImageFix" result="effect1_dropShadow_271_1824"/>
<feBlend mode="normal" in="SourceGraphic" in2="effect1_dropShadow_271_1824" result="shape"/>
</filter>
<filter id="filter3_d_271_1824" x="181.244" y="72.424" width="96.1958" height="19.752" filterUnits="userSpaceOnUse" color-interpolation-filters="sRGB">
<feFlood flood-opacity="0" result="BackgroundImageFix"/>
<feColorMatrix in="SourceAlpha" type="matrix" values="0 0 0 0 0 0 0 0 0 0 0 0 0 0 0 0 0 0 127 0" result="hardAlpha"/>
<feOffset dy="2"/>
<feGaussianBlur stdDeviation="1"/>
<feComposite in2="hardAlpha" operator="out"/>
<feColorMatrix type="matrix" values="0 0 0 0 0 0 0 0 0 0 0 0 0 0 0 0 0 0 0.5 0"/>
<feBlend mode="normal" in2="BackgroundImageFix" result="effect1_dropShadow_271_1824"/>
<feBlend mode="normal" in="SourceGraphic" in2="effect1_dropShadow_271_1824" result="shape"/>
</filter>
<filter id="filter4_d_271_1824" x="180.694" y="124.424" width="203.221" height="23.976" filterUnits="userSpaceOnUse" color-interpolation-filters="sRGB">
<feFlood flood-opacity="0" result="BackgroundImageFix"/>
<feColorMatrix in="SourceAlpha" type="matrix" values="0 0 0 0 0 0 0 0 0 0 0 0 0 0 0 0 0 0 127 0" result="hardAlpha"/>
<feOffset dy="2"/>
<feGaussianBlur stdDeviation="1"/>
<feComposite in2="hardAlpha" operator="out"/>
<feColorMatrix type="matrix" values="0 0 0 0 0 0 0 0 0 0 0 0 0 0 0 0 0 0 0.5 0"/>
<feBlend mode="normal" in2="BackgroundImageFix" result="effect1_dropShadow_271_1824"/>
<feBlend mode="normal" in="SourceGraphic" in2="effect1_dropShadow_271_1824" result="shape"/>
</filter>
<filter id="filter5_d_271_1824" x="132.902" y="169" width="67" height="26" filterUnits="userSpaceOnUse" color-interpolation-filters="sRGB">
<feFlood flood-opacity="0" result="BackgroundImageFix"/>
<feColorMatrix in="SourceAlpha" type="matrix" values="0 0 0 0 0 0 0 0 0 0 0 0 0 0 0 0 0 0 127 0" result="hardAlpha"/>
<feOffset dy="2"/>
<feGaussianBlur stdDeviation="1.5"/>
<feComposite in2="hardAlpha" operator="out"/>
<feColorMatrix type="matrix" values="0 0 0 0 0 0 0 0 0 0 0 0 0 0 0 0 0 0 0.85 0"/>
<feBlend mode="normal" in2="BackgroundImageFix" result="effect1_dropShadow_271_1824"/>
<feBlend mode="normal" in="SourceGraphic" in2="effect1_dropShadow_271_1824" result="shape"/>
</filter>
<filter id="filter6_d_271_1824" x="8.5166" y="38.7466" width="108.34" height="25.954" filterUnits="userSpaceOnUse" color-interpolation-filters="sRGB">
<feFlood flood-opacity="0" result="BackgroundImageFix"/>
<feColorMatrix in="SourceAlpha" type="matrix" values="0 0 0 0 0 0 0 0 0 0 0 0 0 0 0 0 0 0 127 0" result="hardAlpha"/>
<feOffset dy="2"/>
<feGaussianBlur stdDeviation="1.5"/>
<feComposite in2="hardAlpha" operator="out"/>
<feColorMatrix type="matrix" values="0 0 0 0 0 0 0 0 0 0 0 0 0 0 0 0 0 0 1 0"/>
<feBlend mode="normal" in2="BackgroundImageFix" result="effect1_dropShadow_271_1824"/>
<feBlend mode="normal" in="SourceGraphic" in2="effect1_dropShadow_271_1824" result="shape"/>
</filter>
<filter id="filter7_d_271_1824" x="48.8135" y="65.4945" width="86.6157" height="28.6865" filterUnits="userSpaceOnUse" color-interpolation-filters="sRGB">
<feFlood flood-opacity="0" result="BackgroundImageFix"/>
<feColorMatrix in="SourceAlpha" type="matrix" values="0 0 0 0 0 0 0 0 0 0 0 0 0 0 0 0 0 0 127 0" result="hardAlpha"/>
<feOffset dy="4"/>
<feGaussianBlur stdDeviation="2"/>
<feComposite in2="hardAlpha" operator="out"/>
<feColorMatrix type="matrix" values="0 0 0 0 0 0 0 0 0 0 0 0 0 0 0 0 0 0 1 0"/>
<feBlend mode="normal" in2="BackgroundImageFix" result="effect1_dropShadow_271_1824"/>
<feBlend mode="normal" in="SourceGraphic" in2="effect1_dropShadow_271_1824" result="shape"/>
</filter>
<filter id="filter8_d_271_1824" x="113.32" y="73.5" width="24.3828" height="30" filterUnits="userSpaceOnUse" color-interpolation-filters="sRGB">
<feFlood flood-opacity="0" result="BackgroundImageFix"/>
<feColorMatrix in="SourceAlpha" type="matrix" values="0 0 0 0 0 0 0 0 0 0 0 0 0 0 0 0 0 0 127 0" result="hardAlpha"/>
<feOffset dy="4"/>
<feGaussianBlur stdDeviation="2"/>
<feComposite in2="hardAlpha" operator="out"/>
<feColorMatrix type="matrix" values="0 0 0 0 0 0 0 0 0 0 0 0 0 0 0 0 0 0 1 0"/>
<feBlend mode="normal" in2="BackgroundImageFix" result="effect1_dropShadow_271_1824"/>
<feBlend mode="normal" in="SourceGraphic" in2="effect1_dropShadow_271_1824" result="shape"/>
</filter>
<filter id="filter9_d_271_1824" x="19.0679" y="175.802" width="89.7769" height="21.576" filterUnits="userSpaceOnUse" color-interpolation-filters="sRGB">
<feFlood flood-opacity="0" result="BackgroundImageFix"/>
<feColorMatrix in="SourceAlpha" type="matrix" values="0 0 0 0 0 0 0 0 0 0 0 0 0 0 0 0 0 0 127 0" result="hardAlpha"/>
<feOffset dy="2"/>
<feGaussianBlur stdDeviation="1.5"/>
<feComposite in2="hardAlpha" operator="out"/>
<feColorMatrix type="matrix" values="0 0 0 0 0 0 0 0 0 0 0 0 0 0 0 0 0 0 1 0"/>
<feBlend mode="normal" in2="BackgroundImageFix" result="effect1_dropShadow_271_1824"/>
<feBlend mode="normal" in="SourceGraphic" in2="effect1_dropShadow_271_1824" result="shape"/>
</filter>
<filter id="filter10_d_271_1824" x="54.813" y="138.631" width="80.5386" height="38.8742" filterUnits="userSpaceOnUse" color-interpolation-filters="sRGB">
<feFlood flood-opacity="0" result="BackgroundImageFix"/>
<feColorMatrix in="SourceAlpha" type="matrix" values="0 0 0 0 0 0 0 0 0 0 0 0 0 0 0 0 0 0 127 0" result="hardAlpha"/>
<feOffset dy="4"/>
<feGaussianBlur stdDeviation="2"/>
<feComposite in2="hardAlpha" operator="out"/>
<feColorMatrix type="matrix" values="0 0 0 0 0 0 0 0 0 0 0 0 0 0 0 0 0 0 1 0"/>
<feBlend mode="normal" in2="BackgroundImageFix" result="effect1_dropShadow_271_1824"/>
<feBlend mode="normal" in="SourceGraphic" in2="effect1_dropShadow_271_1824" result="shape"/>
</filter>
<filter id="filter11_d_271_1824" x="115.057" y="126.756" width="23.9595" height="31.588" filterUnits="userSpaceOnUse" color-interpolation-filters="sRGB">
<feFlood flood-opacity="0" result="BackgroundImageFix"/>
<feColorMatrix in="SourceAlpha" type="matrix" values="0 0 0 0 0 0 0 0 0 0 0 0 0 0 0 0 0 0 127 0" result="hardAlpha"/>
<feOffset dy="4"/>
<feGaussianBlur stdDeviation="2"/>
<feComposite in2="hardAlpha" operator="out"/>
<feColorMatrix type="matrix" values="0 0 0 0 0 0 0 0 0 0 0 0 0 0 0 0 0 0 1 0"/>
<feBlend mode="normal" in2="BackgroundImageFix" result="effect1_dropShadow_271_1824"/>
<feBlend mode="normal" in="SourceGraphic" in2="effect1_dropShadow_271_1824" result="shape"/>
</filter>
<filter id="filter12_d_271_1824" x="443.715" y="5.4898" width="19.4302" height="52.7099" filterUnits="userSpaceOnUse" color-interpolation-filters="sRGB">
<feFlood flood-opacity="0" result="BackgroundImageFix"/>
<feColorMatrix in="SourceAlpha" type="matrix" values="0 0 0 0 0 0 0 0 0 0 0 0 0 0 0 0 0 0 127 0" result="hardAlpha"/>
<feOffset dy="4"/>
<feGaussianBlur stdDeviation="2"/>
<feComposite in2="hardAlpha" operator="out"/>
<feColorMatrix type="matrix" values="0 0 0 0 0 0 0 0 0 0 0 0 0 0 0 0 0 0 1 0"/>
<feBlend mode="normal" in2="BackgroundImageFix" result="effect1_dropShadow_271_1824"/>
<feBlend mode="normal" in="SourceGraphic" in2="effect1_dropShadow_271_1824" result="shape"/>
</filter>
<filter id="filter13_d_271_1824" x="438.626" y="31.1416" width="40.4966" height="30.4794" filterUnits="userSpaceOnUse" color-interpolation-filters="sRGB">
<feFlood flood-opacity="0" result="BackgroundImageFix"/>
<feColorMatrix in="SourceAlpha" type="matrix" values="0 0 0 0 0 0 0 0 0 0 0 0 0 0 0 0 0 0 127 0" result="hardAlpha"/>
<feOffset dy="4"/>
<feGaussianBlur stdDeviation="2"/>
<feComposite in2="hardAlpha" operator="out"/>
<feColorMatrix type="matrix" values="0 0 0 0 0 0 0 0 0 0 0 0 0 0 0 0 0 0 1 0"/>
<feBlend mode="normal" in2="BackgroundImageFix" result="effect1_dropShadow_271_1824"/>
<feBlend mode="normal" in="SourceGraphic" in2="effect1_dropShadow_271_1824" result="shape"/>
</filter>
</defs>
</svg>
