<svg width="1150" height="153" viewBox="0 0 1150 153" fill="none" xmlns="http://www.w3.org/2000/svg">
<g clip-path="url(#clip0_94_1558)">
<rect x="5.55762" y="9.48657" width="145" height="145" rx="22.4653" transform="rotate(-3.75123 5.55762 9.48657)" fill="#DADADA"/>
<path d="M63.6243 49.0927C63.9631 54.2602 60.0486 58.724 54.881 59.0628C49.7135 59.4017 45.2496 55.4872 44.9108 50.3196C44.572 45.152 48.4865 40.6882 53.6541 40.3494C58.8216 40.0106 63.2855 43.9251 63.6243 49.0927Z" fill="black"/>
<path d="M116.319 41.9233C116.658 47.0909 112.744 51.5547 107.576 51.8935C102.409 52.2323 97.9447 48.3179 97.6059 43.1503C97.2671 37.9827 101.182 33.5189 106.349 33.1801C111.517 32.8413 115.981 36.7558 116.319 41.9233Z" fill="black"/>
<path d="M82.5839 55.4581C84.1687 54.7739 86.0083 55.5036 86.6925 57.0883L100.16 88.2867C101.353 91.0513 99.1948 94.0981 96.1908 93.8884L71.2098 92.1451L71.0492 92.1292C69.4077 91.9306 68.1931 90.4773 68.3095 88.8091C68.4261 87.1408 69.8311 85.8701 71.4845 85.9018L71.6445 85.9089L92.9662 87.3961L80.9527 59.5667C80.2686 57.9819 80.9991 56.1423 82.5839 55.4581Z" fill="black"/>
<path d="M111.554 111.281L111.715 111.275C113.368 111.251 114.768 112.527 114.877 114.196C114.987 115.865 113.766 117.313 112.123 117.504L111.963 117.519L60.2786 120.908C58.556 121.021 57.0677 119.716 56.9548 117.993C56.8418 116.271 58.147 114.783 59.8695 114.67L111.554 111.281Z" fill="black"/>
<path d="M971.8 12.1187L959.877 44.7241L946.148 41.021L948.948 29.6401C945.968 28.4659 939.555 25.0338 928.808 25.0337C915.892 25.0337 905.415 34.4271 905.415 45.8071C905.415 58.2712 915.35 66.0396 928.808 66.0396C944.794 66.0395 954.548 58.9034 959.154 55.8325L966.109 67.6646C961.774 71.0967 955.361 74.3484 948.587 76.3354C943.348 77.9611 934.769 79.226 928.808 79.2261C897.015 79.2261 885.003 63.2388 885.003 45.8071C885.003 31.627 895.751 12.2993 928.808 12.2993C938.472 12.2994 948.587 15.3703 952.02 16.9058L954.368 6.78955L971.8 12.1187ZM759.115 58.0005L758.573 25.7563L745.387 26.8403V13.022C752.07 13.4736 758.754 13.7446 765.348 13.7446C772.392 13.7446 779.347 13.4736 785.94 13.022V26.8403L773.657 25.7563L773.296 75.3423L757.399 78.8647L715.581 32.8921L715.13 64.7749L728.769 63.6909V77.6001C722.085 77.1485 715.401 76.8774 708.808 76.8774C701.763 76.8774 694.718 77.1485 688.215 77.6001V63.6909L700.859 64.7749L700.498 26.7505L689.208 29.3696L687.04 14.8276L716.665 11.8472L759.115 58.0005ZM839.151 13.2925C864.35 13.2925 876.995 19.8862 876.995 33.4341C876.995 45.9884 864.53 55.9233 840.415 55.9233C834.454 55.9233 828.403 54.8392 824.609 53.7554L824.429 65.2261L840.957 63.7808V77.6001C831.022 77.3291 823.977 76.8774 816.3 76.8774C808.984 76.8775 802.482 77.3291 794.985 77.6001V63.7808L807.991 64.8647L806.636 27.563L794.985 30.7241L793.179 16.0923C802.482 14.8278 821.268 13.2925 839.151 13.2925ZM838.248 25.6665C831.113 25.6665 828.584 25.8468 825.062 26.2983L824.79 42.4653C827.951 43.4588 831.565 44.5435 839.693 44.5435C850.08 44.5434 856.131 40.3883 856.131 34.7886C856.131 29.0082 849.899 25.6665 838.248 25.6665Z" fill="#DADADA"/>
<path d="M636.971 35.6919C639.229 34.5177 645.371 31.9888 653.951 31.9888C668.041 31.9888 677.705 40.9302 677.705 53.2134C677.705 68.2966 667.138 78.0512 652.055 78.0513C645.732 78.0513 637.964 74.7097 636.609 73.1743V83.561L652.145 82.3872V96.3862C647.087 96.1153 639.68 95.8442 632.094 95.8442C624.507 95.8442 616.92 96.1153 610.327 96.3862V82.5679L621.617 83.4712C622.43 70.3749 621.888 56.3745 620.623 45.8071L611.411 49.4204L608.25 34.7886L637.513 30.6343L636.971 35.6919ZM396.651 50.2329C402.974 43.0074 420.315 31.176 432.418 31.8081L438.289 45.2661C430.251 45.5371 420.045 48.8789 415.077 52.311L427.992 62.6978L433.411 56.7358L442.082 66.2202L421.128 81.1226C412.999 70.8264 408.484 66.1294 401.71 60.3491L396.742 64.6841L397.374 76.8774H370.91V63.0591L382.02 63.8716L381.116 24.6733L371.904 28.3765L368.652 13.7446L398.277 10.1313L396.651 50.2329ZM327.999 31.3569C343.895 31.3569 355.186 35.331 355.186 55.6528C355.186 57.8207 354.914 62.9686 354.644 64.9556L362.771 62.1558L365.934 76.9683L338.747 80.0386L339.289 71.4585C336.309 73.5358 328.541 78.3228 318.967 78.3228C305.871 78.3227 297.923 72.4519 297.923 63.6909C297.923 54.93 306.322 49.7818 321.947 49.7817C328.45 49.7817 334.321 51.3176 338.656 52.6724V51.4077C338.656 47.7046 336.037 43.73 327.276 43.73C318.696 43.73 311.832 47.0718 307.587 50.2329L300.632 38.2212C305.961 35.6922 315.716 31.3569 327.999 31.3569ZM605.076 27.7437L593.877 26.6597L593.244 48.1558C592.702 67.1228 579.245 79.2261 557.839 79.2261C536.343 79.2259 522.976 67.0324 522.435 48.1558L521.802 26.6597L510.603 27.7437V13.9243C517.828 14.1953 523.789 14.647 531.104 14.647C538.782 14.647 545.375 14.1953 553.143 13.9243V27.7437L540.047 26.6597V47.1626C540.047 59.0845 546.098 66.0394 557.839 66.0396C570.122 66.0396 575.632 59.0846 575.632 47.1626V26.6597L562.445 27.7437V13.9243C570.303 14.1953 576.807 14.647 584.574 14.647C591.89 14.647 597.851 14.1953 605.076 13.9243V27.7437ZM265.446 66.9419L277.278 26.8403L266.53 27.7437V13.9243C271.769 14.2856 278.272 14.647 284.685 14.647C291.278 14.647 297.871 14.2856 304.013 13.9243V27.7437L294.168 26.8403L274.93 78.3228L252.44 79.1353L242.145 39.5757L231.577 78.3228L208.816 79.1353L189.488 26.8403L179.733 27.7437V13.9243C185.875 14.2856 192.378 14.647 199.062 14.647C205.474 14.647 211.977 14.2856 219.654 13.9243V27.7437L209.087 26.8403L220.558 67.0327L234.105 13.8345H251.809L265.446 66.9419ZM477.062 31.6274C497.474 31.6274 507.861 42.9176 507.951 54.3882C507.951 55.7429 507.861 57.2785 507.771 58.4526H466.133C466.946 62.0654 469.837 66.6714 480.494 66.6714C486.545 66.6713 494.132 63.3301 498.738 60.4399L504.699 72.0903C500.364 74.7096 490.068 78.684 476.791 78.6841C460.353 78.6841 447.257 69.7424 447.257 54.9302C447.257 39.576 460.624 31.6275 477.062 31.6274ZM326.283 59.0845C321.677 59.0845 318.154 60.8007 318.154 63.3296C318.154 66.31 320.683 68.2064 324.747 68.2065C330.166 68.2065 335.947 64.9551 338.476 62.0649C335.585 60.5296 330.167 59.0845 326.283 59.0845ZM647.629 43.6401C642.12 43.6401 639.048 45.8977 636.52 47.4331V60.8003C637.694 62.426 641.939 65.6782 647.99 65.6782C655.306 65.6782 659.731 61.5228 659.731 54.1167C659.731 48.0655 655.938 43.6402 647.629 43.6401ZM478.236 42.8276C470.379 42.8276 466.765 47.3433 465.952 50.8657H490.881C490.339 47.253 486.184 42.8278 478.236 42.8276Z" fill="#6DD3FF"/>
<path d="M387.142 118.849C388.363 118.849 389.486 119.134 390.508 119.701C391.53 120.242 392.328 121.067 392.901 122.175H392.938V119.314H395.931V137.604C395.931 140.878 395.208 143.327 393.762 144.951C392.316 146.575 390.047 147.386 386.955 147.386C386.058 147.386 385.135 147.284 384.188 147.078C383.265 146.871 382.417 146.536 381.645 146.072C380.897 145.608 380.273 145.002 379.774 144.254C379.276 143.507 379.002 142.592 378.952 141.509H382.131C382.156 142.102 382.33 142.605 382.654 143.017C383.003 143.43 383.415 143.765 383.889 144.023C384.325 144.248 384.79 144.415 385.283 144.522L385.922 144.648C386.342 144.72 386.749 144.757 387.142 144.757C388.189 144.757 389.074 144.564 389.797 144.177C390.52 143.816 391.118 143.301 391.592 142.63C392.065 141.986 392.402 141.2 392.602 140.272C392.826 139.344 392.938 138.326 392.938 137.217V135.902H392.864C392.316 137.139 391.48 138.055 390.358 138.648C389.261 139.215 388.089 139.499 386.843 139.499C385.397 139.499 384.137 139.227 383.065 138.686C381.994 138.145 381.096 137.423 380.373 136.521C379.65 135.593 379.102 134.523 378.728 133.311C378.379 132.074 378.204 130.772 378.204 129.406C378.204 128.22 378.353 127.008 378.652 125.771C378.951 124.508 379.45 123.374 380.148 122.369C380.847 121.338 381.769 120.499 382.916 119.855C384.063 119.185 385.471 118.849 387.142 118.849ZM292.958 135.67H293.033L298.456 119.314H301.821L293.407 141.973C293.033 142.953 292.659 143.778 292.285 144.448C291.936 145.118 291.538 145.659 291.089 146.072C290.665 146.51 290.178 146.819 289.63 147C289.106 147.206 288.496 147.309 287.798 147.309C287.424 147.309 287.05 147.283 286.676 147.232C286.302 147.18 285.94 147.09 285.591 146.961V143.945C285.865 144.074 286.177 144.177 286.526 144.254C286.9 144.357 287.212 144.409 287.461 144.409C288.109 144.409 288.645 144.242 289.069 143.907C289.518 143.597 289.855 143.146 290.079 142.553L291.388 139.189L283.721 119.314H287.312L292.958 135.67ZM909.414 135.67H909.489L914.912 119.314H918.277L909.863 141.973C909.489 142.953 909.115 143.778 908.741 144.448C908.392 145.118 907.993 145.659 907.544 146.072C907.12 146.51 906.634 146.819 906.086 147C905.562 147.206 904.951 147.309 904.253 147.309C903.879 147.309 903.506 147.283 903.132 147.232C902.758 147.18 902.396 147.09 902.047 146.961V143.945C902.321 144.074 902.633 144.177 902.981 144.254C903.355 144.358 903.668 144.409 903.917 144.409C904.565 144.409 905.102 144.242 905.525 143.907C905.974 143.597 906.31 143.146 906.534 142.553L907.844 139.189L900.177 119.314H903.768L909.414 135.67ZM256.08 118.849C257.8 118.849 259.222 119.224 260.344 119.971C261.49 120.693 262.4 121.621 263.073 122.755C263.771 123.89 264.245 125.127 264.494 126.467C264.768 127.808 264.881 129.084 264.831 130.295H250.358C250.333 131.172 250.433 132.01 250.657 132.809C250.882 133.582 251.244 134.278 251.742 134.897C252.241 135.49 252.877 135.967 253.649 136.328C254.422 136.688 255.332 136.869 256.379 136.869C257.725 136.869 258.822 136.546 259.67 135.902C260.543 135.257 261.116 134.278 261.391 132.963H264.532C264.108 135.206 263.173 136.895 261.727 138.029C260.281 139.163 258.46 139.73 256.267 139.73C254.721 139.73 253.374 139.472 252.228 138.957C251.106 138.441 250.159 137.719 249.386 136.792C248.613 135.864 248.027 134.755 247.628 133.466C247.254 132.177 247.042 130.772 246.992 129.251C246.992 127.731 247.216 126.338 247.665 125.075C248.114 123.812 248.737 122.717 249.535 121.789C250.358 120.861 251.318 120.138 252.415 119.623C253.537 119.107 254.759 118.849 256.08 118.849ZM462.223 118.849C463.943 118.849 465.364 119.224 466.486 119.971C467.633 120.693 468.543 121.621 469.216 122.755C469.914 123.89 470.387 125.127 470.637 126.467C470.911 127.808 471.023 129.084 470.974 130.295H456.501C456.476 131.172 456.575 132.01 456.8 132.809C457.024 133.582 457.386 134.278 457.885 134.897C458.383 135.49 459.019 135.967 459.792 136.328C460.565 136.688 461.475 136.869 462.521 136.869C463.868 136.869 464.965 136.546 465.812 135.902C466.685 135.257 467.259 134.278 467.533 132.963H470.675C470.251 135.206 469.316 136.895 467.87 138.029C466.424 139.163 464.603 139.73 462.409 139.73C460.864 139.73 459.518 139.472 458.371 138.957C457.249 138.441 456.301 137.72 455.528 136.792C454.755 135.864 454.169 134.755 453.771 133.466C453.397 132.177 453.185 130.772 453.135 129.251C453.135 127.731 453.36 126.338 453.809 125.075C454.257 123.812 454.88 122.716 455.678 121.789C456.5 120.861 457.461 120.138 458.558 119.623C459.68 119.107 460.901 118.849 462.223 118.849ZM521.352 118.849C523.072 118.849 524.493 119.224 525.615 119.971C526.762 120.693 527.672 121.621 528.345 122.755C529.043 123.89 529.517 125.127 529.767 126.467C530.041 127.808 530.152 129.084 530.103 130.295H515.63C515.605 131.172 515.704 132.01 515.929 132.809C516.153 133.582 516.515 134.278 517.014 134.897C517.512 135.49 518.148 135.967 518.921 136.328C519.694 136.689 520.604 136.869 521.651 136.869C522.998 136.869 524.095 136.546 524.942 135.902C525.815 135.257 526.388 134.278 526.662 132.963H529.804C529.38 135.206 528.445 136.895 526.999 138.029C525.553 139.163 523.733 139.73 521.539 139.73C519.993 139.73 518.647 139.472 517.5 138.957C516.378 138.441 515.43 137.72 514.657 136.792C513.884 135.864 513.299 134.755 512.9 133.466C512.526 132.177 512.314 130.772 512.264 129.251C512.264 127.731 512.489 126.338 512.938 125.075C513.386 123.812 514.01 122.717 514.808 121.789C515.63 120.861 516.59 120.138 517.687 119.623C518.808 119.107 520.03 118.849 521.352 118.849ZM599.894 118.849C601.439 118.849 602.786 119.12 603.933 119.662C605.104 120.203 606.089 120.951 606.887 121.905C607.685 122.833 608.284 123.941 608.683 125.23C609.081 126.493 609.28 127.859 609.28 129.329C609.28 130.798 609.081 132.164 608.683 133.427C608.284 134.69 607.685 135.799 606.887 136.752C606.089 137.68 605.104 138.415 603.933 138.957C602.786 139.472 601.439 139.73 599.894 139.73C598.373 139.73 597.026 139.472 595.854 138.957C594.683 138.415 593.698 137.68 592.9 136.752C592.103 135.799 591.504 134.69 591.105 133.427C590.707 132.164 590.507 130.798 590.507 129.329C590.507 127.859 590.707 126.493 591.105 125.23C591.504 123.941 592.103 122.833 592.9 121.905C593.698 120.951 594.683 120.203 595.854 119.662C597.026 119.12 598.373 118.849 599.894 118.849ZM618.825 132.847C618.825 134.085 619.174 135.065 619.872 135.787C620.57 136.508 621.53 136.869 622.752 136.869C623.724 136.869 624.56 136.714 625.258 136.405C625.981 136.095 626.579 135.657 627.053 135.09C627.526 134.523 627.875 133.865 628.1 133.118C628.349 132.344 628.474 131.507 628.474 130.605V119.314H631.652V139.305H628.661V136.134H628.586C627.913 137.371 627.053 138.286 626.006 138.879C624.959 139.447 623.724 139.73 622.303 139.73C621.031 139.73 619.972 139.563 619.124 139.228C618.276 138.867 617.591 138.364 617.067 137.719C616.544 137.075 616.17 136.314 615.945 135.438C615.746 134.536 615.646 133.543 615.646 132.46V119.314H618.825V132.847ZM647.123 118.849C648.22 118.849 649.242 118.991 650.189 119.275C651.162 119.533 652.009 119.945 652.732 120.512C653.48 121.079 654.091 121.801 654.564 122.677C655.038 123.528 655.337 124.547 655.462 125.733H652.171C651.922 124.47 651.398 123.489 650.601 122.793C649.803 122.098 648.731 121.75 647.385 121.75C646.238 121.75 645.278 121.969 644.505 122.407C643.732 122.845 643.108 123.425 642.635 124.147C642.186 124.869 641.862 125.707 641.662 126.661C641.463 127.589 641.363 128.556 641.363 129.561C641.363 130.489 641.463 131.391 641.662 132.267C641.886 133.144 642.223 133.93 642.672 134.626C643.121 135.297 643.707 135.838 644.43 136.25C645.153 136.663 646.013 136.869 647.011 136.869C648.581 136.869 649.803 136.444 650.676 135.593C651.573 134.743 652.122 133.543 652.321 131.997H655.574C655.225 134.471 654.328 136.379 652.882 137.719C651.461 139.06 649.516 139.73 647.048 139.73C645.577 139.73 644.268 139.485 643.121 138.996C641.999 138.506 641.052 137.81 640.279 136.908C639.531 136.005 638.958 134.935 638.559 133.698C638.185 132.435 637.998 131.056 637.998 129.561C637.998 128.066 638.185 126.673 638.559 125.384C638.933 124.07 639.493 122.936 640.241 121.982C641.014 121.002 641.974 120.242 643.121 119.701C644.268 119.134 645.602 118.849 647.123 118.849ZM693.188 118.849C694.909 118.849 696.329 119.224 697.451 119.971C698.598 120.693 699.508 121.621 700.182 122.755C700.88 123.89 701.353 125.127 701.603 126.467C701.877 127.808 701.989 129.084 701.939 130.295H687.466C687.441 131.172 687.541 132.01 687.766 132.809C687.99 133.582 688.351 134.278 688.85 134.897C689.348 135.49 689.984 135.967 690.757 136.328C691.53 136.689 692.44 136.869 693.487 136.869C694.834 136.869 695.931 136.546 696.778 135.902C697.651 135.257 698.224 134.278 698.498 132.963H701.64C701.216 135.206 700.281 136.895 698.835 138.029C697.389 139.163 695.569 139.73 693.375 139.73C691.829 139.73 690.483 139.472 689.336 138.957C688.214 138.441 687.267 137.719 686.494 136.792C685.721 135.864 685.135 134.755 684.736 133.466C684.362 132.177 684.15 130.772 684.101 129.251C684.101 127.731 684.325 126.338 684.773 125.075C685.222 123.812 685.846 122.717 686.644 121.789C687.466 120.861 688.426 120.138 689.523 119.623C690.645 119.107 691.867 118.849 693.188 118.849ZM714.247 118.849C715.344 118.849 716.354 118.952 717.276 119.159C718.199 119.339 719.009 119.675 719.707 120.165C720.43 120.629 721.004 121.273 721.428 122.098C721.851 122.897 722.1 123.902 722.175 125.114H718.996C718.946 124.469 718.784 123.941 718.51 123.529C718.236 123.091 717.887 122.742 717.463 122.484C717.039 122.226 716.565 122.046 716.042 121.943C715.543 121.814 715.032 121.75 714.509 121.75C714.035 121.75 713.548 121.788 713.05 121.866C712.576 121.943 712.14 122.084 711.741 122.291C711.342 122.471 711.018 122.729 710.769 123.064C710.519 123.373 710.395 123.786 710.395 124.301C710.395 124.868 710.582 125.346 710.956 125.733C711.355 126.094 711.854 126.403 712.452 126.661C713.05 126.893 713.724 127.098 714.472 127.279C715.219 127.433 715.967 127.601 716.715 127.782C717.513 127.962 718.286 128.181 719.034 128.439C719.807 128.697 720.48 129.045 721.054 129.483C721.652 129.895 722.126 130.424 722.475 131.069C722.848 131.713 723.035 132.513 723.035 133.466C723.035 134.678 722.786 135.683 722.287 136.482C721.813 137.281 721.178 137.926 720.38 138.416C719.607 138.905 718.722 139.241 717.725 139.421C716.752 139.628 715.78 139.73 714.808 139.73C713.736 139.73 712.713 139.614 711.741 139.382C710.769 139.15 709.909 138.777 709.161 138.261C708.413 137.72 707.815 137.023 707.366 136.172C706.918 135.296 706.668 134.24 706.618 133.002H709.797C709.822 133.724 709.984 134.342 710.283 134.858C710.582 135.348 710.969 135.748 711.442 136.057C711.941 136.341 712.49 136.546 713.088 136.675C713.711 136.804 714.347 136.869 714.995 136.869C715.494 136.869 716.017 136.83 716.565 136.752C717.114 136.675 717.613 136.534 718.062 136.328C718.535 136.121 718.922 135.825 719.221 135.438C719.52 135.026 719.67 134.51 719.67 133.891C719.67 133.041 719.358 132.397 718.734 131.958C718.111 131.52 717.326 131.171 716.379 130.914C715.456 130.63 714.447 130.385 713.35 130.179C712.253 129.947 711.23 129.638 710.283 129.251C709.361 128.839 708.587 128.272 707.964 127.55C707.341 126.828 707.029 125.823 707.029 124.534C707.029 123.528 707.241 122.665 707.665 121.943C708.114 121.221 708.675 120.641 709.348 120.203C710.046 119.739 710.819 119.404 711.666 119.198C712.539 118.966 713.399 118.849 714.247 118.849ZM797.821 139.305H794.643V136.598H794.567C794.044 137.707 793.221 138.506 792.1 138.996C790.978 139.485 789.744 139.73 788.397 139.73C786.902 139.73 785.593 139.446 784.471 138.879C783.374 138.312 782.451 137.552 781.703 136.598C780.98 135.644 780.432 134.536 780.058 133.273C779.684 132.01 779.496 130.669 779.496 129.251C779.496 127.834 779.671 126.493 780.021 125.23C780.394 123.967 780.943 122.871 781.666 121.943C782.414 120.989 783.336 120.242 784.433 119.701C785.555 119.134 786.851 118.849 788.322 118.849C788.821 118.849 789.357 118.901 789.931 119.004C790.504 119.107 791.077 119.288 791.65 119.545C792.224 119.777 792.76 120.1 793.259 120.512C793.782 120.899 794.218 121.389 794.567 121.982H794.643V111.696H797.821V139.305ZM813.37 118.849C815.09 118.849 816.512 119.224 817.634 119.971C818.78 120.693 819.69 121.621 820.363 122.755C821.061 123.89 821.536 125.127 821.785 126.467C822.059 127.808 822.171 129.084 822.121 130.295H807.648C807.624 131.172 807.723 132.01 807.947 132.809C808.172 133.582 808.534 134.278 809.032 134.897C809.531 135.49 810.167 135.967 810.939 136.328C811.712 136.688 812.622 136.869 813.669 136.869C815.015 136.869 816.112 136.546 816.96 135.902C817.833 135.257 818.406 134.278 818.681 132.963H821.822C821.398 135.206 820.463 136.895 819.018 138.029C817.572 139.163 815.751 139.73 813.558 139.73C812.012 139.73 810.665 139.472 809.519 138.957C808.397 138.441 807.449 137.72 806.676 136.792C805.903 135.864 805.317 134.755 804.918 133.466C804.544 132.177 804.332 130.772 804.282 129.251C804.282 127.731 804.507 126.338 804.956 125.075C805.405 123.812 806.028 122.716 806.825 121.789C807.648 120.861 808.608 120.138 809.705 119.623C810.827 119.107 812.049 118.849 813.37 118.849ZM834.429 118.849C835.526 118.849 836.536 118.953 837.458 119.159C838.38 119.339 839.192 119.675 839.89 120.165C840.612 120.629 841.186 121.273 841.609 122.098C842.033 122.897 842.283 123.902 842.357 125.114H839.179C839.129 124.469 838.967 123.941 838.692 123.529C838.418 123.091 838.069 122.742 837.646 122.484C837.222 122.226 836.748 122.046 836.225 121.943C835.726 121.814 835.215 121.75 834.691 121.75C834.218 121.75 833.731 121.788 833.232 121.866C832.759 121.943 832.323 122.084 831.924 122.291C831.525 122.471 831.2 122.729 830.951 123.064C830.702 123.373 830.577 123.786 830.577 124.301C830.577 124.868 830.764 125.346 831.138 125.733C831.537 126.094 832.036 126.403 832.634 126.661C833.232 126.893 833.905 127.098 834.653 127.279C835.401 127.433 836.15 127.601 836.897 127.782C837.695 127.962 838.468 128.181 839.216 128.439C839.989 128.697 840.662 129.045 841.235 129.483C841.834 129.895 842.307 130.424 842.656 131.069C843.03 131.713 843.218 132.512 843.218 133.466C843.218 134.678 842.968 135.683 842.47 136.482C841.996 137.281 841.36 137.926 840.562 138.416C839.79 138.905 838.904 139.241 837.907 139.421C836.935 139.628 835.963 139.73 834.99 139.73C833.918 139.73 832.896 139.614 831.924 139.382C830.951 139.15 830.091 138.777 829.343 138.261C828.595 137.72 827.997 137.023 827.548 136.172C827.099 135.296 826.85 134.239 826.8 133.002H829.979C830.003 133.724 830.166 134.342 830.465 134.858C830.764 135.348 831.15 135.748 831.624 136.057C832.123 136.341 832.671 136.546 833.27 136.675C833.893 136.804 834.529 136.869 835.177 136.869C835.675 136.869 836.2 136.83 836.748 136.752C837.296 136.675 837.795 136.534 838.244 136.328C838.718 136.121 839.104 135.825 839.403 135.438C839.702 135.026 839.852 134.51 839.852 133.891C839.851 133.041 839.54 132.397 838.917 131.958C838.294 131.52 837.508 131.171 836.561 130.914C835.638 130.63 834.628 130.385 833.531 130.179C832.434 129.947 831.412 129.638 830.465 129.251C829.543 128.839 828.77 128.272 828.146 127.55C827.523 126.828 827.211 125.823 827.211 124.534C827.211 123.528 827.423 122.665 827.847 121.943C828.295 121.221 828.857 120.641 829.53 120.203C830.228 119.739 831.001 119.404 831.849 119.198C832.721 118.966 833.581 118.849 834.429 118.849ZM886.519 118.849C888.064 118.849 889.411 119.12 890.558 119.662C891.729 120.203 892.714 120.951 893.512 121.905C894.309 122.833 894.909 123.941 895.308 125.23C895.706 126.493 895.905 127.859 895.905 129.329C895.905 130.798 895.706 132.164 895.308 133.427C894.909 134.69 894.31 135.799 893.512 136.752C892.714 137.68 891.729 138.415 890.558 138.957C889.411 139.472 888.064 139.73 886.519 139.73C884.998 139.73 883.651 139.472 882.479 138.957C881.308 138.415 880.323 137.68 879.525 136.752C878.728 135.799 878.129 134.69 877.73 133.427C877.332 132.164 877.132 130.798 877.132 129.329C877.132 127.859 877.332 126.493 877.73 125.23C878.129 123.941 878.728 122.833 879.525 121.905C880.323 120.951 881.308 120.203 882.479 119.662C883.651 119.12 884.998 118.849 886.519 118.849ZM929.983 118.849C931.08 118.849 932.089 118.953 933.012 119.159C933.934 119.339 934.745 119.675 935.443 120.165C936.166 120.629 936.739 121.273 937.163 122.098C937.587 122.897 937.836 123.902 937.911 125.114H934.732C934.683 124.469 934.52 123.941 934.246 123.529C933.972 123.091 933.623 122.742 933.199 122.484C932.775 122.226 932.302 122.046 931.778 121.943C931.28 121.814 930.769 121.75 930.245 121.75C929.771 121.75 929.285 121.788 928.786 121.866C928.313 121.943 927.876 122.084 927.478 122.291C927.079 122.471 926.754 122.729 926.505 123.064C926.256 123.373 926.131 123.786 926.131 124.301C926.131 124.868 926.318 125.346 926.692 125.733C927.091 126.094 927.589 126.403 928.188 126.661C928.786 126.893 929.459 127.098 930.207 127.279C930.955 127.433 931.703 127.601 932.451 127.782C933.249 127.962 934.022 128.181 934.77 128.439C935.542 128.697 936.216 129.045 936.789 129.483C937.387 129.895 937.861 130.424 938.21 131.069C938.584 131.713 938.771 132.512 938.771 133.466C938.771 134.678 938.522 135.683 938.023 136.482C937.55 137.281 936.914 137.926 936.116 138.416C935.343 138.905 934.458 139.241 933.461 139.421C932.489 139.628 931.516 139.73 930.544 139.73C929.472 139.73 928.45 139.614 927.478 139.382C926.505 139.15 925.644 138.777 924.896 138.261C924.149 137.72 923.55 137.023 923.102 136.172C922.653 135.296 922.403 134.239 922.354 133.002H925.532C925.557 133.724 925.72 134.342 926.019 134.858C926.318 135.348 926.704 135.748 927.178 136.057C927.676 136.341 928.225 136.546 928.823 136.675C929.446 136.804 930.082 136.869 930.73 136.869C931.229 136.869 931.753 136.83 932.302 136.752C932.85 136.675 933.349 136.534 933.798 136.328C934.271 136.121 934.658 135.825 934.957 135.438C935.256 135.026 935.405 134.51 935.405 133.891C935.405 133.041 935.094 132.397 934.471 131.958C933.847 131.52 933.062 131.171 932.114 130.914C931.192 130.63 930.182 130.385 929.085 130.179C927.988 129.947 926.966 129.638 926.019 129.251C925.096 128.839 924.323 128.272 923.7 127.55C923.077 126.828 922.766 125.823 922.766 124.534C922.766 123.528 922.978 122.665 923.401 121.943C923.85 121.221 924.411 120.641 925.084 120.203C925.782 119.739 926.555 119.404 927.402 119.198C928.275 118.966 929.136 118.849 929.983 118.849ZM220.203 114.79H205.319V123.567H219.193V126.661H205.319V136.211H220.315V139.305H201.767V111.696H220.203V114.79ZM233.828 135.98H233.903L239.176 119.314H242.505L235.437 139.305H232.033L224.853 119.314H228.405L233.828 135.98ZM280.804 118.849V122.33C279.532 122.33 278.447 122.51 277.55 122.871C276.652 123.232 275.929 123.761 275.381 124.457C274.833 125.152 274.434 126.003 274.185 127.008C273.935 127.988 273.811 129.123 273.811 130.412V139.305H270.632V119.314H273.624V123.529H273.698C274.471 121.905 275.419 120.705 276.541 119.932C277.663 119.159 279.084 118.798 280.804 118.849ZM311.545 119.314H315.397V122.213H311.545V134.626C311.545 135.013 311.57 135.322 311.62 135.554C311.695 135.786 311.82 135.966 311.994 136.095C312.169 136.224 312.405 136.314 312.704 136.366C313.028 136.392 313.44 136.405 313.938 136.405H315.397V139.305H312.966C312.143 139.305 311.432 139.253 310.834 139.15C310.261 139.021 309.787 138.802 309.413 138.493C309.064 138.183 308.802 137.745 308.628 137.178C308.453 136.611 308.366 135.863 308.366 134.935V122.213H305.075V119.314H308.366V113.32H311.545V119.314ZM324.725 122.252H324.8C325.049 121.634 325.398 121.118 325.847 120.706C326.295 120.267 326.794 119.919 327.343 119.662C327.916 119.378 328.502 119.171 329.101 119.042C329.724 118.914 330.322 118.849 330.896 118.849C332.167 118.849 333.227 119.03 334.074 119.391C334.922 119.752 335.607 120.255 336.131 120.899C336.654 121.543 337.016 122.317 337.216 123.219C337.44 124.096 337.553 125.075 337.553 126.158V139.305H334.374V125.771C334.374 124.534 334.024 123.554 333.326 122.833C332.628 122.111 331.669 121.75 330.447 121.75C329.475 121.75 328.627 121.904 327.904 122.213C327.206 122.523 326.62 122.962 326.146 123.529C325.673 124.096 325.311 124.766 325.062 125.54C324.837 126.287 324.725 127.112 324.725 128.014V139.305H321.546V111.696H324.725V122.252ZM348.311 139.305H345.132V119.314H348.311V139.305ZM365.202 118.849C366.474 118.849 367.533 119.03 368.381 119.391C369.228 119.752 369.914 120.255 370.438 120.899C370.961 121.543 371.323 122.317 371.522 123.219C371.747 124.096 371.859 125.075 371.859 126.158V139.305H368.68V125.771C368.68 124.534 368.331 123.554 367.633 122.833C366.935 122.111 365.975 121.75 364.753 121.75C363.781 121.75 362.933 121.904 362.21 122.213C361.512 122.523 360.926 122.962 360.452 123.529C359.979 124.096 359.617 124.766 359.368 125.54C359.144 126.287 359.031 127.112 359.031 128.014V139.305H355.853V119.314H358.845V122.484H358.919C360.24 120.061 362.335 118.849 365.202 118.849ZM420.782 119.314H424.635V122.213H420.782V134.626C420.782 135.013 420.808 135.322 420.857 135.554C420.932 135.786 421.057 135.966 421.231 136.095C421.406 136.224 421.643 136.314 421.942 136.366C422.266 136.391 422.677 136.405 423.176 136.405H424.635V139.305H422.204C421.381 139.305 420.671 139.253 420.072 139.15C419.499 139.021 419.025 138.802 418.651 138.493C418.302 138.183 418.04 137.745 417.865 137.178C417.691 136.611 417.604 135.863 417.604 134.935V122.213H414.312V119.314H417.604V113.32H420.782V119.314ZM433.963 122.252H434.037C434.286 121.634 434.636 121.118 435.085 120.706C435.534 120.268 436.032 119.919 436.58 119.662C437.153 119.378 437.74 119.171 438.338 119.042C438.961 118.914 439.56 118.849 440.133 118.849C441.404 118.849 442.465 119.03 443.312 119.391C444.16 119.752 444.846 120.255 445.369 120.899C445.893 121.543 446.254 122.317 446.453 123.219C446.677 124.096 446.79 125.075 446.79 126.158V139.305H443.611V125.771C443.611 124.534 443.262 123.554 442.564 122.833C441.866 122.111 440.906 121.75 439.685 121.75C438.712 121.75 437.865 121.904 437.142 122.213C436.444 122.523 435.857 122.962 435.384 123.529C434.91 124.096 434.548 124.766 434.299 125.54C434.075 126.287 433.963 127.112 433.963 128.014V139.305H430.784V111.696H433.963V122.252ZM493.989 136.211H508.126V139.305H490.437V111.696H493.989V136.211ZM542.673 111.386C542.972 111.386 543.309 111.413 543.683 111.464C544.081 111.516 544.43 111.593 544.729 111.696V114.557C544.455 114.454 544.156 114.39 543.832 114.364C543.508 114.312 543.209 114.287 542.935 114.287C542.162 114.287 541.563 114.441 541.14 114.75C540.716 115.06 540.504 115.653 540.504 116.53V119.314H544.243V122.213H540.504V139.305H537.324V122.213H534.071V119.314H537.324V116.336C537.324 114.712 537.773 113.488 538.671 112.663C539.593 111.812 540.928 111.386 542.673 111.386ZM554.112 119.314H557.965V122.213H554.112V134.626C554.112 135.013 554.138 135.322 554.188 135.554C554.262 135.786 554.387 135.966 554.562 136.095C554.736 136.224 554.972 136.314 555.271 136.366C555.596 136.392 556.007 136.405 556.506 136.405H557.965V139.305H555.533C554.711 139.305 554 139.253 553.401 139.15C552.828 139.021 552.354 138.802 551.98 138.493C551.632 138.183 551.37 137.745 551.195 137.178C551.021 136.611 550.934 135.863 550.934 134.935V122.213H547.643V119.314H550.934V113.32H554.112V119.314ZM581.553 119.314H585.405V122.213H581.553V134.626C581.553 135.013 581.578 135.322 581.628 135.554C581.703 135.786 581.827 135.966 582.002 136.095C582.176 136.224 582.413 136.314 582.712 136.366C583.036 136.392 583.448 136.405 583.946 136.405H585.405V139.305H582.974C582.151 139.305 581.441 139.253 580.843 139.15C580.269 139.021 579.795 138.802 579.421 138.493C579.072 138.183 578.81 137.745 578.636 137.178C578.461 136.611 578.374 135.863 578.374 134.935V122.213H575.083V119.314H578.374V113.32H581.553V119.314ZM664.928 122.252H665.003C665.252 121.634 665.601 121.118 666.05 120.706C666.499 120.267 666.997 119.919 667.546 119.662C668.119 119.378 668.705 119.171 669.304 119.042C669.927 118.914 670.525 118.849 671.099 118.849C672.37 118.849 673.43 119.03 674.277 119.391C675.125 119.752 675.81 120.255 676.334 120.899C676.858 121.543 677.219 122.317 677.419 123.219C677.643 124.096 677.755 125.075 677.755 126.158V139.305H674.576V125.771C674.576 124.534 674.227 123.554 673.529 122.833C672.831 122.111 671.871 121.75 670.649 121.75C669.677 121.75 668.829 121.904 668.106 122.213C667.408 122.523 666.822 122.962 666.349 123.529C665.875 124.096 665.514 124.766 665.265 125.54C665.04 126.287 664.928 127.112 664.928 128.014V139.305H661.749V111.696H664.928V122.252ZM745.561 139.305H742.382V119.314H745.561V139.305ZM757.516 119.314H761.368V122.213H757.516V134.626C757.516 135.013 757.541 135.322 757.591 135.554C757.666 135.786 757.79 135.966 757.965 136.095C758.139 136.224 758.377 136.314 758.676 136.366C759 136.391 759.411 136.405 759.909 136.405H761.368V139.305H758.938C758.115 139.305 757.404 139.253 756.806 139.15C756.232 139.021 755.759 138.802 755.385 138.493C755.036 138.183 754.773 137.745 754.599 137.178C754.424 136.611 754.337 135.863 754.337 134.935V122.213H751.046V119.314H754.337V113.32H757.516V119.314ZM853.764 119.314H857.615V122.213H853.764V134.626C853.764 135.013 853.789 135.322 853.839 135.554C853.914 135.786 854.038 135.966 854.213 136.095C854.387 136.224 854.624 136.314 854.923 136.366C855.247 136.392 855.659 136.405 856.157 136.405H857.615V139.305H855.185C854.362 139.305 853.651 139.253 853.053 139.15C852.48 139.021 852.006 138.802 851.632 138.493C851.283 138.183 851.021 137.745 850.847 137.178C850.672 136.611 850.585 135.863 850.585 134.935V122.213H847.294V119.314H850.585V113.32H853.764V119.314ZM873.825 118.849V122.33C872.554 122.33 871.469 122.51 870.571 122.871C869.674 123.232 868.951 123.761 868.402 124.457C867.854 125.153 867.454 126.003 867.205 127.008C866.956 127.988 866.831 129.123 866.831 130.412V139.305H863.652V119.314H866.645V123.529H866.72C867.493 121.905 868.44 120.705 869.562 119.932C870.683 119.159 872.105 118.798 873.825 118.849ZM949.767 139.305H945.615V135.013H949.767V139.305ZM599.894 121.75C599.071 121.75 598.286 121.917 597.538 122.252C596.815 122.588 596.179 123.078 595.631 123.722C595.082 124.367 594.645 125.166 594.321 126.12C594.022 127.048 593.873 128.117 593.873 129.329C593.873 130.54 594.022 131.623 594.321 132.577C594.645 133.505 595.082 134.291 595.631 134.935C596.179 135.554 596.815 136.031 597.538 136.366C598.286 136.701 599.071 136.869 599.894 136.869C600.716 136.869 601.49 136.701 602.213 136.366C602.961 136.031 603.609 135.554 604.157 134.935C604.706 134.291 605.13 133.505 605.429 132.577C605.753 131.623 605.915 130.54 605.915 129.329C605.915 128.117 605.753 127.048 605.429 126.12C605.13 125.166 604.706 124.367 604.157 123.722C603.609 123.078 602.961 122.588 602.213 122.252C601.49 121.917 600.716 121.75 599.894 121.75ZM788.659 121.75C787.587 121.75 786.677 121.969 785.929 122.407C785.181 122.845 784.583 123.425 784.134 124.147C783.685 124.869 783.361 125.694 783.161 126.622C782.962 127.55 782.862 128.503 782.862 129.483C782.862 130.411 782.975 131.327 783.199 132.229C783.449 133.105 783.81 133.892 784.283 134.587C784.782 135.283 785.405 135.838 786.153 136.25C786.926 136.663 787.824 136.869 788.846 136.869C789.918 136.869 790.828 136.65 791.576 136.211C792.324 135.773 792.935 135.206 793.408 134.51C793.882 133.788 794.219 132.976 794.418 132.074C794.642 131.172 794.755 130.257 794.755 129.329C794.755 128.349 794.642 127.408 794.418 126.505C794.194 125.578 793.832 124.766 793.334 124.07C792.86 123.374 792.237 122.819 791.464 122.407C790.691 121.969 789.756 121.75 788.659 121.75ZM886.519 121.75C885.696 121.75 884.911 121.917 884.163 122.252C883.44 122.588 882.804 123.078 882.256 123.722C881.707 124.367 881.27 125.166 880.946 126.12C880.647 127.048 880.498 128.117 880.498 129.329C880.498 130.54 880.647 131.623 880.946 132.577C881.27 133.505 881.707 134.291 882.256 134.935C882.804 135.554 883.44 136.031 884.163 136.366C884.911 136.701 885.696 136.869 886.519 136.869C887.341 136.869 888.115 136.701 888.838 136.366C889.586 136.031 890.234 135.554 890.782 134.935C891.331 134.291 891.755 133.505 892.054 132.577C892.378 131.623 892.54 130.54 892.54 129.329C892.54 128.117 892.378 127.048 892.054 126.12C891.755 125.166 891.331 124.367 890.782 123.722C890.234 123.078 889.586 122.588 888.838 122.252C888.115 121.917 887.341 121.75 886.519 121.75ZM387.292 121.75C386.27 121.75 385.397 121.956 384.674 122.369C383.951 122.755 383.353 123.283 382.879 123.954C382.43 124.624 382.094 125.397 381.869 126.274C381.67 127.15 381.569 128.065 381.569 129.019C381.569 129.921 381.657 130.824 381.831 131.726C382.006 132.628 382.306 133.453 382.729 134.201C383.153 134.922 383.714 135.516 384.412 135.98C385.11 136.418 385.983 136.637 387.029 136.637C388.076 136.637 388.962 136.418 389.685 135.98C390.433 135.516 391.032 134.922 391.48 134.201C391.929 133.453 392.253 132.615 392.452 131.687C392.676 130.759 392.789 129.831 392.789 128.903C392.789 128.026 392.69 127.163 392.49 126.312C392.291 125.461 391.966 124.701 391.518 124.031C391.094 123.335 390.533 122.781 389.835 122.369C389.137 121.956 388.289 121.75 387.292 121.75ZM255.893 121.75C255.07 121.75 254.322 121.904 253.649 122.213C253.001 122.497 252.44 122.897 251.966 123.413C251.492 123.928 251.119 124.534 250.845 125.23C250.571 125.9 250.408 126.622 250.358 127.395H261.465C261.415 126.622 261.241 125.887 260.941 125.191C260.667 124.495 260.281 123.902 259.782 123.413C259.309 122.897 258.736 122.497 258.062 122.213C257.414 121.904 256.69 121.75 255.893 121.75ZM462.036 121.75C461.213 121.75 460.465 121.904 459.792 122.213C459.144 122.497 458.583 122.897 458.109 123.413C457.636 123.928 457.262 124.534 456.987 125.23C456.713 125.9 456.551 126.622 456.501 127.395H467.607C467.558 126.622 467.383 125.887 467.084 125.191C466.844 124.582 466.518 124.052 466.106 123.601L465.743 123.224C465.307 122.798 464.794 122.462 464.205 122.213C463.557 121.904 462.834 121.75 462.036 121.75ZM521.165 121.75C520.342 121.75 519.594 121.904 518.921 122.213C518.273 122.497 517.712 122.897 517.238 123.413C516.765 123.928 516.39 124.534 516.116 125.23C515.842 125.9 515.68 126.622 515.63 127.395H526.737C526.687 126.622 526.513 125.887 526.214 125.191C525.94 124.495 525.552 123.902 525.054 123.413C524.58 122.897 524.007 122.497 523.334 122.213C522.686 121.904 521.963 121.75 521.165 121.75ZM693.001 121.75C692.178 121.75 691.43 121.904 690.757 122.213C690.109 122.497 689.548 122.897 689.074 123.413C688.601 123.928 688.226 124.534 687.952 125.23C687.678 125.9 687.516 126.622 687.466 127.395H698.573C698.523 126.622 698.349 125.887 698.05 125.191C697.776 124.495 697.389 123.902 696.891 123.413C696.417 122.897 695.843 122.497 695.17 122.213C694.522 121.904 693.799 121.75 693.001 121.75ZM813.184 121.75C812.361 121.75 811.613 121.904 810.939 122.213C810.291 122.497 809.731 122.897 809.257 123.413C808.783 123.928 808.409 124.534 808.135 125.23C807.861 125.9 807.698 126.622 807.648 127.395H818.756C818.706 126.622 818.531 125.887 818.231 125.191C817.991 124.582 817.666 124.052 817.254 123.601L816.891 123.224C816.454 122.798 815.942 122.461 815.353 122.213C814.704 121.904 813.981 121.75 813.184 121.75ZM348.311 115.717H345.132V111.696H348.311V115.717ZM745.561 115.717H742.382V111.696H745.561V115.717Z" fill="white"/>
<path d="M997.786 23.5085C998.399 10.9486 1009.08 1.26306 1021.64 1.87531L1121.7 6.7531C1134.26 7.36536 1143.95 18.0435 1143.33 30.6035L1138.46 130.667C1137.84 143.227 1127.17 152.913 1114.61 152.301L1014.54 147.423C1001.98 146.811 992.296 136.132 992.909 123.572L997.786 23.5085Z" fill="#6DD3FF"/>
<circle cx="1040.58" cy="52.3453" r="9.5035" transform="rotate(2.79077 1040.58 52.3453)" fill="black"/>
<circle cx="1095.48" cy="55.0216" r="9.5035" transform="rotate(2.79077 1095.48 55.0216)" fill="black"/>
<path d="M1070.95 61.0807C1072.58 60.619 1074.27 61.5219 1074.81 63.1091L1074.86 63.2649L1084.61 97.6946C1085.43 100.604 1082.91 103.366 1079.94 102.807L1055.33 98.1828C1053.61 97.8597 1052.48 96.2035 1052.8 94.4841C1053.13 92.7649 1054.78 91.6331 1056.5 91.956L1077.52 95.9047L1068.76 64.9916L1068.72 64.8332C1068.35 63.1997 1069.32 61.5425 1070.95 61.0807Z" fill="black"/>
<path d="M1095.75 116.597C1097.46 116.239 1099.14 117.336 1099.5 119.047C1099.85 120.714 1098.53 122.503 1096.9 122.828C1096.63 122.882 1096.01 123.002 1095.09 123.156C1093.86 123.362 1092.11 123.627 1089.97 123.872C1085.7 124.362 1079.84 124.78 1073.51 124.472C1067.22 124.165 1059.88 123.109 1054.17 122.147C1051.3 121.664 1048.82 121.199 1047.05 120.855C1046.05 120.661 1045.04 120.483 1044.05 120.246C1042.43 119.815 1041.42 118.184 1041.77 116.526C1042.16 114.696 1043.96 113.758 1045.71 114.124C1046.55 114.3 1050.31 115.072 1055.22 115.899C1060.86 116.849 1067.91 117.855 1073.82 118.143C1079.7 118.43 1085.21 118.042 1089.25 117.578C1091.27 117.347 1092.91 117.098 1094.04 116.908C1095.1 116.731 1095.71 116.606 1095.75 116.597L1095.75 116.597Z" fill="black"/>
<path d="M1042.5 103.549C1043.69 104.807 1043.6 106.794 1042.3 107.991L1042.3 107.992L1042.3 107.991L1042.3 107.99L1042.3 107.987L1042.3 107.987C1042.29 108.002 1041.51 108.731 1040.6 109.893C1039.6 111.162 1038.51 112.844 1037.88 114.682C1037.26 116.513 1037.13 118.418 1037.18 119.926C1037.21 120.703 1037.42 121.492 1037.42 122.261C1037.78 123.951 1036.68 125.641 1034.96 126.037C1033.48 126.374 1031.48 125.133 1031.17 123.69L1031.17 123.689L1031.17 123.684C1031.17 123.682 1031.17 123.679 1031.17 123.676C1031.17 123.669 1031.16 123.661 1031.16 123.653C1031.11 123.39 1030.86 122.11 1030.8 120.252C1030.74 118.296 1030.89 115.585 1031.83 112.806C1032.77 110.033 1034.33 107.701 1035.58 106.108C1036.22 105.3 1036.8 104.651 1037.23 104.198C1037.44 103.977 1037.71 103.581 1037.99 103.438C1039.11 102.417 1041.49 102.475 1042.5 103.549ZM1037.42 122.261L1037.42 122.265L1037.42 122.269L1037.42 122.272C1037.42 122.272 1037.42 122.268 1037.42 122.261Z" fill="black"/>
<path d="M1081.28 34.3266C1081.64 36.023 1083.32 37.0821 1085.04 36.6918C1092.08 35.0953 1099.34 34.8843 1105.35 35.8083C1111.54 36.7597 1115.7 38.7979 1117.42 41.0293L1117.52 41.1548C1118.59 42.4127 1120.51 42.604 1121.87 41.5627C1123.28 40.4878 1123.57 38.5063 1122.52 37.1369L1122.21 36.7517C1118.94 32.8306 1112.92 30.5699 1106.47 29.5781C1099.64 28.527 1091.57 28.7794 1083.77 30.5481C1082.04 30.9385 1080.93 32.6301 1081.28 34.3266Z" fill="black"/>
<path d="M1017.85 37.6343C1016.04 36.9384 1015.89 35.2644 1016.67 33.5646C1016.81 33.2529 1017.02 32.8316 1017.3 32.3343C1017.87 31.3415 1018.76 30.0282 1020.06 28.6613C1022.67 25.9 1026.92 22.9802 1033.4 22.0103C1039.93 21.0344 1048.3 23.1251 1054.62 25.1935C1057.93 26.2778 1060.85 27.4176 1062.92 28.273C1062.99 27.8916 1063.05 27.5141 1063.07 27.1589C1063.13 26.1595 1063.18 25.1557 1063.13 24.1545C1062.96 22.4151 1064.23 20.9007 1065.96 20.7675C1067.69 20.6343 1069.24 21.9431 1069.42 23.6907C1069.6 25.4388 1069.54 26.1638 1069.38 27.7353C1069.21 29.4085 1068.87 30.8815 1068.53 31.958C1068.19 33.0484 1067.87 33.7959 1067.84 33.8844L1067.83 33.8863C1067.77 33.8614 1067.77 33.857 1067.83 33.8882C1067.15 35.483 1065.29 36.1858 1063.69 35.4587C1062.62 34.9753 1061.56 34.4865 1060.48 34.0389C1058.53 33.2343 1055.81 32.18 1052.76 31.1804C1046.48 29.1235 1039.4 27.5175 1034.5 28.2499C1029.57 28.9884 1026.54 31.1499 1024.74 33.0439C1023.83 34.0042 1023.22 34.9124 1022.85 35.5585C1021.85 37.2972 1019.67 38.3302 1017.85 37.6343Z" fill="black"/>
</g>
<defs>
<clipPath id="clip0_94_1558">
<rect width="1150" height="153" fill="white"/>
</clipPath>
</defs>
</svg>
