<svg width="571" height="93" viewBox="0 0 571 93" fill="none" xmlns="http://www.w3.org/2000/svg">
<g filter="url(#filter0_d_145_1062)">
<path d="M4.21956 28.709C3.99906 24.5016 7.23107 20.9121 11.4385 20.6916L44.9583 18.9349C49.1656 18.7144 52.7552 21.9464 52.9757 26.1538L54.7324 59.6736C54.9529 63.881 51.7208 67.4705 47.5135 67.691L13.9936 69.4477C9.78627 69.6682 6.19676 66.4362 5.97626 62.2288L4.21956 28.709Z" fill="#6DD3FF"/>
<circle cx="19.4577" cy="36.875" r="3.18411" transform="rotate(-3 19.4577 36.875)" fill="black"/>
<circle cx="37.8483" cy="35.9111" r="3.18411" transform="rotate(-3 37.8483 35.9111)" fill="black"/>
<path d="M29.8764 38.76C30.4044 38.551 30.9997 38.7947 31.2326 39.3055L31.2539 39.3559L35.6679 50.5029C36.0409 51.445 35.2932 52.4508 34.2836 52.365L25.9259 51.6553C25.3419 51.6057 24.9086 51.0919 24.9582 50.5078C25.0079 49.9239 25.5214 49.4906 26.1054 49.5401L33.2434 50.146L29.2802 40.1375L29.2615 40.0861C29.0815 39.5542 29.3485 38.9691 29.8764 38.76Z" fill="black"/>
<path d="M40.0211 56.4273C40.5797 56.25 41.1762 56.5588 41.3536 57.1173C41.5264 57.6612 41.1452 58.3023 40.6145 58.4655C40.5264 58.4926 40.3226 58.5538 40.0216 58.6362C39.6204 58.746 39.0454 58.8935 38.3404 59.0477C36.9334 59.3554 34.9928 59.6929 32.8745 59.804C30.7668 59.9144 28.2824 59.8108 26.3467 59.6831C25.3742 59.6189 24.5312 59.548 23.9307 59.4931C23.5913 59.462 23.2494 59.4369 22.9115 59.3911C22.3571 59.3021 21.964 58.7929 22.0254 58.2284C22.0933 57.605 22.6598 57.2319 23.2559 57.2945C23.543 57.3247 24.8228 57.4551 26.4865 57.5649C28.3979 57.691 30.7828 57.7878 32.7634 57.684C34.7332 57.5808 36.5542 57.2656 37.8867 56.9742C38.5514 56.8288 39.0906 56.6902 39.4613 56.5888C39.8066 56.4943 40.0061 56.4318 40.0205 56.4273L40.0211 56.4273Z" fill="black"/>
<path d="M21.8301 53.8778C22.2683 54.2569 22.3044 54.9227 21.911 55.3655L21.9112 55.3659L21.911 55.3655L21.9118 55.365L21.9126 55.3642L21.913 55.3639C21.908 55.3697 21.6742 55.6386 21.4085 56.0571C21.1185 56.5138 20.8123 57.1114 20.6668 57.7451C20.5218 58.3763 20.5428 59.0159 20.6095 59.5168C20.6439 59.775 20.7415 60.0309 20.7669 60.2872C20.9455 60.8382 20.6355 61.4389 20.0741 61.629C19.5946 61.7913 18.8858 61.4453 18.7333 60.9747L18.7331 60.9743L18.7327 60.9729C18.7324 60.972 18.732 60.971 18.7317 60.97C18.731 60.9679 18.7303 60.9653 18.7294 60.9625C18.7024 60.8769 18.5754 60.4586 18.4933 59.8412C18.4068 59.1914 18.3659 58.2826 18.5861 57.3241C18.8057 56.3681 19.2448 55.5382 19.6089 54.9648C19.7936 54.6739 19.966 54.4381 20.0944 54.2725C20.157 54.1918 20.2342 54.0506 20.3229 53.9934C20.6591 53.6152 21.4559 53.5541 21.8301 53.8778ZM20.7669 60.2872L20.7675 60.2886L20.768 60.2897L20.7681 60.2908C20.7681 60.2908 20.7676 60.2894 20.7669 60.2872Z" fill="black"/>
<path d="M32.4176 29.4925C32.5926 30.0461 33.189 30.3423 33.7498 30.154C36.043 29.3838 38.4549 29.0681 40.489 29.173C42.5834 29.281 44.0412 29.8195 44.6879 30.5054L44.726 30.5438C45.1267 30.9268 45.7715 30.9258 46.1912 30.5326C46.6244 30.1266 46.6539 29.4564 46.2571 29.0354L46.1412 28.9175C44.9175 27.7211 42.8365 27.1708 40.6533 27.0582C38.3393 26.9389 35.6573 27.2959 33.1167 28.1492C32.5558 28.3376 32.2428 28.939 32.4176 29.4925Z" fill="black"/>
<path d="M11.3861 32.7394C10.7569 32.5688 10.651 32.0158 10.8532 31.4229C10.8902 31.3142 10.9455 31.1667 11.0239 30.9913C11.1803 30.641 11.4314 30.1733 11.8172 29.6738C12.5966 28.6649 13.9119 27.5482 16.0415 27.0056C18.1844 26.4597 21.0463 26.8735 23.2212 27.3495C24.3613 27.5991 25.3729 27.8803 26.0908 28.0956C26.1026 27.9659 26.1081 27.8382 26.1038 27.7191C26.0917 27.3837 26.0721 27.0477 26.023 26.7155C25.9088 26.1413 26.2778 25.5939 26.85 25.491C27.4244 25.3879 27.9858 25.7717 28.1043 26.3482C28.2229 26.9249 28.2263 27.1687 28.2261 27.6979C28.226 28.2614 28.1631 28.7639 28.0871 29.1341C28.0102 29.5091 27.9298 29.769 27.9202 29.7997L27.9199 29.8004C27.8962 29.7944 27.897 29.7929 27.9199 29.8011C27.7461 30.3557 27.1512 30.6528 26.5911 30.4647C26.2188 30.3397 25.8489 30.2126 25.4721 30.1001C24.7947 29.8978 23.8546 29.6381 22.8035 29.408C20.6408 28.9347 18.2272 28.6386 16.6191 29.0484C14.9978 29.4615 14.0612 30.2844 13.5266 30.9764C13.2556 31.3273 13.084 31.6506 12.9822 31.8784C12.7082 32.4918 12.0152 32.9099 11.3861 32.7394Z" fill="black"/>
<path d="M495.243 23.1012L488.872 40.5231L481.536 38.5446L483.032 32.4635C481.439 31.8359 478.013 30.0026 472.271 30.0026C465.369 30.0026 459.771 35.0214 459.771 41.1022C459.771 47.7622 465.08 51.9127 472.271 51.9127C480.813 51.9127 486.025 48.1005 488.486 46.4596L492.202 52.7819C489.886 54.6157 486.459 56.3529 482.84 57.4147C480.041 58.2834 475.456 58.9596 472.271 58.9596C455.283 58.9596 448.863 50.4166 448.863 41.1022C448.863 33.5252 454.607 23.1979 472.271 23.1979C477.434 23.1979 482.84 24.8384 484.674 25.6588L485.929 20.2535L495.243 23.1012ZM381.598 47.6178L381.308 30.3883L374.262 30.9674V23.5836C377.833 23.8249 381.405 23.9694 384.928 23.9694C388.692 23.9694 392.408 23.8249 395.931 23.5836V30.9674L389.367 30.3883L389.175 56.8844L380.681 58.7662L358.335 34.2008L358.094 51.2369L365.382 50.6578V58.0905C361.811 57.8491 358.239 57.7047 354.716 57.7047C350.951 57.7047 347.187 57.8491 343.712 58.0905V50.6578L350.469 51.2369L350.275 30.9196L344.243 32.319L343.085 24.5485L358.914 22.9567L381.598 47.6178ZM424.364 23.7281C437.829 23.7282 444.585 27.2517 444.585 34.4908C444.585 41.199 437.925 46.5074 425.039 46.5074C421.854 46.5074 418.621 45.9284 416.594 45.3492L416.497 51.4781L425.329 50.7067V58.0905C420.02 57.9457 416.256 57.7037 412.153 57.7037C408.244 57.7038 404.769 57.9457 400.764 58.0905V50.7067L407.714 51.2858L406.989 31.3531L400.764 33.0426L399.799 25.2242C404.77 24.5486 414.809 23.7281 424.364 23.7281ZM423.881 30.3405C420.068 30.3405 418.717 30.4361 416.835 30.6774L416.69 39.317C418.38 39.8479 420.31 40.4264 424.653 40.4264C430.203 40.4264 433.436 38.2066 433.437 35.2145C433.437 32.1257 430.107 30.3405 423.881 30.3405Z" fill="#DADADA"/>
<path d="M316.331 35.6973C317.538 35.0698 320.82 33.7188 325.404 33.7188C332.933 33.7189 338.097 38.4963 338.097 45.0596C338.097 53.119 332.45 58.3319 324.391 58.332C321.012 58.332 316.862 56.5461 316.138 55.7256V61.2754L324.438 60.6484V68.1289C321.736 67.9841 317.778 67.8389 313.725 67.8389C309.671 67.8389 305.617 67.9841 302.094 68.1289V60.7451L308.126 61.2275C308.56 54.2298 308.271 46.7491 307.596 41.1025L302.673 43.0332L300.983 35.2148L316.62 32.9941L316.331 35.6973ZM187.918 43.4668C191.296 39.6059 200.563 33.2842 207.03 33.6221L210.167 40.8125C205.872 40.9573 200.418 42.7432 197.764 44.5771L204.665 50.127L207.561 46.9424L212.193 52.0098L200.997 59.9727C196.654 54.4709 194.241 51.9608 190.621 48.8721L187.967 51.1895L188.305 57.7041H174.164V50.3203L180.1 50.7549L179.617 29.8096L174.694 31.7881L172.957 23.9697L188.787 22.0391L187.918 43.4668ZM151.235 33.3809C159.729 33.3809 165.762 35.5046 165.762 46.3633C165.762 47.5217 165.616 50.2723 165.472 51.334L169.815 49.8379L171.505 57.7529L156.979 59.3936L157.268 54.8086C155.675 55.9186 151.525 58.4765 146.409 58.4766C139.411 58.4766 135.164 55.3396 135.164 50.6582C135.164 45.9769 139.653 43.2266 148.002 43.2266C151.477 43.2266 154.613 44.0466 156.93 44.7705V44.0947C156.93 42.116 155.53 39.9922 150.849 39.9922C146.264 39.9923 142.596 41.7787 140.328 43.4678L136.612 37.0488C139.46 35.6975 144.672 33.3809 151.235 33.3809ZM299.288 31.4502L293.304 30.8711L292.966 42.3574C292.676 52.4921 285.485 58.959 274.047 58.959C262.561 58.9588 255.419 52.4437 255.129 42.3574L254.791 30.8711L248.807 31.4502V24.0664C252.667 24.2112 255.853 24.4521 259.762 24.4521C263.864 24.4521 267.388 24.2112 271.538 24.0664V31.4502L264.54 30.8711V41.8262C264.54 48.1964 267.773 51.9129 274.047 51.9131C280.61 51.9131 283.555 48.1965 283.555 41.8262V30.8711L276.509 31.4502V24.0664C280.707 24.2112 284.183 24.4521 288.333 24.4521C292.242 24.4521 295.427 24.2112 299.288 24.0664V31.4502ZM117.811 52.3955L124.133 30.9678L118.39 31.4502V24.0664C121.189 24.2595 124.664 24.4521 128.091 24.4521C131.614 24.4521 135.136 24.2594 138.418 24.0664V31.4502L133.158 30.9678L122.878 58.4766L110.861 58.9111L105.359 37.7725L99.7129 58.4766L87.5508 58.9111L77.2227 30.9678L72.0107 31.4502V24.0664C75.2925 24.2595 78.7675 24.4521 82.3389 24.4521C85.7652 24.4521 89.2399 24.2594 93.3418 24.0664V31.4502L87.6953 30.9678L93.8252 52.4434L101.064 24.0176H110.523L117.811 52.3955ZM230.886 33.5254C241.793 33.5254 247.342 39.5583 247.391 45.6875C247.391 46.4113 247.343 47.2321 247.295 47.8594H225.046C225.48 49.7898 227.025 52.251 232.72 52.251C235.953 52.2509 240.007 50.4652 242.469 48.9209L245.653 55.1465C243.337 56.546 237.835 58.6698 230.741 58.6699C221.958 58.6699 214.959 53.8914 214.959 45.9766C214.959 37.7722 222.102 33.5254 230.886 33.5254ZM150.318 48.1973C147.857 48.1973 145.975 49.1138 145.975 50.4648C145.975 52.0575 147.326 53.0713 149.498 53.0713C152.393 53.0711 155.482 51.3342 156.833 49.79C155.289 48.9697 152.394 48.1973 150.318 48.1973ZM322.025 39.9443C319.082 39.9444 317.441 41.1503 316.09 41.9707V49.1143C316.718 49.9831 318.986 51.7197 322.219 51.7197C326.128 51.7197 328.492 49.4999 328.492 45.543C328.492 42.3095 326.465 39.9443 322.025 39.9443ZM231.513 39.5098C227.314 39.5099 225.384 41.9226 224.949 43.8047H238.27C237.98 41.8743 235.76 39.5098 231.513 39.5098Z" fill="#6DD3FF"/>
<rect x="514.665" y="18.6624" width="48.5817" height="48.5817" rx="7.52689" transform="rotate(3 514.665 18.6624)" fill="#DADADA"/>
<path d="M532.426 34.1276C532.335 35.8603 530.857 37.1914 529.124 37.1006C527.391 37.0098 526.06 35.5315 526.151 33.7988C526.242 32.0661 527.72 30.7351 529.453 30.8259C531.185 30.9167 532.517 32.3949 532.426 34.1276Z" fill="black"/>
<path d="M550.24 33.8176C550.149 35.5504 548.671 36.8814 546.938 36.7906C545.206 36.6998 543.875 35.2215 543.965 33.4888C544.056 31.7561 545.535 30.4251 547.267 30.5159C549 30.6067 550.331 32.0849 550.24 33.8176Z" fill="black"/>
<path d="M538.483 36.9922C539.037 36.827 539.62 37.1422 539.786 37.6964L543.038 48.6073C543.326 49.5741 542.488 50.5029 541.496 50.3148L533.253 48.7508L533.201 48.7392C532.662 48.6084 532.315 48.077 532.42 47.5266C532.524 46.9761 533.042 46.6086 533.591 46.6843L533.644 46.693L540.679 48.0276L537.778 38.295C537.613 37.7407 537.929 37.1574 538.483 36.9922Z" fill="black"/>
<path d="M545.924 56.7069L545.977 56.7113C546.529 56.7682 546.944 57.248 546.915 57.8076C546.885 58.3672 546.422 58.8009 545.868 58.7999L545.814 58.7987L528.484 57.8905C527.907 57.8602 527.463 57.3673 527.493 56.7897C527.523 56.2122 528.016 55.7684 528.594 55.7986L545.924 56.7069Z" fill="black"/>
</g>
<defs>
<filter id="filter0_d_145_1062" x="-2.29091" y="0.709091" width="576.164" height="91.5461" filterUnits="userSpaceOnUse" color-interpolation-filters="sRGB">
<feFlood flood-opacity="0" result="BackgroundImageFix"/>
<feColorMatrix in="SourceAlpha" type="matrix" values="0 0 0 0 0 0 0 0 0 0 0 0 0 0 0 0 0 0 127 0" result="hardAlpha"/>
<feOffset dx="2.29091" dy="2.29091"/>
<feGaussianBlur stdDeviation="2.29091"/>
<feComposite in2="hardAlpha" operator="out"/>
<feColorMatrix type="matrix" values="0 0 0 0 0 0 0 0 0 0 0 0 0 0 0 0 0 0 1 0"/>
<feBlend mode="normal" in2="BackgroundImageFix" result="effect1_dropShadow_145_1062"/>
<feBlend mode="normal" in="SourceGraphic" in2="effect1_dropShadow_145_1062" result="shape"/>
</filter>
</defs>
</svg>
