<svg width="1150" height="153" viewBox="0 0 1150 153" fill="none" xmlns="http://www.w3.org/2000/svg">
  <g clip-path="url(#clip0_94_1558)">
    <path
      d="M7.38987 30.3641C6.73175 17.8064 16.3782 7.09296 28.9358 6.43484L128.981 1.19168C141.539 0.533561 152.252 10.18 152.91 22.7377L158.154 122.783C158.812 135.341 149.165 146.054 136.608 146.712L36.5623 151.955C24.0046 152.614 13.2911 142.967 12.633 130.409L7.38987 30.3641Z"
      fill="#6DD3FF" />
    <circle cx="52.8692" cy="54.7365" r="9.5035" transform="rotate(-3 52.8692 54.7365)" fill="black" />
    <circle cx="107.761" cy="51.8598" r="9.5035" transform="rotate(-3 107.761 51.8598)" fill="black" />
    <path
      d="M83.9678 60.3628C85.5435 59.739 87.3205 60.4663 88.0156 61.9911L88.0792 62.1413L101.254 95.4115C102.367 98.2234 100.135 101.225 97.1218 100.969L72.1769 98.851C70.4336 98.703 69.1406 97.1695 69.2886 95.4262C69.4369 93.6832 70.9695 92.3901 72.7125 92.538L94.017 94.3464L82.1884 64.4743L82.1324 64.3208C81.5952 62.7334 82.3921 60.9868 83.9678 60.3628Z"
      fill="black" />
    <path
      d="M114.248 113.093C115.915 112.564 117.696 113.486 118.225 115.153C118.741 116.776 117.603 118.69 116.019 119.177C115.756 119.257 115.148 119.44 114.25 119.686C113.052 120.014 111.336 120.454 109.232 120.914C105.032 121.833 99.2404 122.84 92.9179 123.171C86.6272 123.501 79.212 123.192 73.4345 122.811C70.5322 122.619 68.016 122.407 66.2237 122.244C65.2106 122.151 64.1904 122.076 63.1818 121.939C61.5272 121.674 60.3537 120.154 60.5371 118.469C60.7398 116.608 62.4304 115.495 64.2096 115.682C65.0667 115.772 68.8863 116.161 73.852 116.488C79.5567 116.865 86.6749 117.154 92.5863 116.844C98.4654 116.536 103.901 115.595 107.878 114.725C109.862 114.292 111.471 113.878 112.577 113.575C113.608 113.293 114.203 113.107 114.246 113.093L114.248 113.093Z"
      fill="black" />
    <path
      d="M59.955 105.484C61.2629 106.616 61.3704 108.603 60.1963 109.924L60.197 109.925L60.1963 109.924L60.1987 109.923L60.2012 109.92L60.2024 109.92C60.1873 109.937 59.4895 110.739 58.6966 111.988C57.831 113.352 56.9171 115.135 56.4827 117.027C56.05 118.911 56.1129 120.819 56.3119 122.315C56.4145 123.085 56.7059 123.849 56.7815 124.614C57.3148 126.259 56.3895 128.051 54.7138 128.619C53.2828 129.103 51.1672 128.07 50.712 126.666L50.7113 126.665L50.7102 126.66C50.7094 126.658 50.7082 126.655 50.7072 126.652C50.7052 126.646 50.7029 126.638 50.7003 126.629C50.6198 126.374 50.2408 125.126 49.9955 123.283C49.7374 121.343 49.6156 118.631 50.2726 115.77C50.928 112.917 52.2387 110.44 53.3252 108.728C53.8766 107.86 54.3913 107.156 54.7744 106.662C54.9612 106.421 55.1917 106 55.4566 105.829C56.4598 104.7 58.8379 104.518 59.955 105.484ZM56.7815 124.614L56.7835 124.618L56.7847 124.621L56.785 124.624C56.785 124.624 56.7836 124.621 56.7815 124.614Z"
      fill="black" />
    <path
      d="M91.5533 32.7021C92.0754 34.3544 93.8555 35.2383 95.5295 34.6763C102.374 32.3775 109.572 31.4353 115.644 31.7484C121.895 32.0708 126.246 33.6781 128.176 35.7252L128.29 35.8398C129.485 36.9829 131.41 36.98 132.663 35.8063C133.956 34.5948 134.044 32.5942 132.86 31.3379L132.514 30.9858C128.861 27.4149 122.65 25.7725 116.134 25.4365C109.227 25.0804 101.223 26.1459 93.6397 28.6927C91.9657 29.2549 91.0315 31.0499 91.5533 32.7021Z"
      fill="black" />
    <path
      d="M28.7793 42.3931C26.9015 41.8841 26.5855 40.2335 27.1888 38.4638C27.2994 38.1393 27.4644 37.6992 27.6982 37.1756C28.1652 36.1303 28.9146 34.7343 30.066 33.2436C32.3922 30.2322 36.3182 26.8993 42.6743 25.2798C49.0702 23.6503 57.6117 24.8855 64.1031 26.3062C67.5059 27.051 70.5252 27.8904 72.6679 28.5329C72.7031 28.146 72.7196 27.7649 72.7068 27.4092C72.6707 26.4083 72.6122 25.4053 72.4657 24.4138C72.1248 22.7 73.2262 21.0662 74.9341 20.7591C76.6482 20.4514 78.324 21.597 78.6776 23.3177C79.0315 25.0388 79.0418 25.7665 79.0413 27.3462C79.0408 29.0279 78.853 30.5276 78.6264 31.6325C78.3968 32.7518 78.1568 33.5275 78.1281 33.6193L78.1272 33.6213C78.0566 33.6035 78.059 33.5988 78.1273 33.6233C77.6085 35.2788 75.8328 36.1653 74.1611 35.6041C73.0499 35.2309 71.9459 34.8515 70.8213 34.5157C68.7996 33.912 65.9936 33.1368 62.8565 32.4502C56.4016 31.0374 49.1978 30.1538 44.3981 31.3767C39.5592 32.6096 36.7635 35.0658 35.1681 37.1313C34.3592 38.1785 33.847 39.1434 33.5431 39.8235C32.7254 41.6541 30.657 42.9022 28.7793 42.3931Z"
      fill="black" />
    <path
      d="M971.412 11.6042L959.489 44.2097L945.76 40.5066L948.56 29.1257C945.579 27.9515 939.167 24.5194 928.419 24.5193C915.504 24.5193 905.027 33.9127 905.027 45.2927C905.027 57.7568 914.962 65.5251 928.419 65.5251C944.406 65.5251 954.16 58.389 958.766 55.3181L965.721 67.1501C961.386 70.5823 954.973 73.834 948.199 75.821C942.96 77.4467 934.38 78.7116 928.419 78.7117C896.627 78.7117 884.615 62.7244 884.615 45.2927C884.615 31.1126 895.363 11.7849 928.419 11.7849C938.084 11.785 948.199 14.8559 951.631 16.3914L953.98 6.27515L971.412 11.6042ZM758.727 57.4861L758.185 25.2419L744.999 26.3259V12.5076C751.682 12.9592 758.366 13.2302 764.959 13.2302C772.004 13.2302 778.959 12.9592 785.552 12.5076V26.3259L773.269 25.2419L772.908 74.8279L757.011 78.3503L715.193 32.3777L714.742 64.2605L728.38 63.1765V77.0857C721.697 76.6341 715.013 76.363 708.419 76.363C701.375 76.363 694.33 76.6341 687.827 77.0857V63.1765L700.471 64.2605L700.11 26.2361L688.82 28.8552L686.652 14.3132L716.277 11.3328L758.727 57.4861ZM838.763 12.7781C863.962 12.7781 876.607 19.3718 876.607 32.9197C876.607 45.474 864.142 55.4089 840.027 55.4089C834.066 55.4089 828.015 54.3248 824.221 53.241L824.041 64.7117L840.569 63.2664V77.0857C830.634 76.8147 823.589 76.363 815.912 76.363C808.596 76.3631 802.093 76.8147 794.597 77.0857V63.2664L807.603 64.3503L806.248 27.0486L794.597 30.2097L792.791 15.5779C802.094 14.3134 820.88 12.7781 838.763 12.7781ZM837.86 25.1521C830.725 25.1521 828.196 25.3324 824.673 25.7839L824.402 41.9509C827.563 42.9444 831.176 44.0291 839.305 44.0291C849.692 44.0289 855.743 39.8739 855.743 34.2742C855.743 28.4938 849.511 25.1521 837.86 25.1521Z"
      fill="#B7B7B7" />
    <path
      d="M636.583 35.1775C638.841 34.0033 644.983 31.4744 653.563 31.4744C667.653 31.4744 677.317 40.4157 677.317 52.699C677.317 67.7822 666.75 77.5368 651.667 77.5369C645.344 77.5369 637.576 74.1953 636.221 72.6599V83.0466L651.756 81.8728V95.8718C646.698 95.6009 639.292 95.3298 631.706 95.3298C624.119 95.3298 616.532 95.6009 609.939 95.8718V82.0535L621.229 82.9568C622.042 69.8605 621.499 55.8601 620.235 45.2927L611.023 48.906L607.862 34.2742L637.125 30.1199L636.583 35.1775ZM396.263 49.7185C402.586 42.493 419.927 30.6616 432.03 31.2937L437.901 44.7517C429.862 45.0227 419.657 48.3645 414.689 51.7966L427.604 62.1833L433.023 56.2214L441.694 65.7058L420.74 80.6082C412.611 70.312 408.096 65.615 401.322 59.8347L396.354 64.1697L396.986 76.363H370.522V62.5447L381.631 63.3572L380.728 24.1589L371.516 27.8621L368.264 13.2302L397.889 9.61694L396.263 49.7185ZM327.611 30.8425C343.507 30.8425 354.797 34.8166 354.797 55.1384C354.797 57.3063 354.526 62.4542 354.255 64.4412L362.383 61.6414L365.545 76.4539L338.359 79.5242L338.901 70.9441C335.92 73.0214 328.152 77.8083 318.579 77.8083C305.482 77.8083 297.535 71.9374 297.535 63.1765C297.535 54.4156 305.934 49.2674 321.559 49.2673C328.062 49.2673 333.933 50.8032 338.268 52.158V50.8933C338.268 47.1902 335.649 43.2156 326.888 43.2156C318.308 43.2156 311.444 46.5574 307.199 49.7185L300.244 37.7068C305.572 35.1778 315.327 30.8425 327.611 30.8425ZM604.688 27.2292L593.489 26.1453L592.856 47.6414C592.314 66.6084 578.856 78.7117 557.451 78.7117C535.955 78.7115 522.588 66.518 522.046 47.6414L521.414 26.1453L510.214 27.2292V13.4099C517.44 13.6809 523.401 14.1326 530.716 14.1326C538.393 14.1326 544.987 13.6809 552.754 13.4099V27.2292L539.659 26.1453V46.6482C539.659 58.57 545.71 65.525 557.451 65.5251C569.734 65.5251 575.244 58.5702 575.244 46.6482V26.1453L562.057 27.2292V13.4099C569.915 13.6809 576.419 14.1326 584.186 14.1326C591.502 14.1326 597.463 13.6809 604.688 13.4099V27.2292ZM265.058 66.4275L276.89 26.3259L266.142 27.2292V13.4099C271.381 13.7712 277.884 14.1326 284.296 14.1326C290.89 14.1326 297.483 13.7712 303.625 13.4099V27.2292L293.78 26.3259L274.542 77.8083L252.052 78.6208L241.756 39.0613L231.189 77.8083L208.428 78.6208L189.1 26.3259L179.345 27.2292V13.4099C185.487 13.7712 191.99 14.1326 198.673 14.1326C205.086 14.1326 211.589 13.7712 219.266 13.4099V27.2292L208.699 26.3259L220.169 66.5183L233.717 13.3201H251.42L265.058 66.4275ZM476.673 31.113C497.086 31.113 507.473 42.4032 507.563 53.8738C507.563 55.2285 507.473 56.7641 507.382 57.9382H465.745C466.558 61.551 469.448 66.157 480.106 66.157C486.157 66.1569 493.744 62.8157 498.35 59.9255L504.311 71.5759C499.976 74.1952 489.68 78.1696 476.403 78.1697C459.965 78.1697 446.869 69.228 446.869 54.4158C446.869 39.0615 460.235 31.1131 476.673 31.113ZM325.895 58.5701C321.289 58.5701 317.766 60.2863 317.766 62.8152C317.766 65.7956 320.295 67.692 324.359 67.6921C329.778 67.6921 335.558 64.4407 338.087 61.5505C335.197 60.0152 329.779 58.5701 325.895 58.5701ZM647.241 43.1257C641.731 43.1257 638.66 45.3833 636.131 46.9187V60.2859C637.306 61.9116 641.551 65.1638 647.602 65.1638C654.918 65.1637 659.343 61.0084 659.343 53.6023C659.343 47.5511 655.55 43.1258 647.241 43.1257ZM477.848 42.3132C469.99 42.3132 466.377 46.8289 465.564 50.3513H490.493C489.951 46.7386 485.796 42.3134 477.848 42.3132Z"
      fill="#6DD3FF" />
    <path
      d="M386.753 118.335C387.975 118.335 389.097 118.619 390.12 119.186C391.142 119.728 391.94 120.552 392.513 121.661H392.55V118.8H395.542V137.09C395.542 140.363 394.819 142.812 393.374 144.436C391.928 146.06 389.658 146.872 386.567 146.872C385.669 146.872 384.747 146.769 383.799 146.563C382.877 146.357 382.029 146.021 381.256 145.557C380.508 145.093 379.885 144.488 379.386 143.74C378.888 142.992 378.614 142.077 378.564 140.995H381.743C381.768 141.588 381.942 142.09 382.266 142.503C382.615 142.915 383.027 143.251 383.5 143.509C383.937 143.734 384.402 143.9 384.895 144.008L385.534 144.134C385.954 144.206 386.361 144.243 386.753 144.243C387.8 144.243 388.686 144.049 389.409 143.663C390.132 143.302 390.73 142.786 391.204 142.116C391.677 141.472 392.014 140.685 392.213 139.758C392.438 138.83 392.55 137.811 392.55 136.703V135.387H392.476C391.928 136.625 391.092 137.541 389.97 138.134C388.873 138.701 387.701 138.984 386.455 138.984C385.009 138.984 383.749 138.713 382.677 138.172C381.605 137.63 380.708 136.909 379.985 136.007C379.262 135.079 378.713 134.008 378.339 132.797C377.99 131.559 377.816 130.258 377.816 128.891C377.816 127.706 377.965 126.494 378.264 125.257C378.563 123.994 379.062 122.86 379.76 121.854C380.458 120.823 381.381 119.985 382.528 119.341C383.675 118.67 385.083 118.335 386.753 118.335ZM292.57 135.156H292.645L298.068 118.8H301.433L293.019 141.459C292.645 142.438 292.271 143.263 291.897 143.933C291.548 144.603 291.149 145.145 290.701 145.557C290.277 145.996 289.79 146.305 289.242 146.485C288.718 146.691 288.108 146.795 287.41 146.795C287.036 146.795 286.662 146.769 286.288 146.718C285.914 146.666 285.552 146.576 285.203 146.447V143.43C285.477 143.559 285.789 143.663 286.138 143.74C286.512 143.843 286.824 143.894 287.073 143.894C287.721 143.894 288.257 143.727 288.681 143.392C289.13 143.083 289.467 142.632 289.691 142.039L291 138.675L283.333 118.8H286.923L292.57 135.156ZM909.026 135.156H909.101L914.524 118.8H917.889L909.475 141.459C909.101 142.438 908.727 143.263 908.353 143.933C908.004 144.604 907.605 145.145 907.156 145.557C906.732 145.995 906.246 146.305 905.698 146.485C905.174 146.691 904.564 146.795 903.866 146.795C903.492 146.795 903.118 146.769 902.744 146.718C902.37 146.666 902.008 146.576 901.659 146.447V143.43C901.933 143.559 902.244 143.663 902.593 143.74C902.967 143.843 903.279 143.894 903.529 143.894C904.177 143.894 904.713 143.727 905.137 143.392C905.586 143.083 905.923 142.632 906.147 142.039L907.456 138.675L899.789 118.8H903.379L909.026 135.156ZM255.692 118.335C257.412 118.335 258.834 118.709 259.956 119.457C261.102 120.179 262.012 121.107 262.685 122.241C263.383 123.375 263.857 124.612 264.106 125.953C264.38 127.293 264.493 128.569 264.443 129.781H249.97C249.945 130.657 250.045 131.496 250.269 132.295C250.493 133.068 250.855 133.764 251.354 134.383C251.853 134.975 252.488 135.452 253.261 135.813C254.034 136.174 254.944 136.354 255.991 136.354C257.337 136.354 258.434 136.032 259.282 135.387C260.154 134.743 260.728 133.764 261.002 132.449H264.144C263.72 134.692 262.784 136.38 261.338 137.514C259.892 138.649 258.072 139.216 255.878 139.216C254.333 139.216 252.986 138.958 251.839 138.442C250.718 137.927 249.77 137.205 248.998 136.277C248.225 135.349 247.639 134.241 247.24 132.952C246.866 131.663 246.654 130.258 246.604 128.737C246.604 127.216 246.828 125.823 247.277 124.56C247.726 123.297 248.349 122.202 249.147 121.274C249.97 120.346 250.93 119.624 252.027 119.108C253.149 118.593 254.371 118.335 255.692 118.335ZM461.834 118.335C463.555 118.335 464.976 118.709 466.098 119.457C467.245 120.179 468.155 121.107 468.828 122.241C469.526 123.375 469.999 124.612 470.249 125.953C470.523 127.293 470.635 128.569 470.585 129.781H456.113C456.088 130.657 456.187 131.496 456.412 132.295C456.636 133.068 456.998 133.764 457.497 134.383C457.995 134.975 458.631 135.452 459.404 135.813C460.177 136.174 461.086 136.354 462.133 136.354C463.48 136.354 464.577 136.032 465.424 135.387C466.297 134.743 466.871 133.764 467.145 132.449H470.287C469.863 134.692 468.928 136.38 467.482 137.514C466.036 138.649 464.215 139.216 462.021 139.216C460.475 139.216 459.13 138.958 457.983 138.442C456.861 137.927 455.913 137.205 455.14 136.277C454.367 135.349 453.781 134.241 453.382 132.952C453.008 131.663 452.796 130.258 452.747 128.737C452.747 127.216 452.972 125.823 453.42 124.56C453.869 123.297 454.492 122.202 455.29 121.274C456.112 120.346 457.072 119.624 458.169 119.108C459.291 118.593 460.513 118.335 461.834 118.335ZM520.963 118.335C522.684 118.335 524.105 118.709 525.227 119.457C526.374 120.179 527.283 121.107 527.957 122.241C528.655 123.375 529.129 124.612 529.378 125.953C529.653 127.293 529.764 128.569 529.714 129.781H515.242C515.217 130.657 515.316 131.496 515.541 132.295C515.765 133.068 516.127 133.764 516.625 134.383C517.124 134.975 517.76 135.452 518.533 135.813C519.306 136.174 520.216 136.354 521.263 136.354C522.609 136.354 523.707 136.032 524.554 135.387C525.427 134.743 526 133.763 526.274 132.449H529.416C528.992 134.692 528.057 136.38 526.611 137.514C525.165 138.649 523.345 139.216 521.151 139.216C519.605 139.216 518.259 138.958 517.112 138.442C515.99 137.927 515.042 137.205 514.269 136.277C513.496 135.349 512.911 134.241 512.512 132.952C512.138 131.663 511.926 130.258 511.876 128.737C511.876 127.216 512.101 125.823 512.549 124.56C512.998 123.297 513.622 122.202 514.419 121.274C515.242 120.346 516.201 119.624 517.298 119.108C518.42 118.593 519.642 118.335 520.963 118.335ZM599.505 118.335C601.051 118.335 602.398 118.606 603.544 119.147C604.716 119.689 605.701 120.437 606.499 121.39C607.296 122.318 607.896 123.427 608.294 124.716C608.693 125.979 608.892 127.345 608.892 128.814C608.892 130.283 608.693 131.65 608.294 132.913C607.896 134.176 607.296 135.284 606.499 136.238C605.701 137.166 604.716 137.901 603.544 138.442C602.398 138.958 601.051 139.216 599.505 139.216C597.985 139.216 596.638 138.958 595.466 138.442C594.295 137.901 593.31 137.166 592.512 136.238C591.715 135.284 591.116 134.176 590.717 132.913C590.318 131.65 590.119 130.284 590.119 128.814C590.119 127.345 590.318 125.979 590.717 124.716C591.116 123.427 591.715 122.318 592.512 121.39C593.31 120.437 594.295 119.689 595.466 119.147C596.638 118.606 597.985 118.335 599.505 118.335ZM618.437 132.333C618.437 133.57 618.786 134.55 619.484 135.272C620.182 135.994 621.142 136.354 622.364 136.354C623.336 136.354 624.172 136.2 624.87 135.89C625.592 135.581 626.191 135.143 626.665 134.576C627.138 134.009 627.487 133.351 627.711 132.603C627.961 131.83 628.085 130.993 628.085 130.091V118.8H631.264V138.791H628.273V135.62H628.198C627.525 136.857 626.665 137.772 625.618 138.365C624.571 138.932 623.336 139.216 621.915 139.216C620.643 139.216 619.583 139.049 618.736 138.714C617.888 138.353 617.203 137.849 616.679 137.205C616.156 136.56 615.781 135.8 615.557 134.924C615.358 134.021 615.258 133.029 615.258 131.946V118.8H618.437V132.333ZM646.735 118.335C647.832 118.335 648.854 118.477 649.801 118.76C650.773 119.018 651.621 119.431 652.344 119.998C653.092 120.565 653.703 121.287 654.176 122.163C654.65 123.014 654.949 124.033 655.074 125.219H651.783C651.533 123.955 651.01 122.975 650.212 122.279C649.415 121.583 648.343 121.235 646.997 121.235C645.85 121.235 644.89 121.454 644.117 121.892C643.344 122.331 642.72 122.911 642.247 123.633C641.798 124.354 641.473 125.192 641.274 126.146C641.074 127.074 640.975 128.041 640.975 129.047C640.975 129.974 641.075 130.876 641.274 131.753C641.498 132.629 641.835 133.416 642.284 134.112C642.732 134.782 643.319 135.324 644.042 135.736C644.765 136.149 645.625 136.354 646.623 136.354C648.193 136.354 649.415 135.929 650.288 135.079C651.185 134.228 651.734 133.029 651.933 131.482H655.186C654.837 133.957 653.94 135.864 652.494 137.205C651.073 138.545 649.128 139.216 646.66 139.216C645.189 139.216 643.88 138.971 642.733 138.481C641.611 137.991 640.664 137.295 639.891 136.393C639.143 135.491 638.569 134.421 638.17 133.183C637.797 131.92 637.61 130.542 637.61 129.047C637.61 127.551 637.796 126.159 638.17 124.87C638.544 123.555 639.105 122.421 639.853 121.468C640.626 120.488 641.586 119.728 642.733 119.186C643.88 118.619 645.214 118.335 646.735 118.335ZM692.8 118.335C694.52 118.335 695.941 118.709 697.063 119.457C698.21 120.179 699.12 121.107 699.793 122.241C700.491 123.375 700.965 124.613 701.214 125.953C701.489 127.293 701.601 128.569 701.551 129.781H687.078C687.053 130.657 687.153 131.496 687.377 132.295C687.602 133.068 687.963 133.764 688.461 134.383C688.96 134.975 689.596 135.452 690.369 135.813C691.142 136.174 692.052 136.354 693.099 136.354C694.445 136.354 695.542 136.032 696.39 135.387C697.263 134.743 697.836 133.764 698.11 132.449H701.251C700.828 134.692 699.893 136.38 698.447 137.514C697.001 138.649 695.181 139.216 692.987 139.216C691.441 139.216 690.095 138.958 688.948 138.442C687.826 137.927 686.879 137.205 686.106 136.277C685.333 135.349 684.747 134.241 684.348 132.952C683.974 131.663 683.762 130.258 683.712 128.737C683.712 127.216 683.936 125.823 684.385 124.56C684.834 123.297 685.458 122.202 686.255 121.274C687.078 120.346 688.038 119.624 689.135 119.108C690.257 118.593 691.479 118.335 692.8 118.335ZM713.859 118.335C714.956 118.335 715.966 118.438 716.888 118.644C717.811 118.825 718.621 119.16 719.319 119.65C720.042 120.114 720.616 120.759 721.04 121.584C721.463 122.383 721.712 123.388 721.787 124.599H718.608C718.558 123.955 718.397 123.427 718.123 123.014C717.848 122.576 717.499 122.227 717.075 121.969C716.651 121.712 716.177 121.532 715.654 121.428C715.155 121.3 714.644 121.235 714.121 121.235C713.647 121.235 713.16 121.274 712.662 121.351C712.188 121.429 711.752 121.57 711.353 121.776C710.954 121.957 710.63 122.214 710.38 122.55C710.131 122.859 710.006 123.272 710.006 123.787C710.006 124.354 710.194 124.832 710.568 125.219C710.967 125.579 711.466 125.889 712.064 126.146C712.662 126.378 713.336 126.584 714.083 126.764C714.831 126.919 715.579 127.087 716.327 127.267C717.124 127.448 717.898 127.667 718.646 127.925C719.419 128.182 720.092 128.53 720.666 128.969C721.264 129.381 721.737 129.91 722.086 130.554C722.46 131.199 722.647 131.998 722.647 132.952C722.647 134.163 722.398 135.168 721.899 135.968C721.425 136.767 720.789 137.411 719.992 137.901C719.219 138.391 718.334 138.727 717.336 138.907C716.364 139.113 715.392 139.216 714.419 139.216C713.347 139.216 712.325 139.1 711.353 138.868C710.381 138.636 709.521 138.262 708.773 137.747C708.025 137.205 707.427 136.509 706.978 135.658C706.529 134.782 706.28 133.725 706.23 132.488H709.409C709.434 133.21 709.596 133.828 709.895 134.344C710.194 134.833 710.581 135.233 711.054 135.543C711.553 135.826 712.101 136.032 712.7 136.161C713.323 136.29 713.959 136.354 714.607 136.354C715.105 136.354 715.629 136.315 716.177 136.238C716.726 136.161 717.225 136.019 717.673 135.813C718.147 135.607 718.533 135.31 718.833 134.924C719.132 134.511 719.282 133.995 719.282 133.377C719.282 132.526 718.969 131.882 718.346 131.444C717.723 131.006 716.938 130.657 715.991 130.399C715.068 130.116 714.058 129.871 712.961 129.665C711.865 129.433 710.842 129.124 709.895 128.737C708.973 128.325 708.199 127.758 707.576 127.036C706.952 126.314 706.641 125.308 706.641 124.019C706.641 123.014 706.853 122.15 707.277 121.428C707.726 120.707 708.286 120.126 708.959 119.688C709.658 119.224 710.431 118.89 711.279 118.683C712.151 118.451 713.011 118.335 713.859 118.335ZM797.433 138.791H794.254V136.084H794.179C793.656 137.192 792.833 137.991 791.711 138.481C790.59 138.971 789.355 139.216 788.009 139.216C786.513 139.216 785.204 138.932 784.083 138.365C782.986 137.798 782.063 137.038 781.315 136.084C780.592 135.13 780.043 134.022 779.669 132.759C779.295 131.495 779.108 130.155 779.108 128.737C779.108 127.319 779.283 125.979 779.632 124.716C780.006 123.452 780.555 122.357 781.278 121.428C782.026 120.475 782.948 119.728 784.044 119.186C785.166 118.619 786.463 118.335 787.934 118.335C788.433 118.335 788.969 118.387 789.542 118.49C790.116 118.593 790.689 118.773 791.262 119.031C791.836 119.263 792.372 119.585 792.871 119.998C793.394 120.384 793.83 120.875 794.179 121.468H794.254V111.181H797.433V138.791ZM812.982 118.335C814.702 118.335 816.124 118.709 817.246 119.457C818.392 120.179 819.302 121.107 819.975 122.241C820.673 123.375 821.148 124.612 821.397 125.953C821.671 127.293 821.783 128.569 821.733 129.781H807.26C807.235 130.657 807.335 131.496 807.559 132.295C807.783 133.068 808.145 133.764 808.644 134.383C809.143 134.975 809.778 135.452 810.551 135.813C811.324 136.174 812.234 136.354 813.281 136.354C814.627 136.354 815.724 136.032 816.572 135.387C817.444 134.743 818.018 133.764 818.292 132.449H821.434C821.01 134.692 820.075 136.38 818.629 137.514C817.183 138.649 815.363 139.215 813.169 139.216C811.624 139.216 810.277 138.958 809.13 138.442C808.008 137.927 807.06 137.205 806.288 136.277C805.515 135.349 804.929 134.241 804.53 132.952C804.156 131.663 803.944 130.258 803.894 128.737C803.894 127.216 804.119 125.823 804.568 124.56C805.017 123.297 805.639 122.202 806.437 121.274C807.26 120.346 808.22 119.624 809.317 119.108C810.439 118.593 811.661 118.335 812.982 118.335ZM834.041 118.335C835.137 118.335 836.147 118.438 837.07 118.644C837.992 118.825 838.803 119.16 839.501 119.65C840.224 120.114 840.797 120.759 841.221 121.584C841.645 122.383 841.894 123.388 841.969 124.599H838.791C838.741 123.955 838.578 123.427 838.304 123.014C838.03 122.576 837.681 122.227 837.257 121.969C836.834 121.712 836.36 121.532 835.836 121.428C835.338 121.3 834.827 121.235 834.303 121.235C833.83 121.235 833.343 121.274 832.844 121.351C832.371 121.429 831.934 121.57 831.536 121.776C831.137 121.957 830.812 122.215 830.563 122.55C830.314 122.859 830.189 123.272 830.189 123.787C830.189 124.354 830.376 124.832 830.75 125.219C831.148 125.579 831.647 125.888 832.246 126.146C832.844 126.378 833.517 126.584 834.265 126.764C835.013 126.919 835.761 127.087 836.509 127.267C837.307 127.448 838.08 127.667 838.828 127.925C839.6 128.182 840.274 128.53 840.847 128.969C841.446 129.381 841.919 129.91 842.268 130.554C842.642 131.199 842.83 131.998 842.83 132.952C842.83 134.163 842.58 135.168 842.082 135.968C841.608 136.767 840.972 137.411 840.174 137.901C839.401 138.391 838.516 138.727 837.519 138.907C836.547 139.113 835.574 139.216 834.602 139.216C833.53 139.216 832.508 139.1 831.536 138.868C830.563 138.636 829.703 138.262 828.955 137.747C828.207 137.205 827.608 136.509 827.16 135.658C826.711 134.782 826.461 133.725 826.412 132.488H829.59C829.615 133.21 829.778 133.828 830.077 134.344C830.376 134.833 830.762 135.233 831.236 135.543C831.734 135.826 832.283 136.032 832.881 136.161C833.505 136.29 834.14 136.354 834.789 136.354C835.287 136.354 835.811 136.315 836.36 136.238C836.908 136.161 837.407 136.019 837.856 135.813C838.33 135.607 838.716 135.31 839.015 134.924C839.314 134.511 839.463 133.995 839.463 133.377C839.463 132.526 839.152 131.882 838.529 131.444C837.906 131.006 837.12 130.657 836.172 130.399C835.25 130.116 834.24 129.871 833.143 129.665C832.046 129.433 831.024 129.124 830.077 128.737C829.154 128.325 828.382 127.758 827.758 127.036C827.135 126.314 826.824 125.308 826.824 124.019C826.824 123.014 827.036 122.15 827.459 121.428C827.908 120.707 828.469 120.126 829.142 119.688C829.84 119.224 830.613 118.89 831.46 118.683C832.333 118.451 833.193 118.335 834.041 118.335ZM886.13 118.335C887.676 118.335 889.023 118.606 890.169 119.147C891.341 119.689 892.326 120.437 893.124 121.39C893.921 122.318 894.521 123.427 894.919 124.716C895.318 125.979 895.517 127.345 895.517 128.814C895.517 130.283 895.318 131.65 894.919 132.913C894.521 134.176 893.921 135.284 893.124 136.238C892.326 137.166 891.341 137.901 890.169 138.442C889.023 138.958 887.676 139.216 886.13 139.216C884.61 139.216 883.263 138.958 882.091 138.442C880.92 137.901 879.935 137.166 879.137 136.238C878.34 135.284 877.741 134.176 877.342 132.913C876.943 131.65 876.744 130.284 876.744 128.814C876.744 127.345 876.943 125.979 877.342 124.716C877.741 123.427 878.34 122.318 879.137 121.39C879.935 120.437 880.92 119.689 882.091 119.147C883.263 118.606 884.61 118.335 886.13 118.335ZM929.595 118.335C930.692 118.335 931.701 118.438 932.624 118.644C933.546 118.825 934.357 119.16 935.055 119.65C935.778 120.114 936.351 120.759 936.775 121.584C937.199 122.383 937.448 123.388 937.523 124.599H934.344C934.294 123.955 934.132 123.427 933.858 123.014C933.584 122.576 933.235 122.227 932.811 121.969C932.387 121.712 931.914 121.532 931.39 121.428C930.892 121.3 930.38 121.235 929.857 121.235C929.383 121.235 928.897 121.274 928.398 121.351C927.924 121.429 927.488 121.57 927.089 121.776C926.691 121.957 926.366 122.215 926.117 122.55C925.867 122.859 925.743 123.272 925.743 123.787C925.743 124.354 925.93 124.832 926.304 125.219C926.703 125.579 927.201 125.889 927.799 126.146C928.398 126.378 929.071 126.584 929.819 126.764C930.567 126.919 931.315 127.087 932.063 127.267C932.861 127.448 933.634 127.667 934.381 127.925C935.154 128.182 935.828 128.53 936.401 128.969C936.999 129.381 937.474 129.91 937.823 130.554C938.197 131.199 938.383 131.998 938.383 132.952C938.383 134.163 938.134 135.168 937.635 135.968C937.162 136.767 936.526 137.411 935.728 137.901C934.955 138.391 934.07 138.727 933.073 138.907C932.1 139.113 931.128 139.216 930.156 139.216C929.084 139.216 928.062 139.1 927.089 138.868C926.117 138.636 925.256 138.262 924.508 137.747C923.76 137.205 923.162 136.509 922.713 135.658C922.265 134.782 922.015 133.725 921.965 132.488H925.144C925.169 133.21 925.331 133.828 925.63 134.344C925.93 134.833 926.316 135.233 926.79 135.543C927.288 135.826 927.837 136.032 928.435 136.161C929.058 136.29 929.695 136.354 930.343 136.354C930.842 136.354 931.365 136.315 931.914 136.238C932.462 136.161 932.961 136.019 933.41 135.813C933.883 135.607 934.27 135.31 934.569 134.924C934.868 134.511 935.017 133.995 935.017 133.377C935.017 132.526 934.706 131.882 934.083 131.444C933.459 131.006 932.673 130.657 931.726 130.399C930.804 130.116 929.794 129.871 928.698 129.665C927.601 129.433 926.578 129.124 925.63 128.737C924.708 128.325 923.935 127.758 923.312 127.036C922.689 126.314 922.377 125.308 922.377 124.019C922.377 123.014 922.589 122.15 923.013 121.428C923.462 120.707 924.023 120.126 924.696 119.688C925.394 119.224 926.167 118.89 927.014 118.683C927.887 118.451 928.748 118.335 929.595 118.335ZM219.815 114.275H204.931V123.052H218.805V126.146H204.931V135.697H219.927V138.791H201.378V111.181H219.815V114.275ZM233.44 135.466H233.515L238.788 118.8H242.117L235.048 138.791H231.645L224.464 118.8H228.017L233.44 135.466ZM280.416 118.335V121.815C279.144 121.815 278.06 121.995 277.163 122.356C276.265 122.717 275.541 123.246 274.993 123.942C274.444 124.638 274.046 125.489 273.796 126.494C273.547 127.473 273.422 128.608 273.422 129.897V138.791H270.244V118.8H273.236V123.014H273.31C274.083 121.39 275.031 120.191 276.153 119.418C277.275 118.645 278.696 118.283 280.416 118.335ZM311.157 118.8H315.009V121.699H311.157V134.112C311.157 134.499 311.182 134.808 311.232 135.04C311.307 135.272 311.431 135.452 311.606 135.581C311.78 135.71 312.017 135.8 312.316 135.851C312.64 135.877 313.052 135.89 313.55 135.89H315.009V138.791H312.578C311.755 138.791 311.044 138.739 310.446 138.635C309.873 138.507 309.399 138.288 309.025 137.978C308.676 137.669 308.414 137.231 308.24 136.664C308.065 136.097 307.978 135.349 307.978 134.421V121.699H304.687V118.8H307.978V112.805H311.157V118.8ZM324.336 121.738H324.412C324.661 121.119 325.01 120.604 325.458 120.191C325.907 119.753 326.406 119.405 326.955 119.147C327.528 118.864 328.114 118.657 328.712 118.528C329.336 118.399 329.934 118.335 330.507 118.335C331.779 118.335 332.838 118.516 333.686 118.877C334.534 119.238 335.219 119.74 335.743 120.385C336.266 121.029 336.628 121.803 336.828 122.705C337.052 123.581 337.165 124.561 337.165 125.643V138.791H333.986V125.257C333.986 124.019 333.636 123.04 332.938 122.318C332.24 121.596 331.281 121.235 330.059 121.235C329.087 121.235 328.239 121.39 327.516 121.699C326.818 122.008 326.232 122.447 325.758 123.014C325.285 123.582 324.923 124.252 324.673 125.025C324.449 125.773 324.336 126.598 324.336 127.5V138.791H321.158V111.181H324.336V121.738ZM347.922 138.791H344.744V118.8H347.922V138.791ZM364.814 118.335C366.085 118.335 367.145 118.516 367.993 118.877C368.84 119.238 369.526 119.74 370.049 120.385C370.573 121.029 370.935 121.803 371.134 122.705C371.359 123.581 371.471 124.561 371.471 125.643V138.791H368.292V125.257C368.291 124.019 367.943 123.04 367.245 122.318C366.547 121.596 365.586 121.235 364.365 121.235C363.393 121.235 362.545 121.39 361.822 121.699C361.124 122.008 360.538 122.447 360.064 123.014C359.59 123.581 359.229 124.252 358.98 125.025C358.756 125.773 358.643 126.598 358.643 127.5V138.791H355.464V118.8H358.457V121.969H358.531C359.852 119.546 361.947 118.335 364.814 118.335ZM420.394 118.8H424.247V121.699H420.394V134.112C420.394 134.499 420.419 134.808 420.469 135.04C420.544 135.272 420.669 135.452 420.843 135.581C421.018 135.71 421.255 135.8 421.554 135.851C421.878 135.877 422.289 135.89 422.788 135.89H424.247V138.791H421.816C420.993 138.791 420.282 138.739 419.684 138.635C419.111 138.507 418.637 138.288 418.263 137.978C417.914 137.669 417.652 137.231 417.477 136.664C417.303 136.097 417.215 135.349 417.215 134.421V121.699H413.924V118.8H417.215V112.805H420.394V118.8ZM433.575 121.738H433.649C433.898 121.119 434.248 120.604 434.697 120.191C435.145 119.753 435.644 119.405 436.192 119.147C436.765 118.864 437.351 118.657 437.95 118.528C438.573 118.399 439.171 118.335 439.745 118.335C441.016 118.335 442.077 118.516 442.924 118.877C443.772 119.238 444.457 119.74 444.981 120.385C445.504 121.029 445.865 121.803 446.065 122.705C446.289 123.581 446.402 124.561 446.402 125.643V138.791H443.223V125.257C443.223 124.019 442.874 123.04 442.176 122.318C441.478 121.596 440.518 121.235 439.296 121.235C438.324 121.235 437.476 121.39 436.753 121.699C436.055 122.008 435.469 122.447 434.996 123.014C434.522 123.581 434.16 124.252 433.911 125.025C433.686 125.773 433.575 126.598 433.575 127.5V138.791H430.396V111.181H433.575V121.738ZM493.601 135.697H507.738V138.791H490.048V111.181H493.601V135.697ZM542.285 110.872C542.584 110.872 542.921 110.898 543.294 110.95C543.693 111.002 544.042 111.078 544.341 111.181V114.043C544.067 113.94 543.768 113.875 543.444 113.849C543.12 113.798 542.821 113.772 542.546 113.772C541.774 113.772 541.175 113.927 540.751 114.236C540.328 114.545 540.116 115.139 540.116 116.015V118.8H543.855V121.699H540.116V138.791H536.936V121.699H533.683V118.8H536.936V115.822C536.936 114.198 537.385 112.973 538.283 112.148C539.205 111.297 540.539 110.872 542.285 110.872ZM553.724 118.8H557.577V121.699H553.724V134.112C553.724 134.499 553.749 134.808 553.799 135.04C553.874 135.272 553.999 135.452 554.173 135.581C554.348 135.71 554.584 135.8 554.883 135.851C555.207 135.877 555.619 135.89 556.118 135.89H557.577V138.791H555.145C554.322 138.791 553.611 138.739 553.013 138.635C552.44 138.507 551.966 138.288 551.592 137.978C551.243 137.669 550.982 137.231 550.807 136.664C550.633 136.097 550.545 135.349 550.545 134.421V121.699H547.254V118.8H550.545V112.805H553.724V118.8ZM581.165 118.8H585.017V121.699H581.165V134.112C581.165 134.499 581.19 134.808 581.24 135.04C581.315 135.272 581.439 135.452 581.614 135.581C581.788 135.71 582.025 135.8 582.324 135.851C582.648 135.877 583.06 135.89 583.558 135.89H585.017V138.791H582.585C581.763 138.791 581.053 138.739 580.455 138.635C579.881 138.507 579.407 138.288 579.033 137.978C578.684 137.669 578.422 137.231 578.248 136.664C578.073 136.097 577.986 135.349 577.986 134.421V121.699H574.695V118.8H577.986V112.805H581.165V118.8ZM664.54 121.738H664.615C664.864 121.119 665.213 120.604 665.662 120.191C666.11 119.753 666.609 119.405 667.158 119.147C667.731 118.864 668.317 118.657 668.916 118.528C669.539 118.399 670.137 118.335 670.71 118.335C671.982 118.335 673.042 118.516 673.889 118.877C674.737 119.238 675.422 119.74 675.946 120.385C676.469 121.029 676.831 121.803 677.031 122.705C677.255 123.581 677.367 124.561 677.367 125.643V138.791H674.188V125.257C674.188 124.019 673.839 123.04 673.141 122.318C672.443 121.596 671.483 121.235 670.261 121.235C669.289 121.235 668.441 121.39 667.718 121.699C667.02 122.008 666.434 122.447 665.96 123.014C665.487 123.581 665.126 124.252 664.876 125.025C664.652 125.773 664.54 126.598 664.54 127.5V138.791H661.361V111.181H664.54V121.738ZM745.172 138.791H741.994V118.8H745.172V138.791ZM757.127 118.8H760.98V121.699H757.127V134.112C757.127 134.499 757.153 134.808 757.203 135.04C757.277 135.272 757.402 135.452 757.577 135.581C757.751 135.71 757.988 135.8 758.288 135.851C758.612 135.877 759.023 135.89 759.521 135.89H760.98V138.791H758.549C757.727 138.791 757.016 138.739 756.417 138.635C755.844 138.507 755.371 138.288 754.997 137.978C754.648 137.669 754.385 137.231 754.21 136.664C754.036 136.097 753.949 135.349 753.949 134.421V121.699H750.658V118.8H753.949V112.805H757.127V118.8ZM853.375 118.8H857.227V121.699H853.375V134.112C853.375 134.499 853.401 134.808 853.451 135.04C853.526 135.272 853.65 135.452 853.825 135.581C853.999 135.71 854.236 135.8 854.535 135.851C854.859 135.877 855.27 135.89 855.769 135.89H857.227V138.791H854.796C853.974 138.791 853.264 138.739 852.666 138.635C852.092 138.507 851.618 138.288 851.244 137.978C850.895 137.669 850.633 137.231 850.458 136.664C850.284 136.097 850.197 135.349 850.197 134.421V121.699H846.906V118.8H850.197V112.805H853.375V118.8ZM873.437 118.335V121.815C872.166 121.815 871.081 121.995 870.183 122.356C869.286 122.717 868.563 123.246 868.014 123.942C867.466 124.638 867.067 125.489 866.818 126.494C866.569 127.473 866.444 128.608 866.444 129.897V138.791H863.264V118.8H866.256V123.014H866.332C867.104 121.39 868.051 120.191 869.173 119.418C870.295 118.644 871.717 118.283 873.437 118.335ZM949.378 138.791H945.227V134.499H949.378V138.791ZM599.505 121.235C598.683 121.235 597.898 121.403 597.15 121.738C596.427 122.073 595.791 122.563 595.243 123.208C594.694 123.852 594.257 124.651 593.933 125.605C593.634 126.533 593.485 127.603 593.485 128.814C593.485 130.026 593.634 131.108 593.933 132.062C594.257 132.99 594.694 133.776 595.243 134.421C595.791 135.039 596.427 135.516 597.15 135.851C597.898 136.186 598.683 136.354 599.505 136.354C600.328 136.354 601.102 136.186 601.825 135.851C602.572 135.516 603.221 135.039 603.769 134.421C604.317 133.776 604.741 132.99 605.041 132.062C605.365 131.108 605.527 130.026 605.527 128.814C605.527 127.603 605.365 126.533 605.041 125.605C604.741 124.652 604.317 123.852 603.769 123.208C603.221 122.563 602.572 122.073 601.825 121.738C601.102 121.403 600.328 121.235 599.505 121.235ZM788.271 121.235C787.199 121.235 786.288 121.454 785.541 121.892C784.793 122.331 784.194 122.911 783.746 123.633C783.297 124.354 782.972 125.179 782.773 126.107C782.574 127.035 782.474 127.989 782.474 128.969C782.474 129.897 782.587 130.812 782.811 131.715C783.06 132.591 783.421 133.377 783.895 134.073C784.394 134.769 785.017 135.324 785.765 135.736C786.538 136.148 787.435 136.354 788.458 136.354C789.53 136.354 790.44 136.135 791.188 135.697C791.936 135.259 792.546 134.692 793.02 133.996C793.494 133.274 793.83 132.462 794.03 131.559C794.254 130.657 794.367 129.742 794.367 128.814C794.367 127.835 794.254 126.893 794.03 125.991C793.805 125.063 793.444 124.251 792.946 123.555C792.472 122.859 791.849 122.305 791.076 121.892C790.303 121.454 789.368 121.235 788.271 121.235ZM886.13 121.235C885.308 121.235 884.523 121.403 883.775 121.738C883.052 122.073 882.416 122.563 881.868 123.208C881.319 123.852 880.882 124.651 880.558 125.605C880.259 126.533 880.11 127.603 880.11 128.814C880.11 130.026 880.259 131.108 880.558 132.062C880.882 132.99 881.319 133.776 881.868 134.421C882.416 135.039 883.052 135.516 883.775 135.851C884.523 136.186 885.308 136.354 886.13 136.354C886.953 136.354 887.727 136.186 888.45 135.851C889.197 135.516 889.846 135.039 890.394 134.421C890.942 133.776 891.366 132.99 891.666 132.062C891.99 131.108 892.152 130.026 892.152 128.814C892.152 127.603 891.99 126.533 891.666 125.605C891.366 124.652 890.942 123.852 890.394 123.208C889.846 122.563 889.197 122.073 888.45 121.738C887.727 121.403 886.953 121.235 886.13 121.235ZM386.904 121.235C385.882 121.235 385.009 121.442 384.286 121.854C383.563 122.241 382.964 122.769 382.491 123.439C382.042 124.109 381.705 124.883 381.481 125.76C381.282 126.636 381.181 127.551 381.181 128.505C381.181 129.407 381.268 130.309 381.443 131.212C381.617 132.114 381.917 132.939 382.341 133.686C382.765 134.408 383.326 135.002 384.024 135.466C384.722 135.904 385.594 136.123 386.641 136.123C387.688 136.123 388.573 135.904 389.296 135.466C390.044 135.002 390.644 134.408 391.092 133.686C391.541 132.939 391.865 132.101 392.064 131.173C392.288 130.245 392.401 129.316 392.401 128.388C392.401 127.512 392.301 126.648 392.102 125.798C391.903 124.947 391.578 124.187 391.129 123.516C390.706 122.821 390.145 122.267 389.447 121.854C388.749 121.442 387.901 121.235 386.904 121.235ZM255.504 121.235C254.682 121.235 253.934 121.39 253.261 121.699C252.613 121.983 252.051 122.383 251.578 122.898C251.104 123.414 250.731 124.02 250.457 124.716C250.182 125.386 250.02 126.107 249.97 126.881H261.077C261.027 126.107 260.852 125.372 260.553 124.677C260.279 123.981 259.893 123.388 259.394 122.898C258.92 122.383 258.347 121.983 257.674 121.699C257.026 121.39 256.302 121.235 255.504 121.235ZM461.648 121.235C460.825 121.235 460.077 121.39 459.404 121.699C458.756 121.983 458.195 122.383 457.721 122.898C457.247 123.414 456.873 124.02 456.599 124.716C456.325 125.386 456.163 126.107 456.113 126.881H467.22C467.17 126.107 466.995 125.372 466.696 124.677C466.456 124.068 466.13 123.538 465.718 123.087L465.355 122.71C464.919 122.284 464.406 121.947 463.817 121.699C463.169 121.39 462.446 121.235 461.648 121.235ZM520.777 121.235C519.954 121.235 519.206 121.39 518.533 121.699C517.884 121.983 517.324 122.383 516.85 122.898C516.376 123.414 516.002 124.02 515.728 124.716C515.454 125.386 515.292 126.107 515.242 126.881H526.349C526.299 126.107 526.125 125.372 525.826 124.677C525.551 123.981 525.164 123.388 524.666 122.898C524.192 122.383 523.619 121.983 522.946 121.699C522.298 121.39 521.575 121.235 520.777 121.235ZM692.613 121.235C691.79 121.235 691.042 121.39 690.369 121.699C689.72 121.983 689.16 122.383 688.686 122.898C688.212 123.414 687.838 124.02 687.564 124.716C687.29 125.386 687.128 126.107 687.078 126.881H698.185C698.135 126.107 697.961 125.372 697.662 124.677C697.387 123.981 697.001 123.388 696.502 122.898C696.029 122.383 695.455 121.983 694.782 121.699C694.134 121.39 693.411 121.235 692.613 121.235ZM812.795 121.235C811.973 121.235 811.224 121.39 810.551 121.699C809.903 121.983 809.342 122.383 808.869 122.898C808.395 123.414 808.021 124.02 807.747 124.716C807.472 125.386 807.31 126.107 807.26 126.881H818.368C818.318 126.107 818.142 125.372 817.843 124.677C817.603 124.068 817.277 123.538 816.866 123.087L816.502 122.71C816.066 122.284 815.553 121.947 814.964 121.699C814.316 121.39 813.593 121.235 812.795 121.235ZM347.922 115.203H344.744V111.181H347.922V115.203ZM745.172 115.203H741.994V111.181H745.172V115.203Z"
      fill="white" />
    <rect x="999" y="0.378418" width="145" height="145" rx="22.4653" transform="rotate(3 999 0.378418)"
      fill="#B7B7B7" />
    <path
      d="M1052.01 46.5361C1051.74 51.7077 1047.33 55.6804 1042.15 55.4093C1036.98 55.1383 1033.01 50.7262 1033.28 45.5546C1033.55 40.3831 1037.96 36.4104 1043.14 36.6814C1048.31 36.9524 1052.28 41.3645 1052.01 46.5361Z"
      fill="black" />
    <path
      d="M1105.18 45.6111C1104.91 50.7826 1100.5 54.7553 1095.33 54.4843C1090.15 54.2132 1086.18 49.8011 1086.45 44.6296C1086.72 39.458 1091.14 35.4853 1096.31 35.7564C1101.48 36.0274 1105.45 40.4395 1105.18 45.6111Z"
      fill="black" />
    <path
      d="M1070.09 55.0861C1071.74 54.593 1073.48 55.5339 1073.98 57.188L1083.68 89.7533C1084.54 92.6391 1082.04 95.411 1079.08 94.8496L1054.48 90.1816L1054.32 90.1469C1052.72 89.7567 1051.68 88.1707 1051.99 86.5278C1052.3 84.8848 1053.85 83.788 1055.49 84.0139L1055.64 84.0398L1076.64 88.0232L1067.99 58.9745C1067.49 57.3203 1068.43 55.5792 1070.09 55.0861Z"
      fill="black" />
    <path
      d="M1092.3 113.928L1092.46 113.941C1094.1 114.111 1095.34 115.543 1095.25 117.213C1095.16 118.883 1093.78 120.178 1092.13 120.175L1091.97 120.171L1040.24 117.46C1038.52 117.37 1037.19 115.899 1037.29 114.175C1037.38 112.451 1038.85 111.126 1040.57 111.217L1092.3 113.928Z"
      fill="black" />
  </g>
  <defs>
    <clipPath id="clip0_94_1558">
      <rect width="1150" height="153" fill="white" />
    </clipPath>
  </defs>
</svg>