<?xml version="1.0" encoding="UTF-8" standalone="no"?>
<svg width="65" height="65" viewBox="0 0 65 65" fill="none" xmlns="http://www.w3.org/2000/svg">
  <!-- Remove the mask that might be causing issues -->
  <path
    d="M0.5 10.0147C0.5 4.49185 4.97715 0.0146942 10.5 0.0146942H54.5C60.0228 0.0146942 64.5 4.49185 64.5 10.0147V54.0147C64.5 59.5375 60.0228 64.0147 54.5 64.0147H10.5C4.97715 64.0147 0.5 59.5375 0.5 54.0147V10.0147Z"
    fill="#68D2FF" />
  <circle cx="20.972" cy="21.878" r="4.17391" fill="black" />
  <circle cx="45.618" cy="21.878" r="4.17391" fill="black" />
  <path d="M33.8408 26.2507L38.8542 41.1455C38.9484 41.4253 38.7156 41.7065 38.4231 41.6661L27.531 40.1638"
    stroke="black" stroke-width="2.78261" stroke-linecap="round" />
  <path
    d="M45.8167 50.1016C45.8167 50.1016 41.2453 51.2942 35.8788 51.2942C30.5124 51.2942 23.1584 50.1016 23.1584 50.1016"
    stroke="black" stroke-width="2.78261" stroke-linecap="round" />
  <path d="M18.642 52.868C18.642 52.868 18.1053 50.8622 18.6924 48.8062C19.2794 46.7501 20.8396 45.171 20.8396 45.171"
    stroke="black" stroke-width="2.78261" stroke-linecap="round" />
  <path
    d="M10.2393 14.7228C10.2393 14.7228 11.4248 10.9464 16.4007 9.95257C21.3766 8.95878 30.115 12.5364 30.115 12.5364"
    stroke="black" stroke-width="2.78261" stroke-linecap="round" />
  <path d="M54.4306 14.2343C52.1411 11.536 45.1521 10.8047 38.7129 12.5983" stroke="black" stroke-width="2.78261"
    stroke-linecap="round" />
  <path
    d="M30.1459 12.5546C30.1459 12.5546 30.5879 11.366 30.6056 10.2795C30.6234 9.19294 30.5543 8.73646 30.5543 8.73646"
    stroke="black" stroke-width="2.78261" stroke-linecap="round" />
</svg>
